<svg version="1.1" id="Layer_1" xmlns="http://www.w3.org/2000/svg" xmlns:xlink="http://www.w3.org/1999/xlink" x="0px" y="0px"
	 viewBox="0 0 1000 1000" style="enable-background:new 0 0 1000 1000;" xml:space="preserve">
<style type="text/css">
	.st0{fill:#F16C21;}
	.st1{fill:#0D3D55;}
	.st2{fill:#F2F2F2;stroke:#808080;stroke-miterlimit:10;}
	.st3{opacity:0.43;fill:none;stroke:#F16C21;stroke-width:2;stroke-linecap:round;stroke-miterlimit:10;}
	.st4{fill:#FFFFFF;}
	.st5{fill:none;stroke:#808080;stroke-miterlimit:10;}
	.st6{fill:#FFFFFF;stroke:#808080;stroke-miterlimit:10;}
	.st7{fill:#FFFFFF;stroke:#1D97C1;stroke-miterlimit:10;}
	.st8{fill:none;stroke:#1D97C1;stroke-miterlimit:10;}
	.st9{fill:#1495B9;}
	.st10{fill:none;stroke:#1495B9;stroke-miterlimit:10;}
	.st11{fill:#FFFFFF;stroke:#1495B9;stroke-miterlimit:10;}
	.st12{display:none;}
	.st13{display:inline;opacity:0.11;}
	.st14{font-family:'Amsterdam-Four';}
	.st15{font-size:173.903px;}
	.st16{opacity:0.21;}
	.st17{font-size:93.7731px;}
	.st18{font-size:73px;}
</style>
<image style="display:none;overflow:visible;" width="1000" height="1000" xlink:href="C:\Users\hp\Downloads\WhatsApp Image 2020-06-09 at 21.40.45.jpeg"  transform="matrix(0.736 0 0 0.736 401 -171)">
</image>
<image style="display:none;overflow:visible;" width="1183" height="592" xlink:href="C:\Users\hp\Downloads\Color Hunt Palette 124653(1).png"  transform="matrix(1 0 0 1 952 111)">
</image>
<g>
	<g>
		<g>
			<g>
				<polygon class="st0" points="185.4,355.6 459.5,409.1 459.5,742 196.1,684.5 				"/>
				<polygon class="st1" points="799,355.6 525,409.1 525,742 788.3,684.5 				"/>
				<rect x="459.5" y="409.1" class="st1" width="65.5" height="332.9"/>
				<path class="st2" d="M492.2,409.1c0,0,18-54.8,106.3-70.9s148.6,26.2,177.9,21.8L525,409.1H492.2z"/>
				<path class="st2" d="M491.6,409.1c0,0-18-54.8-106.3-70.9S236.8,364.5,207.5,360l251.4,49.1H491.6z"/>
			</g>
			<line class="st3" x1="525.9" y1="459.8" x2="525.3" y2="736.7"/>
			<path class="st4" d="M342.6,617c0-8.8,7.1-16,16-16c3.3,0,19.8,24.8,34.8,45.9c10.7,15.1,20.7,28.3,24.5,29.3
				c9.1,2.3,6.8-9.1,6.8-9.1s-59.3-101.5-59.3-104.9c0-8.8,7.1-16,16-16c5.8,0,70.7,109.4,77.5,109.4c6.8,0,4.6-11.4,4.6-11.4
				S395,528.3,395,523.6c0-8.8,7.1-16,16-16c6.4,0,82.1,120.8,82.1,120.8s4.6,6.8,9.1,4.6s0-11.4,0-11.4s-57-100.6-57-104.9
				c0-8.8,7.1-16,16-16c7.5,0,98,150.5,98,150.5c6.8,6.8,20.5,0,20.5,0l25.7-41.8l0,0c3.2-5,8.9-8.4,15.3-8.4
				c10.1,0,18.2,8.2,18.2,18.2c0,3.9-1.3,7.6-3.4,10.5l-65,112.6c-22.8,50.2-54.7,61.6-54.7,61.6s-6.8,2.3-36.5,2.3
				c-29.6,0-52.4-38.8-52.4-38.8l-34.2-59.3C392.7,708.2,342.6,622.3,342.6,617z"/>
			<path class="st5" d="M247.9,367.8c0,0,48.5-24.2,128.7-16.2"/>
			<path class="st5" d="M365.9,371.7c0,0,67.3,2.7,112.5,37.4"/>
			<path class="st5" d="M394,355.6c0,0,65.2,16,92.1,53.5"/>
			<path class="st5" d="M733.5,367.6c0,0-80.2-30.7-127-9.4"/>
			<path class="st5" d="M517.3,409.1c0,0,39.7-45.5,105.2-42.8"/>
			<path class="st6" d="M644,366.3c0,0,32.1,0,54.8,8"/>
		</g>
		<g>
			<g>
				<polyline class="st1" points="334.4,209.5 354.8,215.6 363.9,240.8 338.6,227.1 				"/>
				<polyline class="st1" points="317.9,218 310.1,237.8 324.2,260.5 329.2,232.2 				"/>
				<path class="st1" d="M328.8,237l13.7-6.7c0.6-0.3,1.5,0.1,2,1l0,0c1.2,1.8,3,1.2,2.6-0.9c-1.3-6.7-3.9-14.5-7.7-22.5
					c-9.7-19.9-23.5-33.2-30.8-29.6c-7.4,3.6-5.5,22.6,4.2,42.5c4,8.3,8.8,15.4,13.4,20.7c1.4,1.5,2.9,0.5,2.3-1.5l-0.3-0.9
					C328,238.2,328.2,237.3,328.8,237z"/>
			</g>
			<path class="st1" d="M333.1,242.9c-1-0.9-0.8-2.4,0.4-3l3.9-1.9l3.9-1.9c1.2-0.6,2.5,0.2,2.6,1.5l0.3,6.2l0.3,4.7
				c0.1,1.6-1.8,2.5-3,1.5l-3.6-3.1L333.1,242.9z"/>
		</g>
		<g>
			<g>
				<path class="st7" d="M472.6,262.9c0,0,10.8-1.7,14.3-4.2v-1.1l-1.1-0.7l-13.2,3l-1.2,3L472.6,262.9z"/>
				<g>
					<path class="st1" d="M444,257.3l-12.6,5.3c0,0,10.5,13.7,34.1,7.7l8.1-8.4l-4.9-9.2l-13.3-4.9L444,257.3z"/>
					<path class="st1" d="M486.9,257.3C486.9,257.3,486.9,257.3,486.9,257.3L486.9,257.3c-0.2-11.7-9.7-21.1-21.4-21.1
						c-11.7,0-21.2,9.4-21.4,21.1c0,0,0,0,0,0c0,0.1,0,0.2,0,0.3c0,0,22.3,10.8,42.2,0h0.6C486.9,257.5,486.9,257.4,486.9,257.3z"/>
				</g>
			</g>
			<path class="st8" d="M471.6,237.1c0,0-11.7,7.4-16.3,24.1"/>
			<path class="st8" d="M469.2,236.5c0,0-12.8,5-17.1,23.9"/>
		</g>
		<g>
			<g>
				
					<rect x="452.6" y="155.3" transform="matrix(0.7071 -0.7071 0.7071 0.7071 31.1355 399.9198)" class="st1" width="91.5" height="14.2"/>
				<line class="st7" x1="530.6" y1="140.2" x2="524.2" y2="133.8"/>
				<line class="st7" x1="528.5" y1="142.2" x2="525" y2="138.7"/>
				<line class="st7" x1="526.6" y1="144.2" x2="520.2" y2="137.8"/>
				<line class="st7" x1="524.6" y1="146.2" x2="521" y2="142.7"/>
				<line class="st7" x1="522.6" y1="148.1" x2="516.2" y2="141.7"/>
				<line class="st7" x1="520.6" y1="150.2" x2="517.1" y2="146.6"/>
				<line class="st7" x1="518.6" y1="152.1" x2="512.2" y2="145.7"/>
				<line class="st7" x1="516.6" y1="154.1" x2="513.1" y2="150.6"/>
				<line class="st7" x1="514.7" y1="156.1" x2="508.3" y2="149.7"/>
				<line class="st7" x1="512.6" y1="158.1" x2="509.1" y2="154.6"/>
				<line class="st7" x1="510.7" y1="160.1" x2="504.3" y2="153.7"/>
				<line class="st7" x1="508.7" y1="162.1" x2="505.1" y2="158.6"/>
				<line class="st7" x1="506.7" y1="164" x2="500.3" y2="157.6"/>
				<line class="st7" x1="504.7" y1="166.1" x2="501.2" y2="162.5"/>
				<line class="st7" x1="502.7" y1="168" x2="496.3" y2="161.6"/>
				<line class="st7" x1="500.7" y1="170" x2="497.2" y2="166.5"/>
				<line class="st7" x1="498.8" y1="172" x2="492.4" y2="165.6"/>
				<line class="st7" x1="496.7" y1="174" x2="493.2" y2="170.5"/>
				<line class="st7" x1="494.8" y1="176" x2="488.4" y2="169.6"/>
				<line class="st7" x1="492.8" y1="178" x2="489.2" y2="174.5"/>
				<line class="st7" x1="490.8" y1="179.9" x2="484.4" y2="173.5"/>
				<line class="st7" x1="488.8" y1="182" x2="485.3" y2="178.4"/>
				<line class="st7" x1="486.8" y1="183.9" x2="480.4" y2="177.5"/>
				<line class="st7" x1="484.8" y1="185.9" x2="481.3" y2="182.4"/>
				<line class="st7" x1="482.9" y1="187.9" x2="476.5" y2="181.5"/>
				<line class="st7" x1="480.8" y1="189.9" x2="477.3" y2="186.4"/>
				<line class="st7" x1="478.9" y1="191.9" x2="472.5" y2="185.5"/>
				<line class="st7" x1="476.9" y1="193.9" x2="473.3" y2="190.4"/>
				<line class="st7" x1="474.9" y1="195.8" x2="468.5" y2="189.4"/>
				<line class="st7" x1="472.9" y1="197.9" x2="469.4" y2="194.3"/>
			</g>
			<g>
				<path class="st1" d="M467.7,150.5l4-4c0.8-0.8,2.1-0.8,2.8,0l44.7,44.7c0.8,0.8,0.8,2.1,0,2.8l-4.2,4.2c-0.8,0.8-2.1,0.8-2.8,0
					c-6.9-7.1-37.2-37.9-44.5-44.8C466.9,152.6,466.9,151.3,467.7,150.5z"/>
				<path class="st9" d="M519.9,191.7l2.6,9l-9.8-2.1c0,0,1.6-5.4,7-7"/>
				
					<rect x="471.1" y="152.6" transform="matrix(0.7071 -0.7071 0.7071 0.7071 30.0832 381.8009)" class="st9" width="9.6" height="3.9"/>
			</g>
		</g>
		<path class="st1" d="M660,245.2c0-1.1-0.1-2.2-0.2-3.3L670,233l-5.2-8.8l-11.8,5.1c-1.9-1.7-4.1-3.1-6.5-4.1l-2.2-12.7h-10.2
			l-1.6,12.1c-2.9,0.9-5.6,2.3-7.9,4.3l-9.6-4.3l-5.7,8.5l8.4,7.3c-0.3,1.5-0.5,3.1-0.5,4.7c0,1.6,0.2,3.1,0.5,4.6l-8.5,11.4l7,7.4
			l9.1-6.6c2,1.6,4.3,2.8,6.8,3.6l1.8,12.7l10.2,0.3l2.1-13.4c1.9-0.7,3.6-1.7,5.2-2.9l9.8,5.7l6.6-7.8l-8.6-9.4
			C659.7,249,660,247.1,660,245.2z M646.9,252.8c-8.4,6.4-17.8-0.3-16.5-8.5c0.6-4,3.9-7.3,8-8C646.6,235.1,653.3,244.4,646.9,252.8
			z"/>
		<path class="st10" d="M348.5,256.7c0,0,18.7,28.1,28.1,54.8"/>
		<path class="st10" d="M333.8,263.4c0,0,13.4,18.7,16,26.7"/>
		<line class="st11" x1="357.9" y1="302.1" x2="357.9" y2="306.2"/>
		<path class="st10" d="M464.8,278.1c0,0,6.7,37.4,6.7,56.2c0,18.7,0,16,0,16"/>
		<path class="st10" d="M486.2,278.1c0,0,10.7,61.5,5.3,96.3"/>
		<path class="st10" d="M521,209.9c0,0,28.1,61.5,26.7,124.3"/>
		<path class="st10" d="M534.3,168.4c0,0,21.4,48.1,28.1,115"/>
		<path class="st10" d="M500.9,204.5c0,0,17.4,42.8,21.4,93.6"/>
		<path class="st10" d="M617.2,276.7c0,0-10.7,24.1-10.7,40.1"/>
		<path class="st10" d="M602.5,263.4c0,0-20.2,36.2-19.5,78.2"/>
		<circle class="st10" cx="371.2" cy="262" r="5.3"/>
		<circle class="st10" cx="381.9" cy="322.2" r="5.3"/>
		<circle class="st10" cx="565.1" cy="296.8" r="5.3"/>
		<circle class="st10" cx="529" cy="319.5" r="5.3"/>
		<circle class="st10" cx="471.5" cy="362.3" r="5.3"/>
		<circle class="st10" cx="606.5" cy="327.5" r="5.3"/>
		<circle class="st10" cx="422" cy="267.4" r="5.3"/>
		<circle class="st10" cx="387.3" cy="229.9" r="5.3"/>
		<circle class="st10" cx="570.4" cy="184.5" r="5.3"/>
	</g>
	<g class="st12">
		<g class="st13">
			<image style="overflow:visible;" width="571" height="453" xlink:href="DB52511B.png"  transform="matrix(1 0 0 1 132 525)">
			</image>
		</g>
		<text transform="matrix(0.9996 2.839000e-02 -2.839000e-02 0.9996 162.8033 781.8889)" class="st1 st14 st15">Creare</text>
	</g>
</g>
<image style="display:none;overflow:visible;" width="183" height="275" xlink:href="C:\Users\hp\Downloads\images.jpg"  transform="matrix(2.6728 0 0 2.6728 156.9351 314.1708)">
</image>
<g>
	<text transform="matrix(1 0 0 1 179.9995 797.6191)" class="st16 st14 st17">Creare Foundation</text>
	<text transform="matrix(1 0 0 1 171.9995 797.5645)" class="st1 st14 st17">Creare Foundation</text>
</g>
<text transform="matrix(0.3181 0.9481 -0.9481 0.3181 328.84 775.3335)" class="st14 st18">`</text>
</svg>
