<svg width="214" height="29" viewBox="0 0 214 29" fill="none" xmlns="http://www.w3.org/2000/svg">
<circle cx="14.5" cy="14.5" r="14.5" fill="#27AE60" fill-opacity="0.5"/>
<path fill-rule="evenodd" clip-rule="evenodd" d="M12.0004 19.1996L7.80039 14.9996L6.40039 16.3996L12.0004 21.9996L24.0004 9.99961L22.6004 8.59961L12.0004 19.1996Z" fill="#27AE60"/>
<path d="M50.2559 15.2959C48.8086 14.8799 47.7539 14.3701 47.0918 13.7666C46.4355 13.1572 46.1074 12.4072 46.1074 11.5166C46.1074 10.5088 46.5088 9.67676 47.3115 9.02051C48.1201 8.3584 49.1689 8.02734 50.458 8.02734C51.3369 8.02734 52.1191 8.19727 52.8047 8.53711C53.4961 8.87695 54.0293 9.3457 54.4043 9.94336C54.7852 10.541 54.9756 11.1943 54.9756 11.9033H53.2793C53.2793 11.1299 53.0332 10.5234 52.541 10.084C52.0488 9.63867 51.3545 9.41602 50.458 9.41602C49.626 9.41602 48.9756 9.60059 48.5068 9.96973C48.0439 10.333 47.8125 10.8398 47.8125 11.4902C47.8125 12.0117 48.0322 12.4541 48.4717 12.8174C48.917 13.1748 49.6699 13.5029 50.7305 13.8018C51.7969 14.1006 52.6289 14.4316 53.2266 14.7949C53.8301 15.1523 54.2754 15.5713 54.5625 16.0518C54.8555 16.5322 55.002 17.0977 55.002 17.748C55.002 18.7852 54.5977 19.6172 53.7891 20.2441C52.9805 20.8652 51.8994 21.1758 50.5459 21.1758C49.667 21.1758 48.8467 21.0088 48.085 20.6748C47.3232 20.335 46.7344 19.8721 46.3184 19.2861C45.9082 18.7002 45.7031 18.0352 45.7031 17.291H47.3994C47.3994 18.0645 47.6836 18.6768 48.252 19.1279C48.8262 19.5732 49.5908 19.7959 50.5459 19.7959C51.4365 19.7959 52.1191 19.6143 52.5938 19.251C53.0684 18.8877 53.3057 18.3926 53.3057 17.7656C53.3057 17.1387 53.0859 16.6553 52.6465 16.3154C52.207 15.9697 51.4102 15.6299 50.2559 15.2959ZM62.7891 20.0596C62.1562 20.8037 61.2275 21.1758 60.0029 21.1758C58.9893 21.1758 58.2158 20.8828 57.6826 20.2969C57.1553 19.7051 56.8887 18.832 56.8828 17.6777V11.4902H58.5088V17.6338C58.5088 19.0752 59.0947 19.7959 60.2666 19.7959C61.5088 19.7959 62.335 19.333 62.7451 18.4072V11.4902H64.3711V21H62.8242L62.7891 20.0596ZM70.6641 19.8486C71.2441 19.8486 71.751 19.6729 72.1846 19.3213C72.6182 18.9697 72.8584 18.5303 72.9053 18.0029H74.4434C74.4141 18.5479 74.2266 19.0664 73.8809 19.5586C73.5352 20.0508 73.0723 20.4434 72.4922 20.7363C71.918 21.0293 71.3086 21.1758 70.6641 21.1758C69.3691 21.1758 68.3379 20.7451 67.5703 19.8838C66.8086 19.0166 66.4277 17.833 66.4277 16.333V16.0605C66.4277 15.1348 66.5977 14.3115 66.9375 13.5908C67.2773 12.8701 67.7637 12.3105 68.3965 11.9121C69.0352 11.5137 69.7881 11.3145 70.6553 11.3145C71.7217 11.3145 72.6064 11.6338 73.3096 12.2725C74.0186 12.9111 74.3965 13.7402 74.4434 14.7598H72.9053C72.8584 14.1445 72.624 13.6406 72.2021 13.248C71.7861 12.8496 71.2705 12.6504 70.6553 12.6504C69.8291 12.6504 69.1875 12.9492 68.7305 13.5469C68.2793 14.1387 68.0537 14.9971 68.0537 16.1221V16.4297C68.0537 17.5254 68.2793 18.3691 68.7305 18.9609C69.1816 19.5527 69.8262 19.8486 70.6641 19.8486ZM80.2178 21.1758C78.9287 21.1758 77.8799 20.7539 77.0713 19.9102C76.2627 19.0605 75.8584 17.9268 75.8584 16.5088V16.21C75.8584 15.2666 76.0371 14.4258 76.3945 13.6875C76.7578 12.9434 77.2617 12.3633 77.9062 11.9473C78.5566 11.5254 79.2598 11.3145 80.0156 11.3145C81.252 11.3145 82.2129 11.7217 82.8984 12.5361C83.584 13.3506 83.9268 14.5166 83.9268 16.0342V16.7109H77.4844C77.5078 17.6484 77.7803 18.4072 78.3018 18.9873C78.8291 19.5615 79.4971 19.8486 80.3057 19.8486C80.8799 19.8486 81.3662 19.7314 81.7646 19.4971C82.1631 19.2627 82.5117 18.9521 82.8105 18.5654L83.8037 19.3389C83.0068 20.5635 81.8115 21.1758 80.2178 21.1758ZM80.0156 12.6504C79.3594 12.6504 78.8086 12.8906 78.3633 13.3711C77.918 13.8457 77.6426 14.5137 77.5371 15.375H82.3008V15.252C82.2539 14.4258 82.0312 13.7871 81.6328 13.3359C81.2344 12.8789 80.6953 12.6504 80.0156 12.6504ZM91.3535 18.4775C91.3535 18.0381 91.1865 17.6982 90.8525 17.458C90.5244 17.2119 89.9473 17.001 89.1211 16.8252C88.3008 16.6494 87.6475 16.4385 87.1611 16.1924C86.6807 15.9463 86.3232 15.6533 86.0889 15.3135C85.8604 14.9736 85.7461 14.5693 85.7461 14.1006C85.7461 13.3213 86.0742 12.6621 86.7305 12.123C87.3926 11.584 88.2363 11.3145 89.2617 11.3145C90.3398 11.3145 91.2129 11.5928 91.8809 12.1494C92.5547 12.7061 92.8916 13.418 92.8916 14.2852H91.2568C91.2568 13.8398 91.0664 13.4561 90.6855 13.1338C90.3105 12.8115 89.8359 12.6504 89.2617 12.6504C88.6699 12.6504 88.207 12.7793 87.873 13.0371C87.5391 13.2949 87.3721 13.6318 87.3721 14.0479C87.3721 14.4404 87.5273 14.7363 87.8379 14.9355C88.1484 15.1348 88.708 15.3252 89.5166 15.5068C90.3311 15.6885 90.9902 15.9053 91.4941 16.1572C91.998 16.4092 92.3701 16.7139 92.6104 17.0713C92.8564 17.4229 92.9795 17.8535 92.9795 18.3633C92.9795 19.2129 92.6396 19.8955 91.96 20.4111C91.2803 20.9209 90.3984 21.1758 89.3145 21.1758C88.5527 21.1758 87.8789 21.041 87.293 20.7715C86.707 20.502 86.2471 20.127 85.9131 19.6465C85.585 19.1602 85.4209 18.6357 85.4209 18.0732H87.0469C87.0762 18.6182 87.293 19.0518 87.6973 19.374C88.1074 19.6904 88.6465 19.8486 89.3145 19.8486C89.9297 19.8486 90.4219 19.7256 90.791 19.4795C91.166 19.2275 91.3535 18.8936 91.3535 18.4775ZM100.635 18.4775C100.635 18.0381 100.468 17.6982 100.134 17.458C99.8057 17.2119 99.2285 17.001 98.4023 16.8252C97.582 16.6494 96.9287 16.4385 96.4424 16.1924C95.9619 15.9463 95.6045 15.6533 95.3701 15.3135C95.1416 14.9736 95.0273 14.5693 95.0273 14.1006C95.0273 13.3213 95.3555 12.6621 96.0117 12.123C96.6738 11.584 97.5176 11.3145 98.543 11.3145C99.6211 11.3145 100.494 11.5928 101.162 12.1494C101.836 12.7061 102.173 13.418 102.173 14.2852H100.538C100.538 13.8398 100.348 13.4561 99.9668 13.1338C99.5918 12.8115 99.1172 12.6504 98.543 12.6504C97.9512 12.6504 97.4883 12.7793 97.1543 13.0371C96.8203 13.2949 96.6533 13.6318 96.6533 14.0479C96.6533 14.4404 96.8086 14.7363 97.1191 14.9355C97.4297 15.1348 97.9893 15.3252 98.7979 15.5068C99.6123 15.6885 100.271 15.9053 100.775 16.1572C101.279 16.4092 101.651 16.7139 101.892 17.0713C102.138 17.4229 102.261 17.8535 102.261 18.3633C102.261 19.2129 101.921 19.8955 101.241 20.4111C100.562 20.9209 99.6797 21.1758 98.5957 21.1758C97.834 21.1758 97.1602 21.041 96.5742 20.7715C95.9883 20.502 95.5283 20.127 95.1943 19.6465C94.8662 19.1602 94.7021 18.6357 94.7021 18.0732H96.3281C96.3574 18.6182 96.5742 19.0518 96.9785 19.374C97.3887 19.6904 97.9277 19.8486 98.5957 19.8486C99.2109 19.8486 99.7031 19.7256 100.072 19.4795C100.447 19.2275 100.635 18.8936 100.635 18.4775ZM105.179 21V12.7471H103.676V11.4902H105.179V10.5146C105.179 9.49512 105.451 8.70703 105.996 8.15039C106.541 7.59375 107.312 7.31543 108.308 7.31543C108.683 7.31543 109.055 7.36523 109.424 7.46484L109.336 8.7832C109.061 8.73047 108.768 8.7041 108.457 8.7041C107.93 8.7041 107.522 8.85938 107.235 9.16992C106.948 9.47461 106.805 9.91406 106.805 10.4883V11.4902H108.835V12.7471H106.805V21H105.179ZM116.508 20.0596C115.875 20.8037 114.946 21.1758 113.722 21.1758C112.708 21.1758 111.935 20.8828 111.401 20.2969C110.874 19.7051 110.607 18.832 110.602 17.6777V11.4902H112.228V17.6338C112.228 19.0752 112.813 19.7959 113.985 19.7959C115.228 19.7959 116.054 19.333 116.464 18.4072V11.4902H118.09V21H116.543L116.508 20.0596ZM122.335 21H120.709V7.5H122.335V21ZM126.712 21H125.086V7.5H126.712V21ZM132.434 18.6182L134.648 11.4902H136.389L132.565 22.4678C131.974 24.0498 131.033 24.8408 129.744 24.8408L129.437 24.8145L128.83 24.7002V23.3818L129.27 23.417C129.82 23.417 130.248 23.3057 130.553 23.083C130.863 22.8604 131.118 22.4531 131.317 21.8613L131.678 20.8945L128.285 11.4902H130.061L132.434 18.6182ZM141.873 15.2959C140.426 14.8799 139.371 14.3701 138.709 13.7666C138.053 13.1572 137.725 12.4072 137.725 11.5166C137.725 10.5088 138.126 9.67676 138.929 9.02051C139.737 8.3584 140.786 8.02734 142.075 8.02734C142.954 8.02734 143.736 8.19727 144.422 8.53711C145.113 8.87695 145.646 9.3457 146.021 9.94336C146.402 10.541 146.593 11.1943 146.593 11.9033H144.896C144.896 11.1299 144.65 10.5234 144.158 10.084C143.666 9.63867 142.972 9.41602 142.075 9.41602C141.243 9.41602 140.593 9.60059 140.124 9.96973C139.661 10.333 139.43 10.8398 139.43 11.4902C139.43 12.0117 139.649 12.4541 140.089 12.8174C140.534 13.1748 141.287 13.5029 142.348 13.8018C143.414 14.1006 144.246 14.4316 144.844 14.7949C145.447 15.1523 145.893 15.5713 146.18 16.0518C146.473 16.5322 146.619 17.0977 146.619 17.748C146.619 18.7852 146.215 19.6172 145.406 20.2441C144.598 20.8652 143.517 21.1758 142.163 21.1758C141.284 21.1758 140.464 21.0088 139.702 20.6748C138.94 20.335 138.352 19.8721 137.936 19.2861C137.525 18.7002 137.32 18.0352 137.32 17.291H139.017C139.017 18.0645 139.301 18.6768 139.869 19.1279C140.443 19.5732 141.208 19.7959 142.163 19.7959C143.054 19.7959 143.736 19.6143 144.211 19.251C144.686 18.8877 144.923 18.3926 144.923 17.7656C144.923 17.1387 144.703 16.6553 144.264 16.3154C143.824 15.9697 143.027 15.6299 141.873 15.2959ZM154.406 20.0596C153.773 20.8037 152.845 21.1758 151.62 21.1758C150.606 21.1758 149.833 20.8828 149.3 20.2969C148.772 19.7051 148.506 18.832 148.5 17.6777V11.4902H150.126V17.6338C150.126 19.0752 150.712 19.7959 151.884 19.7959C153.126 19.7959 153.952 19.333 154.362 18.4072V11.4902H155.988V21H154.441L154.406 20.0596ZM166.518 16.3506C166.518 17.8037 166.184 18.9727 165.516 19.8574C164.848 20.7363 163.951 21.1758 162.826 21.1758C161.625 21.1758 160.696 20.751 160.04 19.9014L159.961 21H158.467V7.5H160.093V12.5361C160.749 11.7217 161.654 11.3145 162.809 11.3145C163.963 11.3145 164.868 11.751 165.524 12.624C166.187 13.4971 166.518 14.6924 166.518 16.21V16.3506ZM164.892 16.166C164.892 15.0586 164.678 14.2031 164.25 13.5996C163.822 12.9961 163.207 12.6943 162.404 12.6943C161.332 12.6943 160.562 13.1924 160.093 14.1885V18.3018C160.591 19.2979 161.367 19.7959 162.422 19.7959C163.201 19.7959 163.808 19.4941 164.241 18.8906C164.675 18.2871 164.892 17.3789 164.892 16.166ZM170.104 11.4902L170.147 12.5449C170.845 11.7246 171.785 11.3145 172.969 11.3145C174.299 11.3145 175.204 11.8242 175.685 12.8438C176.001 12.3867 176.411 12.0176 176.915 11.7363C177.425 11.4551 178.025 11.3145 178.717 11.3145C180.803 11.3145 181.863 12.4189 181.898 14.6279V21H180.272V14.7246C180.272 14.0449 180.117 13.5381 179.807 13.2041C179.496 12.8643 178.975 12.6943 178.242 12.6943C177.639 12.6943 177.138 12.876 176.739 13.2393C176.341 13.5967 176.109 14.0801 176.045 14.6895V21H174.41V14.7686C174.41 13.3857 173.733 12.6943 172.38 12.6943C171.313 12.6943 170.584 13.1484 170.191 14.0566V21H168.565V11.4902H170.104ZM186.126 21H184.5V11.4902H186.126V21ZM184.368 8.96777C184.368 8.7041 184.447 8.48145 184.605 8.2998C184.77 8.11816 185.01 8.02734 185.326 8.02734C185.643 8.02734 185.883 8.11816 186.047 8.2998C186.211 8.48145 186.293 8.7041 186.293 8.96777C186.293 9.23145 186.211 9.45117 186.047 9.62695C185.883 9.80273 185.643 9.89062 185.326 9.89062C185.01 9.89062 184.77 9.80273 184.605 9.62695C184.447 9.45117 184.368 9.23145 184.368 8.96777ZM190.942 9.1875V11.4902H192.718V12.7471H190.942V18.6445C190.942 19.0254 191.021 19.3125 191.18 19.5059C191.338 19.6934 191.607 19.7871 191.988 19.7871C192.176 19.7871 192.434 19.752 192.762 19.6816V21C192.334 21.1172 191.918 21.1758 191.514 21.1758C190.787 21.1758 190.239 20.9561 189.87 20.5166C189.501 20.0771 189.316 19.4531 189.316 18.6445V12.7471H187.585V11.4902H189.316V9.1875H190.942ZM198.571 21.1758C197.282 21.1758 196.233 20.7539 195.425 19.9102C194.616 19.0605 194.212 17.9268 194.212 16.5088V16.21C194.212 15.2666 194.391 14.4258 194.748 13.6875C195.111 12.9434 195.615 12.3633 196.26 11.9473C196.91 11.5254 197.613 11.3145 198.369 11.3145C199.605 11.3145 200.566 11.7217 201.252 12.5361C201.938 13.3506 202.28 14.5166 202.28 16.0342V16.7109H195.838C195.861 17.6484 196.134 18.4072 196.655 18.9873C197.183 19.5615 197.851 19.8486 198.659 19.8486C199.233 19.8486 199.72 19.7314 200.118 19.4971C200.517 19.2627 200.865 18.9521 201.164 18.5654L202.157 19.3389C201.36 20.5635 200.165 21.1758 198.571 21.1758ZM198.369 12.6504C197.713 12.6504 197.162 12.8906 196.717 13.3711C196.271 13.8457 195.996 14.5137 195.891 15.375H200.654V15.252C200.607 14.4258 200.385 13.7871 199.986 13.3359C199.588 12.8789 199.049 12.6504 198.369 12.6504ZM203.774 16.166C203.774 14.707 204.12 13.5352 204.812 12.6504C205.503 11.7598 206.408 11.3145 207.527 11.3145C208.641 11.3145 209.522 11.6953 210.173 12.457V7.5H211.799V21H210.305L210.226 19.9805C209.575 20.7773 208.67 21.1758 207.51 21.1758C206.408 21.1758 205.509 20.7246 204.812 19.8223C204.12 18.9199 203.774 17.7422 203.774 16.2891V16.166ZM205.4 16.3506C205.4 17.4287 205.623 18.2725 206.068 18.8818C206.514 19.4912 207.129 19.7959 207.914 19.7959C208.945 19.7959 209.698 19.333 210.173 18.4072V14.0391C209.687 13.1426 208.939 12.6943 207.932 12.6943C207.135 12.6943 206.514 13.002 206.068 13.6172C205.623 14.2324 205.4 15.1436 205.4 16.3506Z" fill="#27AE60"/>
</svg>
