<svg width="669" height="372" viewBox="0 0 669 372" fill="none" xmlns="http://www.w3.org/2000/svg">
<g clip-path="url(#clip0)">
<path d="M62.125 24.625C65.848 24.625 68.875 21.598 68.875 17.875C68.875 14.152 65.848 11.125 62.125 11.125C58.402 11.125 55.375 14.152 55.375 17.875C55.375 21.598 58.402 24.625 62.125 24.625ZM109.375 24.625C113.098 24.625 116.125 21.598 116.125 17.875C116.125 14.152 113.098 11.125 109.375 11.125C105.652 11.125 102.625 14.152 102.625 17.875C102.625 21.598 105.652 24.625 109.375 24.625ZM112.75 28H106C104.144 28 102.467 28.7488 101.243 29.9617C105.494 32.2926 108.51 36.5008 109.164 41.5H116.125C117.992 41.5 119.5 39.9918 119.5 38.125V34.75C119.5 31.027 116.473 28 112.75 28ZM85.75 28C92.2785 28 97.5625 22.716 97.5625 16.1875C97.5625 9.65898 92.2785 4.375 85.75 4.375C79.2215 4.375 73.9375 9.65898 73.9375 16.1875C73.9375 22.716 79.2215 28 85.75 28ZM93.85 31.375H92.9746C90.7809 32.4297 88.3445 33.0625 85.75 33.0625C83.1555 33.0625 80.7297 32.4297 78.5254 31.375H77.65C70.9422 31.375 65.5 36.8172 65.5 43.525V46.5625C65.5 49.3574 67.7676 51.625 70.5625 51.625H100.938C103.732 51.625 106 49.3574 106 46.5625V43.525C106 36.8172 100.558 31.375 93.85 31.375ZM70.2566 29.9617C69.0332 28.7488 67.3562 28 65.5 28H58.75C55.027 28 52 31.027 52 34.75V38.125C52 39.9918 53.5082 41.5 55.375 41.5H62.3254C62.9898 36.5008 66.0063 32.2926 70.2566 29.9617Z" fill="#0D3D55"/>
</g>
<g filter="url(#filter0_d)">
<path d="M24.4854 112V99.2031H28.0977C29.2109 99.2031 30.1953 99.4492 31.0508 99.9414C31.9062 100.434 32.5654 101.134 33.0283 102.042C33.4971 102.95 33.7344 103.993 33.7402 105.171V105.988C33.7402 107.195 33.5059 108.253 33.0371 109.161C32.5742 110.069 31.9092 110.767 31.042 111.253C30.1807 111.739 29.1758 111.988 28.0273 112H24.4854ZM26.1729 100.592V110.62H27.9482C29.249 110.62 30.2598 110.216 30.9805 109.407C31.707 108.599 32.0703 107.447 32.0703 105.953V105.206C32.0703 103.753 31.7275 102.625 31.042 101.822C30.3623 101.014 29.3955 100.604 28.1416 100.592H26.1729ZM37.8096 112H36.1836V102.49H37.8096V112ZM36.0518 99.9678C36.0518 99.7041 36.1309 99.4814 36.2891 99.2998C36.4531 99.1182 36.6934 99.0273 37.0098 99.0273C37.3262 99.0273 37.5664 99.1182 37.7305 99.2998C37.8945 99.4814 37.9766 99.7041 37.9766 99.9678C37.9766 100.231 37.8945 100.451 37.7305 100.627C37.5664 100.803 37.3262 100.891 37.0098 100.891C36.6934 100.891 36.4531 100.803 36.2891 100.627C36.1309 100.451 36.0518 100.231 36.0518 99.9678ZM40.0332 107.166C40.0332 105.684 40.376 104.506 41.0615 103.633C41.7471 102.754 42.6553 102.314 43.7861 102.314C44.9463 102.314 45.8516 102.725 46.502 103.545L46.5811 102.49H48.0664V111.771C48.0664 113.002 47.7002 113.972 46.9678 114.681C46.2412 115.39 45.2627 115.744 44.0322 115.744C43.3467 115.744 42.6758 115.598 42.0195 115.305C41.3633 115.012 40.8623 114.61 40.5166 114.101L41.3604 113.125C42.0576 113.986 42.9102 114.417 43.918 114.417C44.709 114.417 45.3242 114.194 45.7637 113.749C46.209 113.304 46.4316 112.677 46.4316 111.868V111.051C45.7812 111.801 44.8936 112.176 43.7686 112.176C42.6553 112.176 41.7529 111.728 41.0615 110.831C40.376 109.935 40.0332 108.713 40.0332 107.166ZM41.668 107.351C41.668 108.423 41.8877 109.267 42.3271 109.882C42.7666 110.491 43.3818 110.796 44.1729 110.796C45.1982 110.796 45.9512 110.33 46.4316 109.398V105.057C45.9336 104.148 45.1865 103.694 44.1904 103.694C43.3994 103.694 42.7812 104.002 42.3359 104.617C41.8906 105.232 41.668 106.144 41.668 107.351ZM52.2939 112H50.668V102.49H52.2939V112ZM50.5361 99.9678C50.5361 99.7041 50.6152 99.4814 50.7734 99.2998C50.9375 99.1182 51.1777 99.0273 51.4941 99.0273C51.8105 99.0273 52.0508 99.1182 52.2148 99.2998C52.3789 99.4814 52.4609 99.7041 52.4609 99.9678C52.4609 100.231 52.3789 100.451 52.2148 100.627C52.0508 100.803 51.8105 100.891 51.4941 100.891C51.1777 100.891 50.9375 100.803 50.7734 100.627C50.6152 100.451 50.5361 100.231 50.5361 99.9678ZM57.1104 100.188V102.49H58.8857V103.747H57.1104V109.645C57.1104 110.025 57.1895 110.312 57.3477 110.506C57.5059 110.693 57.7754 110.787 58.1562 110.787C58.3438 110.787 58.6016 110.752 58.9297 110.682V112C58.502 112.117 58.0859 112.176 57.6816 112.176C56.9551 112.176 56.4072 111.956 56.0381 111.517C55.6689 111.077 55.4844 110.453 55.4844 109.645V103.747H53.7529V102.49H55.4844V100.188H57.1104ZM66.6641 112C66.5703 111.812 66.4941 111.479 66.4355 110.998C65.6797 111.783 64.7773 112.176 63.7285 112.176C62.791 112.176 62.0205 111.912 61.417 111.385C60.8193 110.852 60.5205 110.178 60.5205 109.363C60.5205 108.373 60.8955 107.605 61.6455 107.061C62.4014 106.51 63.4619 106.234 64.8271 106.234H66.4092V105.487C66.4092 104.919 66.2393 104.468 65.8994 104.134C65.5596 103.794 65.0586 103.624 64.3965 103.624C63.8164 103.624 63.3301 103.771 62.9375 104.063C62.5449 104.356 62.3486 104.711 62.3486 105.127H60.7139C60.7139 104.652 60.8809 104.195 61.2148 103.756C61.5547 103.311 62.0117 102.959 62.5859 102.701C63.166 102.443 63.8018 102.314 64.4932 102.314C65.5889 102.314 66.4473 102.59 67.0684 103.141C67.6895 103.686 68.0117 104.438 68.0352 105.399V109.776C68.0352 110.649 68.1465 111.344 68.3691 111.859V112H66.6641ZM63.9658 110.761C64.4756 110.761 64.959 110.629 65.416 110.365C65.873 110.102 66.2041 109.759 66.4092 109.337V107.386H65.1348C63.1426 107.386 62.1465 107.969 62.1465 109.135C62.1465 109.645 62.3164 110.043 62.6562 110.33C62.9961 110.617 63.4326 110.761 63.9658 110.761ZM72.3506 112H70.7246V98.5H72.3506V112ZM81.377 110.62H87.4414V112H79.6807V99.2031H81.377V110.62ZM93.0576 112.176C91.7686 112.176 90.7197 111.754 89.9111 110.91C89.1025 110.061 88.6982 108.927 88.6982 107.509V107.21C88.6982 106.267 88.877 105.426 89.2344 104.688C89.5977 103.943 90.1016 103.363 90.7461 102.947C91.3965 102.525 92.0996 102.314 92.8555 102.314C94.0918 102.314 95.0527 102.722 95.7383 103.536C96.4238 104.351 96.7666 105.517 96.7666 107.034V107.711H90.3242C90.3477 108.648 90.6201 109.407 91.1416 109.987C91.6689 110.562 92.3369 110.849 93.1455 110.849C93.7197 110.849 94.2061 110.731 94.6045 110.497C95.0029 110.263 95.3516 109.952 95.6504 109.565L96.6436 110.339C95.8467 111.563 94.6514 112.176 93.0576 112.176ZM92.8555 103.65C92.1992 103.65 91.6484 103.891 91.2031 104.371C90.7578 104.846 90.4824 105.514 90.377 106.375H95.1406V106.252C95.0938 105.426 94.8711 104.787 94.4727 104.336C94.0742 103.879 93.5352 103.65 92.8555 103.65ZM104.527 112C104.434 111.812 104.357 111.479 104.299 110.998C103.543 111.783 102.641 112.176 101.592 112.176C100.654 112.176 99.8838 111.912 99.2803 111.385C98.6826 110.852 98.3838 110.178 98.3838 109.363C98.3838 108.373 98.7588 107.605 99.5088 107.061C100.265 106.51 101.325 106.234 102.69 106.234H104.272V105.487C104.272 104.919 104.103 104.468 103.763 104.134C103.423 103.794 102.922 103.624 102.26 103.624C101.68 103.624 101.193 103.771 100.801 104.063C100.408 104.356 100.212 104.711 100.212 105.127H98.5771C98.5771 104.652 98.7441 104.195 99.0781 103.756C99.418 103.311 99.875 102.959 100.449 102.701C101.029 102.443 101.665 102.314 102.356 102.314C103.452 102.314 104.311 102.59 104.932 103.141C105.553 103.686 105.875 104.438 105.898 105.399V109.776C105.898 110.649 106.01 111.344 106.232 111.859V112H104.527ZM101.829 110.761C102.339 110.761 102.822 110.629 103.279 110.365C103.736 110.102 104.067 109.759 104.272 109.337V107.386H102.998C101.006 107.386 100.01 107.969 100.01 109.135C100.01 109.645 100.18 110.043 100.52 110.33C100.859 110.617 101.296 110.761 101.829 110.761ZM113.044 103.949C112.798 103.908 112.531 103.888 112.244 103.888C111.178 103.888 110.454 104.342 110.073 105.25V112H108.447V102.49H110.029L110.056 103.589C110.589 102.739 111.345 102.314 112.323 102.314C112.64 102.314 112.88 102.355 113.044 102.438V103.949ZM116.085 102.49L116.138 103.686C116.864 102.771 117.813 102.314 118.985 102.314C120.995 102.314 122.009 103.448 122.026 105.716V112H120.4V105.707C120.395 105.021 120.236 104.515 119.926 104.187C119.621 103.858 119.144 103.694 118.493 103.694C117.966 103.694 117.503 103.835 117.104 104.116C116.706 104.397 116.396 104.767 116.173 105.224V112H114.547V102.49H116.085ZM126.245 112H124.619V102.49H126.245V112ZM124.487 99.9678C124.487 99.7041 124.566 99.4814 124.725 99.2998C124.889 99.1182 125.129 99.0273 125.445 99.0273C125.762 99.0273 126.002 99.1182 126.166 99.2998C126.33 99.4814 126.412 99.7041 126.412 99.9678C126.412 100.231 126.33 100.451 126.166 100.627C126.002 100.803 125.762 100.891 125.445 100.891C125.129 100.891 124.889 100.803 124.725 100.627C124.566 100.451 124.487 100.231 124.487 99.9678ZM130.394 102.49L130.446 103.686C131.173 102.771 132.122 102.314 133.294 102.314C135.304 102.314 136.317 103.448 136.335 105.716V112H134.709V105.707C134.703 105.021 134.545 104.515 134.234 104.187C133.93 103.858 133.452 103.694 132.802 103.694C132.274 103.694 131.812 103.835 131.413 104.116C131.015 104.397 130.704 104.767 130.481 105.224V112H128.855V102.49H130.394ZM138.4 107.166C138.4 105.684 138.743 104.506 139.429 103.633C140.114 102.754 141.022 102.314 142.153 102.314C143.313 102.314 144.219 102.725 144.869 103.545L144.948 102.49H146.434V111.771C146.434 113.002 146.067 113.972 145.335 114.681C144.608 115.39 143.63 115.744 142.399 115.744C141.714 115.744 141.043 115.598 140.387 115.305C139.73 115.012 139.229 114.61 138.884 114.101L139.728 113.125C140.425 113.986 141.277 114.417 142.285 114.417C143.076 114.417 143.691 114.194 144.131 113.749C144.576 113.304 144.799 112.677 144.799 111.868V111.051C144.148 111.801 143.261 112.176 142.136 112.176C141.022 112.176 140.12 111.728 139.429 110.831C138.743 109.935 138.4 108.713 138.4 107.166ZM140.035 107.351C140.035 108.423 140.255 109.267 140.694 109.882C141.134 110.491 141.749 110.796 142.54 110.796C143.565 110.796 144.318 110.33 144.799 109.398V105.057C144.301 104.148 143.554 103.694 142.558 103.694C141.767 103.694 141.148 104.002 140.703 104.617C140.258 105.232 140.035 106.144 140.035 107.351Z" fill="#F16C21"/>
</g>
<g filter="url(#filter1_d)">
<path d="M291.552 108.66H286.19L284.986 112H283.246L288.133 99.2031H289.609L294.505 112H292.773L291.552 108.66ZM286.7 107.271H291.051L288.871 101.286L286.7 107.271ZM297.739 112H296.113V98.5H297.739V112ZM302.116 112H300.49V98.5H302.116V112ZM311.397 100.188V102.49H313.173V103.747H311.397V109.645C311.397 110.025 311.477 110.312 311.635 110.506C311.793 110.693 312.062 110.787 312.443 110.787C312.631 110.787 312.889 110.752 313.217 110.682V112C312.789 112.117 312.373 112.176 311.969 112.176C311.242 112.176 310.694 111.956 310.325 111.517C309.956 111.077 309.771 110.453 309.771 109.645V103.747H308.04V102.49H309.771V100.188H311.397ZM316.847 112H315.221V102.49H316.847V112ZM315.089 99.9678C315.089 99.7041 315.168 99.4814 315.326 99.2998C315.49 99.1182 315.73 99.0273 316.047 99.0273C316.363 99.0273 316.604 99.1182 316.768 99.2998C316.932 99.4814 317.014 99.7041 317.014 99.9678C317.014 100.231 316.932 100.451 316.768 100.627C316.604 100.803 316.363 100.891 316.047 100.891C315.73 100.891 315.49 100.803 315.326 100.627C315.168 100.451 315.089 100.231 315.089 99.9678ZM320.986 102.49L321.03 103.545C321.728 102.725 322.668 102.314 323.852 102.314C325.182 102.314 326.087 102.824 326.567 103.844C326.884 103.387 327.294 103.018 327.798 102.736C328.308 102.455 328.908 102.314 329.6 102.314C331.686 102.314 332.746 103.419 332.781 105.628V112H331.155V105.725C331.155 105.045 331 104.538 330.689 104.204C330.379 103.864 329.857 103.694 329.125 103.694C328.521 103.694 328.021 103.876 327.622 104.239C327.224 104.597 326.992 105.08 326.928 105.689V112H325.293V105.769C325.293 104.386 324.616 103.694 323.263 103.694C322.196 103.694 321.467 104.148 321.074 105.057V112H319.448V102.49H320.986ZM339.188 112.176C337.899 112.176 336.851 111.754 336.042 110.91C335.233 110.061 334.829 108.927 334.829 107.509V107.21C334.829 106.267 335.008 105.426 335.365 104.688C335.729 103.943 336.232 103.363 336.877 102.947C337.527 102.525 338.23 102.314 338.986 102.314C340.223 102.314 341.184 102.722 341.869 103.536C342.555 104.351 342.897 105.517 342.897 107.034V107.711H336.455C336.479 108.648 336.751 109.407 337.272 109.987C337.8 110.562 338.468 110.849 339.276 110.849C339.851 110.849 340.337 110.731 340.735 110.497C341.134 110.263 341.482 109.952 341.781 109.565L342.774 110.339C341.978 111.563 340.782 112.176 339.188 112.176ZM338.986 103.65C338.33 103.65 337.779 103.891 337.334 104.371C336.889 104.846 336.613 105.514 336.508 106.375H341.271V106.252C341.225 105.426 341.002 104.787 340.604 104.336C340.205 103.879 339.666 103.65 338.986 103.65ZM355.123 112C355.029 111.812 354.953 111.479 354.895 110.998C354.139 111.783 353.236 112.176 352.188 112.176C351.25 112.176 350.479 111.912 349.876 111.385C349.278 110.852 348.979 110.178 348.979 109.363C348.979 108.373 349.354 107.605 350.104 107.061C350.86 106.51 351.921 106.234 353.286 106.234H354.868V105.487C354.868 104.919 354.698 104.468 354.358 104.134C354.019 103.794 353.518 103.624 352.855 103.624C352.275 103.624 351.789 103.771 351.396 104.063C351.004 104.356 350.808 104.711 350.808 105.127H349.173C349.173 104.652 349.34 104.195 349.674 103.756C350.014 103.311 350.471 102.959 351.045 102.701C351.625 102.443 352.261 102.314 352.952 102.314C354.048 102.314 354.906 102.59 355.527 103.141C356.148 103.686 356.471 104.438 356.494 105.399V109.776C356.494 110.649 356.605 111.344 356.828 111.859V112H355.123ZM352.425 110.761C352.935 110.761 353.418 110.629 353.875 110.365C354.332 110.102 354.663 109.759 354.868 109.337V107.386H353.594C351.602 107.386 350.605 107.969 350.605 109.135C350.605 109.645 350.775 110.043 351.115 110.33C351.455 110.617 351.892 110.761 352.425 110.761ZM362.857 110.849C363.438 110.849 363.944 110.673 364.378 110.321C364.812 109.97 365.052 109.53 365.099 109.003H366.637C366.607 109.548 366.42 110.066 366.074 110.559C365.729 111.051 365.266 111.443 364.686 111.736C364.111 112.029 363.502 112.176 362.857 112.176C361.562 112.176 360.531 111.745 359.764 110.884C359.002 110.017 358.621 108.833 358.621 107.333V107.061C358.621 106.135 358.791 105.312 359.131 104.591C359.471 103.87 359.957 103.311 360.59 102.912C361.229 102.514 361.981 102.314 362.849 102.314C363.915 102.314 364.8 102.634 365.503 103.272C366.212 103.911 366.59 104.74 366.637 105.76H365.099C365.052 105.145 364.817 104.641 364.396 104.248C363.979 103.85 363.464 103.65 362.849 103.65C362.022 103.65 361.381 103.949 360.924 104.547C360.473 105.139 360.247 105.997 360.247 107.122V107.43C360.247 108.525 360.473 109.369 360.924 109.961C361.375 110.553 362.02 110.849 362.857 110.849ZM372.279 110.849C372.859 110.849 373.366 110.673 373.8 110.321C374.233 109.97 374.474 109.53 374.521 109.003H376.059C376.029 109.548 375.842 110.066 375.496 110.559C375.15 111.051 374.688 111.443 374.107 111.736C373.533 112.029 372.924 112.176 372.279 112.176C370.984 112.176 369.953 111.745 369.186 110.884C368.424 110.017 368.043 108.833 368.043 107.333V107.061C368.043 106.135 368.213 105.312 368.553 104.591C368.893 103.87 369.379 103.311 370.012 102.912C370.65 102.514 371.403 102.314 372.271 102.314C373.337 102.314 374.222 102.634 374.925 103.272C375.634 103.911 376.012 104.74 376.059 105.76H374.521C374.474 105.145 374.239 104.641 373.817 104.248C373.401 103.85 372.886 103.65 372.271 103.65C371.444 103.65 370.803 103.949 370.346 104.547C369.895 105.139 369.669 105.997 369.669 107.122V107.43C369.669 108.525 369.895 109.369 370.346 109.961C370.797 110.553 371.441 110.849 372.279 110.849ZM381.833 112.176C380.544 112.176 379.495 111.754 378.687 110.91C377.878 110.061 377.474 108.927 377.474 107.509V107.21C377.474 106.267 377.652 105.426 378.01 104.688C378.373 103.943 378.877 103.363 379.521 102.947C380.172 102.525 380.875 102.314 381.631 102.314C382.867 102.314 383.828 102.722 384.514 103.536C385.199 104.351 385.542 105.517 385.542 107.034V107.711H379.1C379.123 108.648 379.396 109.407 379.917 109.987C380.444 110.562 381.112 110.849 381.921 110.849C382.495 110.849 382.981 110.731 383.38 110.497C383.778 110.263 384.127 109.952 384.426 109.565L385.419 110.339C384.622 111.563 383.427 112.176 381.833 112.176ZM381.631 103.65C380.975 103.65 380.424 103.891 379.979 104.371C379.533 104.846 379.258 105.514 379.152 106.375H383.916V106.252C383.869 105.426 383.646 104.787 383.248 104.336C382.85 103.879 382.311 103.65 381.631 103.65ZM392.969 109.478C392.969 109.038 392.802 108.698 392.468 108.458C392.14 108.212 391.562 108.001 390.736 107.825C389.916 107.649 389.263 107.438 388.776 107.192C388.296 106.946 387.938 106.653 387.704 106.313C387.476 105.974 387.361 105.569 387.361 105.101C387.361 104.321 387.689 103.662 388.346 103.123C389.008 102.584 389.852 102.314 390.877 102.314C391.955 102.314 392.828 102.593 393.496 103.149C394.17 103.706 394.507 104.418 394.507 105.285H392.872C392.872 104.84 392.682 104.456 392.301 104.134C391.926 103.812 391.451 103.65 390.877 103.65C390.285 103.65 389.822 103.779 389.488 104.037C389.154 104.295 388.987 104.632 388.987 105.048C388.987 105.44 389.143 105.736 389.453 105.936C389.764 106.135 390.323 106.325 391.132 106.507C391.946 106.688 392.605 106.905 393.109 107.157C393.613 107.409 393.985 107.714 394.226 108.071C394.472 108.423 394.595 108.854 394.595 109.363C394.595 110.213 394.255 110.896 393.575 111.411C392.896 111.921 392.014 112.176 390.93 112.176C390.168 112.176 389.494 112.041 388.908 111.771C388.322 111.502 387.862 111.127 387.528 110.646C387.2 110.16 387.036 109.636 387.036 109.073H388.662C388.691 109.618 388.908 110.052 389.312 110.374C389.723 110.69 390.262 110.849 390.93 110.849C391.545 110.849 392.037 110.726 392.406 110.479C392.781 110.228 392.969 109.894 392.969 109.478ZM402.25 109.478C402.25 109.038 402.083 108.698 401.749 108.458C401.421 108.212 400.844 108.001 400.018 107.825C399.197 107.649 398.544 107.438 398.058 107.192C397.577 106.946 397.22 106.653 396.985 106.313C396.757 105.974 396.643 105.569 396.643 105.101C396.643 104.321 396.971 103.662 397.627 103.123C398.289 102.584 399.133 102.314 400.158 102.314C401.236 102.314 402.109 102.593 402.777 103.149C403.451 103.706 403.788 104.418 403.788 105.285H402.153C402.153 104.84 401.963 104.456 401.582 104.134C401.207 103.812 400.732 103.65 400.158 103.65C399.566 103.65 399.104 103.779 398.77 104.037C398.436 104.295 398.269 104.632 398.269 105.048C398.269 105.44 398.424 105.736 398.734 105.936C399.045 106.135 399.604 106.325 400.413 106.507C401.228 106.688 401.887 106.905 402.391 107.157C402.895 107.409 403.267 107.714 403.507 108.071C403.753 108.423 403.876 108.854 403.876 109.363C403.876 110.213 403.536 110.896 402.856 111.411C402.177 111.921 401.295 112.176 400.211 112.176C399.449 112.176 398.775 112.041 398.189 111.771C397.604 111.502 397.144 111.127 396.81 110.646C396.481 110.16 396.317 109.636 396.317 109.073H397.943C397.973 109.618 398.189 110.052 398.594 110.374C399.004 110.69 399.543 110.849 400.211 110.849C400.826 110.849 401.318 110.726 401.688 110.479C402.062 110.228 402.25 109.894 402.25 109.478Z" fill="#F16C21"/>
</g>
<g clip-path="url(#clip1)">
<path d="M366.7 23.8992C367.132 22.7707 367.375 21.5367 367.375 20.25C367.375 14.6602 362.84 10.125 357.25 10.125C355.172 10.125 353.232 10.7578 351.629 11.8336C348.707 6.77109 343.254 3.375 337 3.375C327.677 3.375 320.125 10.9266 320.125 20.25C320.125 20.5348 320.136 20.8195 320.146 21.1043C314.24 23.182 310 28.8141 310 35.4375C310 43.8223 316.803 50.625 325.188 50.625H364C371.457 50.625 377.5 44.5816 377.5 37.125C377.5 30.5965 372.859 25.1438 366.7 23.8992Z" fill="#0D3D55"/>
</g>
<g filter="url(#filter2_d)">
<path d="M545.256 106.296C543.809 105.88 542.754 105.37 542.092 104.767C541.436 104.157 541.107 103.407 541.107 102.517C541.107 101.509 541.509 100.677 542.312 100.021C543.12 99.3584 544.169 99.0273 545.458 99.0273C546.337 99.0273 547.119 99.1973 547.805 99.5371C548.496 99.877 549.029 100.346 549.404 100.943C549.785 101.541 549.976 102.194 549.976 102.903H548.279C548.279 102.13 548.033 101.523 547.541 101.084C547.049 100.639 546.354 100.416 545.458 100.416C544.626 100.416 543.976 100.601 543.507 100.97C543.044 101.333 542.812 101.84 542.812 102.49C542.812 103.012 543.032 103.454 543.472 103.817C543.917 104.175 544.67 104.503 545.73 104.802C546.797 105.101 547.629 105.432 548.227 105.795C548.83 106.152 549.275 106.571 549.562 107.052C549.855 107.532 550.002 108.098 550.002 108.748C550.002 109.785 549.598 110.617 548.789 111.244C547.98 111.865 546.899 112.176 545.546 112.176C544.667 112.176 543.847 112.009 543.085 111.675C542.323 111.335 541.734 110.872 541.318 110.286C540.908 109.7 540.703 109.035 540.703 108.291H542.399C542.399 109.064 542.684 109.677 543.252 110.128C543.826 110.573 544.591 110.796 545.546 110.796C546.437 110.796 547.119 110.614 547.594 110.251C548.068 109.888 548.306 109.393 548.306 108.766C548.306 108.139 548.086 107.655 547.646 107.315C547.207 106.97 546.41 106.63 545.256 106.296ZM554.124 100.188V102.49H555.899V103.747H554.124V109.645C554.124 110.025 554.203 110.312 554.361 110.506C554.52 110.693 554.789 110.787 555.17 110.787C555.357 110.787 555.615 110.752 555.943 110.682V112C555.516 112.117 555.1 112.176 554.695 112.176C553.969 112.176 553.421 111.956 553.052 111.517C552.683 111.077 552.498 110.453 552.498 109.645V103.747H550.767V102.49H552.498V100.188H554.124ZM563.678 111.06C563.045 111.804 562.116 112.176 560.892 112.176C559.878 112.176 559.104 111.883 558.571 111.297C558.044 110.705 557.777 109.832 557.771 108.678V102.49H559.397V108.634C559.397 110.075 559.983 110.796 561.155 110.796C562.397 110.796 563.224 110.333 563.634 109.407V102.49H565.26V112H563.713L563.678 111.06ZM567.343 107.166C567.343 105.707 567.688 104.535 568.38 103.65C569.071 102.76 569.977 102.314 571.096 102.314C572.209 102.314 573.091 102.695 573.741 103.457V98.5H575.367V112H573.873L573.794 110.98C573.144 111.777 572.238 112.176 571.078 112.176C569.977 112.176 569.077 111.725 568.38 110.822C567.688 109.92 567.343 108.742 567.343 107.289V107.166ZM568.969 107.351C568.969 108.429 569.191 109.272 569.637 109.882C570.082 110.491 570.697 110.796 571.482 110.796C572.514 110.796 573.267 110.333 573.741 109.407V105.039C573.255 104.143 572.508 103.694 571.5 103.694C570.703 103.694 570.082 104.002 569.637 104.617C569.191 105.232 568.969 106.144 568.969 107.351ZM581.845 112.176C580.556 112.176 579.507 111.754 578.698 110.91C577.89 110.061 577.485 108.927 577.485 107.509V107.21C577.485 106.267 577.664 105.426 578.021 104.688C578.385 103.943 578.889 103.363 579.533 102.947C580.184 102.525 580.887 102.314 581.643 102.314C582.879 102.314 583.84 102.722 584.525 103.536C585.211 104.351 585.554 105.517 585.554 107.034V107.711H579.111C579.135 108.648 579.407 109.407 579.929 109.987C580.456 110.562 581.124 110.849 581.933 110.849C582.507 110.849 582.993 110.731 583.392 110.497C583.79 110.263 584.139 109.952 584.438 109.565L585.431 110.339C584.634 111.563 583.438 112.176 581.845 112.176ZM581.643 103.65C580.986 103.65 580.436 103.891 579.99 104.371C579.545 104.846 579.27 105.514 579.164 106.375H583.928V106.252C583.881 105.426 583.658 104.787 583.26 104.336C582.861 103.879 582.322 103.65 581.643 103.65ZM588.981 102.49L589.034 103.686C589.761 102.771 590.71 102.314 591.882 102.314C593.892 102.314 594.905 103.448 594.923 105.716V112H593.297V105.707C593.291 105.021 593.133 104.515 592.822 104.187C592.518 103.858 592.04 103.694 591.39 103.694C590.862 103.694 590.399 103.835 590.001 104.116C589.603 104.397 589.292 104.767 589.069 105.224V112H587.443V102.49H588.981ZM599.581 100.188V102.49H601.356V103.747H599.581V109.645C599.581 110.025 599.66 110.312 599.818 110.506C599.977 110.693 600.246 110.787 600.627 110.787C600.814 110.787 601.072 110.752 601.4 110.682V112C600.973 112.117 600.557 112.176 600.152 112.176C599.426 112.176 598.878 111.956 598.509 111.517C598.14 111.077 597.955 110.453 597.955 109.645V103.747H596.224V102.49H597.955V100.188H599.581ZM616.148 109.759L617.977 102.49H619.603L616.834 112H615.516L613.204 104.793L610.954 112H609.636L606.876 102.49H608.493L610.365 109.609L612.58 102.49H613.89L616.148 109.759ZM625.21 112.176C623.921 112.176 622.872 111.754 622.063 110.91C621.255 110.061 620.851 108.927 620.851 107.509V107.21C620.851 106.267 621.029 105.426 621.387 104.688C621.75 103.943 622.254 103.363 622.898 102.947C623.549 102.525 624.252 102.314 625.008 102.314C626.244 102.314 627.205 102.722 627.891 103.536C628.576 104.351 628.919 105.517 628.919 107.034V107.711H622.477C622.5 108.648 622.772 109.407 623.294 109.987C623.821 110.562 624.489 110.849 625.298 110.849C625.872 110.849 626.358 110.731 626.757 110.497C627.155 110.263 627.504 109.952 627.803 109.565L628.796 110.339C627.999 111.563 626.804 112.176 625.21 112.176ZM625.008 103.65C624.352 103.65 623.801 103.891 623.355 104.371C622.91 104.846 622.635 105.514 622.529 106.375H627.293V106.252C627.246 105.426 627.023 104.787 626.625 104.336C626.227 103.879 625.688 103.65 625.008 103.65ZM632.575 112H630.949V98.5H632.575V112ZM635.985 112V103.747H634.482V102.49H635.985V101.515C635.985 100.495 636.258 99.707 636.803 99.1504C637.348 98.5938 638.118 98.3154 639.114 98.3154C639.489 98.3154 639.861 98.3652 640.23 98.4648L640.143 99.7832C639.867 99.7305 639.574 99.7041 639.264 99.7041C638.736 99.7041 638.329 99.8594 638.042 100.17C637.755 100.475 637.611 100.914 637.611 101.488V102.49H639.642V103.747H637.611V112H635.985ZM647.314 112C647.221 111.812 647.145 111.479 647.086 110.998C646.33 111.783 645.428 112.176 644.379 112.176C643.441 112.176 642.671 111.912 642.067 111.385C641.47 110.852 641.171 110.178 641.171 109.363C641.171 108.373 641.546 107.605 642.296 107.061C643.052 106.51 644.112 106.234 645.478 106.234H647.06V105.487C647.06 104.919 646.89 104.468 646.55 104.134C646.21 103.794 645.709 103.624 645.047 103.624C644.467 103.624 643.98 103.771 643.588 104.063C643.195 104.356 642.999 104.711 642.999 105.127H641.364C641.364 104.652 641.531 104.195 641.865 103.756C642.205 103.311 642.662 102.959 643.236 102.701C643.816 102.443 644.452 102.314 645.144 102.314C646.239 102.314 647.098 102.59 647.719 103.141C648.34 103.686 648.662 104.438 648.686 105.399V109.776C648.686 110.649 648.797 111.344 649.02 111.859V112H647.314ZM644.616 110.761C645.126 110.761 645.609 110.629 646.066 110.365C646.523 110.102 646.854 109.759 647.06 109.337V107.386H645.785C643.793 107.386 642.797 107.969 642.797 109.135C642.797 109.645 642.967 110.043 643.307 110.33C643.646 110.617 644.083 110.761 644.616 110.761ZM655.831 103.949C655.585 103.908 655.318 103.888 655.031 103.888C653.965 103.888 653.241 104.342 652.86 105.25V112H651.234V102.49H652.816L652.843 103.589C653.376 102.739 654.132 102.314 655.11 102.314C655.427 102.314 655.667 102.355 655.831 102.438V103.949ZM661.104 112.176C659.815 112.176 658.767 111.754 657.958 110.91C657.149 110.061 656.745 108.927 656.745 107.509V107.21C656.745 106.267 656.924 105.426 657.281 104.688C657.645 103.943 658.148 103.363 658.793 102.947C659.443 102.525 660.146 102.314 660.902 102.314C662.139 102.314 663.1 102.722 663.785 103.536C664.471 104.351 664.813 105.517 664.813 107.034V107.711H658.371C658.395 108.648 658.667 109.407 659.188 109.987C659.716 110.562 660.384 110.849 661.192 110.849C661.767 110.849 662.253 110.731 662.651 110.497C663.05 110.263 663.398 109.952 663.697 109.565L664.69 110.339C663.894 111.563 662.698 112.176 661.104 112.176ZM660.902 103.65C660.246 103.65 659.695 103.891 659.25 104.371C658.805 104.846 658.529 105.514 658.424 106.375H663.188V106.252C663.141 105.426 662.918 104.787 662.52 104.336C662.121 103.879 661.582 103.65 660.902 103.65Z" fill="#F16C21"/>
</g>
<g filter="url(#filter3_d)">
<path d="M274.697 354.349H269.327V360H267.64V347.203H275.567V348.592H269.327V352.969H274.697V354.349ZM283.012 359.06C282.379 359.804 281.45 360.176 280.226 360.176C279.212 360.176 278.438 359.883 277.905 359.297C277.378 358.705 277.111 357.832 277.105 356.678V350.49H278.731V356.634C278.731 358.075 279.317 358.796 280.489 358.796C281.731 358.796 282.558 358.333 282.968 357.407V350.49H284.594V360H283.047L283.012 359.06ZM289.278 348.188V350.49H291.054V351.747H289.278V357.645C289.278 358.025 289.357 358.312 289.516 358.506C289.674 358.693 289.943 358.787 290.324 358.787C290.512 358.787 290.77 358.752 291.098 358.682V360C290.67 360.117 290.254 360.176 289.85 360.176C289.123 360.176 288.575 359.956 288.206 359.517C287.837 359.077 287.652 358.453 287.652 357.645V351.747H285.921V350.49H287.652V348.188H289.278ZM298.832 359.06C298.199 359.804 297.271 360.176 296.046 360.176C295.032 360.176 294.259 359.883 293.726 359.297C293.198 358.705 292.932 357.832 292.926 356.678V350.49H294.552V356.634C294.552 358.075 295.138 358.796 296.31 358.796C297.552 358.796 298.378 358.333 298.788 357.407V350.49H300.414V360H298.867L298.832 359.06ZM307.489 351.949C307.243 351.908 306.977 351.888 306.689 351.888C305.623 351.888 304.899 352.342 304.519 353.25V360H302.893V350.49H304.475L304.501 351.589C305.034 350.739 305.79 350.314 306.769 350.314C307.085 350.314 307.325 350.355 307.489 350.438V351.949ZM310.759 360H309.133V350.49H310.759V360ZM309.001 347.968C309.001 347.704 309.08 347.481 309.238 347.3C309.402 347.118 309.643 347.027 309.959 347.027C310.275 347.027 310.516 347.118 310.68 347.3C310.844 347.481 310.926 347.704 310.926 347.968C310.926 348.231 310.844 348.451 310.68 348.627C310.516 348.803 310.275 348.891 309.959 348.891C309.643 348.891 309.402 348.803 309.238 348.627C309.08 348.451 309.001 348.231 309.001 347.968ZM318.906 357.478C318.906 357.038 318.739 356.698 318.405 356.458C318.077 356.212 317.5 356.001 316.674 355.825C315.854 355.649 315.2 355.438 314.714 355.192C314.233 354.946 313.876 354.653 313.642 354.313C313.413 353.974 313.299 353.569 313.299 353.101C313.299 352.321 313.627 351.662 314.283 351.123C314.945 350.584 315.789 350.314 316.814 350.314C317.893 350.314 318.766 350.593 319.434 351.149C320.107 351.706 320.444 352.418 320.444 353.285H318.81C318.81 352.84 318.619 352.456 318.238 352.134C317.863 351.812 317.389 351.65 316.814 351.65C316.223 351.65 315.76 351.779 315.426 352.037C315.092 352.295 314.925 352.632 314.925 353.048C314.925 353.44 315.08 353.736 315.391 353.936C315.701 354.135 316.261 354.325 317.069 354.507C317.884 354.688 318.543 354.905 319.047 355.157C319.551 355.409 319.923 355.714 320.163 356.071C320.409 356.423 320.532 356.854 320.532 357.363C320.532 358.213 320.192 358.896 319.513 359.411C318.833 359.921 317.951 360.176 316.867 360.176C316.105 360.176 315.432 360.041 314.846 359.771C314.26 359.502 313.8 359.127 313.466 358.646C313.138 358.16 312.974 357.636 312.974 357.073H314.6C314.629 357.618 314.846 358.052 315.25 358.374C315.66 358.69 316.199 358.849 316.867 358.849C317.482 358.849 317.975 358.726 318.344 358.479C318.719 358.228 318.906 357.894 318.906 357.478ZM324.856 348.188V350.49H326.632V351.747H324.856V357.645C324.856 358.025 324.936 358.312 325.094 358.506C325.252 358.693 325.521 358.787 325.902 358.787C326.09 358.787 326.348 358.752 326.676 358.682V360C326.248 360.117 325.832 360.176 325.428 360.176C324.701 360.176 324.153 359.956 323.784 359.517C323.415 359.077 323.23 358.453 323.23 357.645V351.747H321.499V350.49H323.23V348.188H324.856ZM330.306 360H328.68V350.49H330.306V360ZM328.548 347.968C328.548 347.704 328.627 347.481 328.785 347.3C328.949 347.118 329.189 347.027 329.506 347.027C329.822 347.027 330.062 347.118 330.227 347.3C330.391 347.481 330.473 347.704 330.473 347.968C330.473 348.231 330.391 348.451 330.227 348.627C330.062 348.803 329.822 348.891 329.506 348.891C329.189 348.891 328.949 348.803 328.785 348.627C328.627 348.451 328.548 348.231 328.548 347.968ZM336.73 358.849C337.311 358.849 337.817 358.673 338.251 358.321C338.685 357.97 338.925 357.53 338.972 357.003H340.51C340.48 357.548 340.293 358.066 339.947 358.559C339.602 359.051 339.139 359.443 338.559 359.736C337.984 360.029 337.375 360.176 336.73 360.176C335.436 360.176 334.404 359.745 333.637 358.884C332.875 358.017 332.494 356.833 332.494 355.333V355.061C332.494 354.135 332.664 353.312 333.004 352.591C333.344 351.87 333.83 351.311 334.463 350.912C335.102 350.514 335.854 350.314 336.722 350.314C337.788 350.314 338.673 350.634 339.376 351.272C340.085 351.911 340.463 352.74 340.51 353.76H338.972C338.925 353.145 338.69 352.641 338.269 352.248C337.853 351.85 337.337 351.65 336.722 351.65C335.896 351.65 335.254 351.949 334.797 352.547C334.346 353.139 334.12 353.997 334.12 355.122V355.43C334.12 356.525 334.346 357.369 334.797 357.961C335.248 358.553 335.893 358.849 336.73 358.849ZM354.124 356.66H348.763L347.559 360H345.818L350.705 347.203H352.182L357.077 360H355.346L354.124 356.66ZM349.272 355.271H353.623L351.443 349.286L349.272 355.271ZM366.578 355.351C366.578 356.798 366.247 357.964 365.585 358.849C364.923 359.733 364.026 360.176 362.896 360.176C361.741 360.176 360.833 359.81 360.171 359.077V363.656H358.545V350.49H360.03L360.109 351.545C360.771 350.725 361.691 350.314 362.869 350.314C364.012 350.314 364.914 350.745 365.576 351.606C366.244 352.468 366.578 353.666 366.578 355.201V355.351ZM364.952 355.166C364.952 354.094 364.724 353.247 364.267 352.626C363.81 352.005 363.183 351.694 362.386 351.694C361.401 351.694 360.663 352.131 360.171 353.004V357.548C360.657 358.415 361.401 358.849 362.403 358.849C363.183 358.849 363.801 358.541 364.258 357.926C364.721 357.305 364.952 356.385 364.952 355.166ZM376.686 355.351C376.686 356.798 376.354 357.964 375.692 358.849C375.03 359.733 374.134 360.176 373.003 360.176C371.849 360.176 370.94 359.81 370.278 359.077V363.656H368.652V350.49H370.138L370.217 351.545C370.879 350.725 371.799 350.314 372.977 350.314C374.119 350.314 375.021 350.745 375.684 351.606C376.352 352.468 376.686 353.666 376.686 355.201V355.351ZM375.06 355.166C375.06 354.094 374.831 353.247 374.374 352.626C373.917 352.005 373.29 351.694 372.493 351.694C371.509 351.694 370.771 352.131 370.278 353.004V357.548C370.765 358.415 371.509 358.849 372.511 358.849C373.29 358.849 373.908 358.541 374.365 357.926C374.828 357.305 375.06 356.385 375.06 355.166ZM383.356 351.949C383.11 351.908 382.844 351.888 382.557 351.888C381.49 351.888 380.767 352.342 380.386 353.25V360H378.76V350.49H380.342L380.368 351.589C380.901 350.739 381.657 350.314 382.636 350.314C382.952 350.314 383.192 350.355 383.356 350.438V351.949ZM384.253 355.157C384.253 354.226 384.435 353.388 384.798 352.644C385.167 351.899 385.677 351.325 386.327 350.921C386.983 350.517 387.73 350.314 388.568 350.314C389.863 350.314 390.909 350.763 391.706 351.659C392.509 352.556 392.91 353.748 392.91 355.236V355.351C392.91 356.276 392.731 357.108 392.374 357.847C392.022 358.579 391.516 359.15 390.854 359.561C390.197 359.971 389.441 360.176 388.586 360.176C387.297 360.176 386.251 359.728 385.448 358.831C384.651 357.935 384.253 356.748 384.253 355.271V355.157ZM385.888 355.351C385.888 356.405 386.131 357.252 386.617 357.891C387.109 358.529 387.766 358.849 388.586 358.849C389.412 358.849 390.068 358.526 390.555 357.882C391.041 357.231 391.284 356.323 391.284 355.157C391.284 354.114 391.035 353.271 390.537 352.626C390.045 351.976 389.389 351.65 388.568 351.65C387.766 351.65 387.118 351.97 386.626 352.608C386.134 353.247 385.888 354.161 385.888 355.351ZM400.82 360C400.727 359.812 400.65 359.479 400.592 358.998C399.836 359.783 398.934 360.176 397.885 360.176C396.947 360.176 396.177 359.912 395.573 359.385C394.976 358.852 394.677 358.178 394.677 357.363C394.677 356.373 395.052 355.605 395.802 355.061C396.558 354.51 397.618 354.234 398.983 354.234H400.565V353.487C400.565 352.919 400.396 352.468 400.056 352.134C399.716 351.794 399.215 351.624 398.553 351.624C397.973 351.624 397.486 351.771 397.094 352.063C396.701 352.356 396.505 352.711 396.505 353.127H394.87C394.87 352.652 395.037 352.195 395.371 351.756C395.711 351.311 396.168 350.959 396.742 350.701C397.322 350.443 397.958 350.314 398.649 350.314C399.745 350.314 400.604 350.59 401.225 351.141C401.846 351.686 402.168 352.438 402.191 353.399V357.776C402.191 358.649 402.303 359.344 402.525 359.859V360H400.82ZM398.122 358.761C398.632 358.761 399.115 358.629 399.572 358.365C400.029 358.102 400.36 357.759 400.565 357.337V355.386H399.291C397.299 355.386 396.303 355.969 396.303 357.135C396.303 357.645 396.473 358.043 396.812 358.33C397.152 358.617 397.589 358.761 398.122 358.761ZM408.555 358.849C409.135 358.849 409.642 358.673 410.075 358.321C410.509 357.97 410.749 357.53 410.796 357.003H412.334C412.305 357.548 412.117 358.066 411.771 358.559C411.426 359.051 410.963 359.443 410.383 359.736C409.809 360.029 409.199 360.176 408.555 360.176C407.26 360.176 406.229 359.745 405.461 358.884C404.699 358.017 404.318 356.833 404.318 355.333V355.061C404.318 354.135 404.488 353.312 404.828 352.591C405.168 351.87 405.654 351.311 406.287 350.912C406.926 350.514 407.679 350.314 408.546 350.314C409.612 350.314 410.497 350.634 411.2 351.272C411.909 351.911 412.287 352.74 412.334 353.76H410.796C410.749 353.145 410.515 352.641 410.093 352.248C409.677 351.85 409.161 351.65 408.546 351.65C407.72 351.65 407.078 351.949 406.621 352.547C406.17 353.139 405.944 353.997 405.944 355.122V355.43C405.944 356.525 406.17 357.369 406.621 357.961C407.072 358.553 407.717 358.849 408.555 358.849ZM415.788 351.642C416.509 350.757 417.446 350.314 418.601 350.314C420.61 350.314 421.624 351.448 421.642 353.716V360H420.016V353.707C420.01 353.021 419.852 352.515 419.541 352.187C419.236 351.858 418.759 351.694 418.108 351.694C417.581 351.694 417.118 351.835 416.72 352.116C416.321 352.397 416.011 352.767 415.788 353.224V360H414.162V346.5H415.788V351.642Z" fill="#F16C21"/>
</g>
<g filter="url(#filter4_d)">
<path d="M559.207 358.62H565.271V360H557.511V347.203H559.207V358.62ZM568.708 360H567.082V350.49H568.708V360ZM566.95 347.968C566.95 347.704 567.029 347.481 567.188 347.3C567.352 347.118 567.592 347.027 567.908 347.027C568.225 347.027 568.465 347.118 568.629 347.3C568.793 347.481 568.875 347.704 568.875 347.968C568.875 348.231 568.793 348.451 568.629 348.627C568.465 348.803 568.225 348.891 567.908 348.891C567.592 348.891 567.352 348.803 567.188 348.627C567.029 348.451 566.95 348.231 566.95 347.968ZM574.456 357.794L576.812 350.49H578.473L575.062 360H573.823L570.378 350.49H572.039L574.456 357.794ZM583.86 360.176C582.571 360.176 581.522 359.754 580.714 358.91C579.905 358.061 579.501 356.927 579.501 355.509V355.21C579.501 354.267 579.68 353.426 580.037 352.688C580.4 351.943 580.904 351.363 581.549 350.947C582.199 350.525 582.902 350.314 583.658 350.314C584.895 350.314 585.855 350.722 586.541 351.536C587.227 352.351 587.569 353.517 587.569 355.034V355.711H581.127C581.15 356.648 581.423 357.407 581.944 357.987C582.472 358.562 583.14 358.849 583.948 358.849C584.522 358.849 585.009 358.731 585.407 358.497C585.806 358.263 586.154 357.952 586.453 357.565L587.446 358.339C586.649 359.563 585.454 360.176 583.86 360.176ZM583.658 351.65C583.002 351.65 582.451 351.891 582.006 352.371C581.561 352.846 581.285 353.514 581.18 354.375H585.943V354.252C585.896 353.426 585.674 352.787 585.275 352.336C584.877 351.879 584.338 351.65 583.658 351.65ZM603.592 355.939C603.434 357.293 602.933 358.339 602.089 359.077C601.251 359.81 600.135 360.176 598.74 360.176C597.229 360.176 596.016 359.634 595.102 358.55C594.193 357.466 593.739 356.016 593.739 354.199V352.969C593.739 351.779 593.95 350.733 594.372 349.831C594.8 348.929 595.403 348.237 596.183 347.757C596.962 347.271 597.864 347.027 598.89 347.027C600.249 347.027 601.339 347.408 602.159 348.17C602.979 348.926 603.457 349.975 603.592 351.316H601.896C601.749 350.297 601.43 349.559 600.938 349.102C600.451 348.645 599.769 348.416 598.89 348.416C597.812 348.416 596.965 348.814 596.35 349.611C595.74 350.408 595.436 351.542 595.436 353.013V354.252C595.436 355.641 595.726 356.745 596.306 357.565C596.886 358.386 597.697 358.796 598.74 358.796C599.678 358.796 600.396 358.585 600.894 358.163C601.397 357.735 601.731 356.994 601.896 355.939H603.592ZM607.415 360H605.789V346.5H607.415V360ZM615.896 360C615.803 359.812 615.727 359.479 615.668 358.998C614.912 359.783 614.01 360.176 612.961 360.176C612.023 360.176 611.253 359.912 610.649 359.385C610.052 358.852 609.753 358.178 609.753 357.363C609.753 356.373 610.128 355.605 610.878 355.061C611.634 354.51 612.694 354.234 614.06 354.234H615.642V353.487C615.642 352.919 615.472 352.468 615.132 352.134C614.792 351.794 614.291 351.624 613.629 351.624C613.049 351.624 612.562 351.771 612.17 352.063C611.777 352.356 611.581 352.711 611.581 353.127H609.946C609.946 352.652 610.113 352.195 610.447 351.756C610.787 351.311 611.244 350.959 611.818 350.701C612.398 350.443 613.034 350.314 613.726 350.314C614.821 350.314 615.68 350.59 616.301 351.141C616.922 351.686 617.244 352.438 617.268 353.399V357.776C617.268 358.649 617.379 359.344 617.602 359.859V360H615.896ZM613.198 358.761C613.708 358.761 614.191 358.629 614.648 358.365C615.105 358.102 615.437 357.759 615.642 357.337V355.386H614.367C612.375 355.386 611.379 355.969 611.379 357.135C611.379 357.645 611.549 358.043 611.889 358.33C612.229 358.617 612.665 358.761 613.198 358.761ZM625.354 357.478C625.354 357.038 625.187 356.698 624.853 356.458C624.524 356.212 623.947 356.001 623.121 355.825C622.301 355.649 621.647 355.438 621.161 355.192C620.681 354.946 620.323 354.653 620.089 354.313C619.86 353.974 619.746 353.569 619.746 353.101C619.746 352.321 620.074 351.662 620.73 351.123C621.393 350.584 622.236 350.314 623.262 350.314C624.34 350.314 625.213 350.593 625.881 351.149C626.555 351.706 626.892 352.418 626.892 353.285H625.257C625.257 352.84 625.066 352.456 624.686 352.134C624.311 351.812 623.836 351.65 623.262 351.65C622.67 351.65 622.207 351.779 621.873 352.037C621.539 352.295 621.372 352.632 621.372 353.048C621.372 353.44 621.527 353.736 621.838 353.936C622.148 354.135 622.708 354.325 623.517 354.507C624.331 354.688 624.99 354.905 625.494 355.157C625.998 355.409 626.37 355.714 626.61 356.071C626.856 356.423 626.979 356.854 626.979 357.363C626.979 358.213 626.64 358.896 625.96 359.411C625.28 359.921 624.398 360.176 623.314 360.176C622.553 360.176 621.879 360.041 621.293 359.771C620.707 359.502 620.247 359.127 619.913 358.646C619.585 358.16 619.421 357.636 619.421 357.073H621.047C621.076 357.618 621.293 358.052 621.697 358.374C622.107 358.69 622.646 358.849 623.314 358.849C623.93 358.849 624.422 358.726 624.791 358.479C625.166 358.228 625.354 357.894 625.354 357.478ZM634.635 357.478C634.635 357.038 634.468 356.698 634.134 356.458C633.806 356.212 633.229 356.001 632.402 355.825C631.582 355.649 630.929 355.438 630.442 355.192C629.962 354.946 629.604 354.653 629.37 354.313C629.142 353.974 629.027 353.569 629.027 353.101C629.027 352.321 629.355 351.662 630.012 351.123C630.674 350.584 631.518 350.314 632.543 350.314C633.621 350.314 634.494 350.593 635.162 351.149C635.836 351.706 636.173 352.418 636.173 353.285H634.538C634.538 352.84 634.348 352.456 633.967 352.134C633.592 351.812 633.117 351.65 632.543 351.65C631.951 351.65 631.488 351.779 631.154 352.037C630.82 352.295 630.653 352.632 630.653 353.048C630.653 353.44 630.809 353.736 631.119 353.936C631.43 354.135 631.989 354.325 632.798 354.507C633.612 354.688 634.271 354.905 634.775 355.157C635.279 355.409 635.651 355.714 635.892 356.071C636.138 356.423 636.261 356.854 636.261 357.363C636.261 358.213 635.921 358.896 635.241 359.411C634.562 359.921 633.68 360.176 632.596 360.176C631.834 360.176 631.16 360.041 630.574 359.771C629.988 359.502 629.528 359.127 629.194 358.646C628.866 358.16 628.702 357.636 628.702 357.073H630.328C630.357 357.618 630.574 358.052 630.979 358.374C631.389 358.69 631.928 358.849 632.596 358.849C633.211 358.849 633.703 358.726 634.072 358.479C634.447 358.228 634.635 357.894 634.635 357.478ZM642.325 360.176C641.036 360.176 639.987 359.754 639.179 358.91C638.37 358.061 637.966 356.927 637.966 355.509V355.21C637.966 354.267 638.145 353.426 638.502 352.688C638.865 351.943 639.369 351.363 640.014 350.947C640.664 350.525 641.367 350.314 642.123 350.314C643.359 350.314 644.32 350.722 645.006 351.536C645.691 352.351 646.034 353.517 646.034 355.034V355.711H639.592C639.615 356.648 639.888 357.407 640.409 357.987C640.937 358.562 641.604 358.849 642.413 358.849C642.987 358.849 643.474 358.731 643.872 358.497C644.271 358.263 644.619 357.952 644.918 357.565L645.911 358.339C645.114 359.563 643.919 360.176 642.325 360.176ZM642.123 351.65C641.467 351.65 640.916 351.891 640.471 352.371C640.025 352.846 639.75 353.514 639.645 354.375H644.408V354.252C644.361 353.426 644.139 352.787 643.74 352.336C643.342 351.879 642.803 351.65 642.123 351.65ZM653.461 357.478C653.461 357.038 653.294 356.698 652.96 356.458C652.632 356.212 652.055 356.001 651.229 355.825C650.408 355.649 649.755 355.438 649.269 355.192C648.788 354.946 648.431 354.653 648.196 354.313C647.968 353.974 647.854 353.569 647.854 353.101C647.854 352.321 648.182 351.662 648.838 351.123C649.5 350.584 650.344 350.314 651.369 350.314C652.447 350.314 653.32 350.593 653.988 351.149C654.662 351.706 654.999 352.418 654.999 353.285H653.364C653.364 352.84 653.174 352.456 652.793 352.134C652.418 351.812 651.943 351.65 651.369 351.65C650.777 351.65 650.314 351.779 649.98 352.037C649.646 352.295 649.479 352.632 649.479 353.048C649.479 353.44 649.635 353.736 649.945 353.936C650.256 354.135 650.815 354.325 651.624 354.507C652.438 354.688 653.098 354.905 653.602 355.157C654.105 355.409 654.478 355.714 654.718 356.071C654.964 356.423 655.087 356.854 655.087 357.363C655.087 358.213 654.747 358.896 654.067 359.411C653.388 359.921 652.506 360.176 651.422 360.176C650.66 360.176 649.986 360.041 649.4 359.771C648.814 359.502 648.354 359.127 648.021 358.646C647.692 358.16 647.528 357.636 647.528 357.073H649.154C649.184 357.618 649.4 358.052 649.805 358.374C650.215 358.69 650.754 358.849 651.422 358.849C652.037 358.849 652.529 358.726 652.898 358.479C653.273 358.228 653.461 357.894 653.461 357.478Z" fill="#F16C21"/>
</g>
<g clip-path="url(#clip2)">
<path d="M616.833 34.8104L606.727 44.8721L596.622 34.8104C589.048 35.1374 583 41.3073 583 48.9221V49.9346C583 52.7296 585.277 54.9971 588.084 54.9971H625.37C628.177 54.9971 630.455 52.7296 630.455 49.9346V48.9221C630.455 41.3073 624.406 35.1374 616.833 34.8104ZM584.441 9.41355L585.119 9.57175V15.7311C584.377 16.1741 583.847 16.944 583.847 17.8721C583.847 18.7581 584.335 19.4964 585.023 19.9499L583.371 26.5206C583.191 27.2483 583.593 27.9971 584.176 27.9971H588.603C589.186 27.9971 589.589 27.2483 589.408 26.5206L587.756 19.9499C588.445 19.4964 588.932 18.7581 588.932 17.8721C588.932 16.944 588.402 16.1741 587.661 15.7311V10.1835L594.652 11.8604C593.741 13.6745 593.169 15.6995 593.169 17.8721C593.169 25.3288 599.238 31.3721 606.727 31.3721C614.216 31.3721 620.286 25.3288 620.286 17.8721C620.286 15.6995 619.724 13.6745 618.803 11.8604L629.003 9.41355C630.931 8.94949 630.931 6.55535 629.003 6.09128L608.835 1.23972C607.458 0.912769 606.007 0.912769 604.63 1.23972L584.441 6.08074C582.523 6.5448 582.523 8.94949 584.441 9.41355Z" fill="#0D3D55"/>
</g>
<g filter="url(#filter5_d)">
<path d="M14.3271 348.592H10.2139V360H8.53516V348.592H4.43066V347.203H14.3271V348.592ZM19.0381 360.176C17.749 360.176 16.7002 359.754 15.8916 358.91C15.083 358.061 14.6787 356.927 14.6787 355.509V355.21C14.6787 354.267 14.8574 353.426 15.2148 352.688C15.5781 351.943 16.082 351.363 16.7266 350.947C17.377 350.525 18.0801 350.314 18.8359 350.314C20.0723 350.314 21.0332 350.722 21.7188 351.536C22.4043 352.351 22.7471 353.517 22.7471 355.034V355.711H16.3047C16.3281 356.648 16.6006 357.407 17.1221 357.987C17.6494 358.562 18.3174 358.849 19.126 358.849C19.7002 358.849 20.1865 358.731 20.585 358.497C20.9834 358.263 21.332 357.952 21.6309 357.565L22.624 358.339C21.8271 359.563 20.6318 360.176 19.0381 360.176ZM18.8359 351.65C18.1797 351.65 17.6289 351.891 17.1836 352.371C16.7383 352.846 16.4629 353.514 16.3574 354.375H21.1211V354.252C21.0742 353.426 20.8516 352.787 20.4531 352.336C20.0547 351.879 19.5156 351.65 18.8359 351.65ZM28.4512 358.849C29.0312 358.849 29.5381 358.673 29.9717 358.321C30.4053 357.97 30.6455 357.53 30.6924 357.003H32.2305C32.2012 357.548 32.0137 358.066 31.668 358.559C31.3223 359.051 30.8594 359.443 30.2793 359.736C29.7051 360.029 29.0957 360.176 28.4512 360.176C27.1562 360.176 26.125 359.745 25.3574 358.884C24.5957 358.017 24.2148 356.833 24.2148 355.333V355.061C24.2148 354.135 24.3848 353.312 24.7246 352.591C25.0645 351.87 25.5508 351.311 26.1836 350.912C26.8223 350.514 27.5752 350.314 28.4424 350.314C29.5088 350.314 30.3936 350.634 31.0967 351.272C31.8057 351.911 32.1836 352.74 32.2305 353.76H30.6924C30.6455 353.145 30.4111 352.641 29.9893 352.248C29.5732 351.85 29.0576 351.65 28.4424 351.65C27.6162 351.65 26.9746 351.949 26.5176 352.547C26.0664 353.139 25.8408 353.997 25.8408 355.122V355.43C25.8408 356.525 26.0664 357.369 26.5176 357.961C26.9688 358.553 27.6133 358.849 28.4512 358.849ZM35.6846 351.642C36.4053 350.757 37.3428 350.314 38.4971 350.314C40.5068 350.314 41.5205 351.448 41.5381 353.716V360H39.9121V353.707C39.9062 353.021 39.748 352.515 39.4375 352.187C39.1328 351.858 38.6553 351.694 38.0049 351.694C37.4775 351.694 37.0146 351.835 36.6162 352.116C36.2178 352.397 35.9072 352.767 35.6846 353.224V360H34.0586V346.5H35.6846V351.642ZM45.5107 350.49L45.5635 351.686C46.29 350.771 47.2393 350.314 48.4111 350.314C50.4209 350.314 51.4346 351.448 51.4521 353.716V360H49.8262V353.707C49.8203 353.021 49.6621 352.515 49.3516 352.187C49.0469 351.858 48.5693 351.694 47.9189 351.694C47.3916 351.694 46.9287 351.835 46.5303 352.116C46.1318 352.397 45.8213 352.767 45.5986 353.224V360H43.9727V350.49H45.5107ZM53.4736 355.157C53.4736 354.226 53.6553 353.388 54.0186 352.644C54.3877 351.899 54.8975 351.325 55.5479 350.921C56.2041 350.517 56.9512 350.314 57.7891 350.314C59.084 350.314 60.1299 350.763 60.9268 351.659C61.7295 352.556 62.1309 353.748 62.1309 355.236V355.351C62.1309 356.276 61.9521 357.108 61.5947 357.847C61.2432 358.579 60.7363 359.15 60.0742 359.561C59.418 359.971 58.6621 360.176 57.8066 360.176C56.5176 360.176 55.4717 359.728 54.6689 358.831C53.8721 357.935 53.4736 356.748 53.4736 355.271V355.157ZM55.1084 355.351C55.1084 356.405 55.3516 357.252 55.8379 357.891C56.3301 358.529 56.9863 358.849 57.8066 358.849C58.6328 358.849 59.2891 358.526 59.7754 357.882C60.2617 357.231 60.5049 356.323 60.5049 355.157C60.5049 354.114 60.2559 353.271 59.7578 352.626C59.2656 351.976 58.6094 351.65 57.7891 351.65C56.9863 351.65 56.3389 351.97 55.8467 352.608C55.3545 353.247 55.1084 354.161 55.1084 355.351ZM65.9365 360H64.3105V346.5H65.9365V360ZM68.1162 355.157C68.1162 354.226 68.2979 353.388 68.6611 352.644C69.0303 351.899 69.54 351.325 70.1904 350.921C70.8467 350.517 71.5938 350.314 72.4316 350.314C73.7266 350.314 74.7725 350.763 75.5693 351.659C76.3721 352.556 76.7734 353.748 76.7734 355.236V355.351C76.7734 356.276 76.5947 357.108 76.2373 357.847C75.8857 358.579 75.3789 359.15 74.7168 359.561C74.0605 359.971 73.3047 360.176 72.4492 360.176C71.1602 360.176 70.1143 359.728 69.3115 358.831C68.5146 357.935 68.1162 356.748 68.1162 355.271V355.157ZM69.751 355.351C69.751 356.405 69.9941 357.252 70.4805 357.891C70.9727 358.529 71.6289 358.849 72.4492 358.849C73.2754 358.849 73.9316 358.526 74.418 357.882C74.9043 357.231 75.1475 356.323 75.1475 355.157C75.1475 354.114 74.8984 353.271 74.4004 352.626C73.9082 351.976 73.252 351.65 72.4316 351.65C71.6289 351.65 70.9814 351.97 70.4893 352.608C69.9971 353.247 69.751 354.161 69.751 355.351ZM78.4258 355.166C78.4258 353.684 78.7686 352.506 79.4541 351.633C80.1396 350.754 81.0479 350.314 82.1787 350.314C83.3389 350.314 84.2441 350.725 84.8945 351.545L84.9736 350.49H86.459V359.771C86.459 361.002 86.0928 361.972 85.3604 362.681C84.6338 363.39 83.6553 363.744 82.4248 363.744C81.7393 363.744 81.0684 363.598 80.4121 363.305C79.7559 363.012 79.2549 362.61 78.9092 362.101L79.7529 361.125C80.4502 361.986 81.3027 362.417 82.3105 362.417C83.1016 362.417 83.7168 362.194 84.1562 361.749C84.6016 361.304 84.8242 360.677 84.8242 359.868V359.051C84.1738 359.801 83.2861 360.176 82.1611 360.176C81.0479 360.176 80.1455 359.728 79.4541 358.831C78.7686 357.935 78.4258 356.713 78.4258 355.166ZM80.0605 355.351C80.0605 356.423 80.2803 357.267 80.7197 357.882C81.1592 358.491 81.7744 358.796 82.5654 358.796C83.5908 358.796 84.3438 358.33 84.8242 357.398V353.057C84.3262 352.148 83.5791 351.694 82.583 351.694C81.792 351.694 81.1738 352.002 80.7285 352.617C80.2832 353.232 80.0605 354.144 80.0605 355.351ZM92.0312 357.618L94.2461 350.49H95.9863L92.1631 361.468C91.5713 363.05 90.6309 363.841 89.3418 363.841L89.0342 363.814L88.4277 363.7V362.382L88.8672 362.417C89.418 362.417 89.8457 362.306 90.1504 362.083C90.4609 361.86 90.7158 361.453 90.915 360.861L91.2754 359.895L87.8828 350.49H89.6582L92.0312 357.618ZM101.479 355.157C101.479 354.226 101.661 353.388 102.024 352.644C102.394 351.899 102.903 351.325 103.554 350.921C104.21 350.517 104.957 350.314 105.795 350.314C107.09 350.314 108.136 350.763 108.933 351.659C109.735 352.556 110.137 353.748 110.137 355.236V355.351C110.137 356.276 109.958 357.108 109.601 357.847C109.249 358.579 108.742 359.15 108.08 359.561C107.424 359.971 106.668 360.176 105.812 360.176C104.523 360.176 103.478 359.728 102.675 358.831C101.878 357.935 101.479 356.748 101.479 355.271V355.157ZM103.114 355.351C103.114 356.405 103.357 357.252 103.844 357.891C104.336 358.529 104.992 358.849 105.812 358.849C106.639 358.849 107.295 358.526 107.781 357.882C108.268 357.231 108.511 356.323 108.511 355.157C108.511 354.114 108.262 353.271 107.764 352.626C107.271 351.976 106.615 351.65 105.795 351.65C104.992 351.65 104.345 351.97 103.853 352.608C103.36 353.247 103.114 354.161 103.114 355.351ZM116.772 351.949C116.526 351.908 116.26 351.888 115.973 351.888C114.906 351.888 114.183 352.342 113.802 353.25V360H112.176V350.49H113.758L113.784 351.589C114.317 350.739 115.073 350.314 116.052 350.314C116.368 350.314 116.608 350.355 116.772 350.438V351.949ZM120.042 360H118.416V350.49H120.042V360ZM118.284 347.968C118.284 347.704 118.363 347.481 118.521 347.3C118.686 347.118 118.926 347.027 119.242 347.027C119.559 347.027 119.799 347.118 119.963 347.3C120.127 347.481 120.209 347.704 120.209 347.968C120.209 348.231 120.127 348.451 119.963 348.627C119.799 348.803 119.559 348.891 119.242 348.891C118.926 348.891 118.686 348.803 118.521 348.627C118.363 348.451 118.284 348.231 118.284 347.968ZM126.599 360.176C125.31 360.176 124.261 359.754 123.452 358.91C122.644 358.061 122.239 356.927 122.239 355.509V355.21C122.239 354.267 122.418 353.426 122.775 352.688C123.139 351.943 123.643 351.363 124.287 350.947C124.938 350.525 125.641 350.314 126.396 350.314C127.633 350.314 128.594 350.722 129.279 351.536C129.965 352.351 130.308 353.517 130.308 355.034V355.711H123.865C123.889 356.648 124.161 357.407 124.683 357.987C125.21 358.562 125.878 358.849 126.687 358.849C127.261 358.849 127.747 358.731 128.146 358.497C128.544 358.263 128.893 357.952 129.191 357.565L130.185 358.339C129.388 359.563 128.192 360.176 126.599 360.176ZM126.396 351.65C125.74 351.65 125.189 351.891 124.744 352.371C124.299 352.846 124.023 353.514 123.918 354.375H128.682V354.252C128.635 353.426 128.412 352.787 128.014 352.336C127.615 351.879 127.076 351.65 126.396 351.65ZM133.735 350.49L133.788 351.686C134.515 350.771 135.464 350.314 136.636 350.314C138.646 350.314 139.659 351.448 139.677 353.716V360H138.051V353.707C138.045 353.021 137.887 352.515 137.576 352.187C137.271 351.858 136.794 351.694 136.144 351.694C135.616 351.694 135.153 351.835 134.755 352.116C134.356 352.397 134.046 352.767 133.823 353.224V360H132.197V350.49H133.735ZM144.335 348.188V350.49H146.11V351.747H144.335V357.645C144.335 358.025 144.414 358.312 144.572 358.506C144.73 358.693 145 358.787 145.381 358.787C145.568 358.787 145.826 358.752 146.154 358.682V360C145.727 360.117 145.311 360.176 144.906 360.176C144.18 360.176 143.632 359.956 143.263 359.517C142.894 359.077 142.709 358.453 142.709 357.645V351.747H140.978V350.49H142.709V348.188H144.335ZM151.964 360.176C150.675 360.176 149.626 359.754 148.817 358.91C148.009 358.061 147.604 356.927 147.604 355.509V355.21C147.604 354.267 147.783 353.426 148.141 352.688C148.504 351.943 149.008 351.363 149.652 350.947C150.303 350.525 151.006 350.314 151.762 350.314C152.998 350.314 153.959 350.722 154.645 351.536C155.33 352.351 155.673 353.517 155.673 355.034V355.711H149.23C149.254 356.648 149.526 357.407 150.048 357.987C150.575 358.562 151.243 358.849 152.052 358.849C152.626 358.849 153.112 358.731 153.511 358.497C153.909 358.263 154.258 357.952 154.557 357.565L155.55 358.339C154.753 359.563 153.558 360.176 151.964 360.176ZM151.762 351.65C151.105 351.65 150.555 351.891 150.109 352.371C149.664 352.846 149.389 353.514 149.283 354.375H154.047V354.252C154 353.426 153.777 352.787 153.379 352.336C152.98 351.879 152.441 351.65 151.762 351.65ZM157.167 355.166C157.167 353.707 157.513 352.535 158.204 351.65C158.896 350.76 159.801 350.314 160.92 350.314C162.033 350.314 162.915 350.695 163.565 351.457V346.5H165.191V360H163.697L163.618 358.98C162.968 359.777 162.062 360.176 160.902 360.176C159.801 360.176 158.901 359.725 158.204 358.822C157.513 357.92 157.167 356.742 157.167 355.289V355.166ZM158.793 355.351C158.793 356.429 159.016 357.272 159.461 357.882C159.906 358.491 160.521 358.796 161.307 358.796C162.338 358.796 163.091 358.333 163.565 357.407V353.039C163.079 352.143 162.332 351.694 161.324 351.694C160.527 351.694 159.906 352.002 159.461 352.617C159.016 353.232 158.793 354.144 158.793 355.351Z" fill="#F16C21"/>
</g>
<path d="M102.875 264.062V307.938C102.875 310.733 100.608 313 97.8125 313H74.1875C71.3915 313 69.125 310.733 69.125 307.938V264.062C69.125 261.267 71.3915 259 74.1875 259H97.8125C100.608 259 102.875 261.267 102.875 264.062ZM113 270.18V271.445C113 271.613 112.933 271.774 112.815 271.893C112.696 272.011 112.535 272.078 112.367 272.078H110.469V272.711C110.469 272.879 110.402 273.04 110.283 273.158C110.165 273.277 110.004 273.344 109.836 273.344H105.406V268.281H109.836C110.004 268.281 110.165 268.348 110.283 268.467C110.402 268.585 110.469 268.746 110.469 268.914V269.547H112.367C112.535 269.547 112.696 269.614 112.815 269.732C112.933 269.851 113 270.012 113 270.18ZM113 280.305V281.57C113 281.738 112.933 281.899 112.815 282.018C112.696 282.136 112.535 282.203 112.367 282.203H110.469V282.836C110.469 283.004 110.402 283.165 110.283 283.283C110.165 283.402 110.004 283.469 109.836 283.469H105.406V278.406H109.836C110.004 278.406 110.165 278.473 110.283 278.592C110.402 278.71 110.469 278.871 110.469 279.039V279.672H112.367C112.535 279.672 112.696 279.739 112.815 279.857C112.933 279.976 113 280.137 113 280.305ZM113 290.43V291.695C113 291.863 112.933 292.024 112.815 292.143C112.696 292.261 112.535 292.328 112.367 292.328H110.469V292.961C110.469 293.129 110.402 293.29 110.283 293.408C110.165 293.527 110.004 293.594 109.836 293.594H105.406V288.531H109.836C110.004 288.531 110.165 288.598 110.283 288.717C110.402 288.835 110.469 288.996 110.469 289.164V289.797H112.367C112.535 289.797 112.696 289.864 112.815 289.982C112.933 290.101 113 290.262 113 290.43ZM113 300.555V301.82C113 301.988 112.933 302.149 112.815 302.268C112.696 302.386 112.535 302.453 112.367 302.453H110.469V303.086C110.469 303.254 110.402 303.415 110.283 303.533C110.165 303.652 110.004 303.719 109.836 303.719H105.406V298.656H109.836C110.004 298.656 110.165 298.723 110.283 298.842C110.402 298.96 110.469 299.121 110.469 299.289V299.922H112.367C112.535 299.922 112.696 299.989 112.815 300.107C112.933 300.226 113 300.387 113 300.555ZM62.1641 298.656H66.5938V303.719H62.1641C61.9962 303.719 61.8353 303.652 61.7166 303.533C61.5979 303.415 61.5312 303.254 61.5312 303.086V302.453H59.6328C59.465 302.453 59.304 302.386 59.1853 302.268C59.0667 302.149 59 301.988 59 301.82V300.555C59 300.387 59.0667 300.226 59.1853 300.107C59.304 299.989 59.465 299.922 59.6328 299.922H61.5312V299.289C61.5312 299.121 61.5979 298.96 61.7166 298.842C61.8353 298.723 61.9962 298.656 62.1641 298.656ZM62.1641 288.531H66.5938V293.594H62.1641C61.9962 293.594 61.8353 293.527 61.7166 293.408C61.5979 293.29 61.5312 293.129 61.5312 292.961V292.328H59.6328C59.465 292.328 59.304 292.261 59.1853 292.143C59.0667 292.024 59 291.863 59 291.695V290.43C59 290.262 59.0667 290.101 59.1853 289.982C59.304 289.864 59.465 289.797 59.6328 289.797H61.5312V289.164C61.5312 288.996 61.5979 288.835 61.7166 288.717C61.8353 288.598 61.9962 288.531 62.1641 288.531ZM62.1641 278.406H66.5938V283.469H62.1641C61.9962 283.469 61.8353 283.402 61.7166 283.283C61.5979 283.165 61.5312 283.004 61.5312 282.836V282.203H59.6328C59.465 282.203 59.304 282.136 59.1853 282.018C59.0667 281.899 59 281.738 59 281.57V280.305C59 280.137 59.0667 279.976 59.1853 279.857C59.304 279.739 59.465 279.672 59.6328 279.672H61.5312V279.039C61.5312 278.871 61.5979 278.71 61.7166 278.592C61.8353 278.473 61.9962 278.406 62.1641 278.406ZM62.1641 268.281H66.5938V273.344H62.1641C61.9962 273.344 61.8353 273.277 61.7166 273.158C61.5979 273.04 61.5312 272.879 61.5312 272.711V272.078H59.6328C59.465 272.078 59.304 272.011 59.1853 271.893C59.0667 271.774 59 271.613 59 271.445V270.18C59 270.012 59.0667 269.851 59.1853 269.732C59.304 269.614 59.465 269.547 59.6328 269.547H61.5312V268.914C61.5312 268.746 61.5979 268.585 61.7166 268.467C61.8353 268.348 61.9962 268.281 62.1641 268.281Z" fill="#0D3D55"/>
<path d="M332.974 294.125C332.722 294.125 332.469 294.162 332.229 294.24C330.859 294.684 329.42 294.969 327.903 294.969C326.387 294.969 324.948 294.684 323.577 294.24C323.336 294.162 323.085 294.125 322.832 294.125C316.276 294.125 310.965 299.449 311 306.003C311.015 308.772 313.296 311 316.071 311H339.736C342.511 311 344.792 308.772 344.807 306.003C344.842 299.449 339.531 294.125 332.974 294.125ZM327.903 290.75C333.505 290.75 338.045 286.217 338.045 280.625C338.045 275.033 333.505 270.5 327.903 270.5C322.302 270.5 317.761 275.033 317.761 280.625C317.761 286.217 322.302 290.75 327.903 290.75ZM373.542 257H332.974C330.178 257 327.903 259.347 327.903 262.23V267.125C330.378 267.125 332.668 267.84 334.665 269.002V263.75H371.852V294.125H365.091V287.375H351.568V294.125H343.514C345.532 295.885 347.013 298.21 347.707 300.875H373.542C376.339 300.875 378.613 298.528 378.613 295.645V262.23C378.613 259.347 376.339 257 373.542 257Z" fill="#0D3D55"/>
<defs>
<filter id="filter0_d" x="20.4854" y="98.5" width="129.948" height="25.2441" filterUnits="userSpaceOnUse" color-interpolation-filters="sRGB">
<feFlood flood-opacity="0" result="BackgroundImageFix"/>
<feColorMatrix in="SourceAlpha" type="matrix" values="0 0 0 0 0 0 0 0 0 0 0 0 0 0 0 0 0 0 127 0"/>
<feOffset dy="4"/>
<feGaussianBlur stdDeviation="2"/>
<feColorMatrix type="matrix" values="0 0 0 0 0.411765 0 0 0 0 0.411765 0 0 0 0 0.482353 0 0 0 0.4 0"/>
<feBlend mode="normal" in2="BackgroundImageFix" result="effect1_dropShadow"/>
<feBlend mode="normal" in="SourceGraphic" in2="effect1_dropShadow" result="shape"/>
</filter>
<filter id="filter1_d" x="279.246" y="98.5" width="128.63" height="21.6758" filterUnits="userSpaceOnUse" color-interpolation-filters="sRGB">
<feFlood flood-opacity="0" result="BackgroundImageFix"/>
<feColorMatrix in="SourceAlpha" type="matrix" values="0 0 0 0 0 0 0 0 0 0 0 0 0 0 0 0 0 0 127 0"/>
<feOffset dy="4"/>
<feGaussianBlur stdDeviation="2"/>
<feColorMatrix type="matrix" values="0 0 0 0 0.411765 0 0 0 0 0.411765 0 0 0 0 0.482353 0 0 0 0.4 0"/>
<feBlend mode="normal" in2="BackgroundImageFix" result="effect1_dropShadow"/>
<feBlend mode="normal" in="SourceGraphic" in2="effect1_dropShadow" result="shape"/>
</filter>
<filter id="filter2_d" x="536.703" y="98.3154" width="132.11" height="21.8604" filterUnits="userSpaceOnUse" color-interpolation-filters="sRGB">
<feFlood flood-opacity="0" result="BackgroundImageFix"/>
<feColorMatrix in="SourceAlpha" type="matrix" values="0 0 0 0 0 0 0 0 0 0 0 0 0 0 0 0 0 0 127 0"/>
<feOffset dy="4"/>
<feGaussianBlur stdDeviation="2"/>
<feColorMatrix type="matrix" values="0 0 0 0 0.411765 0 0 0 0 0.411765 0 0 0 0 0.482353 0 0 0 0.4 0"/>
<feBlend mode="normal" in2="BackgroundImageFix" result="effect1_dropShadow"/>
<feBlend mode="normal" in="SourceGraphic" in2="effect1_dropShadow" result="shape"/>
</filter>
<filter id="filter3_d" x="263.64" y="346.5" width="162.002" height="25.1562" filterUnits="userSpaceOnUse" color-interpolation-filters="sRGB">
<feFlood flood-opacity="0" result="BackgroundImageFix"/>
<feColorMatrix in="SourceAlpha" type="matrix" values="0 0 0 0 0 0 0 0 0 0 0 0 0 0 0 0 0 0 127 0"/>
<feOffset dy="4"/>
<feGaussianBlur stdDeviation="2"/>
<feColorMatrix type="matrix" values="0 0 0 0 0.411765 0 0 0 0 0.411765 0 0 0 0 0.482353 0 0 0 0.4 0"/>
<feBlend mode="normal" in2="BackgroundImageFix" result="effect1_dropShadow"/>
<feBlend mode="normal" in="SourceGraphic" in2="effect1_dropShadow" result="shape"/>
</filter>
<filter id="filter4_d" x="553.511" y="346.5" width="105.576" height="21.6758" filterUnits="userSpaceOnUse" color-interpolation-filters="sRGB">
<feFlood flood-opacity="0" result="BackgroundImageFix"/>
<feColorMatrix in="SourceAlpha" type="matrix" values="0 0 0 0 0 0 0 0 0 0 0 0 0 0 0 0 0 0 127 0"/>
<feOffset dy="4"/>
<feGaussianBlur stdDeviation="2"/>
<feColorMatrix type="matrix" values="0 0 0 0 0.411765 0 0 0 0 0.411765 0 0 0 0 0.482353 0 0 0 0.4 0"/>
<feBlend mode="normal" in2="BackgroundImageFix" result="effect1_dropShadow"/>
<feBlend mode="normal" in="SourceGraphic" in2="effect1_dropShadow" result="shape"/>
</filter>
<filter id="filter5_d" x="0.430664" y="346.5" width="168.761" height="25.3408" filterUnits="userSpaceOnUse" color-interpolation-filters="sRGB">
<feFlood flood-opacity="0" result="BackgroundImageFix"/>
<feColorMatrix in="SourceAlpha" type="matrix" values="0 0 0 0 0 0 0 0 0 0 0 0 0 0 0 0 0 0 127 0"/>
<feOffset dy="4"/>
<feGaussianBlur stdDeviation="2"/>
<feColorMatrix type="matrix" values="0 0 0 0 0.411765 0 0 0 0 0.411765 0 0 0 0 0.482353 0 0 0 0.4 0"/>
<feBlend mode="normal" in2="BackgroundImageFix" result="effect1_dropShadow"/>
<feBlend mode="normal" in="SourceGraphic" in2="effect1_dropShadow" result="shape"/>
</filter>
<clipPath id="clip0">
<rect width="67.5" height="54" fill="white" transform="translate(52 1)"/>
</clipPath>
<clipPath id="clip1">
<rect width="67.5" height="54" fill="white" transform="translate(310)"/>
</clipPath>
<clipPath id="clip2">
<rect width="47.4545" height="54" fill="white" transform="translate(583 1)"/>
</clipPath>
</defs>
</svg>
