<svg width="702" height="393" viewBox="0 0 702 393" fill="none" xmlns="http://www.w3.org/2000/svg">
<g clip-path="url(#clip0)">
<path d="M62.125 24.625C65.848 24.625 68.875 21.598 68.875 17.875C68.875 14.152 65.848 11.125 62.125 11.125C58.402 11.125 55.375 14.152 55.375 17.875C55.375 21.598 58.402 24.625 62.125 24.625ZM109.375 24.625C113.098 24.625 116.125 21.598 116.125 17.875C116.125 14.152 113.098 11.125 109.375 11.125C105.652 11.125 102.625 14.152 102.625 17.875C102.625 21.598 105.652 24.625 109.375 24.625ZM112.75 28H106C104.144 28 102.467 28.7488 101.243 29.9617C105.494 32.2926 108.51 36.5008 109.164 41.5H116.125C117.992 41.5 119.5 39.9918 119.5 38.125V34.75C119.5 31.027 116.473 28 112.75 28ZM85.75 28C92.2785 28 97.5625 22.716 97.5625 16.1875C97.5625 9.65898 92.2785 4.375 85.75 4.375C79.2215 4.375 73.9375 9.65898 73.9375 16.1875C73.9375 22.716 79.2215 28 85.75 28ZM93.85 31.375H92.9746C90.7809 32.4297 88.3445 33.0625 85.75 33.0625C83.1555 33.0625 80.7297 32.4297 78.5254 31.375H77.65C70.9422 31.375 65.5 36.8172 65.5 43.525V46.5625C65.5 49.3574 67.7676 51.625 70.5625 51.625H100.938C103.732 51.625 106 49.3574 106 46.5625V43.525C106 36.8172 100.558 31.375 93.85 31.375ZM70.2566 29.9617C69.0332 28.7488 67.3562 28 65.5 28H58.75C55.027 28 52 31.027 52 34.75V38.125C52 39.9918 53.5082 41.5 55.375 41.5H62.3254C62.9898 36.5008 66.0063 32.2926 70.2566 29.9617Z" fill="#0D3D55"/>
</g>
<g filter="url(#filter0_d)">
<path d="M24.4854 112V99.2031H28.0977C29.2109 99.2031 30.1953 99.4492 31.0508 99.9414C31.9062 100.434 32.5654 101.134 33.0283 102.042C33.4971 102.95 33.7344 103.993 33.7402 105.171V105.988C33.7402 107.195 33.5059 108.253 33.0371 109.161C32.5742 110.069 31.9092 110.767 31.042 111.253C30.1807 111.739 29.1758 111.988 28.0273 112H24.4854ZM26.1729 100.592V110.62H27.9482C29.249 110.62 30.2598 110.216 30.9805 109.407C31.707 108.599 32.0703 107.447 32.0703 105.953V105.206C32.0703 103.753 31.7275 102.625 31.042 101.822C30.3623 101.014 29.3955 100.604 28.1416 100.592H26.1729ZM37.8096 112H36.1836V102.49H37.8096V112ZM36.0518 99.9678C36.0518 99.7041 36.1309 99.4814 36.2891 99.2998C36.4531 99.1182 36.6934 99.0273 37.0098 99.0273C37.3262 99.0273 37.5664 99.1182 37.7305 99.2998C37.8945 99.4814 37.9766 99.7041 37.9766 99.9678C37.9766 100.231 37.8945 100.451 37.7305 100.627C37.5664 100.803 37.3262 100.891 37.0098 100.891C36.6934 100.891 36.4531 100.803 36.2891 100.627C36.1309 100.451 36.0518 100.231 36.0518 99.9678ZM40.0332 107.166C40.0332 105.684 40.376 104.506 41.0615 103.633C41.7471 102.754 42.6553 102.314 43.7861 102.314C44.9463 102.314 45.8516 102.725 46.502 103.545L46.5811 102.49H48.0664V111.771C48.0664 113.002 47.7002 113.972 46.9678 114.681C46.2412 115.39 45.2627 115.744 44.0322 115.744C43.3467 115.744 42.6758 115.598 42.0195 115.305C41.3633 115.012 40.8623 114.61 40.5166 114.101L41.3604 113.125C42.0576 113.986 42.9102 114.417 43.918 114.417C44.709 114.417 45.3242 114.194 45.7637 113.749C46.209 113.304 46.4316 112.677 46.4316 111.868V111.051C45.7812 111.801 44.8936 112.176 43.7686 112.176C42.6553 112.176 41.7529 111.728 41.0615 110.831C40.376 109.935 40.0332 108.713 40.0332 107.166ZM41.668 107.351C41.668 108.423 41.8877 109.267 42.3271 109.882C42.7666 110.491 43.3818 110.796 44.1729 110.796C45.1982 110.796 45.9512 110.33 46.4316 109.398V105.057C45.9336 104.148 45.1865 103.694 44.1904 103.694C43.3994 103.694 42.7812 104.002 42.3359 104.617C41.8906 105.232 41.668 106.144 41.668 107.351ZM52.2939 112H50.668V102.49H52.2939V112ZM50.5361 99.9678C50.5361 99.7041 50.6152 99.4814 50.7734 99.2998C50.9375 99.1182 51.1777 99.0273 51.4941 99.0273C51.8105 99.0273 52.0508 99.1182 52.2148 99.2998C52.3789 99.4814 52.4609 99.7041 52.4609 99.9678C52.4609 100.231 52.3789 100.451 52.2148 100.627C52.0508 100.803 51.8105 100.891 51.4941 100.891C51.1777 100.891 50.9375 100.803 50.7734 100.627C50.6152 100.451 50.5361 100.231 50.5361 99.9678ZM57.1104 100.188V102.49H58.8857V103.747H57.1104V109.645C57.1104 110.025 57.1895 110.312 57.3477 110.506C57.5059 110.693 57.7754 110.787 58.1562 110.787C58.3438 110.787 58.6016 110.752 58.9297 110.682V112C58.502 112.117 58.0859 112.176 57.6816 112.176C56.9551 112.176 56.4072 111.956 56.0381 111.517C55.6689 111.077 55.4844 110.453 55.4844 109.645V103.747H53.7529V102.49H55.4844V100.188H57.1104ZM66.6641 112C66.5703 111.812 66.4941 111.479 66.4355 110.998C65.6797 111.783 64.7773 112.176 63.7285 112.176C62.791 112.176 62.0205 111.912 61.417 111.385C60.8193 110.852 60.5205 110.178 60.5205 109.363C60.5205 108.373 60.8955 107.605 61.6455 107.061C62.4014 106.51 63.4619 106.234 64.8271 106.234H66.4092V105.487C66.4092 104.919 66.2393 104.468 65.8994 104.134C65.5596 103.794 65.0586 103.624 64.3965 103.624C63.8164 103.624 63.3301 103.771 62.9375 104.063C62.5449 104.356 62.3486 104.711 62.3486 105.127H60.7139C60.7139 104.652 60.8809 104.195 61.2148 103.756C61.5547 103.311 62.0117 102.959 62.5859 102.701C63.166 102.443 63.8018 102.314 64.4932 102.314C65.5889 102.314 66.4473 102.59 67.0684 103.141C67.6895 103.686 68.0117 104.438 68.0352 105.399V109.776C68.0352 110.649 68.1465 111.344 68.3691 111.859V112H66.6641ZM63.9658 110.761C64.4756 110.761 64.959 110.629 65.416 110.365C65.873 110.102 66.2041 109.759 66.4092 109.337V107.386H65.1348C63.1426 107.386 62.1465 107.969 62.1465 109.135C62.1465 109.645 62.3164 110.043 62.6562 110.33C62.9961 110.617 63.4326 110.761 63.9658 110.761ZM72.3506 112H70.7246V98.5H72.3506V112ZM81.377 110.62H87.4414V112H79.6807V99.2031H81.377V110.62ZM93.0576 112.176C91.7686 112.176 90.7197 111.754 89.9111 110.91C89.1025 110.061 88.6982 108.927 88.6982 107.509V107.21C88.6982 106.267 88.877 105.426 89.2344 104.688C89.5977 103.943 90.1016 103.363 90.7461 102.947C91.3965 102.525 92.0996 102.314 92.8555 102.314C94.0918 102.314 95.0527 102.722 95.7383 103.536C96.4238 104.351 96.7666 105.517 96.7666 107.034V107.711H90.3242C90.3477 108.648 90.6201 109.407 91.1416 109.987C91.6689 110.562 92.3369 110.849 93.1455 110.849C93.7197 110.849 94.2061 110.731 94.6045 110.497C95.0029 110.263 95.3516 109.952 95.6504 109.565L96.6436 110.339C95.8467 111.563 94.6514 112.176 93.0576 112.176ZM92.8555 103.65C92.1992 103.65 91.6484 103.891 91.2031 104.371C90.7578 104.846 90.4824 105.514 90.377 106.375H95.1406V106.252C95.0938 105.426 94.8711 104.787 94.4727 104.336C94.0742 103.879 93.5352 103.65 92.8555 103.65ZM104.527 112C104.434 111.812 104.357 111.479 104.299 110.998C103.543 111.783 102.641 112.176 101.592 112.176C100.654 112.176 99.8838 111.912 99.2803 111.385C98.6826 110.852 98.3838 110.178 98.3838 109.363C98.3838 108.373 98.7588 107.605 99.5088 107.061C100.265 106.51 101.325 106.234 102.69 106.234H104.272V105.487C104.272 104.919 104.103 104.468 103.763 104.134C103.423 103.794 102.922 103.624 102.26 103.624C101.68 103.624 101.193 103.771 100.801 104.063C100.408 104.356 100.212 104.711 100.212 105.127H98.5771C98.5771 104.652 98.7441 104.195 99.0781 103.756C99.418 103.311 99.875 102.959 100.449 102.701C101.029 102.443 101.665 102.314 102.356 102.314C103.452 102.314 104.311 102.59 104.932 103.141C105.553 103.686 105.875 104.438 105.898 105.399V109.776C105.898 110.649 106.01 111.344 106.232 111.859V112H104.527ZM101.829 110.761C102.339 110.761 102.822 110.629 103.279 110.365C103.736 110.102 104.067 109.759 104.272 109.337V107.386H102.998C101.006 107.386 100.01 107.969 100.01 109.135C100.01 109.645 100.18 110.043 100.52 110.33C100.859 110.617 101.296 110.761 101.829 110.761ZM113.044 103.949C112.798 103.908 112.531 103.888 112.244 103.888C111.178 103.888 110.454 104.342 110.073 105.25V112H108.447V102.49H110.029L110.056 103.589C110.589 102.739 111.345 102.314 112.323 102.314C112.64 102.314 112.88 102.355 113.044 102.438V103.949ZM116.085 102.49L116.138 103.686C116.864 102.771 117.813 102.314 118.985 102.314C120.995 102.314 122.009 103.448 122.026 105.716V112H120.4V105.707C120.395 105.021 120.236 104.515 119.926 104.187C119.621 103.858 119.144 103.694 118.493 103.694C117.966 103.694 117.503 103.835 117.104 104.116C116.706 104.397 116.396 104.767 116.173 105.224V112H114.547V102.49H116.085ZM126.245 112H124.619V102.49H126.245V112ZM124.487 99.9678C124.487 99.7041 124.566 99.4814 124.725 99.2998C124.889 99.1182 125.129 99.0273 125.445 99.0273C125.762 99.0273 126.002 99.1182 126.166 99.2998C126.33 99.4814 126.412 99.7041 126.412 99.9678C126.412 100.231 126.33 100.451 126.166 100.627C126.002 100.803 125.762 100.891 125.445 100.891C125.129 100.891 124.889 100.803 124.725 100.627C124.566 100.451 124.487 100.231 124.487 99.9678ZM130.394 102.49L130.446 103.686C131.173 102.771 132.122 102.314 133.294 102.314C135.304 102.314 136.317 103.448 136.335 105.716V112H134.709V105.707C134.703 105.021 134.545 104.515 134.234 104.187C133.93 103.858 133.452 103.694 132.802 103.694C132.274 103.694 131.812 103.835 131.413 104.116C131.015 104.397 130.704 104.767 130.481 105.224V112H128.855V102.49H130.394ZM138.4 107.166C138.4 105.684 138.743 104.506 139.429 103.633C140.114 102.754 141.022 102.314 142.153 102.314C143.313 102.314 144.219 102.725 144.869 103.545L144.948 102.49H146.434V111.771C146.434 113.002 146.067 113.972 145.335 114.681C144.608 115.39 143.63 115.744 142.399 115.744C141.714 115.744 141.043 115.598 140.387 115.305C139.73 115.012 139.229 114.61 138.884 114.101L139.728 113.125C140.425 113.986 141.277 114.417 142.285 114.417C143.076 114.417 143.691 114.194 144.131 113.749C144.576 113.304 144.799 112.677 144.799 111.868V111.051C144.148 111.801 143.261 112.176 142.136 112.176C141.022 112.176 140.12 111.728 139.429 110.831C138.743 109.935 138.4 108.713 138.4 107.166ZM140.035 107.351C140.035 108.423 140.255 109.267 140.694 109.882C141.134 110.491 141.749 110.796 142.54 110.796C143.565 110.796 144.318 110.33 144.799 109.398V105.057C144.301 104.148 143.554 103.694 142.558 103.694C141.767 103.694 141.148 104.002 140.703 104.617C140.258 105.232 140.035 106.144 140.035 107.351Z" fill="#F16C21"/>
</g>
<g filter="url(#filter1_d)">
<path d="M291.552 108.66H286.19L284.986 112H283.246L288.133 99.2031H289.609L294.505 112H292.773L291.552 108.66ZM286.7 107.271H291.051L288.871 101.286L286.7 107.271ZM297.739 112H296.113V98.5H297.739V112ZM302.116 112H300.49V98.5H302.116V112ZM311.397 100.188V102.49H313.173V103.747H311.397V109.645C311.397 110.025 311.477 110.312 311.635 110.506C311.793 110.693 312.062 110.787 312.443 110.787C312.631 110.787 312.889 110.752 313.217 110.682V112C312.789 112.117 312.373 112.176 311.969 112.176C311.242 112.176 310.694 111.956 310.325 111.517C309.956 111.077 309.771 110.453 309.771 109.645V103.747H308.04V102.49H309.771V100.188H311.397ZM316.847 112H315.221V102.49H316.847V112ZM315.089 99.9678C315.089 99.7041 315.168 99.4814 315.326 99.2998C315.49 99.1182 315.73 99.0273 316.047 99.0273C316.363 99.0273 316.604 99.1182 316.768 99.2998C316.932 99.4814 317.014 99.7041 317.014 99.9678C317.014 100.231 316.932 100.451 316.768 100.627C316.604 100.803 316.363 100.891 316.047 100.891C315.73 100.891 315.49 100.803 315.326 100.627C315.168 100.451 315.089 100.231 315.089 99.9678ZM320.986 102.49L321.03 103.545C321.728 102.725 322.668 102.314 323.852 102.314C325.182 102.314 326.087 102.824 326.567 103.844C326.884 103.387 327.294 103.018 327.798 102.736C328.308 102.455 328.908 102.314 329.6 102.314C331.686 102.314 332.746 103.419 332.781 105.628V112H331.155V105.725C331.155 105.045 331 104.538 330.689 104.204C330.379 103.864 329.857 103.694 329.125 103.694C328.521 103.694 328.021 103.876 327.622 104.239C327.224 104.597 326.992 105.08 326.928 105.689V112H325.293V105.769C325.293 104.386 324.616 103.694 323.263 103.694C322.196 103.694 321.467 104.148 321.074 105.057V112H319.448V102.49H320.986ZM339.188 112.176C337.899 112.176 336.851 111.754 336.042 110.91C335.233 110.061 334.829 108.927 334.829 107.509V107.21C334.829 106.267 335.008 105.426 335.365 104.688C335.729 103.943 336.232 103.363 336.877 102.947C337.527 102.525 338.23 102.314 338.986 102.314C340.223 102.314 341.184 102.722 341.869 103.536C342.555 104.351 342.897 105.517 342.897 107.034V107.711H336.455C336.479 108.648 336.751 109.407 337.272 109.987C337.8 110.562 338.468 110.849 339.276 110.849C339.851 110.849 340.337 110.731 340.735 110.497C341.134 110.263 341.482 109.952 341.781 109.565L342.774 110.339C341.978 111.563 340.782 112.176 339.188 112.176ZM338.986 103.65C338.33 103.65 337.779 103.891 337.334 104.371C336.889 104.846 336.613 105.514 336.508 106.375H341.271V106.252C341.225 105.426 341.002 104.787 340.604 104.336C340.205 103.879 339.666 103.65 338.986 103.65ZM355.123 112C355.029 111.812 354.953 111.479 354.895 110.998C354.139 111.783 353.236 112.176 352.188 112.176C351.25 112.176 350.479 111.912 349.876 111.385C349.278 110.852 348.979 110.178 348.979 109.363C348.979 108.373 349.354 107.605 350.104 107.061C350.86 106.51 351.921 106.234 353.286 106.234H354.868V105.487C354.868 104.919 354.698 104.468 354.358 104.134C354.019 103.794 353.518 103.624 352.855 103.624C352.275 103.624 351.789 103.771 351.396 104.063C351.004 104.356 350.808 104.711 350.808 105.127H349.173C349.173 104.652 349.34 104.195 349.674 103.756C350.014 103.311 350.471 102.959 351.045 102.701C351.625 102.443 352.261 102.314 352.952 102.314C354.048 102.314 354.906 102.59 355.527 103.141C356.148 103.686 356.471 104.438 356.494 105.399V109.776C356.494 110.649 356.605 111.344 356.828 111.859V112H355.123ZM352.425 110.761C352.935 110.761 353.418 110.629 353.875 110.365C354.332 110.102 354.663 109.759 354.868 109.337V107.386H353.594C351.602 107.386 350.605 107.969 350.605 109.135C350.605 109.645 350.775 110.043 351.115 110.33C351.455 110.617 351.892 110.761 352.425 110.761ZM362.857 110.849C363.438 110.849 363.944 110.673 364.378 110.321C364.812 109.97 365.052 109.53 365.099 109.003H366.637C366.607 109.548 366.42 110.066 366.074 110.559C365.729 111.051 365.266 111.443 364.686 111.736C364.111 112.029 363.502 112.176 362.857 112.176C361.562 112.176 360.531 111.745 359.764 110.884C359.002 110.017 358.621 108.833 358.621 107.333V107.061C358.621 106.135 358.791 105.312 359.131 104.591C359.471 103.87 359.957 103.311 360.59 102.912C361.229 102.514 361.981 102.314 362.849 102.314C363.915 102.314 364.8 102.634 365.503 103.272C366.212 103.911 366.59 104.74 366.637 105.76H365.099C365.052 105.145 364.817 104.641 364.396 104.248C363.979 103.85 363.464 103.65 362.849 103.65C362.022 103.65 361.381 103.949 360.924 104.547C360.473 105.139 360.247 105.997 360.247 107.122V107.43C360.247 108.525 360.473 109.369 360.924 109.961C361.375 110.553 362.02 110.849 362.857 110.849ZM372.279 110.849C372.859 110.849 373.366 110.673 373.8 110.321C374.233 109.97 374.474 109.53 374.521 109.003H376.059C376.029 109.548 375.842 110.066 375.496 110.559C375.15 111.051 374.688 111.443 374.107 111.736C373.533 112.029 372.924 112.176 372.279 112.176C370.984 112.176 369.953 111.745 369.186 110.884C368.424 110.017 368.043 108.833 368.043 107.333V107.061C368.043 106.135 368.213 105.312 368.553 104.591C368.893 103.87 369.379 103.311 370.012 102.912C370.65 102.514 371.403 102.314 372.271 102.314C373.337 102.314 374.222 102.634 374.925 103.272C375.634 103.911 376.012 104.74 376.059 105.76H374.521C374.474 105.145 374.239 104.641 373.817 104.248C373.401 103.85 372.886 103.65 372.271 103.65C371.444 103.65 370.803 103.949 370.346 104.547C369.895 105.139 369.669 105.997 369.669 107.122V107.43C369.669 108.525 369.895 109.369 370.346 109.961C370.797 110.553 371.441 110.849 372.279 110.849ZM381.833 112.176C380.544 112.176 379.495 111.754 378.687 110.91C377.878 110.061 377.474 108.927 377.474 107.509V107.21C377.474 106.267 377.652 105.426 378.01 104.688C378.373 103.943 378.877 103.363 379.521 102.947C380.172 102.525 380.875 102.314 381.631 102.314C382.867 102.314 383.828 102.722 384.514 103.536C385.199 104.351 385.542 105.517 385.542 107.034V107.711H379.1C379.123 108.648 379.396 109.407 379.917 109.987C380.444 110.562 381.112 110.849 381.921 110.849C382.495 110.849 382.981 110.731 383.38 110.497C383.778 110.263 384.127 109.952 384.426 109.565L385.419 110.339C384.622 111.563 383.427 112.176 381.833 112.176ZM381.631 103.65C380.975 103.65 380.424 103.891 379.979 104.371C379.533 104.846 379.258 105.514 379.152 106.375H383.916V106.252C383.869 105.426 383.646 104.787 383.248 104.336C382.85 103.879 382.311 103.65 381.631 103.65ZM392.969 109.478C392.969 109.038 392.802 108.698 392.468 108.458C392.14 108.212 391.562 108.001 390.736 107.825C389.916 107.649 389.263 107.438 388.776 107.192C388.296 106.946 387.938 106.653 387.704 106.313C387.476 105.974 387.361 105.569 387.361 105.101C387.361 104.321 387.689 103.662 388.346 103.123C389.008 102.584 389.852 102.314 390.877 102.314C391.955 102.314 392.828 102.593 393.496 103.149C394.17 103.706 394.507 104.418 394.507 105.285H392.872C392.872 104.84 392.682 104.456 392.301 104.134C391.926 103.812 391.451 103.65 390.877 103.65C390.285 103.65 389.822 103.779 389.488 104.037C389.154 104.295 388.987 104.632 388.987 105.048C388.987 105.44 389.143 105.736 389.453 105.936C389.764 106.135 390.323 106.325 391.132 106.507C391.946 106.688 392.605 106.905 393.109 107.157C393.613 107.409 393.985 107.714 394.226 108.071C394.472 108.423 394.595 108.854 394.595 109.363C394.595 110.213 394.255 110.896 393.575 111.411C392.896 111.921 392.014 112.176 390.93 112.176C390.168 112.176 389.494 112.041 388.908 111.771C388.322 111.502 387.862 111.127 387.528 110.646C387.2 110.16 387.036 109.636 387.036 109.073H388.662C388.691 109.618 388.908 110.052 389.312 110.374C389.723 110.69 390.262 110.849 390.93 110.849C391.545 110.849 392.037 110.726 392.406 110.479C392.781 110.228 392.969 109.894 392.969 109.478ZM402.25 109.478C402.25 109.038 402.083 108.698 401.749 108.458C401.421 108.212 400.844 108.001 400.018 107.825C399.197 107.649 398.544 107.438 398.058 107.192C397.577 106.946 397.22 106.653 396.985 106.313C396.757 105.974 396.643 105.569 396.643 105.101C396.643 104.321 396.971 103.662 397.627 103.123C398.289 102.584 399.133 102.314 400.158 102.314C401.236 102.314 402.109 102.593 402.777 103.149C403.451 103.706 403.788 104.418 403.788 105.285H402.153C402.153 104.84 401.963 104.456 401.582 104.134C401.207 103.812 400.732 103.65 400.158 103.65C399.566 103.65 399.104 103.779 398.77 104.037C398.436 104.295 398.269 104.632 398.269 105.048C398.269 105.44 398.424 105.736 398.734 105.936C399.045 106.135 399.604 106.325 400.413 106.507C401.228 106.688 401.887 106.905 402.391 107.157C402.895 107.409 403.267 107.714 403.507 108.071C403.753 108.423 403.876 108.854 403.876 109.363C403.876 110.213 403.536 110.896 402.856 111.411C402.177 111.921 401.295 112.176 400.211 112.176C399.449 112.176 398.775 112.041 398.189 111.771C397.604 111.502 397.144 111.127 396.81 110.646C396.481 110.16 396.317 109.636 396.317 109.073H397.943C397.973 109.618 398.189 110.052 398.594 110.374C399.004 110.69 399.543 110.849 400.211 110.849C400.826 110.849 401.318 110.726 401.688 110.479C402.062 110.228 402.25 109.894 402.25 109.478Z" fill="#F16C21"/>
</g>
<g filter="url(#filter2_d)">
<path d="M306.32 360H304.624V354.085H298.173V360H296.485V347.203H298.173V352.705H304.624V347.203H306.32V360ZM308.632 355.157C308.632 354.226 308.813 353.388 309.177 352.644C309.546 351.899 310.056 351.325 310.706 350.921C311.362 350.517 312.109 350.314 312.947 350.314C314.242 350.314 315.288 350.763 316.085 351.659C316.888 352.556 317.289 353.748 317.289 355.236V355.351C317.289 356.276 317.11 357.108 316.753 357.847C316.401 358.579 315.895 359.15 315.232 359.561C314.576 359.971 313.82 360.176 312.965 360.176C311.676 360.176 310.63 359.728 309.827 358.831C309.03 357.935 308.632 356.748 308.632 355.271V355.157ZM310.267 355.351C310.267 356.405 310.51 357.252 310.996 357.891C311.488 358.529 312.145 358.849 312.965 358.849C313.791 358.849 314.447 358.526 314.934 357.882C315.42 357.231 315.663 356.323 315.663 355.157C315.663 354.114 315.414 353.271 314.916 352.626C314.424 351.976 313.768 351.65 312.947 351.65C312.145 351.65 311.497 351.97 311.005 352.608C310.513 353.247 310.267 354.161 310.267 355.351ZM327.748 357.759L329.576 350.49H331.202L328.434 360H327.115L324.804 352.793L322.554 360H321.235L318.476 350.49H320.093L321.965 357.609L324.18 350.49H325.489L327.748 357.759ZM345.748 357.759L347.576 350.49H349.202L346.434 360H345.115L342.804 352.793L340.554 360H339.235L336.476 350.49H338.093L339.965 357.609L342.18 350.49H343.489L345.748 357.759ZM354.81 360.176C353.521 360.176 352.472 359.754 351.663 358.91C350.854 358.061 350.45 356.927 350.45 355.509V355.21C350.45 354.267 350.629 353.426 350.986 352.688C351.35 351.943 351.854 351.363 352.498 350.947C353.148 350.525 353.852 350.314 354.607 350.314C355.844 350.314 356.805 350.722 357.49 351.536C358.176 352.351 358.519 353.517 358.519 355.034V355.711H352.076C352.1 356.648 352.372 357.407 352.894 357.987C353.421 358.562 354.089 358.849 354.897 358.849C355.472 358.849 355.958 358.731 356.356 358.497C356.755 358.263 357.104 357.952 357.402 357.565L358.396 358.339C357.599 359.563 356.403 360.176 354.81 360.176ZM354.607 351.65C353.951 351.65 353.4 351.891 352.955 352.371C352.51 352.846 352.234 353.514 352.129 354.375H356.893V354.252C356.846 353.426 356.623 352.787 356.225 352.336C355.826 351.879 355.287 351.65 354.607 351.65ZM364.478 355.166C364.478 353.707 364.823 352.535 365.515 351.65C366.206 350.76 367.111 350.314 368.23 350.314C369.344 350.314 370.226 350.695 370.876 351.457V346.5H372.502V360H371.008L370.929 358.98C370.278 359.777 369.373 360.176 368.213 360.176C367.111 360.176 366.212 359.725 365.515 358.822C364.823 357.92 364.478 356.742 364.478 355.289V355.166ZM366.104 355.351C366.104 356.429 366.326 357.272 366.771 357.882C367.217 358.491 367.832 358.796 368.617 358.796C369.648 358.796 370.401 358.333 370.876 357.407V353.039C370.39 352.143 369.643 351.694 368.635 351.694C367.838 351.694 367.217 352.002 366.771 352.617C366.326 353.232 366.104 354.144 366.104 355.351ZM374.603 355.157C374.603 354.226 374.784 353.388 375.147 352.644C375.517 351.899 376.026 351.325 376.677 350.921C377.333 350.517 378.08 350.314 378.918 350.314C380.213 350.314 381.259 350.763 382.056 351.659C382.858 352.556 383.26 353.748 383.26 355.236V355.351C383.26 356.276 383.081 357.108 382.724 357.847C382.372 358.579 381.865 359.15 381.203 359.561C380.547 359.971 379.791 360.176 378.936 360.176C377.646 360.176 376.601 359.728 375.798 358.831C375.001 357.935 374.603 356.748 374.603 355.271V355.157ZM376.237 355.351C376.237 356.405 376.48 357.252 376.967 357.891C377.459 358.529 378.115 358.849 378.936 358.849C379.762 358.849 380.418 358.526 380.904 357.882C381.391 357.231 381.634 356.323 381.634 355.157C381.634 354.114 381.385 353.271 380.887 352.626C380.395 351.976 379.738 351.65 378.918 351.65C378.115 351.65 377.468 351.97 376.976 352.608C376.483 353.247 376.237 354.161 376.237 355.351ZM387.206 356.396C387.218 355.699 387.297 355.148 387.443 354.744C387.59 354.34 387.889 353.892 388.34 353.399L389.491 352.213C389.983 351.656 390.229 351.059 390.229 350.42C390.229 349.805 390.068 349.324 389.746 348.979C389.424 348.627 388.955 348.451 388.34 348.451C387.742 348.451 387.262 348.609 386.898 348.926C386.535 349.242 386.354 349.667 386.354 350.2H384.728C384.739 349.251 385.076 348.486 385.738 347.906C386.406 347.32 387.273 347.027 388.34 347.027C389.447 347.027 390.309 347.326 390.924 347.924C391.545 348.516 391.855 349.33 391.855 350.367C391.855 351.393 391.381 352.403 390.432 353.399L389.474 354.349C389.046 354.823 388.832 355.506 388.832 356.396H387.206ZM387.136 359.183C387.136 358.919 387.215 358.699 387.373 358.523C387.537 358.342 387.777 358.251 388.094 358.251C388.41 358.251 388.65 358.342 388.814 358.523C388.979 358.699 389.061 358.919 389.061 359.183C389.061 359.446 388.979 359.666 388.814 359.842C388.65 360.012 388.41 360.097 388.094 360.097C387.777 360.097 387.537 360.012 387.373 359.842C387.215 359.666 387.136 359.446 387.136 359.183Z" fill="#F16C21"/>
</g>
<g clip-path="url(#clip1)">
<path d="M366.7 23.8992C367.132 22.7707 367.375 21.5367 367.375 20.25C367.375 14.6602 362.84 10.125 357.25 10.125C355.172 10.125 353.232 10.7578 351.629 11.8336C348.707 6.77109 343.254 3.375 337 3.375C327.677 3.375 320.125 10.9266 320.125 20.25C320.125 20.5348 320.136 20.8195 320.146 21.1043C314.24 23.182 310 28.8141 310 35.4375C310 43.8223 316.803 50.625 325.188 50.625H364C371.457 50.625 377.5 44.5816 377.5 37.125C377.5 30.5965 372.859 25.1438 366.7 23.8992Z" fill="#0D3D55"/>
</g>
<g filter="url(#filter3_d)">
<path d="M545.256 106.296C543.809 105.88 542.754 105.37 542.092 104.767C541.436 104.157 541.107 103.407 541.107 102.517C541.107 101.509 541.509 100.677 542.312 100.021C543.12 99.3584 544.169 99.0273 545.458 99.0273C546.337 99.0273 547.119 99.1973 547.805 99.5371C548.496 99.877 549.029 100.346 549.404 100.943C549.785 101.541 549.976 102.194 549.976 102.903H548.279C548.279 102.13 548.033 101.523 547.541 101.084C547.049 100.639 546.354 100.416 545.458 100.416C544.626 100.416 543.976 100.601 543.507 100.97C543.044 101.333 542.812 101.84 542.812 102.49C542.812 103.012 543.032 103.454 543.472 103.817C543.917 104.175 544.67 104.503 545.73 104.802C546.797 105.101 547.629 105.432 548.227 105.795C548.83 106.152 549.275 106.571 549.562 107.052C549.855 107.532 550.002 108.098 550.002 108.748C550.002 109.785 549.598 110.617 548.789 111.244C547.98 111.865 546.899 112.176 545.546 112.176C544.667 112.176 543.847 112.009 543.085 111.675C542.323 111.335 541.734 110.872 541.318 110.286C540.908 109.7 540.703 109.035 540.703 108.291H542.399C542.399 109.064 542.684 109.677 543.252 110.128C543.826 110.573 544.591 110.796 545.546 110.796C546.437 110.796 547.119 110.614 547.594 110.251C548.068 109.888 548.306 109.393 548.306 108.766C548.306 108.139 548.086 107.655 547.646 107.315C547.207 106.97 546.41 106.63 545.256 106.296ZM554.124 100.188V102.49H555.899V103.747H554.124V109.645C554.124 110.025 554.203 110.312 554.361 110.506C554.52 110.693 554.789 110.787 555.17 110.787C555.357 110.787 555.615 110.752 555.943 110.682V112C555.516 112.117 555.1 112.176 554.695 112.176C553.969 112.176 553.421 111.956 553.052 111.517C552.683 111.077 552.498 110.453 552.498 109.645V103.747H550.767V102.49H552.498V100.188H554.124ZM563.678 111.06C563.045 111.804 562.116 112.176 560.892 112.176C559.878 112.176 559.104 111.883 558.571 111.297C558.044 110.705 557.777 109.832 557.771 108.678V102.49H559.397V108.634C559.397 110.075 559.983 110.796 561.155 110.796C562.397 110.796 563.224 110.333 563.634 109.407V102.49H565.26V112H563.713L563.678 111.06ZM567.343 107.166C567.343 105.707 567.688 104.535 568.38 103.65C569.071 102.76 569.977 102.314 571.096 102.314C572.209 102.314 573.091 102.695 573.741 103.457V98.5H575.367V112H573.873L573.794 110.98C573.144 111.777 572.238 112.176 571.078 112.176C569.977 112.176 569.077 111.725 568.38 110.822C567.688 109.92 567.343 108.742 567.343 107.289V107.166ZM568.969 107.351C568.969 108.429 569.191 109.272 569.637 109.882C570.082 110.491 570.697 110.796 571.482 110.796C572.514 110.796 573.267 110.333 573.741 109.407V105.039C573.255 104.143 572.508 103.694 571.5 103.694C570.703 103.694 570.082 104.002 569.637 104.617C569.191 105.232 568.969 106.144 568.969 107.351ZM581.845 112.176C580.556 112.176 579.507 111.754 578.698 110.91C577.89 110.061 577.485 108.927 577.485 107.509V107.21C577.485 106.267 577.664 105.426 578.021 104.688C578.385 103.943 578.889 103.363 579.533 102.947C580.184 102.525 580.887 102.314 581.643 102.314C582.879 102.314 583.84 102.722 584.525 103.536C585.211 104.351 585.554 105.517 585.554 107.034V107.711H579.111C579.135 108.648 579.407 109.407 579.929 109.987C580.456 110.562 581.124 110.849 581.933 110.849C582.507 110.849 582.993 110.731 583.392 110.497C583.79 110.263 584.139 109.952 584.438 109.565L585.431 110.339C584.634 111.563 583.438 112.176 581.845 112.176ZM581.643 103.65C580.986 103.65 580.436 103.891 579.99 104.371C579.545 104.846 579.27 105.514 579.164 106.375H583.928V106.252C583.881 105.426 583.658 104.787 583.26 104.336C582.861 103.879 582.322 103.65 581.643 103.65ZM588.981 102.49L589.034 103.686C589.761 102.771 590.71 102.314 591.882 102.314C593.892 102.314 594.905 103.448 594.923 105.716V112H593.297V105.707C593.291 105.021 593.133 104.515 592.822 104.187C592.518 103.858 592.04 103.694 591.39 103.694C590.862 103.694 590.399 103.835 590.001 104.116C589.603 104.397 589.292 104.767 589.069 105.224V112H587.443V102.49H588.981ZM599.581 100.188V102.49H601.356V103.747H599.581V109.645C599.581 110.025 599.66 110.312 599.818 110.506C599.977 110.693 600.246 110.787 600.627 110.787C600.814 110.787 601.072 110.752 601.4 110.682V112C600.973 112.117 600.557 112.176 600.152 112.176C599.426 112.176 598.878 111.956 598.509 111.517C598.14 111.077 597.955 110.453 597.955 109.645V103.747H596.224V102.49H597.955V100.188H599.581ZM616.148 109.759L617.977 102.49H619.603L616.834 112H615.516L613.204 104.793L610.954 112H609.636L606.876 102.49H608.493L610.365 109.609L612.58 102.49H613.89L616.148 109.759ZM625.21 112.176C623.921 112.176 622.872 111.754 622.063 110.91C621.255 110.061 620.851 108.927 620.851 107.509V107.21C620.851 106.267 621.029 105.426 621.387 104.688C621.75 103.943 622.254 103.363 622.898 102.947C623.549 102.525 624.252 102.314 625.008 102.314C626.244 102.314 627.205 102.722 627.891 103.536C628.576 104.351 628.919 105.517 628.919 107.034V107.711H622.477C622.5 108.648 622.772 109.407 623.294 109.987C623.821 110.562 624.489 110.849 625.298 110.849C625.872 110.849 626.358 110.731 626.757 110.497C627.155 110.263 627.504 109.952 627.803 109.565L628.796 110.339C627.999 111.563 626.804 112.176 625.21 112.176ZM625.008 103.65C624.352 103.65 623.801 103.891 623.355 104.371C622.91 104.846 622.635 105.514 622.529 106.375H627.293V106.252C627.246 105.426 627.023 104.787 626.625 104.336C626.227 103.879 625.688 103.65 625.008 103.65ZM632.575 112H630.949V98.5H632.575V112ZM635.985 112V103.747H634.482V102.49H635.985V101.515C635.985 100.495 636.258 99.707 636.803 99.1504C637.348 98.5938 638.118 98.3154 639.114 98.3154C639.489 98.3154 639.861 98.3652 640.23 98.4648L640.143 99.7832C639.867 99.7305 639.574 99.7041 639.264 99.7041C638.736 99.7041 638.329 99.8594 638.042 100.17C637.755 100.475 637.611 100.914 637.611 101.488V102.49H639.642V103.747H637.611V112H635.985ZM647.314 112C647.221 111.812 647.145 111.479 647.086 110.998C646.33 111.783 645.428 112.176 644.379 112.176C643.441 112.176 642.671 111.912 642.067 111.385C641.47 110.852 641.171 110.178 641.171 109.363C641.171 108.373 641.546 107.605 642.296 107.061C643.052 106.51 644.112 106.234 645.478 106.234H647.06V105.487C647.06 104.919 646.89 104.468 646.55 104.134C646.21 103.794 645.709 103.624 645.047 103.624C644.467 103.624 643.98 103.771 643.588 104.063C643.195 104.356 642.999 104.711 642.999 105.127H641.364C641.364 104.652 641.531 104.195 641.865 103.756C642.205 103.311 642.662 102.959 643.236 102.701C643.816 102.443 644.452 102.314 645.144 102.314C646.239 102.314 647.098 102.59 647.719 103.141C648.34 103.686 648.662 104.438 648.686 105.399V109.776C648.686 110.649 648.797 111.344 649.02 111.859V112H647.314ZM644.616 110.761C645.126 110.761 645.609 110.629 646.066 110.365C646.523 110.102 646.854 109.759 647.06 109.337V107.386H645.785C643.793 107.386 642.797 107.969 642.797 109.135C642.797 109.645 642.967 110.043 643.307 110.33C643.646 110.617 644.083 110.761 644.616 110.761ZM655.831 103.949C655.585 103.908 655.318 103.888 655.031 103.888C653.965 103.888 653.241 104.342 652.86 105.25V112H651.234V102.49H652.816L652.843 103.589C653.376 102.739 654.132 102.314 655.11 102.314C655.427 102.314 655.667 102.355 655.831 102.438V103.949ZM661.104 112.176C659.815 112.176 658.767 111.754 657.958 110.91C657.149 110.061 656.745 108.927 656.745 107.509V107.21C656.745 106.267 656.924 105.426 657.281 104.688C657.645 103.943 658.148 103.363 658.793 102.947C659.443 102.525 660.146 102.314 660.902 102.314C662.139 102.314 663.1 102.722 663.785 103.536C664.471 104.351 664.813 105.517 664.813 107.034V107.711H658.371C658.395 108.648 658.667 109.407 659.188 109.987C659.716 110.562 660.384 110.849 661.192 110.849C661.767 110.849 662.253 110.731 662.651 110.497C663.05 110.263 663.398 109.952 663.697 109.565L664.69 110.339C663.894 111.563 662.698 112.176 661.104 112.176ZM660.902 103.65C660.246 103.65 659.695 103.891 659.25 104.371C658.805 104.846 658.529 105.514 658.424 106.375H663.188V106.252C663.141 105.426 662.918 104.787 662.52 104.336C662.121 103.879 661.582 103.65 660.902 103.65Z" fill="#F16C21"/>
</g>
<g filter="url(#filter4_d)">
<path d="M523.768 354.015C523.768 355.269 523.557 356.364 523.135 357.302C522.713 358.233 522.115 358.945 521.342 359.438C520.568 359.93 519.666 360.176 518.635 360.176C517.627 360.176 516.733 359.93 515.954 359.438C515.175 358.939 514.568 358.233 514.135 357.319C513.707 356.399 513.487 355.336 513.476 354.129V353.206C513.476 351.976 513.689 350.889 514.117 349.945C514.545 349.002 515.148 348.281 515.928 347.783C516.713 347.279 517.609 347.027 518.617 347.027C519.643 347.027 520.545 347.276 521.324 347.774C522.109 348.267 522.713 348.984 523.135 349.928C523.557 350.865 523.768 351.958 523.768 353.206V354.015ZM522.089 353.188C522.089 351.671 521.784 350.508 521.175 349.699C520.565 348.885 519.713 348.478 518.617 348.478C517.551 348.478 516.71 348.885 516.095 349.699C515.485 350.508 515.172 351.633 515.154 353.074V354.015C515.154 355.485 515.462 356.643 516.077 357.486C516.698 358.324 517.551 358.743 518.635 358.743C519.725 358.743 520.568 358.348 521.166 357.557C521.764 356.76 522.071 355.62 522.089 354.138V353.188ZM530.641 351.949C530.395 351.908 530.128 351.888 529.841 351.888C528.774 351.888 528.051 352.342 527.67 353.25V360H526.044V350.49H527.626L527.652 351.589C528.186 350.739 528.941 350.314 529.92 350.314C530.236 350.314 530.477 350.355 530.641 350.438V351.949ZM531.581 355.166C531.581 353.684 531.924 352.506 532.609 351.633C533.295 350.754 534.203 350.314 535.334 350.314C536.494 350.314 537.399 350.725 538.05 351.545L538.129 350.49H539.614V359.771C539.614 361.002 539.248 361.972 538.516 362.681C537.789 363.39 536.811 363.744 535.58 363.744C534.895 363.744 534.224 363.598 533.567 363.305C532.911 363.012 532.41 362.61 532.064 362.101L532.908 361.125C533.605 361.986 534.458 362.417 535.466 362.417C536.257 362.417 536.872 362.194 537.312 361.749C537.757 361.304 537.979 360.677 537.979 359.868V359.051C537.329 359.801 536.441 360.176 535.316 360.176C534.203 360.176 533.301 359.728 532.609 358.831C531.924 357.935 531.581 356.713 531.581 355.166ZM533.216 355.351C533.216 356.423 533.436 357.267 533.875 357.882C534.314 358.491 534.93 358.796 535.721 358.796C536.746 358.796 537.499 358.33 537.979 357.398V353.057C537.481 352.148 536.734 351.694 535.738 351.694C534.947 351.694 534.329 352.002 533.884 352.617C533.438 353.232 533.216 354.144 533.216 355.351ZM547.946 360C547.853 359.812 547.776 359.479 547.718 358.998C546.962 359.783 546.06 360.176 545.011 360.176C544.073 360.176 543.303 359.912 542.699 359.385C542.102 358.852 541.803 358.178 541.803 357.363C541.803 356.373 542.178 355.605 542.928 355.061C543.684 354.51 544.744 354.234 546.109 354.234H547.691V353.487C547.691 352.919 547.521 352.468 547.182 352.134C546.842 351.794 546.341 351.624 545.679 351.624C545.099 351.624 544.612 351.771 544.22 352.063C543.827 352.356 543.631 352.711 543.631 353.127H541.996C541.996 352.652 542.163 352.195 542.497 351.756C542.837 351.311 543.294 350.959 543.868 350.701C544.448 350.443 545.084 350.314 545.775 350.314C546.871 350.314 547.729 350.59 548.351 351.141C548.972 351.686 549.294 352.438 549.317 353.399V357.776C549.317 358.649 549.429 359.344 549.651 359.859V360H547.946ZM545.248 358.761C545.758 358.761 546.241 358.629 546.698 358.365C547.155 358.102 547.486 357.759 547.691 357.337V355.386H546.417C544.425 355.386 543.429 355.969 543.429 357.135C543.429 357.645 543.599 358.043 543.938 358.33C544.278 358.617 544.715 358.761 545.248 358.761ZM553.404 350.49L553.457 351.686C554.184 350.771 555.133 350.314 556.305 350.314C558.314 350.314 559.328 351.448 559.346 353.716V360H557.72V353.707C557.714 353.021 557.556 352.515 557.245 352.187C556.94 351.858 556.463 351.694 555.812 351.694C555.285 351.694 554.822 351.835 554.424 352.116C554.025 352.397 553.715 352.767 553.492 353.224V360H551.866V350.49H553.404ZM563.564 360H561.938V350.49H563.564V360ZM561.807 347.968C561.807 347.704 561.886 347.481 562.044 347.3C562.208 347.118 562.448 347.027 562.765 347.027C563.081 347.027 563.321 347.118 563.485 347.3C563.649 347.481 563.731 347.704 563.731 347.968C563.731 348.231 563.649 348.451 563.485 348.627C563.321 348.803 563.081 348.891 562.765 348.891C562.448 348.891 562.208 348.803 562.044 348.627C561.886 348.451 561.807 348.231 561.807 347.968ZM567.704 358.673H573.268V360H565.718V358.805L570.965 351.835H565.797V350.49H573.004V351.642L567.704 358.673ZM578.91 360.176C577.621 360.176 576.572 359.754 575.764 358.91C574.955 358.061 574.551 356.927 574.551 355.509V355.21C574.551 354.267 574.729 353.426 575.087 352.688C575.45 351.943 575.954 351.363 576.599 350.947C577.249 350.525 577.952 350.314 578.708 350.314C579.944 350.314 580.905 350.722 581.591 351.536C582.276 352.351 582.619 353.517 582.619 355.034V355.711H576.177C576.2 356.648 576.473 357.407 576.994 357.987C577.521 358.562 578.189 358.849 578.998 358.849C579.572 358.849 580.059 358.731 580.457 358.497C580.855 358.263 581.204 357.952 581.503 357.565L582.496 358.339C581.699 359.563 580.504 360.176 578.91 360.176ZM578.708 351.65C578.052 351.65 577.501 351.891 577.056 352.371C576.61 352.846 576.335 353.514 576.229 354.375H580.993V354.252C580.946 353.426 580.724 352.787 580.325 352.336C579.927 351.879 579.388 351.65 578.708 351.65ZM584.113 355.166C584.113 353.707 584.459 352.535 585.15 351.65C585.842 350.76 586.747 350.314 587.866 350.314C588.979 350.314 589.861 350.695 590.512 351.457V346.5H592.138V360H590.644L590.564 358.98C589.914 359.777 589.009 360.176 587.849 360.176C586.747 360.176 585.848 359.725 585.15 358.822C584.459 357.92 584.113 356.742 584.113 355.289V355.166ZM585.739 355.351C585.739 356.429 585.962 357.272 586.407 357.882C586.853 358.491 587.468 358.796 588.253 358.796C589.284 358.796 590.037 358.333 590.512 357.407V353.039C590.025 352.143 589.278 351.694 588.271 351.694C587.474 351.694 586.853 352.002 586.407 352.617C585.962 353.232 585.739 354.144 585.739 355.351ZM607.167 355.351C607.167 356.798 606.836 357.964 606.174 358.849C605.512 359.733 604.615 360.176 603.484 360.176C602.33 360.176 601.422 359.81 600.76 359.077V363.656H599.134V350.49H600.619L600.698 351.545C601.36 350.725 602.28 350.314 603.458 350.314C604.601 350.314 605.503 350.745 606.165 351.606C606.833 352.468 607.167 353.666 607.167 355.201V355.351ZM605.541 355.166C605.541 354.094 605.312 353.247 604.855 352.626C604.398 352.005 603.771 351.694 602.975 351.694C601.99 351.694 601.252 352.131 600.76 353.004V357.548C601.246 358.415 601.99 358.849 602.992 358.849C603.771 358.849 604.39 358.541 604.847 357.926C605.31 357.305 605.541 356.385 605.541 355.166ZM613.838 351.949C613.592 351.908 613.325 351.888 613.038 351.888C611.972 351.888 611.248 352.342 610.867 353.25V360H609.241V350.49H610.823L610.85 351.589C611.383 350.739 612.139 350.314 613.117 350.314C613.434 350.314 613.674 350.355 613.838 350.438V351.949ZM614.734 355.157C614.734 354.226 614.916 353.388 615.279 352.644C615.648 351.899 616.158 351.325 616.809 350.921C617.465 350.517 618.212 350.314 619.05 350.314C620.345 350.314 621.391 350.763 622.188 351.659C622.99 352.556 623.392 353.748 623.392 355.236V355.351C623.392 356.276 623.213 357.108 622.855 357.847C622.504 358.579 621.997 359.15 621.335 359.561C620.679 359.971 619.923 360.176 619.067 360.176C617.778 360.176 616.732 359.728 615.93 358.831C615.133 357.935 614.734 356.748 614.734 355.271V355.157ZM616.369 355.351C616.369 356.405 616.612 357.252 617.099 357.891C617.591 358.529 618.247 358.849 619.067 358.849C619.894 358.849 620.55 358.526 621.036 357.882C621.522 357.231 621.766 356.323 621.766 355.157C621.766 354.114 621.517 353.271 621.019 352.626C620.526 351.976 619.87 351.65 619.05 351.65C618.247 351.65 617.6 351.97 617.107 352.608C616.615 353.247 616.369 354.161 616.369 355.351ZM626.23 360V351.747H624.728V350.49H626.23V349.515C626.23 348.495 626.503 347.707 627.048 347.15C627.593 346.594 628.363 346.315 629.359 346.315C629.734 346.315 630.106 346.365 630.476 346.465L630.388 347.783C630.112 347.73 629.819 347.704 629.509 347.704C628.981 347.704 628.574 347.859 628.287 348.17C628 348.475 627.856 348.914 627.856 349.488V350.49H629.887V351.747H627.856V360H626.23ZM635.424 360.176C634.135 360.176 633.086 359.754 632.277 358.91C631.469 358.061 631.064 356.927 631.064 355.509V355.21C631.064 354.267 631.243 353.426 631.601 352.688C631.964 351.943 632.468 351.363 633.112 350.947C633.763 350.525 634.466 350.314 635.222 350.314C636.458 350.314 637.419 350.722 638.104 351.536C638.79 352.351 639.133 353.517 639.133 355.034V355.711H632.69C632.714 356.648 632.986 357.407 633.508 357.987C634.035 358.562 634.703 358.849 635.512 358.849C636.086 358.849 636.572 358.731 636.971 358.497C637.369 358.263 637.718 357.952 638.017 357.565L639.01 358.339C638.213 359.563 637.018 360.176 635.424 360.176ZM635.222 351.65C634.565 351.65 634.015 351.891 633.569 352.371C633.124 352.846 632.849 353.514 632.743 354.375H637.507V354.252C637.46 353.426 637.237 352.787 636.839 352.336C636.44 351.879 635.901 351.65 635.222 351.65ZM646.56 357.478C646.56 357.038 646.393 356.698 646.059 356.458C645.73 356.212 645.153 356.001 644.327 355.825C643.507 355.649 642.854 355.438 642.367 355.192C641.887 354.946 641.529 354.653 641.295 354.313C641.066 353.974 640.952 353.569 640.952 353.101C640.952 352.321 641.28 351.662 641.937 351.123C642.599 350.584 643.442 350.314 644.468 350.314C645.546 350.314 646.419 350.593 647.087 351.149C647.761 351.706 648.098 352.418 648.098 353.285H646.463C646.463 352.84 646.272 352.456 645.892 352.134C645.517 351.812 645.042 351.65 644.468 351.65C643.876 351.65 643.413 351.779 643.079 352.037C642.745 352.295 642.578 352.632 642.578 353.048C642.578 353.44 642.733 353.736 643.044 353.936C643.354 354.135 643.914 354.325 644.723 354.507C645.537 354.688 646.196 354.905 646.7 355.157C647.204 355.409 647.576 355.714 647.816 356.071C648.062 356.423 648.186 356.854 648.186 357.363C648.186 358.213 647.846 358.896 647.166 359.411C646.486 359.921 645.604 360.176 644.521 360.176C643.759 360.176 643.085 360.041 642.499 359.771C641.913 359.502 641.453 359.127 641.119 358.646C640.791 358.16 640.627 357.636 640.627 357.073H642.253C642.282 357.618 642.499 358.052 642.903 358.374C643.313 358.69 643.853 358.849 644.521 358.849C645.136 358.849 645.628 358.726 645.997 358.479C646.372 358.228 646.56 357.894 646.56 357.478ZM655.841 357.478C655.841 357.038 655.674 356.698 655.34 356.458C655.012 356.212 654.435 356.001 653.608 355.825C652.788 355.649 652.135 355.438 651.648 355.192C651.168 354.946 650.811 354.653 650.576 354.313C650.348 353.974 650.233 353.569 650.233 353.101C650.233 352.321 650.562 351.662 651.218 351.123C651.88 350.584 652.724 350.314 653.749 350.314C654.827 350.314 655.7 350.593 656.368 351.149C657.042 351.706 657.379 352.418 657.379 353.285H655.744C655.744 352.84 655.554 352.456 655.173 352.134C654.798 351.812 654.323 351.65 653.749 351.65C653.157 351.65 652.694 351.779 652.36 352.037C652.026 352.295 651.859 352.632 651.859 353.048C651.859 353.44 652.015 353.736 652.325 353.936C652.636 354.135 653.195 354.325 654.004 354.507C654.818 354.688 655.478 354.905 655.981 355.157C656.485 355.409 656.857 355.714 657.098 356.071C657.344 356.423 657.467 356.854 657.467 357.363C657.467 358.213 657.127 358.896 656.447 359.411C655.768 359.921 654.886 360.176 653.802 360.176C653.04 360.176 652.366 360.041 651.78 359.771C651.194 359.502 650.734 359.127 650.4 358.646C650.072 358.16 649.908 357.636 649.908 357.073H651.534C651.563 357.618 651.78 358.052 652.185 358.374C652.595 358.69 653.134 358.849 653.802 358.849C654.417 358.849 654.909 358.726 655.278 358.479C655.653 358.228 655.841 357.894 655.841 357.478ZM661.352 360H659.726V350.49H661.352V360ZM659.594 347.968C659.594 347.704 659.673 347.481 659.831 347.3C659.995 347.118 660.235 347.027 660.552 347.027C660.868 347.027 661.108 347.118 661.272 347.3C661.437 347.481 661.519 347.704 661.519 347.968C661.519 348.231 661.437 348.451 661.272 348.627C661.108 348.803 660.868 348.891 660.552 348.891C660.235 348.891 659.995 348.803 659.831 348.627C659.673 348.451 659.594 348.231 659.594 347.968ZM663.531 355.157C663.531 354.226 663.713 353.388 664.076 352.644C664.445 351.899 664.955 351.325 665.605 350.921C666.262 350.517 667.009 350.314 667.847 350.314C669.142 350.314 670.188 350.763 670.984 351.659C671.787 352.556 672.188 353.748 672.188 355.236V355.351C672.188 356.276 672.01 357.108 671.652 357.847C671.301 358.579 670.794 359.15 670.132 359.561C669.476 359.971 668.72 360.176 667.864 360.176C666.575 360.176 665.529 359.728 664.727 358.831C663.93 357.935 663.531 356.748 663.531 355.271V355.157ZM665.166 355.351C665.166 356.405 665.409 357.252 665.896 357.891C666.388 358.529 667.044 358.849 667.864 358.849C668.69 358.849 669.347 358.526 669.833 357.882C670.319 357.231 670.562 356.323 670.562 355.157C670.562 354.114 670.313 353.271 669.815 352.626C669.323 351.976 668.667 351.65 667.847 351.65C667.044 351.65 666.396 351.97 665.904 352.608C665.412 353.247 665.166 354.161 665.166 355.351ZM675.766 350.49L675.818 351.686C676.545 350.771 677.494 350.314 678.666 350.314C680.676 350.314 681.689 351.448 681.707 353.716V360H680.081V353.707C680.075 353.021 679.917 352.515 679.606 352.187C679.302 351.858 678.824 351.694 678.174 351.694C677.646 351.694 677.184 351.835 676.785 352.116C676.387 352.397 676.076 352.767 675.854 353.224V360H674.228V350.49H675.766ZM690.03 360C689.937 359.812 689.86 359.479 689.802 358.998C689.046 359.783 688.144 360.176 687.095 360.176C686.157 360.176 685.387 359.912 684.783 359.385C684.186 358.852 683.887 358.178 683.887 357.363C683.887 356.373 684.262 355.605 685.012 355.061C685.768 354.51 686.828 354.234 688.193 354.234H689.775V353.487C689.775 352.919 689.605 352.468 689.266 352.134C688.926 351.794 688.425 351.624 687.763 351.624C687.183 351.624 686.696 351.771 686.304 352.063C685.911 352.356 685.715 352.711 685.715 353.127H684.08C684.08 352.652 684.247 352.195 684.581 351.756C684.921 351.311 685.378 350.959 685.952 350.701C686.532 350.443 687.168 350.314 687.859 350.314C688.955 350.314 689.813 350.59 690.435 351.141C691.056 351.686 691.378 352.438 691.401 353.399V357.776C691.401 358.649 691.513 359.344 691.735 359.859V360H690.03ZM687.332 358.761C687.842 358.761 688.325 358.629 688.782 358.365C689.239 358.102 689.57 357.759 689.775 357.337V355.386H688.501C686.509 355.386 685.513 355.969 685.513 357.135C685.513 357.645 685.683 358.043 686.022 358.33C686.362 358.617 686.799 358.761 687.332 358.761ZM695.717 360H694.091V346.5H695.717V360ZM532.082 372.949C531.836 372.908 531.569 372.888 531.282 372.888C530.216 372.888 529.492 373.342 529.111 374.25V381H527.485V371.49H529.067L529.094 372.589C529.627 371.739 530.383 371.314 531.361 371.314C531.678 371.314 531.918 371.355 532.082 371.438V372.949ZM535.352 381H533.726V371.49H535.352V381ZM533.594 368.968C533.594 368.704 533.673 368.481 533.831 368.3C533.995 368.118 534.235 368.027 534.552 368.027C534.868 368.027 535.108 368.118 535.272 368.3C535.437 368.481 535.519 368.704 535.519 368.968C535.519 369.231 535.437 369.451 535.272 369.627C535.108 369.803 534.868 369.891 534.552 369.891C534.235 369.891 533.995 369.803 533.831 369.627C533.673 369.451 533.594 369.231 533.594 368.968ZM537.575 376.166C537.575 374.684 537.918 373.506 538.604 372.633C539.289 371.754 540.197 371.314 541.328 371.314C542.488 371.314 543.394 371.725 544.044 372.545L544.123 371.49H545.608V380.771C545.608 382.002 545.242 382.972 544.51 383.681C543.783 384.39 542.805 384.744 541.574 384.744C540.889 384.744 540.218 384.598 539.562 384.305C538.905 384.012 538.404 383.61 538.059 383.101L538.902 382.125C539.6 382.986 540.452 383.417 541.46 383.417C542.251 383.417 542.866 383.194 543.306 382.749C543.751 382.304 543.974 381.677 543.974 380.868V380.051C543.323 380.801 542.436 381.176 541.311 381.176C540.197 381.176 539.295 380.728 538.604 379.831C537.918 378.935 537.575 377.713 537.575 376.166ZM539.21 376.351C539.21 377.423 539.43 378.267 539.869 378.882C540.309 379.491 540.924 379.796 541.715 379.796C542.74 379.796 543.493 379.33 543.974 378.398V374.057C543.476 373.148 542.729 372.694 541.732 372.694C540.941 372.694 540.323 373.002 539.878 373.617C539.433 374.232 539.21 375.144 539.21 376.351ZM549.695 372.642C550.416 371.757 551.354 371.314 552.508 371.314C554.518 371.314 555.531 372.448 555.549 374.716V381H553.923V374.707C553.917 374.021 553.759 373.515 553.448 373.187C553.144 372.858 552.666 372.694 552.016 372.694C551.488 372.694 551.025 372.835 550.627 373.116C550.229 373.397 549.918 373.767 549.695 374.224V381H548.069V367.5H549.695V372.642ZM560.189 369.188V371.49H561.965V372.747H560.189V378.645C560.189 379.025 560.269 379.312 560.427 379.506C560.585 379.693 560.854 379.787 561.235 379.787C561.423 379.787 561.681 379.752 562.009 379.682V381C561.581 381.117 561.165 381.176 560.761 381.176C560.034 381.176 559.486 380.956 559.117 380.517C558.748 380.077 558.563 379.453 558.563 378.645V372.747H556.832V371.49H558.563V369.188H560.189ZM569.137 381V372.747H567.634V371.49H569.137V370.515C569.137 369.495 569.409 368.707 569.954 368.15C570.499 367.594 571.27 367.315 572.266 367.315C572.641 367.315 573.013 367.365 573.382 367.465L573.294 368.783C573.019 368.73 572.726 368.704 572.415 368.704C571.888 368.704 571.48 368.859 571.193 369.17C570.906 369.475 570.763 369.914 570.763 370.488V371.49H572.793V372.747H570.763V381H569.137ZM579.191 372.949C578.945 372.908 578.679 372.888 578.392 372.888C577.325 372.888 576.602 373.342 576.221 374.25V381H574.595V371.49H576.177L576.203 372.589C576.736 371.739 577.492 371.314 578.471 371.314C578.787 371.314 579.027 371.355 579.191 371.438V372.949ZM580.088 376.157C580.088 375.226 580.27 374.388 580.633 373.644C581.002 372.899 581.512 372.325 582.162 371.921C582.818 371.517 583.565 371.314 584.403 371.314C585.698 371.314 586.744 371.763 587.541 372.659C588.344 373.556 588.745 374.748 588.745 376.236V376.351C588.745 377.276 588.566 378.108 588.209 378.847C587.857 379.579 587.351 380.15 586.688 380.561C586.032 380.971 585.276 381.176 584.421 381.176C583.132 381.176 582.086 380.728 581.283 379.831C580.486 378.935 580.088 377.748 580.088 376.271V376.157ZM581.723 376.351C581.723 377.405 581.966 378.252 582.452 378.891C582.944 379.529 583.601 379.849 584.421 379.849C585.247 379.849 585.903 379.526 586.39 378.882C586.876 378.231 587.119 377.323 587.119 376.157C587.119 375.114 586.87 374.271 586.372 373.626C585.88 372.976 585.224 372.65 584.403 372.65C583.601 372.65 582.953 372.97 582.461 373.608C581.969 374.247 581.723 375.161 581.723 376.351ZM592.313 371.49L592.357 372.545C593.055 371.725 593.995 371.314 595.179 371.314C596.509 371.314 597.414 371.824 597.895 372.844C598.211 372.387 598.621 372.018 599.125 371.736C599.635 371.455 600.235 371.314 600.927 371.314C603.013 371.314 604.073 372.419 604.108 374.628V381H602.482V374.725C602.482 374.045 602.327 373.538 602.017 373.204C601.706 372.864 601.185 372.694 600.452 372.694C599.849 372.694 599.348 372.876 598.949 373.239C598.551 373.597 598.319 374.08 598.255 374.689V381H596.62V374.769C596.62 373.386 595.943 372.694 594.59 372.694C593.523 372.694 592.794 373.148 592.401 374.057V381H590.775V371.49H592.313ZM616.571 378.478C616.571 378.038 616.404 377.698 616.07 377.458C615.742 377.212 615.165 377.001 614.339 376.825C613.519 376.649 612.865 376.438 612.379 376.192C611.898 375.946 611.541 375.653 611.307 375.313C611.078 374.974 610.964 374.569 610.964 374.101C610.964 373.321 611.292 372.662 611.948 372.123C612.61 371.584 613.454 371.314 614.479 371.314C615.558 371.314 616.431 371.593 617.099 372.149C617.772 372.706 618.109 373.418 618.109 374.285H616.475C616.475 373.84 616.284 373.456 615.903 373.134C615.528 372.812 615.054 372.65 614.479 372.65C613.888 372.65 613.425 372.779 613.091 373.037C612.757 373.295 612.59 373.632 612.59 374.048C612.59 374.44 612.745 374.736 613.056 374.936C613.366 375.135 613.926 375.325 614.734 375.507C615.549 375.688 616.208 375.905 616.712 376.157C617.216 376.409 617.588 376.714 617.828 377.071C618.074 377.423 618.197 377.854 618.197 378.363C618.197 379.213 617.857 379.896 617.178 380.411C616.498 380.921 615.616 381.176 614.532 381.176C613.771 381.176 613.097 381.041 612.511 380.771C611.925 380.502 611.465 380.127 611.131 379.646C610.803 379.16 610.639 378.636 610.639 378.073H612.265C612.294 378.618 612.511 379.052 612.915 379.374C613.325 379.69 613.864 379.849 614.532 379.849C615.147 379.849 615.64 379.726 616.009 379.479C616.384 379.228 616.571 378.894 616.571 378.478ZM624.13 379.849C624.71 379.849 625.217 379.673 625.65 379.321C626.084 378.97 626.324 378.53 626.371 378.003H627.909C627.88 378.548 627.692 379.066 627.347 379.559C627.001 380.051 626.538 380.443 625.958 380.736C625.384 381.029 624.774 381.176 624.13 381.176C622.835 381.176 621.804 380.745 621.036 379.884C620.274 379.017 619.894 377.833 619.894 376.333V376.061C619.894 375.135 620.063 374.312 620.403 373.591C620.743 372.87 621.229 372.311 621.862 371.912C622.501 371.514 623.254 371.314 624.121 371.314C625.188 371.314 626.072 371.634 626.775 372.272C627.484 372.911 627.862 373.74 627.909 374.76H626.371C626.324 374.145 626.09 373.641 625.668 373.248C625.252 372.85 624.736 372.65 624.121 372.65C623.295 372.65 622.653 372.949 622.196 373.547C621.745 374.139 621.52 374.997 621.52 376.122V376.43C621.52 377.525 621.745 378.369 622.196 378.961C622.647 379.553 623.292 379.849 624.13 379.849ZM631.363 372.642C632.084 371.757 633.021 371.314 634.176 371.314C636.186 371.314 637.199 372.448 637.217 374.716V381H635.591V374.707C635.585 374.021 635.427 373.515 635.116 373.187C634.812 372.858 634.334 372.694 633.684 372.694C633.156 372.694 632.693 372.835 632.295 373.116C631.896 373.397 631.586 373.767 631.363 374.224V381H629.737V367.5H631.363V372.642ZM639.221 376.157C639.221 375.226 639.402 374.388 639.766 373.644C640.135 372.899 640.645 372.325 641.295 371.921C641.951 371.517 642.698 371.314 643.536 371.314C644.831 371.314 645.877 371.763 646.674 372.659C647.477 373.556 647.878 374.748 647.878 376.236V376.351C647.878 377.276 647.699 378.108 647.342 378.847C646.99 379.579 646.483 380.15 645.821 380.561C645.165 380.971 644.409 381.176 643.554 381.176C642.265 381.176 641.219 380.728 640.416 379.831C639.619 378.935 639.221 377.748 639.221 376.271V376.157ZM640.855 376.351C640.855 377.405 641.099 378.252 641.585 378.891C642.077 379.529 642.733 379.849 643.554 379.849C644.38 379.849 645.036 379.526 645.522 378.882C646.009 378.231 646.252 377.323 646.252 376.157C646.252 375.114 646.003 374.271 645.505 373.626C645.013 372.976 644.356 372.65 643.536 372.65C642.733 372.65 642.086 372.97 641.594 373.608C641.102 374.247 640.855 375.161 640.855 376.351ZM649.486 376.157C649.486 375.226 649.668 374.388 650.031 373.644C650.4 372.899 650.91 372.325 651.561 371.921C652.217 371.517 652.964 371.314 653.802 371.314C655.097 371.314 656.143 371.763 656.939 372.659C657.742 373.556 658.144 374.748 658.144 376.236V376.351C658.144 377.276 657.965 378.108 657.607 378.847C657.256 379.579 656.749 380.15 656.087 380.561C655.431 380.971 654.675 381.176 653.819 381.176C652.53 381.176 651.484 380.728 650.682 379.831C649.885 378.935 649.486 377.748 649.486 376.271V376.157ZM651.121 376.351C651.121 377.405 651.364 378.252 651.851 378.891C652.343 379.529 652.999 379.849 653.819 379.849C654.646 379.849 655.302 379.526 655.788 378.882C656.274 378.231 656.518 377.323 656.518 376.157C656.518 375.114 656.269 374.271 655.771 373.626C655.278 372.976 654.622 372.65 653.802 372.65C652.999 372.65 652.352 372.97 651.859 373.608C651.367 374.247 651.121 375.161 651.121 376.351ZM661.949 381H660.323V367.5H661.949V381ZM666.326 381H664.7V371.49H666.326V381ZM664.568 368.968C664.568 368.704 664.647 368.481 664.806 368.3C664.97 368.118 665.21 368.027 665.526 368.027C665.843 368.027 666.083 368.118 666.247 368.3C666.411 368.481 666.493 368.704 666.493 368.968C666.493 369.231 666.411 369.451 666.247 369.627C666.083 369.803 665.843 369.891 665.526 369.891C665.21 369.891 664.97 369.803 664.806 369.627C664.647 369.451 664.568 369.231 664.568 368.968ZM670.475 371.49L670.527 372.686C671.254 371.771 672.203 371.314 673.375 371.314C675.385 371.314 676.398 372.448 676.416 374.716V381H674.79V374.707C674.784 374.021 674.626 373.515 674.315 373.187C674.011 372.858 673.533 372.694 672.883 372.694C672.355 372.694 671.893 372.835 671.494 373.116C671.096 373.397 670.785 373.767 670.562 374.224V381H668.937V371.49H670.475ZM678.481 376.166C678.481 374.684 678.824 373.506 679.51 372.633C680.195 371.754 681.104 371.314 682.234 371.314C683.395 371.314 684.3 371.725 684.95 372.545L685.029 371.49H686.515V380.771C686.515 382.002 686.148 382.972 685.416 383.681C684.689 384.39 683.711 384.744 682.48 384.744C681.795 384.744 681.124 384.598 680.468 384.305C679.812 384.012 679.311 383.61 678.965 383.101L679.809 382.125C680.506 382.986 681.358 383.417 682.366 383.417C683.157 383.417 683.772 383.194 684.212 382.749C684.657 382.304 684.88 381.677 684.88 380.868V380.051C684.229 380.801 683.342 381.176 682.217 381.176C681.104 381.176 680.201 380.728 679.51 379.831C678.824 378.935 678.481 377.713 678.481 376.166ZM680.116 376.351C680.116 377.423 680.336 378.267 680.775 378.882C681.215 379.491 681.83 379.796 682.621 379.796C683.646 379.796 684.399 379.33 684.88 378.398V374.057C684.382 373.148 683.635 372.694 682.639 372.694C681.848 372.694 681.229 373.002 680.784 373.617C680.339 374.232 680.116 375.144 680.116 376.351Z" fill="#F16C21"/>
</g>
<g clip-path="url(#clip2)">
<path d="M616.833 34.8104L606.727 44.8721L596.622 34.8104C589.048 35.1374 583 41.3073 583 48.9221V49.9346C583 52.7296 585.277 54.9971 588.084 54.9971H625.37C628.177 54.9971 630.455 52.7296 630.455 49.9346V48.9221C630.455 41.3073 624.406 35.1374 616.833 34.8104ZM584.441 9.41355L585.119 9.57175V15.7311C584.377 16.1741 583.847 16.944 583.847 17.8721C583.847 18.7581 584.335 19.4964 585.023 19.9499L583.371 26.5206C583.191 27.2483 583.593 27.9971 584.176 27.9971H588.603C589.186 27.9971 589.589 27.2483 589.408 26.5206L587.756 19.9499C588.445 19.4964 588.932 18.7581 588.932 17.8721C588.932 16.944 588.402 16.1741 587.661 15.7311V10.1835L594.652 11.8604C593.741 13.6745 593.169 15.6995 593.169 17.8721C593.169 25.3288 599.238 31.3721 606.727 31.3721C614.216 31.3721 620.286 25.3288 620.286 17.8721C620.286 15.6995 619.724 13.6745 618.803 11.8604L629.003 9.41355C630.931 8.94949 630.931 6.55535 629.003 6.09128L608.835 1.23972C607.458 0.912769 606.007 0.912769 604.63 1.23972L584.441 6.08074C582.523 6.5448 582.523 8.94949 584.441 9.41355Z" fill="#0D3D55"/>
</g>
<g filter="url(#filter5_d)">
<path d="M14.3271 348.592H10.2139V360H8.53516V348.592H4.43066V347.203H14.3271V348.592ZM19.0381 360.176C17.749 360.176 16.7002 359.754 15.8916 358.91C15.083 358.061 14.6787 356.927 14.6787 355.509V355.21C14.6787 354.267 14.8574 353.426 15.2148 352.688C15.5781 351.943 16.082 351.363 16.7266 350.947C17.377 350.525 18.0801 350.314 18.8359 350.314C20.0723 350.314 21.0332 350.722 21.7188 351.536C22.4043 352.351 22.7471 353.517 22.7471 355.034V355.711H16.3047C16.3281 356.648 16.6006 357.407 17.1221 357.987C17.6494 358.562 18.3174 358.849 19.126 358.849C19.7002 358.849 20.1865 358.731 20.585 358.497C20.9834 358.263 21.332 357.952 21.6309 357.565L22.624 358.339C21.8271 359.563 20.6318 360.176 19.0381 360.176ZM18.8359 351.65C18.1797 351.65 17.6289 351.891 17.1836 352.371C16.7383 352.846 16.4629 353.514 16.3574 354.375H21.1211V354.252C21.0742 353.426 20.8516 352.787 20.4531 352.336C20.0547 351.879 19.5156 351.65 18.8359 351.65ZM28.4512 358.849C29.0312 358.849 29.5381 358.673 29.9717 358.321C30.4053 357.97 30.6455 357.53 30.6924 357.003H32.2305C32.2012 357.548 32.0137 358.066 31.668 358.559C31.3223 359.051 30.8594 359.443 30.2793 359.736C29.7051 360.029 29.0957 360.176 28.4512 360.176C27.1562 360.176 26.125 359.745 25.3574 358.884C24.5957 358.017 24.2148 356.833 24.2148 355.333V355.061C24.2148 354.135 24.3848 353.312 24.7246 352.591C25.0645 351.87 25.5508 351.311 26.1836 350.912C26.8223 350.514 27.5752 350.314 28.4424 350.314C29.5088 350.314 30.3936 350.634 31.0967 351.272C31.8057 351.911 32.1836 352.74 32.2305 353.76H30.6924C30.6455 353.145 30.4111 352.641 29.9893 352.248C29.5732 351.85 29.0576 351.65 28.4424 351.65C27.6162 351.65 26.9746 351.949 26.5176 352.547C26.0664 353.139 25.8408 353.997 25.8408 355.122V355.43C25.8408 356.525 26.0664 357.369 26.5176 357.961C26.9688 358.553 27.6133 358.849 28.4512 358.849ZM35.6846 351.642C36.4053 350.757 37.3428 350.314 38.4971 350.314C40.5068 350.314 41.5205 351.448 41.5381 353.716V360H39.9121V353.707C39.9062 353.021 39.748 352.515 39.4375 352.187C39.1328 351.858 38.6553 351.694 38.0049 351.694C37.4775 351.694 37.0146 351.835 36.6162 352.116C36.2178 352.397 35.9072 352.767 35.6846 353.224V360H34.0586V346.5H35.6846V351.642ZM45.5107 350.49L45.5635 351.686C46.29 350.771 47.2393 350.314 48.4111 350.314C50.4209 350.314 51.4346 351.448 51.4521 353.716V360H49.8262V353.707C49.8203 353.021 49.6621 352.515 49.3516 352.187C49.0469 351.858 48.5693 351.694 47.9189 351.694C47.3916 351.694 46.9287 351.835 46.5303 352.116C46.1318 352.397 45.8213 352.767 45.5986 353.224V360H43.9727V350.49H45.5107ZM53.4736 355.157C53.4736 354.226 53.6553 353.388 54.0186 352.644C54.3877 351.899 54.8975 351.325 55.5479 350.921C56.2041 350.517 56.9512 350.314 57.7891 350.314C59.084 350.314 60.1299 350.763 60.9268 351.659C61.7295 352.556 62.1309 353.748 62.1309 355.236V355.351C62.1309 356.276 61.9521 357.108 61.5947 357.847C61.2432 358.579 60.7363 359.15 60.0742 359.561C59.418 359.971 58.6621 360.176 57.8066 360.176C56.5176 360.176 55.4717 359.728 54.6689 358.831C53.8721 357.935 53.4736 356.748 53.4736 355.271V355.157ZM55.1084 355.351C55.1084 356.405 55.3516 357.252 55.8379 357.891C56.3301 358.529 56.9863 358.849 57.8066 358.849C58.6328 358.849 59.2891 358.526 59.7754 357.882C60.2617 357.231 60.5049 356.323 60.5049 355.157C60.5049 354.114 60.2559 353.271 59.7578 352.626C59.2656 351.976 58.6094 351.65 57.7891 351.65C56.9863 351.65 56.3389 351.97 55.8467 352.608C55.3545 353.247 55.1084 354.161 55.1084 355.351ZM65.9365 360H64.3105V346.5H65.9365V360ZM68.1162 355.157C68.1162 354.226 68.2979 353.388 68.6611 352.644C69.0303 351.899 69.54 351.325 70.1904 350.921C70.8467 350.517 71.5938 350.314 72.4316 350.314C73.7266 350.314 74.7725 350.763 75.5693 351.659C76.3721 352.556 76.7734 353.748 76.7734 355.236V355.351C76.7734 356.276 76.5947 357.108 76.2373 357.847C75.8857 358.579 75.3789 359.15 74.7168 359.561C74.0605 359.971 73.3047 360.176 72.4492 360.176C71.1602 360.176 70.1143 359.728 69.3115 358.831C68.5146 357.935 68.1162 356.748 68.1162 355.271V355.157ZM69.751 355.351C69.751 356.405 69.9941 357.252 70.4805 357.891C70.9727 358.529 71.6289 358.849 72.4492 358.849C73.2754 358.849 73.9316 358.526 74.418 357.882C74.9043 357.231 75.1475 356.323 75.1475 355.157C75.1475 354.114 74.8984 353.271 74.4004 352.626C73.9082 351.976 73.252 351.65 72.4316 351.65C71.6289 351.65 70.9814 351.97 70.4893 352.608C69.9971 353.247 69.751 354.161 69.751 355.351ZM78.4258 355.166C78.4258 353.684 78.7686 352.506 79.4541 351.633C80.1396 350.754 81.0479 350.314 82.1787 350.314C83.3389 350.314 84.2441 350.725 84.8945 351.545L84.9736 350.49H86.459V359.771C86.459 361.002 86.0928 361.972 85.3604 362.681C84.6338 363.39 83.6553 363.744 82.4248 363.744C81.7393 363.744 81.0684 363.598 80.4121 363.305C79.7559 363.012 79.2549 362.61 78.9092 362.101L79.7529 361.125C80.4502 361.986 81.3027 362.417 82.3105 362.417C83.1016 362.417 83.7168 362.194 84.1562 361.749C84.6016 361.304 84.8242 360.677 84.8242 359.868V359.051C84.1738 359.801 83.2861 360.176 82.1611 360.176C81.0479 360.176 80.1455 359.728 79.4541 358.831C78.7686 357.935 78.4258 356.713 78.4258 355.166ZM80.0605 355.351C80.0605 356.423 80.2803 357.267 80.7197 357.882C81.1592 358.491 81.7744 358.796 82.5654 358.796C83.5908 358.796 84.3438 358.33 84.8242 357.398V353.057C84.3262 352.148 83.5791 351.694 82.583 351.694C81.792 351.694 81.1738 352.002 80.7285 352.617C80.2832 353.232 80.0605 354.144 80.0605 355.351ZM92.0312 357.618L94.2461 350.49H95.9863L92.1631 361.468C91.5713 363.05 90.6309 363.841 89.3418 363.841L89.0342 363.814L88.4277 363.7V362.382L88.8672 362.417C89.418 362.417 89.8457 362.306 90.1504 362.083C90.4609 361.86 90.7158 361.453 90.915 360.861L91.2754 359.895L87.8828 350.49H89.6582L92.0312 357.618ZM101.479 355.157C101.479 354.226 101.661 353.388 102.024 352.644C102.394 351.899 102.903 351.325 103.554 350.921C104.21 350.517 104.957 350.314 105.795 350.314C107.09 350.314 108.136 350.763 108.933 351.659C109.735 352.556 110.137 353.748 110.137 355.236V355.351C110.137 356.276 109.958 357.108 109.601 357.847C109.249 358.579 108.742 359.15 108.08 359.561C107.424 359.971 106.668 360.176 105.812 360.176C104.523 360.176 103.478 359.728 102.675 358.831C101.878 357.935 101.479 356.748 101.479 355.271V355.157ZM103.114 355.351C103.114 356.405 103.357 357.252 103.844 357.891C104.336 358.529 104.992 358.849 105.812 358.849C106.639 358.849 107.295 358.526 107.781 357.882C108.268 357.231 108.511 356.323 108.511 355.157C108.511 354.114 108.262 353.271 107.764 352.626C107.271 351.976 106.615 351.65 105.795 351.65C104.992 351.65 104.345 351.97 103.853 352.608C103.36 353.247 103.114 354.161 103.114 355.351ZM116.772 351.949C116.526 351.908 116.26 351.888 115.973 351.888C114.906 351.888 114.183 352.342 113.802 353.25V360H112.176V350.49H113.758L113.784 351.589C114.317 350.739 115.073 350.314 116.052 350.314C116.368 350.314 116.608 350.355 116.772 350.438V351.949ZM120.042 360H118.416V350.49H120.042V360ZM118.284 347.968C118.284 347.704 118.363 347.481 118.521 347.3C118.686 347.118 118.926 347.027 119.242 347.027C119.559 347.027 119.799 347.118 119.963 347.3C120.127 347.481 120.209 347.704 120.209 347.968C120.209 348.231 120.127 348.451 119.963 348.627C119.799 348.803 119.559 348.891 119.242 348.891C118.926 348.891 118.686 348.803 118.521 348.627C118.363 348.451 118.284 348.231 118.284 347.968ZM126.599 360.176C125.31 360.176 124.261 359.754 123.452 358.91C122.644 358.061 122.239 356.927 122.239 355.509V355.21C122.239 354.267 122.418 353.426 122.775 352.688C123.139 351.943 123.643 351.363 124.287 350.947C124.938 350.525 125.641 350.314 126.396 350.314C127.633 350.314 128.594 350.722 129.279 351.536C129.965 352.351 130.308 353.517 130.308 355.034V355.711H123.865C123.889 356.648 124.161 357.407 124.683 357.987C125.21 358.562 125.878 358.849 126.687 358.849C127.261 358.849 127.747 358.731 128.146 358.497C128.544 358.263 128.893 357.952 129.191 357.565L130.185 358.339C129.388 359.563 128.192 360.176 126.599 360.176ZM126.396 351.65C125.74 351.65 125.189 351.891 124.744 352.371C124.299 352.846 124.023 353.514 123.918 354.375H128.682V354.252C128.635 353.426 128.412 352.787 128.014 352.336C127.615 351.879 127.076 351.65 126.396 351.65ZM133.735 350.49L133.788 351.686C134.515 350.771 135.464 350.314 136.636 350.314C138.646 350.314 139.659 351.448 139.677 353.716V360H138.051V353.707C138.045 353.021 137.887 352.515 137.576 352.187C137.271 351.858 136.794 351.694 136.144 351.694C135.616 351.694 135.153 351.835 134.755 352.116C134.356 352.397 134.046 352.767 133.823 353.224V360H132.197V350.49H133.735ZM144.335 348.188V350.49H146.11V351.747H144.335V357.645C144.335 358.025 144.414 358.312 144.572 358.506C144.73 358.693 145 358.787 145.381 358.787C145.568 358.787 145.826 358.752 146.154 358.682V360C145.727 360.117 145.311 360.176 144.906 360.176C144.18 360.176 143.632 359.956 143.263 359.517C142.894 359.077 142.709 358.453 142.709 357.645V351.747H140.978V350.49H142.709V348.188H144.335ZM151.964 360.176C150.675 360.176 149.626 359.754 148.817 358.91C148.009 358.061 147.604 356.927 147.604 355.509V355.21C147.604 354.267 147.783 353.426 148.141 352.688C148.504 351.943 149.008 351.363 149.652 350.947C150.303 350.525 151.006 350.314 151.762 350.314C152.998 350.314 153.959 350.722 154.645 351.536C155.33 352.351 155.673 353.517 155.673 355.034V355.711H149.23C149.254 356.648 149.526 357.407 150.048 357.987C150.575 358.562 151.243 358.849 152.052 358.849C152.626 358.849 153.112 358.731 153.511 358.497C153.909 358.263 154.258 357.952 154.557 357.565L155.55 358.339C154.753 359.563 153.558 360.176 151.964 360.176ZM151.762 351.65C151.105 351.65 150.555 351.891 150.109 352.371C149.664 352.846 149.389 353.514 149.283 354.375H154.047V354.252C154 353.426 153.777 352.787 153.379 352.336C152.98 351.879 152.441 351.65 151.762 351.65ZM157.167 355.166C157.167 353.707 157.513 352.535 158.204 351.65C158.896 350.76 159.801 350.314 160.92 350.314C162.033 350.314 162.915 350.695 163.565 351.457V346.5H165.191V360H163.697L163.618 358.98C162.968 359.777 162.062 360.176 160.902 360.176C159.801 360.176 158.901 359.725 158.204 358.822C157.513 357.92 157.167 356.742 157.167 355.289V355.166ZM158.793 355.351C158.793 356.429 159.016 357.272 159.461 357.882C159.906 358.491 160.521 358.796 161.307 358.796C162.338 358.796 163.091 358.333 163.565 357.407V353.039C163.079 352.143 162.332 351.694 161.324 351.694C160.527 351.694 159.906 352.002 159.461 352.617C159.016 353.232 158.793 354.144 158.793 355.351Z" fill="#F16C21"/>
</g>
<path d="M102.875 264.062V307.938C102.875 310.733 100.608 313 97.8125 313H74.1875C71.3915 313 69.125 310.733 69.125 307.938V264.062C69.125 261.267 71.3915 259 74.1875 259H97.8125C100.608 259 102.875 261.267 102.875 264.062ZM113 270.18V271.445C113 271.613 112.933 271.774 112.815 271.893C112.696 272.011 112.535 272.078 112.367 272.078H110.469V272.711C110.469 272.879 110.402 273.04 110.283 273.158C110.165 273.277 110.004 273.344 109.836 273.344H105.406V268.281H109.836C110.004 268.281 110.165 268.348 110.283 268.467C110.402 268.585 110.469 268.746 110.469 268.914V269.547H112.367C112.535 269.547 112.696 269.614 112.815 269.732C112.933 269.851 113 270.012 113 270.18ZM113 280.305V281.57C113 281.738 112.933 281.899 112.815 282.018C112.696 282.136 112.535 282.203 112.367 282.203H110.469V282.836C110.469 283.004 110.402 283.165 110.283 283.283C110.165 283.402 110.004 283.469 109.836 283.469H105.406V278.406H109.836C110.004 278.406 110.165 278.473 110.283 278.592C110.402 278.71 110.469 278.871 110.469 279.039V279.672H112.367C112.535 279.672 112.696 279.739 112.815 279.857C112.933 279.976 113 280.137 113 280.305ZM113 290.43V291.695C113 291.863 112.933 292.024 112.815 292.143C112.696 292.261 112.535 292.328 112.367 292.328H110.469V292.961C110.469 293.129 110.402 293.29 110.283 293.408C110.165 293.527 110.004 293.594 109.836 293.594H105.406V288.531H109.836C110.004 288.531 110.165 288.598 110.283 288.717C110.402 288.835 110.469 288.996 110.469 289.164V289.797H112.367C112.535 289.797 112.696 289.864 112.815 289.982C112.933 290.101 113 290.262 113 290.43ZM113 300.555V301.82C113 301.988 112.933 302.149 112.815 302.268C112.696 302.386 112.535 302.453 112.367 302.453H110.469V303.086C110.469 303.254 110.402 303.415 110.283 303.533C110.165 303.652 110.004 303.719 109.836 303.719H105.406V298.656H109.836C110.004 298.656 110.165 298.723 110.283 298.842C110.402 298.96 110.469 299.121 110.469 299.289V299.922H112.367C112.535 299.922 112.696 299.989 112.815 300.107C112.933 300.226 113 300.387 113 300.555ZM62.1641 298.656H66.5938V303.719H62.1641C61.9962 303.719 61.8353 303.652 61.7166 303.533C61.5979 303.415 61.5312 303.254 61.5312 303.086V302.453H59.6328C59.465 302.453 59.304 302.386 59.1853 302.268C59.0667 302.149 59 301.988 59 301.82V300.555C59 300.387 59.0667 300.226 59.1853 300.107C59.304 299.989 59.465 299.922 59.6328 299.922H61.5312V299.289C61.5312 299.121 61.5979 298.96 61.7166 298.842C61.8353 298.723 61.9962 298.656 62.1641 298.656ZM62.1641 288.531H66.5938V293.594H62.1641C61.9962 293.594 61.8353 293.527 61.7166 293.408C61.5979 293.29 61.5312 293.129 61.5312 292.961V292.328H59.6328C59.465 292.328 59.304 292.261 59.1853 292.143C59.0667 292.024 59 291.863 59 291.695V290.43C59 290.262 59.0667 290.101 59.1853 289.982C59.304 289.864 59.465 289.797 59.6328 289.797H61.5312V289.164C61.5312 288.996 61.5979 288.835 61.7166 288.717C61.8353 288.598 61.9962 288.531 62.1641 288.531ZM62.1641 278.406H66.5938V283.469H62.1641C61.9962 283.469 61.8353 283.402 61.7166 283.283C61.5979 283.165 61.5312 283.004 61.5312 282.836V282.203H59.6328C59.465 282.203 59.304 282.136 59.1853 282.018C59.0667 281.899 59 281.738 59 281.57V280.305C59 280.137 59.0667 279.976 59.1853 279.857C59.304 279.739 59.465 279.672 59.6328 279.672H61.5312V279.039C61.5312 278.871 61.5979 278.71 61.7166 278.592C61.8353 278.473 61.9962 278.406 62.1641 278.406ZM62.1641 268.281H66.5938V273.344H62.1641C61.9962 273.344 61.8353 273.277 61.7166 273.158C61.5979 273.04 61.5312 272.879 61.5312 272.711V272.078H59.6328C59.465 272.078 59.304 272.011 59.1853 271.893C59.0667 271.774 59 271.613 59 271.445V270.18C59 270.012 59.0667 269.851 59.1853 269.732C59.304 269.614 59.465 269.547 59.6328 269.547H61.5312V268.914C61.5312 268.746 61.5979 268.585 61.7166 268.467C61.8353 268.348 61.9962 268.281 62.1641 268.281Z" fill="#0D3D55"/>
<path d="M370.312 283C370.312 297.449 358.601 309.156 344.156 309.156C329.712 309.156 318 297.449 318 283C318 268.56 329.712 256.844 344.156 256.844C358.601 256.844 370.312 268.56 370.312 283ZM344.858 265.492C339.11 265.492 335.445 267.913 332.566 272.217C332.193 272.774 332.318 273.526 332.852 273.931L336.512 276.706C337.061 277.123 337.843 277.024 338.27 276.482C340.154 274.093 341.445 272.707 344.313 272.707C346.468 272.707 349.133 274.094 349.133 276.183C349.133 277.763 347.829 278.574 345.702 279.766C343.221 281.157 339.938 282.888 339.938 287.219V287.641C339.938 288.34 340.504 288.906 341.203 288.906H347.109C347.808 288.906 348.375 288.34 348.375 287.641V287.5C348.375 284.498 357.149 284.373 357.149 276.25C357.149 270.133 350.803 265.492 344.858 265.492ZM344.156 291.648C341.481 291.648 339.305 293.825 339.305 296.5C339.305 299.175 341.481 301.352 344.156 301.352C346.831 301.352 349.008 299.175 349.008 296.5C349.008 293.825 346.831 291.648 344.156 291.648Z" fill="#0D3D55"/>
<path d="M594.974 294.125C594.722 294.125 594.47 294.162 594.229 294.24C592.859 294.684 591.42 294.969 589.903 294.969C588.387 294.969 586.948 294.684 585.577 294.24C585.336 294.162 585.085 294.125 584.832 294.125C578.276 294.125 572.965 299.449 573 306.003C573.015 308.772 575.296 311 578.071 311H601.736C604.511 311 606.792 308.772 606.807 306.003C606.842 299.449 601.531 294.125 594.974 294.125ZM589.903 290.75C595.505 290.75 600.045 286.217 600.045 280.625C600.045 275.033 595.505 270.5 589.903 270.5C584.302 270.5 579.761 275.033 579.761 280.625C579.761 286.217 584.302 290.75 589.903 290.75ZM635.542 257H594.974C592.178 257 589.903 259.347 589.903 262.23V267.125C592.378 267.125 594.668 267.84 596.665 269.002V263.75H633.852V294.125H627.091V287.375H613.568V294.125H605.514C607.532 295.885 609.013 298.21 609.707 300.875H635.542C638.339 300.875 640.613 298.528 640.613 295.645V262.23C640.613 259.347 638.339 257 635.542 257Z" fill="#0D3D55"/>
<defs>
<filter id="filter0_d" x="20.4844" y="98.5" width="129.948" height="25.2441" filterUnits="userSpaceOnUse" color-interpolation-filters="sRGB">
<feFlood flood-opacity="0" result="BackgroundImageFix"/>
<feColorMatrix in="SourceAlpha" type="matrix" values="0 0 0 0 0 0 0 0 0 0 0 0 0 0 0 0 0 0 127 0"/>
<feOffset dy="4"/>
<feGaussianBlur stdDeviation="2"/>
<feColorMatrix type="matrix" values="0 0 0 0 0.411765 0 0 0 0 0.411765 0 0 0 0 0.482353 0 0 0 0.4 0"/>
<feBlend mode="normal" in2="BackgroundImageFix" result="effect1_dropShadow"/>
<feBlend mode="normal" in="SourceGraphic" in2="effect1_dropShadow" result="shape"/>
</filter>
<filter id="filter1_d" x="279.246" y="98.5" width="128.63" height="21.6758" filterUnits="userSpaceOnUse" color-interpolation-filters="sRGB">
<feFlood flood-opacity="0" result="BackgroundImageFix"/>
<feColorMatrix in="SourceAlpha" type="matrix" values="0 0 0 0 0 0 0 0 0 0 0 0 0 0 0 0 0 0 127 0"/>
<feOffset dy="4"/>
<feGaussianBlur stdDeviation="2"/>
<feColorMatrix type="matrix" values="0 0 0 0 0.411765 0 0 0 0 0.411765 0 0 0 0 0.482353 0 0 0 0.4 0"/>
<feBlend mode="normal" in2="BackgroundImageFix" result="effect1_dropShadow"/>
<feBlend mode="normal" in="SourceGraphic" in2="effect1_dropShadow" result="shape"/>
</filter>
<filter id="filter2_d" x="292.484" y="346.5" width="103.37" height="21.6758" filterUnits="userSpaceOnUse" color-interpolation-filters="sRGB">
<feFlood flood-opacity="0" result="BackgroundImageFix"/>
<feColorMatrix in="SourceAlpha" type="matrix" values="0 0 0 0 0 0 0 0 0 0 0 0 0 0 0 0 0 0 127 0"/>
<feOffset dy="4"/>
<feGaussianBlur stdDeviation="2"/>
<feColorMatrix type="matrix" values="0 0 0 0 0.411765 0 0 0 0 0.411765 0 0 0 0 0.482353 0 0 0 0.4 0"/>
<feBlend mode="normal" in2="BackgroundImageFix" result="effect1_dropShadow"/>
<feBlend mode="normal" in="SourceGraphic" in2="effect1_dropShadow" result="shape"/>
</filter>
<filter id="filter3_d" x="536.703" y="98.3154" width="132.11" height="21.8604" filterUnits="userSpaceOnUse" color-interpolation-filters="sRGB">
<feFlood flood-opacity="0" result="BackgroundImageFix"/>
<feColorMatrix in="SourceAlpha" type="matrix" values="0 0 0 0 0 0 0 0 0 0 0 0 0 0 0 0 0 0 127 0"/>
<feOffset dy="4"/>
<feGaussianBlur stdDeviation="2"/>
<feColorMatrix type="matrix" values="0 0 0 0 0.411765 0 0 0 0 0.411765 0 0 0 0 0.482353 0 0 0 0.4 0"/>
<feBlend mode="normal" in2="BackgroundImageFix" result="effect1_dropShadow"/>
<feBlend mode="normal" in="SourceGraphic" in2="effect1_dropShadow" result="shape"/>
</filter>
<filter id="filter4_d" x="509.477" y="346.315" width="190.241" height="46.4287" filterUnits="userSpaceOnUse" color-interpolation-filters="sRGB">
<feFlood flood-opacity="0" result="BackgroundImageFix"/>
<feColorMatrix in="SourceAlpha" type="matrix" values="0 0 0 0 0 0 0 0 0 0 0 0 0 0 0 0 0 0 127 0"/>
<feOffset dy="4"/>
<feGaussianBlur stdDeviation="2"/>
<feColorMatrix type="matrix" values="0 0 0 0 0.411765 0 0 0 0 0.411765 0 0 0 0 0.482353 0 0 0 0.4 0"/>
<feBlend mode="normal" in2="BackgroundImageFix" result="effect1_dropShadow"/>
<feBlend mode="normal" in="SourceGraphic" in2="effect1_dropShadow" result="shape"/>
</filter>
<filter id="filter5_d" x="0.429688" y="346.5" width="168.761" height="25.3408" filterUnits="userSpaceOnUse" color-interpolation-filters="sRGB">
<feFlood flood-opacity="0" result="BackgroundImageFix"/>
<feColorMatrix in="SourceAlpha" type="matrix" values="0 0 0 0 0 0 0 0 0 0 0 0 0 0 0 0 0 0 127 0"/>
<feOffset dy="4"/>
<feGaussianBlur stdDeviation="2"/>
<feColorMatrix type="matrix" values="0 0 0 0 0.411765 0 0 0 0 0.411765 0 0 0 0 0.482353 0 0 0 0.4 0"/>
<feBlend mode="normal" in2="BackgroundImageFix" result="effect1_dropShadow"/>
<feBlend mode="normal" in="SourceGraphic" in2="effect1_dropShadow" result="shape"/>
</filter>
<clipPath id="clip0">
<rect width="67.5" height="54" fill="white" transform="translate(52 1)"/>
</clipPath>
<clipPath id="clip1">
<rect width="67.5" height="54" fill="white" transform="translate(310)"/>
</clipPath>
<clipPath id="clip2">
<rect width="47.4545" height="54" fill="white" transform="translate(583 1)"/>
</clipPath>
</defs>
</svg>
