<svg width="27" height="24" viewBox="0 0 27 24" fill="none" xmlns="http://www.w3.org/2000/svg">
<g clip-path="url(#clip0)">
<path d="M13.1333 6.9496L4.49687 14.0676V21.7499C4.49687 21.9488 4.57583 22.1396 4.71639 22.2803C4.85694 22.4209 5.04757 22.4999 5.24635 22.4999L10.4955 22.4863C10.6937 22.4853 10.8833 22.4059 11.0231 22.2653C11.1628 22.1248 11.2413 21.9346 11.2413 21.7363V17.2499C11.2413 17.051 11.3202 16.8602 11.4608 16.7196C11.6013 16.5789 11.792 16.4999 11.9908 16.4999H14.9887C15.1875 16.4999 15.3781 16.5789 15.5187 16.7196C15.6592 16.8602 15.7382 17.051 15.7382 17.2499V21.733C15.7379 21.8317 15.757 21.9295 15.7945 22.0208C15.8321 22.112 15.8872 22.195 15.9569 22.2649C16.0265 22.3348 16.1092 22.3902 16.2003 22.4281C16.2914 22.4659 16.389 22.4854 16.4877 22.4854L21.735 22.4999C21.9337 22.4999 22.1244 22.4209 22.2649 22.2803C22.4055 22.1396 22.4845 21.9488 22.4845 21.7499V14.0624L13.8499 6.9496C13.7484 6.86772 13.622 6.82307 13.4916 6.82307C13.3612 6.82307 13.2348 6.86772 13.1333 6.9496ZM26.7752 11.7876L22.8592 8.55742V2.06476C22.8592 1.91557 22.8 1.7725 22.6946 1.66701C22.5891 1.56152 22.4462 1.50226 22.2971 1.50226H19.6739C19.5248 1.50226 19.3818 1.56152 19.2764 1.66701C19.171 1.7725 19.1118 1.91557 19.1118 2.06476V5.46835L14.918 2.01554C14.5155 1.68412 14.0105 1.50292 13.4893 1.50292C12.968 1.50292 12.463 1.68412 12.0606 2.01554L0.203267 11.7876C0.146347 11.8347 0.0992551 11.8925 0.0646815 11.9578C0.0301078 12.0231 0.00873016 12.0946 0.00176999 12.1681C-0.00519018 12.2417 0.00240354 12.3159 0.0241173 12.3865C0.045831 12.4572 0.0812391 12.5228 0.128319 12.5798L1.32281 14.0329C1.36976 14.09 1.42751 14.1373 1.49275 14.1721C1.55799 14.2069 1.62945 14.2284 1.70302 14.2355C1.7766 14.2426 1.85085 14.2351 1.92153 14.2134C1.99221 14.1918 2.05793 14.1564 2.11492 14.1093L13.1333 5.02773C13.2348 4.94585 13.3612 4.9012 13.4916 4.9012C13.622 4.9012 13.7484 4.94585 13.8499 5.02773L24.8687 14.1093C24.9256 14.1564 24.9913 14.1918 25.0618 14.2136C25.1324 14.2353 25.2066 14.2429 25.2801 14.2359C25.3536 14.229 25.425 14.2076 25.4903 14.173C25.5555 14.1384 25.6133 14.0913 25.6604 14.0343L26.8549 12.5812C26.9019 12.5239 26.9372 12.4579 26.9586 12.387C26.9801 12.316 26.9873 12.2416 26.9799 12.1678C26.9725 12.0941 26.9506 12.0225 26.9155 11.9572C26.8804 11.892 26.8327 11.8343 26.7752 11.7876Z" fill="white"/>
</g>
<defs>
<clipPath id="clip0">
<rect width="26.9814" height="24" fill="white"/>
</clipPath>
</defs>
</svg>
