<svg width="669" height="394" viewBox="0 0 554 394" fill="none" xmlns="http://www.w3.org/2000/svg">
<g clip-path="url(#clip0)">
<path d="M554.985 -0.492493H-7.01758V393.508H554.985V-0.492493Z" fill="#0E3E56"/>
<path d="M176.911 368.144L81.5 368.267V453.1H444.432V368.882H337.694C337.202 355.585 326.737 345.119 313.811 345.119C310.364 345.119 307.04 345.858 304.085 347.212C302.608 340.81 296.944 336.131 290.42 336.131C290.42 335.885 290.42 335.639 290.42 335.392C290.42 335.023 290.543 334.654 290.543 334.284C290.543 329.359 286.726 325.419 282.048 325.419C280.94 325.419 279.955 325.666 278.97 326.035C278.478 322.711 276.139 319.879 273.061 318.894L268.875 307.443H262.104L258.041 318.647C257.549 318.524 256.933 318.401 256.441 318.401C252.378 318.401 249.054 321.849 249.054 326.035C249.054 326.404 249.054 326.774 249.177 327.143C249.177 327.266 249.177 327.266 249.177 327.389C247.946 326.897 246.715 326.651 245.361 326.651C239.328 326.651 234.404 331.699 234.404 337.978C234.035 337.855 233.665 337.855 233.296 337.855C230.464 337.855 228.002 339.579 226.894 342.041C223.078 339.456 218.646 337.978 213.721 337.978C200.548 337.978 189.838 349.059 189.838 362.726C189.838 363.096 189.838 363.465 189.838 363.834C189.838 363.957 189.838 364.081 189.838 364.204C188.607 362.234 186.391 360.879 183.928 360.879C180.112 360.879 176.542 364.819 176.542 368.882" fill="white"/>
<path d="M320.458 323.819C320.335 322.464 319.35 321.479 317.996 321.479C316.888 321.479 316.026 322.218 315.657 323.08C315.164 322.587 314.549 322.218 313.81 322.218C312.456 322.218 311.348 323.326 311.348 324.804C311.348 325.789 311.84 326.651 312.702 327.02C312.333 327.513 312.086 328.005 312.086 328.744C312.086 330.098 313.194 331.329 314.549 331.329C315.041 331.329 315.41 331.206 315.903 330.96C315.903 331.083 315.903 331.206 315.903 331.329C315.903 332.314 316.765 333.176 317.749 333.176C318.734 333.176 319.596 332.314 319.596 331.329C319.596 331.206 319.596 331.083 319.596 330.837C319.965 330.96 320.212 330.96 320.581 330.96C322.551 330.96 324.151 329.359 324.151 327.389C323.782 325.419 322.305 323.942 320.458 323.819Z" fill="white"/>
<path d="M233.419 307.813C233.296 306.458 232.311 305.473 230.957 305.473C229.849 305.473 228.987 306.212 228.617 307.074C228.125 306.581 227.509 306.212 226.771 306.212C225.417 306.212 224.309 307.32 224.309 308.798C224.309 309.783 224.801 310.644 225.663 311.014C225.293 311.506 225.047 311.999 225.047 312.737C225.047 314.092 226.155 315.323 227.509 315.323C228.002 315.323 228.371 315.2 228.864 314.954C228.864 315.077 228.864 315.2 228.864 315.323C228.864 316.308 229.725 317.17 230.71 317.17C231.695 317.17 232.557 316.308 232.557 315.323C232.557 315.2 232.557 315.077 232.557 314.831C232.926 314.954 233.173 314.954 233.542 314.954C235.512 314.954 237.112 313.353 237.112 311.383C236.743 309.413 235.266 307.936 233.419 307.813Z" fill="white"/>
<path d="M332.03 330.344C332.03 329.729 331.538 329.236 330.922 329.236C330.43 329.236 330.061 329.606 329.938 329.975C329.691 329.729 329.445 329.606 329.076 329.606C328.46 329.606 327.968 330.098 327.968 330.714C327.968 331.206 328.214 331.576 328.583 331.699C328.46 331.945 328.337 332.191 328.337 332.438C328.337 333.053 328.83 333.546 329.445 333.546C329.691 333.546 329.814 333.546 330.061 333.422V333.546C330.061 334.038 330.43 334.408 330.922 334.408C331.415 334.408 331.784 334.038 331.784 333.546C331.784 333.422 331.784 333.423 331.784 333.299C331.907 333.299 332.03 333.422 332.277 333.422C333.138 333.422 333.877 332.684 333.877 331.822C333.508 331.083 332.769 330.468 332.03 330.344Z" fill="white"/>
<path d="M249.054 301.41C249.054 300.671 248.315 300.056 247.576 300.056C246.961 300.056 246.345 300.425 246.222 301.041C245.976 300.794 245.607 300.548 245.114 300.548C244.252 300.548 243.637 301.287 243.637 302.026C243.637 302.641 244.006 303.134 244.375 303.38C244.129 303.626 244.006 303.996 244.006 304.365C244.006 305.227 244.622 305.843 245.483 305.843C245.73 305.843 245.976 305.719 246.222 305.596C246.222 305.719 246.222 305.719 246.222 305.843C246.222 306.458 246.714 306.951 247.33 306.951C247.946 306.951 248.438 306.458 248.438 305.843C248.438 305.719 248.438 305.719 248.438 305.596C248.561 305.596 248.807 305.719 249.054 305.719C250.162 305.719 251.146 304.734 251.146 303.626C251.023 302.395 250.162 301.533 249.054 301.41Z" fill="white"/>
<path d="M222.708 319.879C222.708 319.263 222.216 318.771 221.6 318.771C221.108 318.771 220.738 319.14 220.615 319.509C220.369 319.263 220.123 319.14 219.753 319.14C219.138 319.14 218.646 319.633 218.646 320.248C218.646 320.741 218.892 321.11 219.261 321.233C219.138 321.479 219.015 321.726 219.015 321.972C219.015 322.588 219.507 323.08 220.123 323.08C220.369 323.08 220.492 323.08 220.738 322.957V323.08C220.738 323.573 221.108 323.942 221.6 323.942C222.093 323.942 222.462 323.573 222.462 323.08C222.462 322.957 222.462 322.957 222.462 322.834C222.585 322.834 222.708 322.957 222.954 322.957C223.816 322.957 224.555 322.218 224.555 321.356C224.185 320.618 223.57 319.879 222.708 319.879Z" fill="white"/>
<path d="M121.634 210.174C119.172 210.174 116.956 210.913 114.986 212.021C114.494 205.126 108.83 199.709 101.936 199.709C100.213 199.709 98.6122 200.078 97.1348 200.571C95.2882 194.168 89.502 189.489 82.6077 189.489C74.2362 189.489 67.342 196.384 67.342 205.003C67.342 205.249 67.342 205.496 67.342 205.619C58.9704 205.619 52.0762 212.514 52.0762 221.133C52.0762 229.751 58.8473 236.646 67.342 236.646C67.8344 236.646 68.3268 236.646 68.9424 236.523H120.157C120.649 236.523 121.142 236.646 121.634 236.646C128.774 236.646 134.684 230.736 134.684 223.349C134.684 216.084 128.774 210.174 121.634 210.174Z" fill="white"/>
<path d="M432.859 290.821C434.828 290.821 436.798 291.437 438.399 292.422C438.768 286.635 443.446 282.079 449.232 282.079C450.587 282.079 451.941 282.326 453.172 282.818C454.772 277.524 459.574 273.584 465.36 273.584C472.377 273.584 478.04 279.371 478.04 286.512C478.04 286.635 478.04 286.881 478.04 287.004C485.058 287.004 490.721 292.791 490.721 299.933C490.721 307.074 485.058 312.861 478.04 312.861C477.548 312.861 477.179 312.861 476.686 312.738H434.09C433.72 312.738 433.351 312.861 432.859 312.861C426.826 312.861 422.025 307.936 422.025 301.779C421.902 295.746 426.826 290.821 432.859 290.821Z" fill="white"/>
<path d="M90.4865 274.446C91.5945 274.446 92.5794 274.815 93.5643 275.308C93.8105 272.106 96.3958 269.644 99.4736 269.644C100.212 269.644 100.951 269.767 101.69 270.013C102.551 267.058 105.137 264.965 108.338 264.965C112.154 264.965 115.232 268.166 115.232 271.983C115.232 272.106 115.232 272.229 115.232 272.229C119.048 272.229 122.126 275.431 122.126 279.248C122.126 283.064 119.048 286.266 115.232 286.266C114.986 286.266 114.739 286.266 114.493 286.266H91.102C90.8558 286.266 90.7327 286.266 90.4865 286.266C87.1625 286.266 84.5771 283.557 84.5771 280.233C84.5771 276.908 87.1625 274.446 90.4865 274.446Z" fill="white"/>
<path d="M376.844 180.624C375.489 180.624 374.135 180.994 373.027 181.733C372.781 177.793 369.58 174.591 365.517 174.591C364.656 174.591 363.794 174.714 363.055 174.961C361.947 171.267 358.623 168.681 354.684 168.681C354.437 168.681 354.068 168.681 353.822 168.681C350.128 168.928 347.051 171.39 346.066 174.838C345.327 174.591 344.465 174.468 343.604 174.468C339.664 174.468 336.463 177.546 336.094 181.609C334.986 180.871 333.632 180.501 332.277 180.501C328.092 180.501 324.768 183.949 324.768 188.135C324.768 192.321 328.092 195.769 332.277 195.769C332.524 195.769 332.77 195.769 333.139 195.769H344.588C344.958 195.769 345.204 195.892 345.573 195.892C345.82 195.892 346.189 195.892 346.435 195.892H362.809C362.932 195.892 363.178 195.892 363.301 195.892C363.424 195.892 363.671 195.892 363.794 195.892H375.736C375.982 195.892 376.228 195.892 376.597 195.892C380.783 195.892 384.107 192.444 384.107 188.258C384.353 184.072 381.029 180.624 376.844 180.624Z" fill="white"/>
<path d="M271.091 320.494H254.102C254.102 320.494 248.562 326.404 249.3 334.9C249.3 334.9 250.901 333.053 252.132 332.191C252.378 332.068 252.624 332.191 252.624 332.438C252.378 334.408 252.624 340.194 262.596 350.167C272.691 340.194 272.938 334.408 272.568 332.438C272.568 332.191 272.814 331.945 273.061 332.191C274.292 333.176 275.892 334.9 275.892 334.9C276.631 326.281 271.091 320.494 271.091 320.494Z" fill="url(#paint0_linear)"/>
<path d="M262.473 313.846C262.473 313.846 251.516 322.464 262.473 337.362C273.43 322.464 262.473 313.846 262.473 313.846Z" fill="#FDE596"/>
<path d="M262.473 319.386C262.473 319.386 255.948 324.557 262.473 333.422C268.998 324.557 262.473 319.386 262.473 319.386Z" fill="white"/>
<path d="M250.285 316.554L251.516 318.894C252.009 319.879 253.117 320.494 254.225 320.494H262.473H270.722C271.83 320.494 272.938 319.879 273.43 318.894L274.661 316.554H250.285Z" fill="#959494" stroke="#434343" stroke-width="2" stroke-miterlimit="10"/>
<path d="M246.715 311.999L248.315 315.077C249.054 316.431 250.408 317.17 251.762 317.17H262.35H272.937C274.415 317.17 275.769 316.308 276.385 315.077L277.985 311.999H246.715Z" fill="#4E4E4E" stroke="#434343" stroke-width="2" stroke-miterlimit="10"/>
<path d="M277.492 288.482C277.492 288.482 304.207 297.593 302.484 324.434C302.484 324.434 279.955 301.533 267.767 306.458L277.492 288.482Z" fill="#E02926"/>
<path d="M247.453 288.482C247.453 288.482 220.738 297.593 222.462 324.434C222.462 324.434 244.991 301.533 257.179 306.458L247.453 288.482Z" fill="#E02926"/>
<path d="M275.399 237.139C272.321 229.382 268.136 221.871 262.473 214.853C256.809 221.748 252.624 229.259 249.546 236.892C255.578 235.538 264.565 234.553 275.399 237.139Z" fill="#E02926"/>
<path d="M275.769 238.124L275.399 237.262C261.118 233.568 249.546 237.016 249.546 237.016L249.054 238.124C237.235 268.659 242.652 301.903 244.498 311.26C244.745 312.738 246.099 313.846 247.699 313.846H249.669H275.276H277.123C278.723 313.846 279.954 312.738 280.324 311.26C282.17 301.779 287.464 268.659 275.769 238.124Z" fill="white"/>
<path d="M261.857 272.845C267.909 272.845 272.814 267.939 272.814 261.887C272.814 255.835 267.909 250.929 261.857 250.929C255.806 250.929 250.9 255.835 250.9 261.887C250.9 267.939 255.806 272.845 261.857 272.845Z" fill="#023246" stroke="#434343" stroke-width="2" stroke-miterlimit="10"/>
<path d="M265.52 270.148C269.799 268.398 271.85 263.51 270.1 259.23C268.35 254.95 263.462 252.899 259.182 254.649C254.903 256.399 252.852 261.288 254.602 265.568C256.352 269.848 261.24 271.898 265.52 270.148Z" fill="#7D7D7D" stroke="#434343" stroke-width="2" stroke-miterlimit="10"/>
<path d="M261.857 270.136C266.412 270.136 270.105 266.443 270.105 261.887C270.105 257.331 266.412 253.638 261.857 253.638C257.301 253.638 253.608 257.331 253.608 261.887C253.608 266.443 257.301 270.136 261.857 270.136Z" fill="#40C2E5" stroke="#434343" stroke-width="2" stroke-miterlimit="10"/>
<g opacity="0.08">
<path opacity="0.08" d="M262.349 254.992C265.673 254.992 268.505 256.962 269.859 259.671C268.874 256.1 265.673 253.638 261.857 253.638C257.302 253.638 253.608 257.331 253.608 261.887C253.608 263.241 253.855 264.349 254.47 265.458C254.224 264.719 254.224 263.98 254.224 263.241C254.101 258.686 257.794 254.992 262.349 254.992Z" fill="#010101" stroke="#434343" stroke-width="2" stroke-miterlimit="10"/>
</g>
<path d="M262.473 291.806C253.486 312.122 262.473 329.729 262.473 329.729C262.473 329.729 271.46 312.122 262.473 291.806Z" fill="#E02926"/>
<path d="M91.996 105.477L91.723 104.664L92.7847 102.838L93.1676 103.98L91.996 105.477Z" fill="#010101"/>
<path d="M554 369.006H432.12V453.223H554V369.006Z" fill="white"/>
<path d="M118.064 367.651H-8.00195V453.1H118.064V367.651Z" fill="white"/>
<path d="M254.473 129.16H247.595L246.05 133.445H243.818L250.087 117.028H251.981L258.261 133.445H256.04L254.473 129.16ZM248.249 127.379H253.83L251.034 119.7L248.249 127.379ZM271.826 117.028V128.19C271.818 129.739 271.33 131.006 270.36 131.99C269.398 132.975 268.09 133.527 266.436 133.648L265.861 133.67C264.065 133.67 262.633 133.185 261.565 132.216C260.498 131.246 259.957 129.912 259.941 128.213V117.028H262.084V128.145C262.084 129.333 262.411 130.258 263.065 130.919C263.719 131.573 264.651 131.9 265.861 131.9C267.086 131.9 268.022 131.573 268.669 130.919C269.323 130.265 269.65 129.344 269.65 128.157V117.028H271.826ZM287.363 131.291C286.807 132.088 286.029 132.686 285.029 133.084C284.037 133.475 282.879 133.67 281.556 133.67C280.218 133.67 279.031 133.358 277.993 132.734C276.956 132.103 276.152 131.208 275.58 130.051C275.017 128.893 274.727 127.552 274.712 126.026V124.594C274.712 122.121 275.287 120.204 276.437 118.843C277.595 117.483 279.219 116.802 281.308 116.802C283.022 116.802 284.402 117.242 285.446 118.122C286.491 118.993 287.13 120.234 287.363 121.842H285.198C284.792 119.67 283.5 118.584 281.32 118.584C279.869 118.584 278.768 119.095 278.016 120.117C277.272 121.132 276.896 122.605 276.888 124.537V125.879C276.888 127.721 277.309 129.186 278.151 130.276C278.993 131.359 280.132 131.9 281.568 131.9C282.379 131.9 283.09 131.81 283.699 131.629C284.308 131.449 284.811 131.145 285.21 130.716V127.029H281.41V125.27H287.363V131.291Z" fill="#F89938"/>
<path d="M297.297 133.445H295.2V119.542L290.994 121.087V119.193L296.97 116.949H297.297V133.445ZM304.367 125.214L305.201 117.028H313.612V118.956H306.971L306.475 123.432C307.279 122.959 308.193 122.722 309.215 122.722C310.711 122.722 311.898 123.218 312.778 124.21C313.657 125.195 314.097 126.529 314.097 128.213C314.097 129.904 313.639 131.239 312.722 132.216C311.812 133.185 310.538 133.67 308.899 133.67C307.448 133.67 306.265 133.268 305.347 132.464C304.43 131.66 303.908 130.547 303.78 129.126H305.753C305.881 130.066 306.216 130.776 306.757 131.257C307.298 131.731 308.012 131.968 308.899 131.968C309.869 131.968 310.628 131.637 311.177 130.975C311.733 130.314 312.011 129.401 312.011 128.236C312.011 127.138 311.711 126.259 311.109 125.597C310.515 124.928 309.722 124.594 308.73 124.594C307.821 124.594 307.106 124.793 306.588 125.191L306.035 125.642L304.367 125.214ZM319.419 118.291V121.245H321.697V122.857H319.419V130.423C319.419 130.912 319.521 131.28 319.724 131.528C319.927 131.768 320.272 131.889 320.761 131.889C321.001 131.889 321.332 131.844 321.753 131.753V133.445C321.204 133.595 320.671 133.67 320.152 133.67C319.22 133.67 318.517 133.388 318.044 132.825C317.57 132.261 317.333 131.46 317.333 130.423V122.857H315.112V121.245H317.333V118.291H319.419ZM326.229 122.722C327.154 121.587 328.357 121.019 329.838 121.019C332.416 121.019 333.716 122.474 333.739 125.383V133.445H331.653V125.372C331.645 124.492 331.442 123.842 331.044 123.421C330.653 123 330.041 122.79 329.206 122.79C328.53 122.79 327.936 122.97 327.425 123.331C326.914 123.692 326.515 124.165 326.229 124.751V133.445H324.144V116.126H326.229V122.722Z" fill="white"/>
<path d="M344.834 117.017V118.787H344.451C342.827 118.817 341.534 119.298 340.572 120.23C339.61 121.162 339.053 122.474 338.903 124.165C339.767 123.173 340.948 122.677 342.444 122.677C343.872 122.677 345.011 123.18 345.86 124.188C346.717 125.195 347.145 126.495 347.145 128.089C347.145 129.78 346.683 131.133 345.758 132.148C344.841 133.163 343.609 133.67 342.06 133.67C340.489 133.67 339.215 133.069 338.238 131.866C337.261 130.656 336.772 129.1 336.772 127.198V126.398C336.772 123.376 337.415 121.068 338.7 119.475C339.993 117.873 341.914 117.054 344.462 117.017H344.834ZM342.094 124.413C341.38 124.413 340.722 124.627 340.121 125.056C339.519 125.484 339.102 126.022 338.869 126.668V127.435C338.869 128.788 339.174 129.878 339.783 130.705C340.391 131.532 341.151 131.945 342.06 131.945C343 131.945 343.736 131.599 344.27 130.908C344.811 130.216 345.082 129.31 345.082 128.19C345.082 127.063 344.808 126.153 344.259 125.462C343.718 124.763 342.996 124.413 342.094 124.413ZM365.862 127.48C365.862 129.337 365.438 130.833 364.588 131.968C363.739 133.103 362.589 133.67 361.138 133.67C359.657 133.67 358.492 133.2 357.643 132.261V138.135H355.557V121.245H357.462L357.564 122.598C358.413 121.545 359.593 121.019 361.104 121.019C362.57 121.019 363.728 121.572 364.577 122.677C365.434 123.782 365.862 125.319 365.862 127.288V127.48ZM363.777 127.243C363.777 125.868 363.483 124.782 362.897 123.985C362.311 123.188 361.506 122.79 360.484 122.79C359.221 122.79 358.274 123.35 357.643 124.47V130.299C358.267 131.411 359.221 131.968 360.507 131.968C361.506 131.968 362.299 131.573 362.886 130.784C363.48 129.987 363.777 128.807 363.777 127.243ZM370.485 121.245L370.542 122.598C371.436 121.545 372.643 121.019 374.161 121.019C375.868 121.019 377.029 121.673 377.645 122.981C378.051 122.395 378.577 121.921 379.224 121.561C379.878 121.2 380.648 121.019 381.535 121.019C384.211 121.019 385.572 122.436 385.617 125.27V133.445H383.531V125.394C383.531 124.522 383.332 123.872 382.933 123.443C382.535 123.008 381.866 122.79 380.926 122.79C380.152 122.79 379.509 123.023 378.998 123.489C378.487 123.947 378.19 124.567 378.108 125.349V133.445H376.01V125.451C376.01 123.677 375.142 122.79 373.406 122.79C372.038 122.79 371.102 123.372 370.598 124.537V133.445H368.512V121.245H370.485Z" fill="#1B8943"/>
<path d="M254.654 373.056L254.515 372.641L255.057 371.709L255.252 372.291L254.654 373.056Z" fill="#010101"/>
<path d="M179.359 85.6118C179.166 87.2661 178.554 88.5445 177.522 89.4468C176.498 90.342 175.134 90.7896 173.43 90.7896C171.582 90.7896 170.1 90.1271 168.982 88.8023C167.872 87.4774 167.317 85.7049 167.317 83.4849V81.981C167.317 80.5272 167.575 79.2489 168.091 78.146C168.614 77.0432 169.351 76.1981 170.304 75.6109C171.256 75.0165 172.359 74.7193 173.612 74.7193C175.274 74.7193 176.606 75.1848 177.608 76.1158C178.611 77.0396 179.195 78.3215 179.359 79.9615H177.286C177.107 78.7154 176.717 77.813 176.115 77.2544C175.521 76.6958 174.687 76.4165 173.612 76.4165C172.295 76.4165 171.26 76.9035 170.508 77.8775C169.763 78.8514 169.391 80.2372 169.391 82.0347V83.5493C169.391 85.2466 169.745 86.5965 170.454 87.5992C171.163 88.6018 172.155 89.1031 173.43 89.1031C174.576 89.1031 175.453 88.8452 176.062 88.3296C176.677 87.8068 177.086 86.9009 177.286 85.6118H179.359ZM187.491 80.7349C187.19 80.6848 186.865 80.6597 186.514 80.6597C185.21 80.6597 184.326 81.2147 183.86 82.3247V90.5747H181.873V78.9517H183.807L183.839 80.2945C184.491 79.2561 185.414 78.7368 186.61 78.7368C186.997 78.7368 187.291 78.787 187.491 78.8872V80.7349ZM193.937 90.7896C192.361 90.7896 191.079 90.274 190.091 89.2427C189.103 88.2043 188.608 86.8186 188.608 85.0855V84.7202C188.608 83.5673 188.827 82.5396 189.264 81.6372C189.708 80.7277 190.324 80.0187 191.111 79.5103C191.906 78.9947 192.766 78.7368 193.689 78.7368C195.201 78.7368 196.375 79.2346 197.213 80.23C198.051 81.2255 198.47 82.6506 198.47 84.5054V85.3326H190.596C190.624 86.4784 190.957 87.4058 191.595 88.1148C192.239 88.8166 193.056 89.1675 194.044 89.1675C194.746 89.1675 195.34 89.0243 195.827 88.7378C196.314 88.4514 196.74 88.0718 197.105 87.5992L198.319 88.5445C197.345 90.0412 195.884 90.7896 193.937 90.7896ZM193.689 80.3697C192.887 80.3697 192.214 80.6633 191.67 81.2505C191.126 81.8306 190.789 82.647 190.66 83.6997H196.482V83.5493C196.425 82.5396 196.153 81.759 195.666 81.2076C195.179 80.649 194.52 80.3697 193.689 80.3697ZM207.955 90.5747C207.84 90.3456 207.747 89.9374 207.676 89.3501C206.752 90.3098 205.649 90.7896 204.367 90.7896C203.221 90.7896 202.28 90.4673 201.542 89.8228C200.812 89.1711 200.446 88.3475 200.446 87.3521C200.446 86.1418 200.905 85.2036 201.821 84.5376C202.745 83.8645 204.041 83.5279 205.71 83.5279H207.644V82.6148C207.644 81.9201 207.436 81.3687 207.021 80.9605C206.605 80.5451 205.993 80.3374 205.184 80.3374C204.475 80.3374 203.88 80.5165 203.4 80.8745C202.921 81.2326 202.681 81.6659 202.681 82.1743H200.683C200.683 81.5943 200.887 81.0357 201.295 80.4986C201.71 79.9543 202.269 79.5246 202.971 79.2095C203.68 78.8944 204.457 78.7368 205.302 78.7368C206.641 78.7368 207.69 79.0734 208.449 79.7466C209.208 80.4126 209.602 81.3329 209.631 82.5074V87.857C209.631 88.924 209.767 89.7727 210.039 90.4029V90.5747H207.955ZM204.657 89.0601C205.28 89.0601 205.871 88.899 206.43 88.5767C206.988 88.2544 207.393 87.8355 207.644 87.3199V84.9351H206.086C203.651 84.9351 202.434 85.6477 202.434 87.0728C202.434 87.6958 202.641 88.1828 203.057 88.5337C203.472 88.8846 204.006 89.0601 204.657 89.0601ZM218.364 80.7349C218.063 80.6848 217.738 80.6597 217.387 80.6597C216.083 80.6597 215.199 81.2147 214.733 82.3247V90.5747H212.746V78.9517H214.68L214.712 80.2945C215.364 79.2561 216.287 78.7368 217.483 78.7368C217.87 78.7368 218.164 78.787 218.364 78.8872V80.7349ZM224.81 90.7896C223.234 90.7896 221.952 90.274 220.964 89.2427C219.976 88.2043 219.481 86.8186 219.481 85.0855V84.7202C219.481 83.5673 219.7 82.5396 220.137 81.6372C220.581 80.7277 221.197 80.0187 221.984 79.5103C222.779 78.9947 223.639 78.7368 224.562 78.7368C226.074 78.7368 227.248 79.2346 228.086 80.23C228.924 81.2255 229.343 82.6506 229.343 84.5054V85.3326H221.469C221.497 86.4784 221.83 87.4058 222.468 88.1148C223.112 88.8166 223.929 89.1675 224.917 89.1675C225.619 89.1675 226.213 89.0243 226.7 88.7378C227.187 88.4514 227.613 88.0718 227.979 87.5992L229.192 88.5445C228.218 90.0412 226.757 90.7896 224.81 90.7896ZM224.562 80.3697C223.76 80.3697 223.087 80.6633 222.543 81.2505C221.999 81.8306 221.662 82.647 221.533 83.6997H227.355V83.5493C227.298 82.5396 227.026 81.759 226.539 81.2076C226.052 80.649 225.393 80.3697 224.562 80.3697ZM246.047 83.6675H239.483V90.5747H237.421V74.9341H247.11V76.6314H239.483V81.981H246.047V83.6675ZM248.507 84.6558C248.507 83.5171 248.729 82.493 249.173 81.5835C249.624 80.674 250.247 79.9722 251.042 79.4781C251.844 78.9839 252.757 78.7368 253.781 78.7368C255.364 78.7368 256.642 79.2847 257.616 80.3804C258.597 81.4761 259.088 82.9335 259.088 84.7525V84.8921C259.088 86.0236 258.869 87.0406 258.433 87.9429C258.003 88.8381 257.383 89.5363 256.574 90.0376C255.772 90.5389 254.848 90.7896 253.803 90.7896C252.227 90.7896 250.949 90.2417 249.968 89.146C248.994 88.0503 248.507 86.6001 248.507 84.7954V84.6558ZM250.505 84.8921C250.505 86.1812 250.802 87.216 251.396 87.9966C251.998 88.7772 252.8 89.1675 253.803 89.1675C254.812 89.1675 255.615 88.7736 256.209 87.9859C256.803 87.1909 257.101 86.0809 257.101 84.6558C257.101 83.3811 256.796 82.3498 256.188 81.562C255.586 80.7671 254.784 80.3697 253.781 80.3697C252.8 80.3697 252.009 80.76 251.407 81.5406C250.806 82.3212 250.505 83.4383 250.505 84.8921ZM268.756 89.4253C267.982 90.3348 266.847 90.7896 265.351 90.7896C264.112 90.7896 263.166 90.4315 262.515 89.7154C261.87 88.9921 261.544 87.925 261.537 86.5142V78.9517H263.524V86.4605C263.524 88.2222 264.241 89.1031 265.673 89.1031C267.191 89.1031 268.201 88.5373 268.702 87.4058V78.9517H270.689V90.5747H268.799L268.756 89.4253ZM275.588 78.9517L275.642 80.2408C276.494 79.2381 277.643 78.7368 279.09 78.7368C280.715 78.7368 281.822 79.3599 282.409 80.606C282.796 80.0474 283.297 79.5962 283.913 79.2525C284.536 78.9087 285.27 78.7368 286.115 78.7368C288.665 78.7368 289.961 80.0868 290.004 82.7867V90.5747H288.017V82.9048C288.017 82.0741 287.827 81.4546 287.447 81.0464C287.068 80.6311 286.43 80.4234 285.535 80.4234C284.798 80.4234 284.185 80.6454 283.698 81.0894C283.211 81.5262 282.928 82.1171 282.85 82.8618V90.5747H280.852V82.9585C280.852 81.2684 280.024 80.4234 278.37 80.4234C277.067 80.4234 276.175 80.9784 275.695 82.0884V90.5747H273.708V78.9517H275.588ZM292.528 84.6665C292.528 82.8833 292.951 81.451 293.796 80.3697C294.641 79.2811 295.747 78.7368 297.115 78.7368C298.476 78.7368 299.554 79.2023 300.349 80.1333V74.0747H302.336V90.5747H300.51L300.413 89.3286C299.618 90.3026 298.512 90.7896 297.094 90.7896C295.747 90.7896 294.648 90.2381 293.796 89.1353C292.951 88.0324 292.528 86.593 292.528 84.8169V84.6665ZM294.516 84.8921C294.516 86.2098 294.788 87.2411 295.332 87.9859C295.876 88.7307 296.628 89.1031 297.588 89.1031C298.848 89.1031 299.769 88.5373 300.349 87.4058V82.0669C299.754 80.9712 298.841 80.4234 297.609 80.4234C296.635 80.4234 295.876 80.7993 295.332 81.5513C294.788 82.3033 294.516 83.4169 294.516 84.8921ZM312.605 90.5747C312.491 90.3456 312.398 89.9374 312.326 89.3501C311.402 90.3098 310.299 90.7896 309.018 90.7896C307.872 90.7896 306.93 90.4673 306.192 89.8228C305.462 89.1711 305.097 88.3475 305.097 87.3521C305.097 86.1418 305.555 85.2036 306.472 84.5376C307.396 83.8645 308.692 83.5279 310.36 83.5279H312.294V82.6148C312.294 81.9201 312.086 81.3687 311.671 80.9605C311.256 80.5451 310.643 80.3374 309.834 80.3374C309.125 80.3374 308.531 80.5165 308.051 80.8745C307.571 81.2326 307.331 81.6659 307.331 82.1743H305.333C305.333 81.5943 305.537 81.0357 305.945 80.4986C306.361 79.9543 306.919 79.5246 307.621 79.2095C308.33 78.8944 309.107 78.7368 309.952 78.7368C311.291 78.7368 312.34 79.0734 313.1 79.7466C313.859 80.4126 314.253 81.3329 314.281 82.5074V87.857C314.281 88.924 314.417 89.7727 314.689 90.4029V90.5747H312.605ZM309.308 89.0601C309.931 89.0601 310.521 88.899 311.08 88.5767C311.639 88.2544 312.043 87.8355 312.294 87.3199V84.9351H310.736C308.301 84.9351 307.084 85.6477 307.084 87.0728C307.084 87.6958 307.292 88.1828 307.707 88.5337C308.122 88.8846 308.656 89.0601 309.308 89.0601ZM320.093 76.1372V78.9517H322.263V80.4878H320.093V87.6958C320.093 88.1613 320.189 88.5122 320.383 88.7486C320.576 88.9777 320.906 89.0923 321.371 89.0923C321.6 89.0923 321.915 89.0493 322.316 88.9634V90.5747C321.794 90.718 321.285 90.7896 320.791 90.7896C319.903 90.7896 319.233 90.521 318.782 89.9839C318.331 89.4468 318.105 88.6841 318.105 87.6958V80.4878H315.989V78.9517H318.105V76.1372H320.093ZM326.753 90.5747H324.766V78.9517H326.753V90.5747ZM324.604 75.8687C324.604 75.5464 324.701 75.2743 324.895 75.0523C325.095 74.8303 325.389 74.7193 325.775 74.7193C326.162 74.7193 326.456 74.8303 326.656 75.0523C326.857 75.2743 326.957 75.5464 326.957 75.8687C326.957 76.1909 326.857 76.4595 326.656 76.6743C326.456 76.8892 326.162 76.9966 325.775 76.9966C325.389 76.9966 325.095 76.8892 324.895 76.6743C324.701 76.4595 324.604 76.1909 324.604 75.8687ZM329.417 84.6558C329.417 83.5171 329.639 82.493 330.083 81.5835C330.534 80.674 331.157 79.9722 331.952 79.4781C332.754 78.9839 333.667 78.7368 334.691 78.7368C336.274 78.7368 337.552 79.2847 338.526 80.3804C339.507 81.4761 339.998 82.9335 339.998 84.7525V84.8921C339.998 86.0236 339.78 87.0406 339.343 87.9429C338.913 88.8381 338.294 89.5363 337.484 90.0376C336.682 90.5389 335.758 90.7896 334.713 90.7896C333.137 90.7896 331.859 90.2417 330.878 89.146C329.904 88.0503 329.417 86.6001 329.417 84.7954V84.6558ZM331.415 84.8921C331.415 86.1812 331.712 87.216 332.307 87.9966C332.908 88.7772 333.71 89.1675 334.713 89.1675C335.723 89.1675 336.525 88.7736 337.119 87.9859C337.714 87.1909 338.011 86.0809 338.011 84.6558C338.011 83.3811 337.706 82.3498 337.098 81.562C336.496 80.7671 335.694 80.3697 334.691 80.3697C333.71 80.3697 332.919 80.76 332.317 81.5406C331.716 82.3212 331.415 83.4383 331.415 84.8921ZM344.37 78.9517L344.435 80.4126C345.323 79.2954 346.483 78.7368 347.915 78.7368C350.371 78.7368 351.61 80.1226 351.632 82.8941V90.5747H349.645V82.8833C349.637 82.0454 349.444 81.426 349.064 81.0249C348.692 80.6239 348.108 80.4234 347.313 80.4234C346.669 80.4234 346.103 80.5952 345.616 80.939C345.129 81.2827 344.75 81.7339 344.478 82.2925V90.5747H342.49V78.9517H344.37Z" fill="white"/>
<path d="M240.521 83.0221L240.694 81.6619C241.802 81.8426 242.828 81.7048 243.773 81.2486L245.07 80.589L245.962 82.3438L244.856 82.9064C244.207 83.2363 243.487 83.4102 242.696 83.4284C241.902 83.4402 241.177 83.3047 240.521 83.0221Z" fill="white"/>
<path d="M142.506 28.3508H149.487V29.9392H140.554V15.209H142.506V28.3508ZM158.167 29.9392C158.059 29.7233 157.971 29.3389 157.904 28.7858C157.034 29.6896 155.995 30.1415 154.788 30.1415C153.709 30.1415 152.822 29.838 152.127 29.231C151.439 28.6172 151.095 27.8416 151.095 26.9041C151.095 25.7643 151.527 24.8807 152.39 24.2535C153.26 23.6195 154.481 23.3025 156.053 23.3025H157.874V22.4425C157.874 21.7883 157.678 21.269 157.287 20.8845C156.896 20.4934 156.319 20.2978 155.557 20.2978C154.889 20.2978 154.329 20.4664 153.877 20.8036C153.426 21.1408 153.2 21.5489 153.2 22.0278H151.318C151.318 21.4814 151.51 20.9554 151.895 20.4495C152.286 19.9369 152.812 19.5323 153.473 19.2355C154.14 18.9387 154.872 18.7903 155.668 18.7903C156.929 18.7903 157.917 19.1073 158.632 19.7413C159.347 20.3686 159.718 21.2353 159.745 22.3414V27.3796C159.745 28.3845 159.873 29.1838 160.13 29.7773V29.9392H158.167ZM155.061 28.5127C155.648 28.5127 156.204 28.3609 156.73 28.0574C157.256 27.7539 157.638 27.3594 157.874 26.8737V24.6278H156.407C154.114 24.6278 152.967 25.2989 152.967 26.6411C152.967 27.2278 153.163 27.6865 153.554 28.017C153.945 28.3474 154.447 28.5127 155.061 28.5127ZM169.437 28.8567C168.709 29.7132 167.64 30.1415 166.23 30.1415C165.063 30.1415 164.173 29.8043 163.559 29.1298C162.952 28.4486 162.645 27.4437 162.639 26.115V18.9927H164.51V26.0644C164.51 27.7236 165.185 28.5531 166.534 28.5531C167.964 28.5531 168.915 28.0203 169.387 26.9547V18.9927H171.258V29.9392H169.478L169.437 28.8567ZM175.882 18.9927L175.942 20.3686C176.779 19.3164 177.871 18.7903 179.22 18.7903C181.534 18.7903 182.7 20.0954 182.721 22.7056V29.9392H180.849V22.6955C180.842 21.9063 180.66 21.3229 180.303 20.9452C179.952 20.5675 179.402 20.3787 178.654 20.3787C178.047 20.3787 177.514 20.5406 177.055 20.8643C176.597 21.188 176.239 21.613 175.983 22.139V29.9392H174.111V18.9927H175.882ZM189.934 28.6138C190.602 28.6138 191.185 28.4115 191.684 28.0068C192.183 27.6022 192.46 27.0963 192.514 26.4893H194.284C194.251 27.1165 194.035 27.7134 193.637 28.28C193.239 28.8465 192.706 29.2984 192.038 29.6357C191.377 29.9729 190.676 30.1415 189.934 30.1415C188.444 30.1415 187.256 29.6458 186.373 28.6543C185.496 27.6561 185.058 26.2937 185.058 24.5671V24.2535C185.058 23.1878 185.253 22.2402 185.645 21.4106C186.036 20.581 186.595 19.9369 187.324 19.4783C188.059 19.0197 188.926 18.7903 189.924 18.7903C191.151 18.7903 192.17 19.1579 192.979 19.8931C193.795 20.6282 194.23 21.5826 194.284 22.7562H192.514C192.46 22.048 192.19 21.468 191.705 21.0161C191.226 20.5574 190.632 20.3281 189.924 20.3281C188.973 20.3281 188.234 20.6721 187.708 21.36C187.189 22.0412 186.929 23.0293 186.929 24.3243V24.6784C186.929 25.9396 187.189 26.9108 187.708 27.592C188.228 28.2732 188.97 28.6138 189.934 28.6138Z" fill="#F89938"/>
<path d="M198.26 20.318C199.09 19.2996 200.169 18.7903 201.498 18.7903C203.811 18.7903 204.978 20.0954 204.998 22.7056V29.9392H203.126V22.6955C203.12 21.9063 202.938 21.3229 202.58 20.9452C202.229 20.5675 201.68 20.3787 200.931 20.3787C200.324 20.3787 199.791 20.5406 199.333 20.8643C198.874 21.188 198.517 21.613 198.26 22.139V29.9392H196.389V14.3996H198.26V20.318ZM209.834 29.9392H207.962V18.9927H209.834V29.9392ZM207.811 16.0891C207.811 15.7856 207.902 15.5293 208.084 15.3203C208.273 15.1112 208.549 15.0066 208.913 15.0066C209.278 15.0066 209.554 15.1112 209.743 15.3203C209.932 15.5293 210.026 15.7856 210.026 16.0891C210.026 16.3926 209.932 16.6456 209.743 16.8479C209.554 17.0502 209.278 17.1514 208.913 17.1514C208.549 17.1514 208.273 17.0502 208.084 16.8479C207.902 16.6456 207.811 16.3926 207.811 16.0891ZM214.609 18.9927L214.67 20.3686C215.506 19.3164 216.599 18.7903 217.948 18.7903C220.261 18.7903 221.428 20.0954 221.448 22.7056V29.9392H219.577V22.6955C219.57 21.9063 219.388 21.3229 219.03 20.9452C218.68 20.5675 218.13 20.3787 217.381 20.3787C216.774 20.3787 216.241 20.5406 215.783 20.8643C215.324 21.188 214.967 21.613 214.71 22.139V29.9392H212.839V18.9927H214.609ZM223.826 24.3749C223.826 22.6685 224.22 21.3128 225.009 20.3079C225.798 19.2962 226.844 18.7903 228.146 18.7903C229.481 18.7903 230.523 19.2625 231.272 20.2067L231.363 18.9927H233.073V29.6761C233.073 31.0925 232.651 32.2087 231.808 33.0248C230.972 33.8409 229.845 34.249 228.429 34.249C227.64 34.249 226.867 34.0803 226.112 33.7431C225.357 33.4059 224.78 32.9439 224.382 32.3571L225.353 31.2341C226.156 32.2256 227.137 32.7213 228.297 32.7213C229.208 32.7213 229.916 32.465 230.422 31.9524C230.934 31.4398 231.191 30.7182 231.191 29.7874V28.8465C230.442 29.7098 229.42 30.1415 228.125 30.1415C226.844 30.1415 225.805 29.6255 225.009 28.5936C224.22 27.5617 223.826 26.1554 223.826 24.3749ZM225.707 24.5873C225.707 25.8216 225.96 26.7928 226.466 27.501C226.972 28.2024 227.68 28.5531 228.591 28.5531C229.771 28.5531 230.638 28.017 231.191 26.9446V21.9468C230.617 20.9014 229.758 20.3787 228.611 20.3787C227.7 20.3787 226.989 20.7328 226.476 21.441C225.964 22.1492 225.707 23.1979 225.707 24.5873Z" fill="white"/>
<path d="M245.678 23.3733C244.012 22.8944 242.798 22.3077 242.036 21.613C241.281 20.9115 240.903 20.0482 240.903 19.023C240.903 17.863 241.365 16.9052 242.289 16.1498C243.22 15.3877 244.427 15.0066 245.911 15.0066C246.923 15.0066 247.823 15.2022 248.612 15.5934C249.408 15.9846 250.022 16.5242 250.453 17.2121C250.892 17.9001 251.111 18.6521 251.111 19.4682H249.158C249.158 18.5779 248.875 17.8798 248.309 17.374C247.742 16.8614 246.943 16.6051 245.911 16.6051C244.953 16.6051 244.204 16.8176 243.665 17.2425C243.132 17.6606 242.866 18.244 242.866 18.9927C242.866 19.593 243.119 20.1022 243.624 20.5203C244.137 20.9318 245.004 21.3095 246.224 21.6534C247.452 21.9974 248.41 22.3785 249.098 22.7966C249.792 23.2081 250.305 23.6903 250.635 24.2434C250.973 24.7964 251.141 25.4473 251.141 26.1959C251.141 27.3897 250.676 28.3474 249.745 29.0691C248.814 29.784 247.57 30.1415 246.012 30.1415C245 30.1415 244.056 29.9493 243.179 29.5648C242.302 29.1737 241.625 28.6408 241.146 27.9664C240.674 27.2919 240.438 26.5264 240.438 25.6698H242.39C242.39 26.5601 242.717 27.2649 243.372 27.7843C244.032 28.2969 244.913 28.5531 246.012 28.5531C247.037 28.5531 247.823 28.3441 248.369 27.9259C248.916 27.5077 249.189 26.9378 249.189 26.2161C249.189 25.4945 248.936 24.938 248.43 24.5469C247.924 24.1489 247.007 23.7577 245.678 23.3733ZM252.851 24.3648C252.851 23.2924 253.06 22.3279 253.478 21.4713C253.903 20.6148 254.49 19.9538 255.239 19.4884C255.994 19.023 256.854 18.7903 257.818 18.7903C259.309 18.7903 260.513 19.3063 261.43 20.3382C262.354 21.3702 262.816 22.7427 262.816 24.4558V24.5873C262.816 25.653 262.61 26.6107 262.199 27.4605C261.794 28.3036 261.211 28.9612 260.449 29.4333C259.693 29.9054 258.823 30.1415 257.839 30.1415C256.355 30.1415 255.151 29.6255 254.227 28.5936C253.31 27.5617 252.851 26.1959 252.851 24.4963V24.3648ZM254.733 24.5873C254.733 25.8014 255.013 26.7759 255.572 27.5111C256.139 28.2463 256.894 28.6138 257.839 28.6138C258.79 28.6138 259.545 28.2429 260.105 27.501C260.665 26.7523 260.945 25.7069 260.945 24.3648C260.945 23.1642 260.658 22.193 260.085 21.4511C259.518 20.7024 258.763 20.3281 257.818 20.3281C256.894 20.3281 256.149 20.6957 255.583 21.4309C255.016 22.166 254.733 23.2182 254.733 24.5873ZM264.668 24.3648C264.668 23.2924 264.877 22.3279 265.295 21.4713C265.72 20.6148 266.307 19.9538 267.055 19.4884C267.811 19.023 268.67 18.7903 269.635 18.7903C271.126 18.7903 272.329 19.3063 273.247 20.3382C274.171 21.3702 274.633 22.7427 274.633 24.4558V24.5873C274.633 25.653 274.427 26.6107 274.016 27.4605C273.611 28.3036 273.027 28.9612 272.265 29.4333C271.51 29.9054 270.64 30.1415 269.655 30.1415C268.171 30.1415 266.967 29.6255 266.043 28.5936C265.126 27.5617 264.668 26.1959 264.668 24.4963V24.3648ZM266.549 24.5873C266.549 25.8014 266.829 26.7759 267.389 27.5111C267.956 28.2463 268.711 28.6138 269.655 28.6138C270.606 28.6138 271.362 28.2429 271.921 27.501C272.481 26.7523 272.761 25.7069 272.761 24.3648C272.761 23.1642 272.474 22.193 271.901 21.4511C271.335 20.7024 270.579 20.3281 269.635 20.3281C268.711 20.3281 267.966 20.6957 267.399 21.4309C266.833 22.166 266.549 23.2182 266.549 24.5873ZM278.75 18.9927L278.811 20.3686C279.647 19.3164 280.74 18.7903 282.089 18.7903C284.402 18.7903 285.569 20.0954 285.589 22.7056V29.9392H283.718V22.6955C283.711 21.9063 283.529 21.3229 283.171 20.9452C282.821 20.5675 282.271 20.3787 281.522 20.3787C280.915 20.3787 280.382 20.5406 279.924 20.8643C279.465 21.188 279.108 21.613 278.851 22.139V29.9392H276.98V18.9927H278.75Z" fill="#1B8943"/>
<path d="M445.17 188.874L443.077 196.015L435.937 198.108L443.077 200.201L445.17 207.342L447.263 200.201L454.403 198.108L447.263 196.015L445.17 188.874Z" fill="white"/>
<path d="M393.34 299.071L391.247 306.212L384.106 308.305L391.247 310.275L393.34 317.539L395.433 310.275L402.573 308.305L395.433 306.212L393.34 299.071Z" fill="white"/>
<path d="M396.049 251.791L394.079 258.932L386.815 261.025L394.079 262.995L396.049 270.136L398.142 262.995L405.282 261.025L398.142 258.932L396.049 251.791Z" fill="white"/>
<path d="M537.257 273.584L535.287 280.848L528.146 282.818L535.287 284.911L537.257 292.052L539.35 284.911L546.49 282.818L539.35 280.848L537.257 273.584Z" fill="white"/>
<path d="M448.125 80.6469L446.032 87.7881L438.892 89.8813L446.032 91.9744L448.125 99.1156L450.095 91.9744L457.358 89.8813L450.095 87.7881L448.125 80.6469Z" fill="white"/>
<path d="M369.58 122.509L367.487 129.651L360.347 131.621L367.487 133.714L369.58 140.855L371.55 133.714L378.69 131.621L371.55 129.651L369.58 122.509Z" fill="white"/>
<path d="M149.457 87.4187L147.364 94.56L140.224 96.6531L147.364 98.7462L149.457 105.888L151.427 98.7462L158.567 96.6531L151.427 94.56L149.457 87.4187Z" fill="white"/>
<path d="M190.699 153.414L188.606 160.555L181.466 162.648L188.606 164.618L190.699 171.759L192.669 164.618L199.809 162.648L192.669 160.555L190.699 153.414Z" fill="white"/>
<path d="M70.4199 253.638L68.327 260.902L61.1865 262.872L68.327 264.965L70.4199 272.106L72.3896 264.965L79.5301 262.872L72.3896 260.902L70.4199 253.638Z" fill="white"/>
<path d="M168.047 253.884L165.954 261.025L158.813 263.118L165.954 265.088L168.047 272.229L170.017 265.088L177.157 263.118L170.017 261.025L168.047 253.884Z" fill="white"/>
<path d="M100.706 112.659L95.535 130.882L77.1914 136.176L95.535 141.347L100.706 159.693L105.999 141.347L124.22 136.176L105.999 130.882L100.706 112.659Z" fill="white"/>
</g>
<defs>
<linearGradient id="paint0_linear" x1="262.514" y1="320.483" x2="262.514" y2="350.234" gradientUnits="userSpaceOnUse">
<stop offset="0.00558659" stop-color="#F7BD6E"/>
<stop offset="0.3391" stop-color="#F3A25B"/>
<stop offset="1" stop-color="#ED6736"/>
</linearGradient>
<clipPath id="clip0">
<rect width="554" height="394" rx="3" fill="white"/>
</clipPath>
</defs>
</svg>
