<svg width="451" height="326" viewBox="0 0 451 326" fill="none" xmlns="http://www.w3.org/2000/svg">
<g clip-path="url(#clip0)">
<path opacity="0.33" d="M450.738 194.495C446.92 225.048 424.918 219.964 421.438 255.482C420.194 268.162 429.582 276.131 434.238 287.104C439.402 299.241 437.574 310.138 430.598 318.455H48.0587C39.6017 314.636 31.534 310.579 24.5077 305.699C14.8401 298.995 7.18723 290.737 3.28463 279.407C-0.237019 269.171 -2.95445 259.301 6.29835 251.536C11.3184 247.318 16.5501 244.059 21.0961 240.146C24.5161 237.21 27.5383 233.9 29.824 229.521C46.5011 197.448 25.1087 169.187 17.2527 137.098C16.4908 133.983 15.7967 130.826 15.2464 127.669C13.8073 119.623 13.1385 111.45 13.9935 103.498C14.7639 96.2163 16.821 89.0873 20.6982 82.3826C26.5309 72.3256 41.6419 57.4819 57.8787 60.3166C70.0775 62.4468 77.7557 74.1757 88.7778 78.4192C102.661 83.766 118.06 79.4886 128.464 71.6297C148.697 56.3447 161.657 27.3024 196.231 29.9588C207.955 30.8584 215.87 40.1431 226.148 44.3951C240.277 50.2511 254.219 50.2086 267.722 44.5139C283.256 37.962 293.906 25.7833 309.16 18.8155C314.155 16.5325 319.59 14.5381 325.262 13.0104C337.528 9.68355 350.946 8.50387 363.594 11.0669C366.277 11.6101 368.817 12.2551 371.229 13.0104C413.523 26.0633 415.521 68.829 413.532 100.027C412.617 114.319 401.206 138.973 409.638 153.749C418.069 168.525 454.429 164.952 450.738 194.495Z" fill="#B8E5FF"/>
<path d="M74.9705 318.455H71.4065L70.9494 302.703H79.9652L74.9705 318.455Z" fill="#B8E5FF"/>
<path d="M141.493 318.455H145.065L145.514 302.703H136.498L141.493 318.455Z" fill="#B8E5FF"/>
<path d="M150.204 149.794H66.268V304.511H150.204V149.794Z" fill="#94D5FF"/>
<path d="M143.092 161.481H73.3705V191.881H143.092V161.481Z" fill="#B8E5FF"/>
<path d="M108.231 181.332C110.794 181.332 112.871 179.25 112.871 176.681C112.871 174.112 110.794 172.03 108.231 172.03C105.669 172.03 103.592 174.112 103.592 176.681C103.592 179.25 105.669 181.332 108.231 181.332Z" fill="#94D5FF"/>
<path d="M143.092 195.131H73.3705V225.532H143.092V195.131Z" fill="#B8E5FF"/>
<path d="M108.231 214.982C110.794 214.982 112.871 212.9 112.871 210.332C112.871 207.763 110.794 205.681 108.231 205.681C105.669 205.681 103.592 207.763 103.592 210.332C103.592 212.9 105.669 214.982 108.231 214.982Z" fill="#94D5FF"/>
<path d="M143.092 228.782H73.3705V259.182H143.092V228.782Z" fill="#B8E5FF"/>
<path d="M108.231 248.633C110.794 248.633 112.871 246.551 112.871 243.982C112.871 241.414 110.794 239.332 108.231 239.332C105.669 239.332 103.592 241.414 103.592 243.982C103.592 246.551 105.669 248.633 108.231 248.633Z" fill="#94D5FF"/>
<path d="M143.092 262.424H73.3705V292.825H143.092V262.424Z" fill="#B8E5FF"/>
<path d="M108.231 282.284C110.794 282.284 112.871 280.201 112.871 277.633C112.871 275.064 110.794 272.982 108.231 272.982C105.669 272.982 103.592 275.064 103.592 277.633C103.592 280.201 105.669 282.284 108.231 282.284Z" fill="#94D5FF"/>
<path d="M152.675 147.248H63.7876V153.087H152.675V147.248Z" fill="#B8E5FF"/>
<path d="M96.9047 44.497C95.8973 41.7048 97.9968 38.1063 100.74 36.2986C102.568 35.0934 104.693 34.3126 105.827 32.7256C105.717 34.8219 105.176 36.655 103.779 38.6495C102.255 40.8391 99.91 43.1051 96.9047 44.497Z" fill="#94D5FF"/>
<path d="M96.8963 45.456C97.2857 43.9198 95.6688 42.4601 94.636 41.6284C93.5947 40.7797 92.435 40.0668 91.5292 39.1247C89.5398 37.0709 89.4636 33.082 91.7154 30.9178C91.0805 31.461 92.071 33.3027 92.3757 33.7779C93.0868 34.8812 94.1958 35.7045 95.1355 36.6635C97.3365 38.921 97.709 42.2394 96.8963 45.456Z" fill="#B8E5FF"/>
<path d="M97.4635 42.5194C96.9555 41.1106 98.4201 39.4132 99.3513 38.4203C100.291 37.4188 101.358 36.5192 102.162 35.4498C103.914 33.1244 103.669 29.2883 101.307 27.6079C101.967 28.0238 101.163 29.9673 100.909 30.4765C100.308 31.6647 99.292 32.6491 98.4624 33.744C96.4984 36.2985 96.4053 39.566 97.4635 42.5194Z" fill="#B8E5FF"/>
<path d="M96.6423 42.146C96.1428 42.0272 95.6518 41.3567 95.4148 41.0003C94.9492 40.3128 94.6868 39.549 94.5513 38.7597C94.2212 36.7653 94.8222 34.8218 94.9153 32.8953C94.9831 31.4016 94.8899 29.9079 94.382 28.5415C94.128 27.854 93.6963 27.2939 93.3154 26.6828C93.2815 26.6319 93.9333 26.8356 93.9757 26.8526C97.946 28.6518 98.7841 32.3436 98.0307 36.1288C97.7936 37.3085 97.6328 38.4712 97.2603 39.6594C97.0233 40.4062 96.4476 41.3992 96.6423 42.146Z" fill="#94D5FF"/>
<path d="M102.153 52.1691H93.9673L91.2837 43.5803H104.837L102.153 52.1691Z" fill="#B8E5FF"/>
<path d="M102.551 52.8141H93.5439L93.4847 51.4562H102.602L102.551 52.8141Z" fill="#94D5FF"/>
<path d="M105.082 44.5987H91.0043L90.7334 41.8829H105.345L105.082 44.5987Z" fill="#94D5FF"/>
<path d="M153.082 36.358L154.055 38.3439C154.419 39.0823 155.122 39.6 155.943 39.7188L158.127 40.0413C160.184 40.3383 161.006 42.8759 159.516 44.3272L157.933 45.8718C157.34 46.4489 157.069 47.2807 157.213 48.0954L157.586 50.2765C157.933 52.3304 155.791 53.892 153.954 52.9245L151.998 51.8975C151.27 51.5156 150.398 51.5156 149.67 51.8975L147.715 52.9245C145.878 53.892 143.728 52.3304 144.083 50.2765L144.456 48.0954C144.591 47.2807 144.329 46.4489 143.736 45.8718L142.153 44.3272C140.663 42.8759 141.484 40.3468 143.541 40.0413L145.725 39.7188C146.538 39.6 147.249 39.0823 147.613 38.3439L148.587 36.358C149.509 34.4993 152.168 34.4993 153.082 36.358Z" fill="#94D5FF"/>
<path d="M129.717 19.8424H120.735V53.0093H129.717V19.8424Z" fill="#94D5FF"/>
<path d="M134.593 24.1792H129.472V53.0178H134.593V24.1792Z" fill="#50BCFF"/>
<path d="M120.913 31.4865H113.37V53.0093H120.913V31.4865Z" fill="#B8E5FF"/>
<path opacity="0.68" d="M120.913 34.7794H113.37V37.2746H120.913V34.7794Z" fill="#94D5FF"/>
<path opacity="0.68" d="M120.913 47.9171H113.37V50.4123H120.913V47.9171Z" fill="#94D5FF"/>
<path d="M140.477 22.2866H134.145V53.0178H140.477V22.2866Z" fill="#94D5FF"/>
<path d="M138.801 31.5968H135.812V45.3626H138.801V31.5968Z" fill="#B8E5FF"/>
<path d="M147.096 73.1178H152.396V60.2261H147.096V73.1178Z" fill="#94D5FF"/>
<path d="M143.651 62.7532H155.841V59.0444H143.651V62.7532Z" fill="#94D5FF"/>
<path d="M94.3023 73.1178H99.6017V60.2261H94.3023V73.1178Z" fill="#94D5FF"/>
<path d="M90.8653 62.7532H103.056V59.0444H90.8653V62.7532Z" fill="#94D5FF"/>
<path d="M81.7749 59.6553L164.932 59.6553V52.6875L81.7749 52.6875V59.6553Z" fill="#B8E5FF"/>
<path d="M58.2089 93.0931H52.8079C52.6132 93.0931 52.4524 93.212 52.3846 93.3987L42.7255 109.736C42.607 110.084 42.8694 110.474 43.225 110.474H52.6217C52.8164 110.474 52.9772 110.356 53.0449 110.169L58.6999 93.8315C58.8353 93.492 58.5645 93.0931 58.2089 93.0931Z" fill="#94D5FF"/>
<path d="M47.6948 86.5582H76.1219L79.9568 110.517H51.5296L47.6948 86.5582Z" fill="#50BCFF"/>
<path d="M48.6937 86.5582H77.1124L80.9472 110.517H52.5285L48.6937 86.5582Z" fill="#94D5FF"/>
<path d="M51.2926 88.7648H75.2246L78.3484 108.302H54.4164L51.2926 88.7648Z" fill="white"/>
<path d="M55.3052 92.5161H72.414L74.3357 104.551H57.2269L55.3052 92.5161Z" fill="#94D5FF"/>
<path d="M101.434 102.259C101.434 105.331 99.7068 107.996 97.1672 109.329C97.1164 109.363 97.0656 109.388 97.0148 109.405C95.9481 109.948 94.746 110.245 93.4678 110.245C91.0043 110.245 88.7948 109.116 87.3303 107.343C87.2117 107.207 87.1017 107.063 87.0001 106.91C86.052 105.603 85.5017 103.999 85.5017 102.259C85.5017 98.2956 88.3969 95.0027 92.1725 94.3832C92.2995 94.3577 92.4265 94.3407 92.5535 94.3237C92.8498 94.2898 93.1545 94.2728 93.4678 94.2728C97.4804 94.2728 100.799 97.2517 101.349 101.122C101.375 101.283 101.391 101.444 101.408 101.606C101.425 101.818 101.434 102.038 101.434 102.259Z" fill="#94D5FF"/>
<path d="M92.0456 102.777C91.2922 104.016 90.3271 105.17 89.235 106.129C88.6678 106.621 88.0329 107.071 87.3303 107.343C87.2118 107.207 87.1017 107.063 87.0001 106.91C87.9821 106.486 88.8371 105.79 89.599 105.017C90.6572 103.939 91.5884 102.726 92.2403 101.351C92.9175 99.9166 93.2308 98.2871 92.9937 96.7001C92.8837 95.9872 92.6636 95.2828 92.3249 94.6462C92.2826 94.5614 92.2318 94.468 92.1726 94.3831C92.2995 94.3577 92.4265 94.3407 92.5535 94.3237C92.6466 94.4765 92.7228 94.6293 92.7905 94.7651C94.0604 97.3451 93.4932 100.4 92.0456 102.777Z" fill="#B8E5FF"/>
<path d="M101.408 101.606C101.061 101.852 100.74 102.132 100.426 102.429C98.547 104.237 97.4042 106.74 97.1671 109.329C97.1164 109.363 97.0656 109.388 97.0148 109.405C97.1164 106.689 98.2338 104.075 100.155 102.149C100.528 101.775 100.926 101.436 101.349 101.122C101.375 101.283 101.391 101.444 101.408 101.606Z" fill="#B8E5FF"/>
<path d="M96.8402 130.286H102.14V117.395H96.8402V130.286Z" fill="#94D5FF"/>
<path d="M93.3947 119.922H105.585V116.213H93.3947V119.922Z" fill="#94D5FF"/>
<path d="M44.0464 130.286H49.3458V117.395H44.0464V130.286Z" fill="#94D5FF"/>
<path d="M40.601 119.922H52.7913V116.213H40.601V119.922Z" fill="#94D5FF"/>
<path d="M31.5189 116.824L114.676 116.824V109.856L31.5189 109.856V116.824Z" fill="#B8E5FF"/>
<path d="M390.04 281.571C400.98 281.571 409.849 273.128 409.849 262.713C409.849 252.298 400.98 243.855 390.04 243.855C379.1 243.855 370.231 252.298 370.231 262.713C370.231 273.128 379.1 281.571 390.04 281.571Z" fill="#94D5FF"/>
<path d="M409.282 265.2H371.086L372.982 318.455H407.386L409.282 265.2Z" fill="#B8E5FF"/>
<path d="M412.262 261.932H368.952V268.764H412.262V261.932Z" fill="#94D5FF"/>
<path d="M384.41 247.929C383.352 250.381 382.531 252.928 381.964 255.533C381.498 257.655 381.295 259.785 381.134 261.924H409.815C409.511 254.837 405.109 248.76 398.802 245.79C396.431 246.325 394.027 246.758 391.631 247.148C389.244 247.547 386.831 247.852 384.41 247.929Z" fill="#B8E5FF"/>
<path d="M316.381 0H187.426V85.5228H316.381V0Z" fill="#FFD245"/>
<path d="M211.765 84.2413C211.697 84.5553 212.078 105.094 212.078 105.094L223.109 84.3517L211.765 84.2413Z" fill="#FFD245"/>
<path d="M313.097 3.74268H190.711V81.7885H313.097V3.74268Z" fill="white"/>
<path opacity="0.4" d="M313.097 67.6747H209.496C208.116 67.6747 206.99 66.5545 206.99 65.1626V3.74268H313.097V67.6747Z" fill="#50BCFF"/>
<path opacity="0.83" d="M313.097 62.5486H215.481C214.677 62.5486 214.025 61.8951 214.025 61.0889V3.74268H313.097V62.5486Z" fill="white"/>
<g opacity="0.36">
<path opacity="0.36" d="M305.622 19.9952C304.42 18.9343 302.041 19.2653 300.458 19.2313C295.709 19.121 290.96 19.0701 286.202 19.0956C285.94 19.0956 285.702 19.2653 285.702 19.4944C285.66 22.8977 285.779 26.2925 286.05 29.6873C284.094 27.277 281.978 24.9176 279.48 22.8892C279.345 22.7789 279.066 22.9232 279.193 23.0674C281.58 25.7408 284.06 28.3293 286.185 31.147C286.397 31.4271 287.032 31.3592 287.006 30.9773C286.744 27.2939 286.625 23.6021 286.684 19.9103C290.452 19.9358 294.227 19.9782 297.994 20.0461C299.857 20.08 301.745 20.0461 303.607 20.1734C305.69 20.3177 305.241 21.9557 305.749 23.1438C305.85 23.3815 306.214 23.3815 306.333 23.1523C306.807 22.1933 306.494 20.7675 305.622 19.9952Z" fill="#004DBE"/>
<path opacity="0.36" d="M304.877 26.9799C304.293 27.5316 303.565 28.7877 302.447 28.5076C301.804 28.3463 301.635 27.591 301.431 27.1412C301.203 26.6405 300.974 26.1397 300.746 25.639C300.636 25.3929 300.187 25.2656 300.001 25.5456C299.679 26.0294 299.332 26.5047 298.926 26.946C298.638 27.26 297.91 28.1766 297.317 27.9729C296.843 27.8117 296.665 27.0563 296.606 26.6235C296.928 26.0039 297.089 25.3335 296.97 24.6291C296.919 24.349 296.352 24.2726 296.208 24.5357C295.861 25.1722 295.709 25.8342 295.768 26.5216C295.649 26.7253 295.514 26.9205 295.362 27.1157C294.854 27.7438 294.109 28.5246 293.228 28.8046C292.06 29.178 291.349 28.236 291.07 27.4382C290.917 26.9969 290.545 25.3759 291.324 25.2995C291.569 25.2741 291.493 24.977 291.273 24.9685C291.129 24.96 290.993 24.9516 290.85 24.9431C290.773 24.9346 290.672 24.977 290.638 25.0364C290.088 25.9785 290.037 27.0733 290.511 28.0493C290.926 28.9065 291.798 29.6958 293.017 29.5515C294.236 29.4072 295.175 28.4906 295.87 27.7183C295.92 27.6589 295.963 27.591 296.013 27.5316C296.183 27.9559 296.437 28.3633 296.843 28.5755C298.164 29.2459 299.518 27.6334 300.28 26.5386C300.517 27.0818 300.754 27.6334 301.025 28.1681C301.287 28.6943 301.685 29.1102 302.405 29.212C303.937 29.4327 304.995 28.2615 305.232 27.1582C305.249 27.0054 305.029 26.8357 304.877 26.9799Z" fill="#004DBE"/>
<path opacity="0.36" d="M311.709 17.814C311.522 17.6443 311.26 17.6273 310.997 17.6104C310.743 17.5934 310.481 17.551 310.244 17.4746C309.897 17.3558 309.55 17.1011 309.508 16.7786C309.491 16.4646 308.898 16.4477 308.898 16.7702C308.898 16.7956 308.906 16.8126 308.915 16.8381H308.906C308.983 17.2624 309 17.7122 308.856 18.1281C308.788 18.3402 308.686 18.5354 308.534 18.7222C308.415 18.8664 308.145 19.138 307.916 19.138C307.696 19.138 307.645 18.841 307.62 18.7052C307.569 18.3996 307.544 18.0941 307.527 17.7886C307.501 17.1775 307.544 16.575 307.654 15.9724C307.679 15.8536 307.425 15.8196 307.4 15.9384C307.264 16.4986 307.188 17.0757 307.18 17.6443C307.171 17.9329 307.18 18.2214 307.205 18.5015C307.222 18.7137 307.239 18.9343 307.332 19.1295C307.417 19.2908 307.56 19.4351 307.781 19.4775C308.068 19.5369 308.331 19.3926 308.534 19.2483C308.915 18.9852 309.16 18.6118 309.304 18.2299C309.364 18.0517 309.397 17.8735 309.431 17.6952C309.541 17.7801 309.66 17.848 309.795 17.9074C310.092 18.0432 310.413 18.1111 310.744 18.1535C311.074 18.196 311.429 18.2384 311.7 18.0432C311.785 17.9838 311.776 17.8735 311.709 17.814Z" fill="#004DBE"/>
<path opacity="0.36" d="M277.83 45.0486C277.576 45.3456 276.949 45.3541 276.611 45.1674C276.153 44.9213 275.95 44.429 275.789 44.0216C275.679 43.7416 275.248 43.6822 275.044 43.9283C274.663 44.3781 274.291 44.8364 273.91 45.2862C273.741 45.4899 272.903 46.6441 272.784 45.9397C272.598 44.8703 272.852 43.6567 273.114 42.6128C273.216 42.2224 272.479 42.0357 272.378 42.4346C272.132 43.3851 271.667 44.2762 270.973 45.057C270.439 45.6511 269.254 46.8902 268.204 46.6696C267.578 46.5423 267.476 45.9057 267.392 45.4644C267.282 44.9297 267.256 44.3866 267.282 43.8434C267.349 42.7486 267.713 41.6792 268.323 40.7117C268.484 40.4486 268.018 40.211 267.849 40.4741C267.104 41.6029 266.681 42.8589 266.621 44.1405C266.579 45.074 266.554 46.7714 267.823 47.1958C269.093 47.6201 270.422 46.5338 271.159 45.8209C271.464 45.5238 271.726 45.2098 271.971 44.8873V44.8958C271.946 45.4305 271.76 46.364 272.378 46.729C272.945 47.0684 273.622 46.7544 273.995 46.364C274.46 45.8718 274.875 45.3456 275.298 44.8194C275.569 45.2947 275.942 45.7275 276.568 45.8888C277.288 46.084 278.1 45.8548 278.304 45.2183C278.388 44.9807 277.999 44.8449 277.83 45.0486Z" fill="#004DBE"/>
<path opacity="0.36" d="M285.355 46.1774C285.237 45.9906 284.983 45.8294 284.805 45.6851C284.593 45.5154 284.382 45.3371 284.17 45.1674C284.094 45.0995 284.009 45.0401 283.933 44.9722C283.992 44.8279 284.06 44.6921 284.111 44.5479C284.433 43.7077 284.67 42.8505 284.661 41.9678C284.661 41.7557 284.28 41.7556 284.263 41.9593C284.17 42.8165 283.849 43.6398 283.442 44.4375C283.425 44.4715 283.408 44.5054 283.391 44.5309C283.239 44.4036 283.087 44.2763 282.926 44.1575L280.386 42.1885C280.141 41.9933 279.777 42.2818 280.005 42.494C280.801 43.2154 281.597 43.9283 282.384 44.6497C282.596 44.8364 282.807 45.0231 283.019 45.2013C282.951 45.3202 282.883 45.4475 282.816 45.5748C282.587 45.9822 282.316 46.415 282.155 46.8393C282.02 47.2043 282.68 47.4589 282.9 47.1109C283.163 46.712 283.358 46.2622 283.552 45.8379C283.569 45.7954 283.586 45.753 283.603 45.7106L284.162 46.1858C284.365 46.3641 284.568 46.6017 284.856 46.6781C285.228 46.7884 285.508 46.4404 285.355 46.1774Z" fill="#004DBE"/>
<path opacity="0.36" d="M306.959 42.5109C306.849 42.3582 306.612 42.4346 306.587 42.5873C306.477 43.2748 305.986 44.115 305.105 44.2932C304.064 44.5054 303.15 43.6991 303.184 42.8759C303.201 42.4261 302.346 42.2988 302.21 42.7486C301.99 43.4954 301.643 44.726 300.5 44.7939C298.858 44.8873 298.621 43.1644 298.731 42.1969C298.782 41.8065 298.011 41.7132 297.901 42.0951C297.605 43.1644 296.792 44.3272 295.489 44.743C293.558 45.3541 293.313 43.3342 293.398 42.2563C293.423 41.8999 292.712 41.7896 292.619 42.1545C292.61 42.18 292.61 42.2139 292.602 42.2394C292.602 42.2478 292.602 42.2563 292.602 42.2648C292.56 42.4855 292.543 42.7316 292.543 42.9862C292.433 43.5294 292.17 44.098 291.688 44.3781C291.493 44.4884 291.129 44.5987 290.976 44.4884C290.841 44.395 290.892 44.0047 290.9 43.8349C290.926 43.3512 291.112 42.9013 291.408 42.4855C291.527 42.3242 291.239 42.1884 291.112 42.3327C290.646 42.8674 289.563 45.0995 291.095 45.2098C291.755 45.2607 292.348 44.6327 292.678 44.2338C292.703 44.1998 292.729 44.1574 292.754 44.1235C293.067 44.9722 293.745 45.6596 294.981 45.5832C296.293 45.4899 297.3 44.7176 297.961 43.7925C298.223 44.6921 298.909 45.4644 300.204 45.5832C301.44 45.6936 302.193 45.0061 302.659 44.1829C303.201 44.8533 304.14 45.2947 305.165 45.1504C306.595 44.9552 307.764 43.6142 306.959 42.5109Z" fill="#004DBE"/>
<path opacity="0.36" d="M261.576 7.4345C261.525 7.25627 261.254 7.16292 261.059 7.25627C254.896 10.2691 248.691 13.2735 242.664 16.4816C242.452 16.3118 242.224 16.1591 241.97 16.0402C241.877 15.9978 241.733 16.0148 241.682 16.0997C241.589 16.2524 241.555 16.3882 241.673 16.541C241.741 16.6258 241.893 16.5749 241.877 16.4731V16.4646C241.978 16.5579 242.08 16.6428 242.181 16.7362C241.623 17.0332 241.055 17.3218 240.505 17.6273C240.353 17.7122 240.48 17.9074 240.641 17.831C241.242 17.5424 241.834 17.2454 242.435 16.9568C242.672 17.169 242.901 17.3812 243.104 17.6273C243.502 18.1111 243.824 18.6372 244.044 19.1889C244.179 19.5369 244.323 19.9357 244.391 20.3346C241.843 20.1734 239.303 19.9442 236.755 19.6727C236.391 19.6387 236.289 20.1479 236.653 20.2073C239.21 20.5977 241.8 20.8523 244.416 21.0051C244.374 21.4125 244.221 21.7859 243.841 22.0745C243.764 22.1339 243.79 22.2612 243.9 22.2781C244.611 22.4139 244.933 21.7859 245.017 21.3106C245.034 21.2258 245.034 21.1324 245.034 21.039C251.062 21.3531 257.165 21.0985 263.074 20.428C263.235 20.411 263.362 20.2583 263.362 20.1309C263.277 15.8535 262.71 11.6016 261.576 7.4345ZM249.682 20.5298C248.124 20.5213 246.575 20.445 245.026 20.3601C244.975 20.0206 244.873 19.6811 244.763 19.3586C244.526 18.6967 244.171 18.0686 243.705 17.5C243.485 17.2284 243.231 16.9483 242.952 16.6937C248.962 13.7827 254.913 10.7953 260.975 7.96069C261.897 11.8816 262.473 15.8535 262.609 19.8424C258.325 20.3346 254.008 20.5638 249.682 20.5298Z" fill="#004DBE"/>
<path opacity="0.36" d="M270.592 11.3894C270.185 11.4149 269.796 11.5931 269.432 11.7204C269.051 11.8562 268.678 12.0005 268.297 12.1447C267.527 12.4418 266.697 12.7049 265.986 13.0783C265.876 13.1377 265.936 13.299 266.079 13.265C266.884 13.0783 267.654 12.7473 268.424 12.4672C268.805 12.3315 269.195 12.1957 269.567 12.0514C269.94 11.9071 270.38 11.7798 270.676 11.5422C270.736 11.4997 270.693 11.3894 270.592 11.3894Z" fill="#004DBE"/>
<path opacity="0.36" d="M273.58 10.0909C273.318 9.94658 272.97 10.0145 272.683 10.0399C272.302 10.0824 271.912 10.1248 271.531 10.1588C271.15 10.2012 270.761 10.2436 270.38 10.2776C270.185 10.2945 269.999 10.32 269.804 10.3539C269.61 10.3879 269.373 10.3964 269.203 10.4897C269.076 10.5661 269.093 10.7019 269.237 10.7528C269.381 10.8038 269.542 10.7868 269.694 10.7783C269.864 10.7783 270.024 10.7783 270.194 10.7613C270.524 10.7359 270.854 10.7104 271.184 10.6849L272.175 10.6086C272.479 10.5831 272.801 10.5322 273.106 10.5407H273.114C273.072 10.6425 273.013 10.7359 272.962 10.8377C272.843 11.0499 272.708 11.2536 272.556 11.4573C272.412 11.6525 272.259 11.8307 272.09 12.0089C272.005 12.1023 271.904 12.1871 271.828 12.2805C271.734 12.3823 271.692 12.4927 271.624 12.6115C271.531 12.7812 271.802 12.9085 271.971 12.8406C272.31 12.7048 272.505 12.5096 272.733 12.2635C272.945 12.0344 273.131 11.7967 273.301 11.5506C273.47 11.3045 273.614 11.0584 273.741 10.7953C273.868 10.5576 273.885 10.2606 273.58 10.0909Z" fill="#004DBE"/>
<path opacity="0.36" d="M290.528 8.85182C290.232 8.8009 289.935 8.77544 289.639 8.71603C289.317 8.64814 289.055 8.51235 288.75 8.42748C288.394 8.32563 288.056 8.36807 287.751 8.55478C287.421 8.75847 287.235 9.07248 286.964 9.32709C286.295 9.94664 285.677 9.24222 285.372 8.70755C285.22 8.43596 284.746 8.58024 284.729 8.84334C284.687 9.31012 284.026 9.46288 283.603 9.2592C283.197 9.07248 283.027 8.70755 283.019 8.33412C283.01 8.06254 282.587 7.95221 282.401 8.18984C281.978 8.72452 281.487 9.23374 280.903 9.6496C280.454 9.9721 279.971 9.72598 279.794 9.3186C279.641 8.97064 279.667 8.59722 279.827 8.25774C279.937 7.92675 279.362 7.79944 279.218 8.10497C279.032 8.68209 278.668 9.19979 278.1 9.5817C277.694 9.85328 276.941 10.057 276.619 9.59867C276.399 9.28466 276.365 8.72452 276.407 8.35958C276.416 8.31715 276.331 8.30866 276.323 8.35109C276.12 8.85182 275.823 9.28466 276.136 9.81933C276.357 10.1928 276.822 10.4474 277.339 10.4049C278.058 10.354 278.659 9.93815 279.108 9.43742C279.243 9.92118 279.59 10.337 280.234 10.4389C281.148 10.5916 281.986 9.72598 282.553 9.01308C282.765 9.47137 283.154 9.85328 283.798 9.92966C284.34 9.99756 284.839 9.78539 285.135 9.44591C285.686 10.0655 286.515 10.5322 287.362 9.85328C287.785 9.5138 288.005 8.80939 288.699 9.04702C289.351 9.27617 289.91 9.46288 290.579 9.14038C290.697 9.08097 290.697 8.88577 290.528 8.85182Z" fill="#004DBE"/>
<path opacity="0.36" d="M291.73 12.4079C291.188 12.2721 290.587 12.3739 290.011 12.2636C289.419 12.1533 288.843 11.992 288.242 11.9411C287.675 11.8902 287.125 11.9751 286.634 12.2127C286.329 12.357 285.118 13.1463 284.949 12.4843C284.89 12.2551 284.534 12.1957 284.34 12.34C283.781 12.7474 283.104 13.2057 282.308 13.1463C281.605 13.0953 280.953 12.3994 281.656 11.9496C281.927 11.7799 281.58 11.381 281.3 11.5507C280.471 12.0514 280.606 13.0868 281.478 13.5027C282.528 14.0034 283.62 13.5621 284.483 13.0105C284.746 13.2396 285.152 13.3584 285.559 13.3245C286.371 13.2651 286.896 12.6285 287.709 12.5607C288.488 12.5012 289.25 12.7813 290.003 12.9086C290.612 13.0105 291.434 13.1293 291.848 12.654C291.933 12.5691 291.857 12.4333 291.73 12.4079Z" fill="#004DBE"/>
</g>
<path d="M273.698 81.78H214.364C215.219 77.3158 218.402 62.6759 223.227 59.3999C227.248 56.6841 232.073 54.3332 238.6 53.4591C239.041 53.3912 239.472 53.3488 239.921 53.3063C240.522 53.2384 241.123 53.179 241.758 53.1536C241.758 53.1536 241.758 53.1536 241.775 53.1536C243.612 53.0602 245.576 53.0602 247.675 53.2045H247.76C248.183 53.2299 248.607 53.2724 249.03 53.3233C249.428 53.3488 249.817 53.4082 250.215 53.4591C260.721 54.9188 269.83 61.1822 271.599 70.0086C271.87 71.358 272.107 72.5801 272.31 73.6749V73.6919C273.14 78.0287 273.521 80.5409 273.698 81.78Z" fill="#004DBE"/>
<path d="M253.999 81.7799H239.091C238.693 77.7996 237.678 65.1201 237.551 62.905C237.288 58.2626 237.483 55.8099 238.465 54.5708C238.829 54.104 239.311 53.807 239.921 53.6288C240.573 53.4506 241.377 53.3996 242.359 53.4251C243.138 53.4421 244.018 53.51 245.034 53.5779C245.551 53.6203 246.033 53.6627 246.465 53.7136C247.498 53.824 248.344 53.9598 249.03 54.155C249.792 54.3587 250.376 54.6217 250.833 54.9443C252.035 55.7929 252.306 57.1339 252.636 59.2641C253.144 62.7522 253.948 77.5874 253.999 81.7799Z" fill="#50BCFF"/>
<path d="M249.775 45.0654H239.032V54.6726H249.775V45.0654Z" fill="#E79F8B"/>
<path d="M274.884 46.7629C274.68 43.2578 275.222 39.6339 276.975 36.5956C277.372 35.8997 278.287 35.1698 278.862 35.7299C279.116 35.976 279.15 36.3664 279.159 36.7144C279.235 39.4217 278.981 42.1291 278.405 44.777C278.829 43.8774 279.971 43.4106 280.919 43.7161C281.868 44.0217 282.511 45.0401 282.443 46.0331C282.689 45.0231 284.23 44.9043 284.974 45.6257C285.719 46.3471 285.838 47.4843 285.846 48.5282C286.219 48.019 287.082 48.1633 287.489 48.6555C287.887 49.1478 287.937 49.8267 287.937 50.4632C287.92 52.4067 287.523 54.3842 286.498 56.0222C285.474 57.6686 283.755 58.9417 281.825 59.1369C275.722 59.7649 275.121 50.9385 274.884 46.7629Z" fill="#E79F8B"/>
<path d="M277.449 57.0746C277.449 57.0746 272.369 54.1975 274.139 50.9894C275.908 47.7814 281.089 49.4448 279.988 51.3204C278.888 53.2045 276.458 52.865 276.458 52.865L277.449 57.0746Z" fill="#E79F8B"/>
<path d="M238.677 52.0503C239.244 51.9909 242.029 54.1211 245.017 53.9683C248.006 53.8156 249.495 52.4322 249.944 51.9739C250.384 51.5156 252.839 56.4211 252.467 56.9557C252.094 57.4904 251.002 59.5867 249.91 59.2048C248.818 58.8229 245.737 55.131 245.737 55.131C245.737 55.131 242.943 59.5952 241.902 59.5952C240.861 59.5952 237.491 58.0251 237.314 55.5724C237.136 53.1196 237.949 52.1267 238.677 52.0503Z" fill="white"/>
<path d="M287.277 57.0745L287.057 81.7799H270.862L272.31 73.6919V73.6834L275.349 56.735L276.966 56.7774H276.983L277.135 56.7944H277.381L285.719 57.0405L287.277 57.0745Z" fill="#004DBE"/>
<path d="M256.691 19.3077C256.395 19.0955 256.022 19.121 255.65 19.4774C255.337 19.7829 255.007 20.3431 254.888 20.7589C254.465 22.2017 254.626 23.7973 254.863 25.1806C255.083 26.4537 255.438 27.7182 256.031 28.813C256.056 28.8555 256.082 28.9064 256.107 28.9488C256.395 29.4581 256.734 29.9248 257.14 30.3407C257.225 30.3662 257.301 30.4001 257.394 30.4001C257.673 30.3916 257.944 30.2049 258.156 30.0012C259.603 28.6094 259.282 26.3943 259.011 24.7818C258.689 22.8892 257.995 21.1154 256.962 19.5962C256.886 19.4774 256.793 19.3756 256.691 19.3077Z" fill="#004DBE"/>
<path d="M258.604 31.7664C258.604 40.9917 257.148 48.9016 247.506 49.5211C235.07 50.3189 229.999 40.9832 229.999 31.7664C229.999 22.5496 236.399 15.0726 244.306 15.0726C252.204 15.0642 258.604 22.5411 258.604 31.7664Z" fill="#E79F8B"/>
<path d="M243.4 40.143C243.764 39.5235 245.694 39.6763 247.963 39.4217C250.528 39.1331 252.314 38.6409 252.763 38.887C253.61 39.3538 251.866 43.105 248.556 43.419C246.185 43.6481 242.74 41.2718 243.4 40.143Z" fill="white"/>
<path d="M240.996 19.8933C243.629 21.4803 246.245 23.1353 249.081 24.298C252.315 25.6219 255.853 26.0633 258.867 23.9076C259.561 23.4069 260.424 22.363 259.366 21.8113C258.672 21.4464 257.749 21.5397 256.996 21.4718C257.851 21.5482 258.765 21.3615 259.434 20.8268C260.103 20.2922 260.501 19.3756 260.272 18.5608C260.103 17.9667 259.637 17.4915 259.146 17.1096C257.639 15.9468 255.743 15.3697 253.864 14.9963C253.534 14.9284 253.203 14.8775 252.873 14.8181C253.136 14.4531 253.381 14.0458 253.305 13.6129C253.22 13.1546 252.805 12.8406 252.399 12.586C249.182 10.6171 245.119 10.4982 241.284 10.4897C238.583 10.4897 235.756 10.5322 233.343 11.7458C232.217 12.3059 231.066 13.248 230.939 14.4531C228.323 14.6568 226.071 16.6767 225.183 19.0615C224.294 21.4464 224.598 24.1113 225.496 26.4791C226.393 28.847 227.494 31.5204 228.357 32.0211C229.221 32.5218 229.263 31.9277 230.304 32.4285C231.345 32.9292 231.413 34.4144 232.209 34.4738C233.005 34.5332 232.979 32.4115 233.191 31.427C233.623 29.4326 233.606 27.3703 234.122 25.3928C234.672 23.2541 235.866 21.2427 237.517 19.6047C237.779 19.3416 238.076 19.0785 238.414 18.9258C238.499 18.8833 239.371 19.0955 239.515 19.1379C240.006 19.2737 240.471 19.5792 240.903 19.8423C240.937 19.8508 240.971 19.8763 240.996 19.8933Z" fill="#004DBE"/>
<path d="M230.11 32.3436C229.077 30.4595 227.528 29.1865 226.012 30.4935C225.521 30.9178 225.267 31.7241 225.242 32.5303C225.225 33.3366 225.411 34.1513 225.674 34.9067C226.334 36.8078 227.502 38.4882 228.967 39.1926C229.517 39.4557 230.16 39.566 230.617 39.1332C231.244 38.5476 231.362 37.3424 231.312 36.3495C231.252 35.1189 230.795 33.5997 230.11 32.3436Z" fill="#E79F8B"/>
<path d="M226.376 32.4709C226.495 32.2672 226.681 32.1314 226.867 32.089C227.316 31.9787 227.79 32.2842 228.137 32.7001C228.501 33.1329 228.806 33.6845 229.077 34.2277C229.356 34.7878 229.568 35.4159 229.686 36.0694C229.712 36.1967 229.551 36.2476 229.525 36.1203C229.271 35.0679 228.738 34.0919 228.162 33.3026C228.078 33.1838 227.976 33.065 227.875 32.9632C227.748 33.4724 227.739 34.0325 227.841 34.5757C227.959 35.2292 228.205 35.7808 228.484 36.341C228.51 36.4004 228.467 36.4683 228.425 36.4173C227.638 35.5347 227.324 33.9901 227.705 32.7934C227.528 32.6491 227.341 32.5388 227.138 32.5218C226.816 32.4964 226.444 32.7595 226.351 33.1923C226.334 33.2687 226.232 33.2432 226.224 33.1584C226.224 32.8953 226.258 32.6661 226.376 32.4709Z" fill="#C72C19"/>
<path d="M260.077 27.837C259.747 27.0901 259.011 26.6658 258.274 26.6827C257.47 26.7082 256.657 26.7591 255.836 26.7931C254.431 26.8525 252.983 26.8695 251.536 27.0137C250.494 27.1156 249.665 27.5908 249.597 28.7875C249.597 28.8045 249.597 28.8214 249.597 28.8299L249.589 28.8214C249.148 28.5923 248.657 28.5584 248.183 28.6772C247.709 28.8045 247.294 29.0676 246.922 29.407L246.913 29.4155C246.888 29.1864 246.871 28.9488 246.837 28.7196C246.659 27.5145 245.745 27.0731 244.636 27.0222C243.045 26.9543 241.419 27.0222 239.777 27.0307C238.795 27.0392 237.805 27.0307 236.806 27.0562C235.866 27.0731 234.977 27.6078 234.63 28.4735C234.435 28.9657 234.401 29.5089 234.444 30.0436C234.427 30.0436 234.401 30.0521 234.385 30.0521C234.131 30.086 233.868 30.1284 233.614 30.1624C233.149 30.2303 232.691 30.2982 232.226 30.3576C231.769 30.4255 231.312 30.5103 230.846 30.5952C230.609 30.6377 230.346 30.6631 230.135 30.765C229.991 30.8329 229.813 31.0111 229.923 31.1893C230.143 31.5288 230.787 31.376 231.134 31.3506C231.582 31.3166 232.031 31.2827 232.48 31.2233C232.928 31.1638 233.377 31.1129 233.826 31.0535C234.054 31.0196 234.283 30.9941 234.503 30.9602C234.528 30.9602 234.545 30.9517 234.571 30.9517C234.825 32.5472 235.138 34.1937 235.68 35.6874C235.9 36.3069 236.188 36.9095 236.839 37.1641C237.449 37.3933 238.169 37.3254 238.804 37.3169C239.633 37.2999 240.463 37.2575 241.284 37.1726C242.765 37.0283 244.298 36.8501 245.686 36.4173C247.015 36.0099 247.159 34.8217 247.134 33.5826C247.108 32.5133 247.091 31.41 247.015 30.3236C247.404 30.0266 247.819 29.7635 248.268 29.6277C248.429 29.5768 248.573 29.5513 248.742 29.5598C248.827 29.5598 248.827 29.5598 248.911 29.5853C248.945 29.5938 248.971 29.6022 249.004 29.6107C249.021 29.6192 249.038 29.6192 249.055 29.6277C249.021 29.6107 249.021 29.6107 249.055 29.6277C249.123 29.6617 249.182 29.6956 249.242 29.738C249.25 29.7465 249.258 29.7465 249.258 29.755C249.292 29.7805 249.318 29.8144 249.343 29.8484C249.352 29.8569 249.402 29.9332 249.377 29.8908C249.352 29.8484 249.411 29.9587 249.419 29.9672C249.436 29.9926 249.453 30.0266 249.428 29.9757C249.47 30.0605 249.479 30.1115 249.529 30.1794C249.546 30.2048 249.572 30.2133 249.597 30.2303C249.622 31.3421 249.707 32.4623 249.783 33.5572C249.868 34.7708 250.113 35.908 251.417 36.1202C252.738 36.3324 254.126 36.2899 255.413 36.2136C256.115 36.1711 256.81 36.1032 257.495 36.0099C258.012 35.9335 258.587 35.908 259.053 35.6195C259.544 35.314 259.722 34.7453 259.84 34.1852C260.162 32.6915 260.272 31.079 260.34 29.5513C260.365 28.9912 260.323 28.3716 260.077 27.837Z" fill="black"/>
<path d="M246.185 34.4823C246.118 35.1273 245.813 35.4074 245.203 35.5516C242.926 36.0948 240.353 36.4003 237.906 36.273C237.06 36.2306 236.848 35.8317 236.577 35.1018C236.332 34.4568 236.137 33.7948 235.985 33.1244C235.739 32.055 235.392 30.9602 235.451 29.8484C235.527 28.3717 236.162 28.151 237.551 28.1425C238.219 28.1425 238.871 28.1341 239.532 28.1341C240.827 28.1256 242.114 28.1341 243.375 28.1086C243.891 28.1001 244.433 28.0492 244.941 28.1086C245.542 28.1765 245.788 28.3887 245.864 29.0082C246.025 30.2558 246.092 31.5203 246.152 32.7679C246.177 33.3365 246.245 33.9221 246.185 34.4823Z" fill="white"/>
<path d="M259.392 31.9956C259.324 32.5982 259.222 33.2007 259.087 33.7948C258.926 34.4738 258.791 34.8472 258.122 34.983C256.124 35.3989 253.872 35.4583 251.764 35.2376C251.189 35.1782 250.867 34.949 250.748 34.3295C250.647 33.7948 250.647 33.2177 250.621 32.6745C250.562 31.4524 250.511 30.2133 250.554 28.9912C250.571 28.3886 250.782 28.168 251.341 28.0577C251.815 27.9728 252.306 27.9813 252.78 27.9643C253.906 27.9134 255.023 27.837 256.124 27.7691C256.666 27.7352 257.216 27.7012 257.749 27.6757C258.858 27.6078 259.366 27.7776 259.544 29.0676C259.679 30.0521 259.493 31.0366 259.392 31.9956Z" fill="white"/>
<path d="M203.282 74.8122C203.282 76.917 201.581 78.6228 199.481 78.6228C197.382 78.6228 195.68 76.917 195.68 74.8122C195.68 72.7075 197.382 71.0016 199.481 71.0016C201.581 71.0016 203.282 72.7075 203.282 74.8122Z" fill="#D44459"/>
<path d="M163.367 245.103C164.409 245.103 165.128 245.264 165.729 246.197C166.085 246.758 166.246 247.428 166.305 248.065C166.356 248.608 166.186 249.338 166.644 249.669C167.355 250.178 168.692 250.186 169.496 250.076C170.936 249.872 171.63 249.142 171.071 247.751C170.538 246.418 169.463 245.366 168.184 244.729C167.202 244.245 166.11 243.838 165.018 243.796C164.536 243.779 164.155 243.923 163.791 244.228C163.604 244.39 163.088 244.865 163.367 245.103Z" fill="#004DBE"/>
<path d="M150.534 260.846C148.223 260.082 144.125 268.628 143.135 270.037C139.266 275.554 136.591 281.766 134.737 288.225C132.24 296.924 129.641 305.691 130.648 314.848C131.3 320.772 135.042 325.092 141.408 324.421C144.43 324.099 150.288 323.615 152.785 321.875C153.928 321.086 154.005 320.051 153.014 318.642C152.007 317.208 151.279 317.505 149.56 317.853C146.309 318.498 143.516 319.372 140.714 316.851C137.962 314.373 137.666 310.011 137.81 306.506C138.03 301.371 139.037 296.372 140.383 291.382C142.085 285.085 144.642 279.398 146.995 273.364C148.036 270.691 149.535 267.873 150.136 265.072C150.491 263.4 150.11 262.068 150.703 260.506C150.415 260.455 150.068 260.422 150.534 260.846Z" fill="#004DBE"/>
<path opacity="0.38" d="M138.707 322.444C137.319 321.23 136.312 319.652 135.601 317.963C134.009 314.152 133.772 309.841 133.899 305.759C134.043 301.227 134.712 296.712 135.448 292.247C136.066 288.505 136.811 284.787 137.785 281.121C138.149 279.738 138.563 278.38 139.012 277.03C137.243 280.612 135.838 284.372 134.729 288.216C132.231 296.915 129.632 305.682 130.64 314.84C131.292 320.764 135.033 325.083 141.399 324.413C141.586 324.396 141.789 324.371 142 324.354C140.798 323.929 139.681 323.301 138.707 322.444Z" fill="#50BCFF"/>
<path d="M194.453 321.748C192.904 323.259 181.263 325.1 170.461 325.644C168.21 325.754 166.009 325.813 163.935 325.796C158.821 325.771 152.447 325.966 150.669 324.515C146.436 321.086 136.058 262.441 153.988 252.13C158.093 249.77 167.837 248.412 171.604 248.582C172.061 248.608 172.502 248.633 172.925 248.693C184.785 250.076 191.439 263.417 194.326 282.903C198.228 309.094 197.136 319.151 194.453 321.748Z" fill="#FFD245"/>
<path opacity="0.51" d="M170.471 325.644C168.219 325.754 166.018 325.813 163.944 325.805C158.83 325.78 152.456 325.966 150.678 324.523C146.445 321.086 136.067 262.45 153.997 252.138C155.817 251.095 158.737 250.246 161.76 249.635C163.249 249.338 164.773 249.092 166.187 248.922C168.38 248.65 170.335 248.532 171.613 248.582C172.07 248.608 172.511 248.633 172.942 248.693C168.354 249.134 164.663 252.402 162.919 257.986C157.738 274.595 162.979 305.326 170.471 325.644Z" fill="#F59711"/>
<path opacity="0.5" d="M166.186 248.922C164.493 249.864 162.936 251.001 161.623 252.452C158.737 255.643 156.773 259.777 155.469 263.859C154.157 267.958 153.48 272.244 153.2 276.538C152.896 281.096 153.387 285.602 153.666 290.151C153.979 295.26 154.893 300.208 155.401 305.292C155.435 305.665 154.309 305.971 153.979 305.776C153.598 305.869 153.192 305.869 153.141 305.674C152.405 302.788 152.193 299.716 151.829 296.763C151.482 293.86 151.211 290.941 151.05 288.021C150.559 279.084 150.855 269.783 154.081 261.33C155.638 257.247 157.873 253.004 161.2 250.101C161.386 249.94 161.564 249.787 161.759 249.635C163.249 249.338 164.773 249.091 166.186 248.922Z" fill="#F55E11"/>
<path d="M187.223 270.156C187.105 269.46 186.885 268.654 186.334 268.221C185.708 267.72 184.734 267.754 183.972 267.754C181.602 267.771 179.13 267.898 176.548 268.136C175.405 268.246 174.169 268.289 173.001 268.586C172.739 268.654 171.427 268.628 171.003 269.375C170.8 269.732 170.919 271.242 171.003 272.541C171.096 274.001 171.198 275.257 171.867 275.503C172.155 275.503 172.409 275.621 172.688 275.638C173.001 275.655 173.357 275.579 173.67 275.545C174.347 275.477 175.016 275.418 175.676 275.35C176.946 275.223 178.19 275.087 179.401 274.943C181.729 274.679 183.956 274.391 186.097 274.102C186.597 274.034 187.113 273.873 187.325 273.313C187.46 272.965 187.452 272.575 187.435 272.201C187.409 271.514 187.342 270.826 187.223 270.156Z" fill="#004DBE"/>
<path d="M158.356 251.281C157.492 251.332 158.22 246.333 158.965 245.323C160.201 243.66 162.385 243.159 164.332 242.955C166.584 242.718 171.147 245.052 171.088 247.946C169.759 245.544 165.552 242.947 163.24 245.773C162.233 247.004 163.274 248.922 162.614 249.932C161.759 251.23 159.219 251.23 158.356 251.281Z" fill="#50BCFF"/>
<path d="M200.21 322.817C198.847 323.844 186.995 325.83 179.148 325.983C176.329 326.042 174.034 325.864 172.909 325.329C170.437 324.167 168.904 313.108 169.226 301.795C169.463 293.427 172.121 286.103 177.294 283.761C179.63 282.7 181.907 282.19 184.066 282.182C184.997 282.173 185.903 282.267 186.784 282.437C194.487 283.905 200.218 291.789 201.446 301.973C203.114 316.036 202.064 321.434 200.21 322.817Z" fill="#50BCFF"/>
<path opacity="0.54" d="M186.774 282.437C183.676 282.768 181.526 284.983 181.001 285.942C178.165 291.119 177.386 297.586 177.208 303.603C176.997 310.537 177.183 318.931 179.139 325.992C176.32 326.051 174.025 325.873 172.9 325.338C170.428 324.176 168.895 313.117 169.217 301.804C169.454 293.436 172.112 286.112 177.285 283.769C179.621 282.708 181.898 282.199 184.057 282.191C184.988 282.174 185.894 282.267 186.774 282.437Z" fill="#004DBE"/>
<path d="M154.208 304.74C155.613 304.723 156.18 309.204 155.858 309.637C155.537 310.07 153.759 310.223 153.31 309.909C152.853 309.603 152.802 304.757 154.208 304.74Z" fill="#004DBE"/>
<path d="M259.29 325.864H256.124L266.807 230.997H275.612L259.29 325.864Z" fill="black"/>
<path d="M364.576 325.864H367.733L357.05 230.997H348.246L364.576 325.864Z" fill="black"/>
<path d="M342.481 325.864H345.647L334.955 230.997H326.159L342.481 325.864Z" fill="black"/>
<path d="M280.217 325.864H277.051L287.734 230.997H296.538L280.217 325.864Z" fill="black"/>
<path d="M374.379 123.078L357.685 220.227H318.582L335.285 123.078H374.379Z" fill="#004DBE"/>
<path opacity="0.45" d="M369.613 123.078L352.91 220.227H318.582L335.285 123.078H369.613Z" fill="#004DBE"/>
<path d="M357.685 220.227H265.318V233.306H357.685V220.227Z" fill="#004DBE"/>
<path opacity="0.45" d="M298.477 220.227H265.318V233.306H298.477V220.227Z" fill="#004DBE"/>
<path d="M239.455 266.193C239.455 266.193 222.753 269.511 226.647 273.407C230.55 277.302 252.763 281.028 253.838 279.543C254.905 278.057 258.207 267.007 258.207 267.007L242.782 260.023L239.455 266.193Z" fill="white"/>
<path d="M249.318 276.665C251.256 275.206 253.364 273.754 255.777 273.474C256.217 273.423 256.759 273.457 256.979 273.839C257.097 274.035 257.097 274.281 257.072 274.51C256.945 275.8 256.251 276.971 255.506 278.032C254.744 279.11 253.889 280.145 252.822 280.926C251.756 281.707 250.452 282.216 249.131 282.148C248.141 282.097 245.821 281.291 245.889 279.984C245.948 278.804 248.471 277.302 249.318 276.665Z" fill="#50BCFF"/>
<path d="M233.487 274.934C233.572 276.131 233.462 277.506 232.531 278.261C231.54 279.067 230.059 278.796 228.899 278.244C227.316 277.48 225.936 276.241 225.157 274.663C224.387 273.084 224.26 271.158 224.988 269.553C225.259 268.942 225.648 268.399 226.063 267.873C226.622 267.169 227.265 266.498 228.069 266.108C228.789 265.768 229.982 265.573 230.6 266.193C231.193 266.795 231.616 268.017 231.955 268.781C232.81 270.725 233.335 272.821 233.487 274.934Z" fill="#50BCFF"/>
<path opacity="0.24" d="M236.188 276.53C239.328 277.285 242.478 277.412 245.576 277.327C247.21 277.285 249.106 276.963 249.58 275.342C249.936 274.094 249.25 272.609 248.446 271.421C247.1 269.443 245.339 267.754 243.375 266.558C242.554 266.057 241.699 265.641 240.937 265.021C240.183 264.402 239.523 263.519 239.405 262.56C239.278 261.55 239.786 260.642 240.514 260.124C241.242 259.607 242.147 259.429 243.053 259.318C247.049 258.826 251.519 259.666 255.091 262.492C258.664 265.318 261.017 270.394 259.976 274.493C259.417 276.699 257.986 278.414 256.344 279.746C252.45 282.903 247.151 284.142 241.868 283.133C238.236 282.437 234.639 280.68 231.532 278.151C230.076 276.963 226.639 274.722 225.606 273.084C224.04 270.606 228.01 273.491 228.814 273.984C230.905 275.282 233.936 275.995 236.188 276.53Z" fill="#50BCFF"/>
<path d="M261.66 275.893C261.66 275.893 247.684 285.645 252.814 287.648C257.944 289.651 279.794 284.134 280.174 282.343C280.564 280.553 279.167 269.104 279.167 269.104L262.245 268.9L261.66 275.893Z" fill="white"/>
<path d="M274.884 281.52C276.077 279.398 277.423 277.234 279.523 276.004C279.904 275.774 280.412 275.596 280.776 275.859C280.962 275.995 281.055 276.216 281.131 276.436C281.537 277.676 281.36 279.016 281.097 280.29C280.826 281.588 280.462 282.878 279.794 284.024C279.125 285.17 278.134 286.154 276.898 286.621C275.967 286.969 273.521 287.172 273.063 285.942C272.657 284.839 274.367 282.445 274.884 281.52Z" fill="#50BCFF"/>
<path d="M259.688 286.307C260.247 287.368 260.695 288.675 260.145 289.736C259.552 290.873 258.088 291.221 256.81 291.178C255.057 291.119 253.288 290.533 251.95 289.396C250.613 288.259 249.724 286.544 249.749 284.779C249.758 284.117 249.893 283.455 250.063 282.81C250.291 281.944 250.613 281.07 251.197 280.391C251.713 279.789 252.738 279.127 253.55 279.458C254.329 279.772 255.21 280.722 255.828 281.282C257.385 282.717 258.706 284.423 259.688 286.307Z" fill="#50BCFF"/>
<path opacity="0.24" d="M262.803 286.68C265.978 286.103 268.924 284.966 271.726 283.642C273.199 282.946 274.816 281.885 274.596 280.213C274.426 278.923 273.199 277.845 271.988 277.081C269.965 275.808 267.679 274.968 265.402 274.671C264.454 274.544 263.497 274.51 262.558 274.247C261.618 273.984 260.661 273.441 260.17 272.609C259.646 271.735 259.756 270.699 260.213 269.935C260.67 269.172 261.432 268.637 262.219 268.179C265.681 266.125 270.117 265.089 274.519 266.244C278.922 267.398 283.112 271.098 283.798 275.282C284.17 277.531 283.544 279.678 282.57 281.554C280.259 286.01 275.899 289.277 270.668 290.474C267.061 291.297 263.066 291.136 259.214 290.066C257.411 289.566 253.364 288.895 251.756 287.809C249.326 286.162 254.126 287.215 255.057 287.342C257.461 287.656 260.517 287.087 262.803 286.68Z" fill="#50BCFF"/>
<path d="M336.284 194.741C336.284 194.741 341.126 217.715 327.167 218.08C313.207 218.445 275.62 219.905 275.62 219.905L257.817 271.981L236.492 264.224C236.492 264.224 251.798 206.784 257.563 202.048C263.328 197.313 299.992 194.393 307.061 194.571C314.147 194.741 336.284 194.741 336.284 194.741Z" fill="#D44459"/>
<path opacity="0.29" d="M336.284 194.741C336.284 194.741 341.126 217.715 327.167 218.08C313.207 218.445 275.62 219.905 275.62 219.905L257.817 271.981L236.492 264.224C236.492 264.224 251.798 206.784 257.563 202.048C263.328 197.313 299.992 194.393 307.061 194.571C314.147 194.741 336.284 194.741 336.284 194.741Z" fill="#663BFF"/>
<path d="M235.756 265.327L257.445 273.008L261.102 266.379L237.221 257.578L235.756 265.327Z" fill="#F59711"/>
<path opacity="0.3" d="M235.756 265.327L257.445 273.008L261.102 266.379L237.221 257.578L235.756 265.327Z" fill="#D44459"/>
<path opacity="0.27" d="M246.092 266.863C244.298 265.268 242.664 263.485 241.309 261.499C240.649 260.532 240.031 259.505 239.523 258.427L237.22 257.578L235.747 265.327L252.526 271.268C250.215 270.063 248.039 268.586 246.092 266.863Z" fill="#F59711"/>
<path d="M348.585 195.649C348.585 195.649 353.605 220.041 339.12 220.431C324.636 220.822 285.627 222.366 285.627 222.366L281.521 274.934L259.612 274.162C259.612 274.162 260.908 208.422 266.893 203.389C272.878 198.357 310.922 195.259 318.261 195.454C325.601 195.649 348.585 195.649 348.585 195.649Z" fill="#D44459"/>
<path opacity="0.1" d="M275.755 274.221C275.002 272.668 274.545 270.979 274.139 269.299C273.715 267.551 273.317 265.785 272.945 264.02C272.065 259.844 271.59 255.601 271.243 251.349C270.939 247.649 270.685 243.94 270.354 240.24C270.041 236.718 269.753 233.187 269.711 229.648C269.626 222.774 270.481 215.704 274.46 209.924C277.728 205.18 282.003 201.276 286.811 198.161C277.609 199.494 269.406 201.268 266.884 203.389C260.898 208.422 259.603 274.162 259.603 274.162L276.043 274.739C275.959 274.569 275.849 274.4 275.755 274.221Z" fill="#D44459"/>
<path opacity="0.1" d="M348.584 195.649C348.584 195.649 346.51 195.649 343.42 195.641C343.412 195.989 343.395 196.345 343.37 196.693C343.276 198.212 343.073 199.723 342.76 201.217C342.472 202.609 342.134 204.06 341.49 205.333C340.187 207.93 337.74 209.814 335.344 211.342C332.805 212.963 330.104 214.295 327.285 215.348C321.266 217.597 314.866 218.708 308.5 219.438C304.233 219.922 299.95 220.126 295.683 220.499C293.592 220.677 291.501 220.898 289.436 221.271C288.648 221.416 287.861 221.577 287.108 221.832C286.803 221.933 286.329 222.086 286.083 222.358C290.443 222.188 325.55 220.805 339.128 220.44C353.604 220.041 348.584 195.649 348.584 195.649Z" fill="#D44459"/>
<path d="M275.992 266.201C275.984 266.201 275.984 266.201 275.976 266.201C275.857 266.193 275.772 266.091 275.781 265.972L275.874 264.708C275.882 264.589 275.967 264.487 276.103 264.512C276.221 264.521 276.306 264.623 276.297 264.742L276.204 266.006C276.196 266.108 276.103 266.201 275.992 266.201Z" fill="#F59711"/>
<path d="M276.28 262.348C276.272 262.348 276.272 262.348 276.263 262.348C276.145 262.34 276.06 262.238 276.069 262.119L276.263 259.53C276.272 259.412 276.373 259.31 276.492 259.335C276.61 259.344 276.695 259.446 276.687 259.564L276.492 262.153C276.484 262.263 276.39 262.348 276.28 262.348ZM276.67 257.163C276.661 257.163 276.661 257.163 276.653 257.163C276.534 257.154 276.45 257.052 276.458 256.933L276.661 254.345C276.67 254.226 276.754 254.133 276.89 254.15C277.008 254.158 277.093 254.26 277.085 254.379L276.881 256.967C276.873 257.078 276.78 257.163 276.67 257.163ZM277.076 251.986C277.068 251.986 277.068 251.986 277.059 251.986C276.941 251.977 276.856 251.875 276.864 251.756C276.932 250.916 277 250.051 277.068 249.168C277.076 249.049 277.186 248.956 277.296 248.973C277.415 248.981 277.499 249.083 277.491 249.202C277.423 250.085 277.347 250.95 277.288 251.79C277.279 251.901 277.186 251.986 277.076 251.986ZM277.491 246.809C277.482 246.809 277.482 246.809 277.474 246.809C277.355 246.8 277.271 246.698 277.279 246.579L277.491 243.991C277.499 243.872 277.601 243.779 277.719 243.796C277.838 243.804 277.923 243.906 277.914 244.025L277.703 246.613C277.694 246.724 277.601 246.809 277.491 246.809ZM277.914 241.64C277.906 241.64 277.906 241.64 277.897 241.64C277.779 241.632 277.694 241.53 277.703 241.411L277.923 238.822C277.931 238.704 278.024 238.619 278.151 238.627C278.27 238.636 278.354 238.737 278.346 238.856L278.126 241.445C278.117 241.555 278.024 241.64 277.914 241.64ZM278.354 236.463C278.346 236.463 278.346 236.463 278.337 236.463C278.219 236.454 278.134 236.353 278.143 236.234L278.371 233.645C278.38 233.526 278.464 233.433 278.6 233.45C278.718 233.459 278.803 233.56 278.795 233.679L278.566 236.268C278.558 236.387 278.464 236.463 278.354 236.463ZM278.82 231.294C278.812 231.294 278.803 231.294 278.803 231.294C278.685 231.286 278.6 231.184 278.608 231.065C278.693 230.191 278.769 229.325 278.854 228.477C278.862 228.358 278.964 228.265 279.082 228.282C279.201 228.29 279.286 228.392 279.277 228.511C279.201 229.359 279.116 230.217 279.032 231.099C279.023 231.21 278.93 231.294 278.82 231.294ZM279.319 226.126C279.311 226.126 279.303 226.126 279.303 226.126C279.184 226.117 279.099 226.007 279.116 225.897C279.201 225.006 279.294 224.148 279.379 223.308C279.387 223.189 279.497 223.113 279.616 223.122C279.734 223.13 279.819 223.24 279.802 223.359C279.717 224.191 279.624 225.057 279.54 225.939C279.514 226.041 279.421 226.126 279.319 226.126ZM279.861 220.957C279.853 220.957 279.844 220.957 279.836 220.957C279.717 220.949 279.633 220.839 279.65 220.72C279.751 219.803 279.853 218.937 279.954 218.14C279.971 218.021 280.081 217.945 280.191 217.953C280.31 217.97 280.386 218.072 280.378 218.191C280.276 218.988 280.174 219.854 280.073 220.771C280.056 220.881 279.963 220.957 279.861 220.957ZM280.505 215.806C280.496 215.806 280.488 215.806 280.471 215.806C280.352 215.789 280.276 215.678 280.293 215.568C280.454 214.448 280.606 213.574 280.75 212.988C280.776 212.878 280.894 212.801 281.004 212.827C281.114 212.852 281.19 212.971 281.165 213.082C281.03 213.659 280.877 214.516 280.716 215.628C280.699 215.729 280.606 215.806 280.505 215.806ZM282.875 212.029C282.773 212.029 282.68 211.953 282.663 211.842C282.646 211.724 282.731 211.622 282.85 211.605C283.51 211.52 284.356 211.435 285.44 211.342C285.559 211.325 285.66 211.418 285.669 211.537C285.677 211.656 285.592 211.758 285.474 211.766C284.399 211.859 283.552 211.944 282.9 212.029C282.892 212.021 282.883 212.029 282.875 212.029ZM288.047 211.554C287.937 211.554 287.844 211.469 287.836 211.359C287.827 211.24 287.912 211.138 288.03 211.13C288.843 211.07 289.707 211.011 290.621 210.943C290.748 210.926 290.841 211.019 290.849 211.138C290.858 211.257 290.773 211.359 290.655 211.367C289.741 211.427 288.877 211.494 288.073 211.554C288.056 211.554 288.056 211.554 288.047 211.554ZM293.22 211.197C293.11 211.197 293.017 211.113 293.008 211.002C293 210.883 293.093 210.782 293.203 210.782C294.041 210.731 294.904 210.671 295.793 210.62C295.929 210.62 296.013 210.705 296.022 210.815C296.03 210.934 295.937 211.036 295.827 211.045C294.938 211.096 294.075 211.155 293.237 211.206C293.228 211.197 293.228 211.197 293.22 211.197ZM298.392 210.883C298.282 210.883 298.189 210.799 298.181 210.68C298.172 210.561 298.265 210.459 298.384 210.459L300.974 210.306C301.084 210.306 301.194 210.391 301.194 210.51C301.203 210.629 301.11 210.731 300.991 210.731L298.401 210.883C298.401 210.883 298.401 210.883 298.392 210.883ZM303.573 210.578C303.463 210.578 303.37 210.493 303.362 210.374C303.353 210.255 303.446 210.154 303.565 210.154L306.147 210.001C306.265 209.992 306.367 210.086 306.367 210.204C306.375 210.323 306.282 210.425 306.164 210.425L303.582 210.578H303.573ZM308.737 210.281C308.627 210.281 308.534 210.196 308.525 210.077C308.517 209.958 308.61 209.856 308.729 209.856L311.319 209.704C311.438 209.695 311.539 209.789 311.539 209.907C311.548 210.026 311.455 210.128 311.336 210.128L308.746 210.281C308.746 210.281 308.746 210.281 308.737 210.281ZM313.918 209.975C313.808 209.975 313.715 209.89 313.706 209.772C313.698 209.653 313.791 209.551 313.91 209.551C314.79 209.5 315.653 209.441 316.492 209.39C316.61 209.373 316.712 209.475 316.72 209.585C316.729 209.704 316.635 209.806 316.525 209.806C315.679 209.856 314.815 209.916 313.935 209.967C313.926 209.975 313.918 209.975 313.918 209.975ZM319.09 209.653C318.98 209.653 318.887 209.568 318.879 209.458C318.87 209.339 318.955 209.237 319.073 209.228C319.971 209.169 320.834 209.11 321.655 209.05C321.774 209.033 321.876 209.127 321.884 209.245C321.893 209.364 321.808 209.466 321.689 209.475C320.86 209.534 319.996 209.593 319.099 209.653H319.09ZM324.263 209.279C324.153 209.279 324.06 209.194 324.051 209.084C324.043 208.965 324.127 208.863 324.246 208.855C325.186 208.779 326.049 208.711 326.828 208.643C326.955 208.626 327.048 208.719 327.056 208.838C327.065 208.957 326.98 209.059 326.862 209.067C326.083 209.135 325.211 209.211 324.271 209.279H324.263ZM329.427 208.796C329.325 208.796 329.232 208.719 329.215 208.609C329.198 208.49 329.283 208.388 329.401 208.371C330.764 208.202 331.128 208.074 331.222 208.015C331.391 207.913 331.569 207.794 331.755 207.675C331.848 207.607 331.983 207.633 332.051 207.735C332.119 207.828 332.093 207.964 331.992 208.032C331.806 208.159 331.619 208.278 331.442 208.388C331.289 208.482 330.917 208.617 329.452 208.804C329.444 208.796 329.435 208.796 329.427 208.796ZM333.88 206.428C333.82 206.428 333.77 206.402 333.727 206.36C333.643 206.275 333.651 206.139 333.736 206.063C334.371 205.443 334.929 204.798 335.387 204.128C335.454 204.026 335.59 204.009 335.683 204.077C335.776 204.145 335.801 204.281 335.734 204.374C335.251 205.061 334.684 205.732 334.024 206.368C333.981 206.402 333.93 206.428 333.88 206.428Z" fill="#F59711"/>
<path d="M336.665 202.422C336.639 202.422 336.614 202.413 336.589 202.405C336.479 202.363 336.428 202.235 336.47 202.133C336.622 201.734 336.741 201.336 336.826 200.945C336.851 200.835 336.97 200.759 337.08 200.784C337.198 200.809 337.266 200.92 337.24 201.039C337.156 201.454 337.029 201.879 336.868 202.295C336.826 202.371 336.749 202.422 336.665 202.422Z" fill="#F59711"/>
<path d="M259.164 274.841L282.164 275.528L283.629 268.102L258.215 267.007L259.164 274.841Z" fill="#F59711"/>
<path opacity="0.27" d="M269.483 273.144C267.281 272.176 265.199 270.971 263.294 269.494C262.371 268.773 261.466 267.983 260.661 267.109L258.206 267.007L259.163 274.841L276.958 275.376C274.384 274.934 271.861 274.187 269.483 273.144Z" fill="#F59711"/>
<path d="M300.111 147.096C300.111 147.096 285.194 164.01 283.002 164.714C280.809 165.419 257.665 169.365 257.665 169.365L256.429 176.791C256.429 176.791 284.492 179.541 287.709 177.623C290.917 175.697 309.905 159.622 309.905 159.622L300.111 147.096Z" fill="#FFA18B"/>
<path d="M289.757 155.778C289.757 155.778 302.134 136.266 307.552 134.857C312.97 133.449 323.289 137.616 317.507 148.445C311.725 159.274 304.36 167.006 304.36 167.006C304.36 167.006 293.245 165.639 289.757 155.778Z" fill="#50BCFF"/>
<path opacity="0.38" d="M309.618 134.594C308.128 136.572 306.858 138.71 305.681 140.883C304.225 143.582 302.93 146.366 301.677 149.166C300.407 152.009 299.23 154.903 298.248 157.857C297.571 159.902 296.995 161.982 296.547 164.086C300.449 166.531 304.36 167.006 304.36 167.006C304.36 167.006 311.734 159.274 317.507 148.445C322.612 138.88 315.162 134.509 309.618 134.594Z" fill="#50BCFF"/>
<path d="M350.184 168.576C348.643 145.865 347.602 140.221 344.961 136.894C342.337 133.601 332.652 132.159 325.829 131.887C319.006 131.615 309.05 133.551 306.214 135.502C303.37 137.454 301.677 145.729 302.109 156.024C302.49 164.944 304.36 174.415 304.284 178.548C304.149 186.212 302.642 189.165 301.55 194.869C310.075 200.818 343.082 204.009 350.159 202.583C350.861 194.835 350.929 179.575 350.184 168.576Z" fill="white"/>
<path d="M313.943 137.174C313.732 138.201 314.147 139.305 314.858 140.085C315.569 140.866 316.618 141.24 317.617 141.52C319.556 142.054 323.95 141.477 325.922 139.262C329.207 147.087 332.999 155.413 340.669 159.614C342.794 160.777 345.08 161.761 347.458 162.075C349.863 162.389 352.385 161.973 354.248 160.547C356.44 158.867 357.431 155.981 357.431 153.147C357.431 150.321 356.55 147.537 355.551 144.855C353.833 140.264 351.64 135.715 348.059 132.388C342.675 127.372 335.048 125.904 328.005 125.666C322.079 125.462 316.17 125.989 310.752 127.907C305.402 129.799 300.5 133.143 297.3 137.862C293.161 143.972 292.136 152.366 294.667 159.648C295.065 159.699 295.726 159.784 296.064 159.563C299.848 157.178 301.77 152.587 304.132 148.598C306.68 144.312 310.125 140.323 313.943 137.174Z" fill="#50BCFF"/>
<path opacity="0.24" d="M337.461 188.308C336.47 191.397 335.336 194.597 333.016 196.854C329.122 200.648 322.959 200.86 318.439 203.856C319.615 207.158 323.509 208.456 326.921 209.237C333.651 210.773 340.838 211.953 347.348 209.653C349.549 208.88 351.691 207.641 352.961 205.681C353.96 204.136 354.341 202.278 354.629 200.453C356.068 191.321 355.653 182.011 355.128 172.786C354.578 163.093 353.909 153.401 353.088 143.726C352.851 140.968 352.563 138.091 351.022 135.791C350.1 134.408 348.694 133.27 347.128 132.702C344.69 131.802 345.122 133.618 345.266 135.502C345.587 139.839 345.621 144.193 345.393 148.53C344.953 157.136 343.53 165.665 341.499 174.033C340.347 178.837 338.976 183.598 337.461 188.308Z" fill="#50BCFF"/>
<path opacity="0.24" d="M320.436 200.979C316.839 199.681 313.393 198.484 310.032 196.693C308.458 195.853 306.841 194.877 306.104 193.383C307.975 193.146 309.88 193.358 311.751 193.561C314.79 193.892 317.821 194.232 320.86 194.563C317.66 193.485 314.671 191.711 311.768 190.056C310.303 189.225 306.214 187.527 307.4 185.185C307.797 184.387 308.703 184.022 309.406 183.547C310.303 182.927 310.422 182.062 309.897 181.111C309.203 179.864 307.857 179.066 306.705 178.319C305.419 177.479 304.259 176.562 303.158 175.484C302.549 174.882 301.948 174.237 301.406 173.549C301.169 175.425 301.584 177.385 301.499 179.295C301.414 181.213 300.813 183.08 300.382 184.956C299.4 189.191 299.256 193.578 299.958 197.839C300.085 198.62 300.255 199.417 300.746 200.071C301.304 200.818 302.227 201.293 303.15 201.683C307.874 203.712 313.224 204.297 318.472 204.73C321.613 204.976 323.967 202.261 320.436 200.979Z" fill="#50BCFF"/>
<path d="M266.316 166.667C267.188 164.486 268.975 162.602 271.057 161.167C271.692 160.726 272.378 160.319 273.131 160.098C274.647 159.64 276.416 159.86 277.846 160.191C279.675 160.616 281.36 161.371 283.061 162.025C284.653 162.636 286.244 163.247 287.836 163.866C288.2 164.011 288.648 164.299 289.046 164.35C292.297 164.774 312.547 167.388 316.187 167.507C319.912 163.552 325.567 152.995 325.567 152.995C325.567 152.995 335.649 154.225 338.68 160.056C338.713 159.894 326.43 177.496 324.601 178.464C322.773 179.431 314.485 178.048 304.47 175.451C296.894 173.482 290.333 171.437 287.599 170.554C287.201 170.664 286.752 170.741 286.253 170.775C280.953 171.148 281.758 168.127 281.504 167.948L281.639 167.77C280.615 168.135 279.582 168.475 278.541 168.78C278.117 168.899 277.559 168.975 277.381 168.644C277.237 168.381 277.449 168.059 277.652 167.804C278.329 166.947 279.091 166.141 279.904 165.385C278.194 166.531 276.475 167.668 274.765 168.814C274.426 169.043 273.952 169.272 273.648 169.069C273.343 168.865 273.47 168.407 273.648 168.067C274.503 166.429 275.789 164.936 277.372 163.773C276.221 164.647 275.061 165.513 273.91 166.387C273.123 166.981 272.327 167.584 271.48 168.118C270.719 168.602 269.77 169.043 268.966 168.772C268.865 168.738 268.755 168.678 268.721 168.585C268.695 168.492 268.738 168.39 268.788 168.305C269.779 166.378 271.531 164.817 273.25 163.315C271.726 164.486 270.194 165.665 268.67 166.837C268.077 167.286 267.349 167.779 266.647 167.609C266.494 167.575 266.35 167.499 266.274 167.38C266.147 167.168 266.223 166.896 266.316 166.667Z" fill="#FFC9B0"/>
<path d="M322.35 167.074C321.139 165.673 320.377 164.197 319.827 162.652C322.773 158.188 325.558 152.985 325.558 152.985C325.558 152.985 335.64 154.216 338.671 160.047C338.697 159.945 333.541 167.303 329.418 172.752C326.574 171.776 324 168.983 322.35 167.074Z" fill="#FFC9B0"/>
<path opacity="0.3" d="M281.419 166.947C282.663 167.099 283.738 167.609 284.932 167.897C286.083 168.177 287.285 168.279 288.454 168.483C291.603 169.043 294.583 170.146 297.554 171.122C303.15 172.964 308.864 174.534 314.714 175.79C318.261 176.554 322.011 177.564 325.77 177.335C325.245 177.929 324.838 178.327 324.601 178.446C322.773 179.414 314.485 178.03 304.47 175.433C296.894 173.464 290.333 171.419 287.599 170.536C287.201 170.647 286.752 170.723 286.253 170.757C280.953 171.131 281.757 168.109 281.504 167.931L281.639 167.753C280.615 168.118 279.582 168.457 278.541 168.763C278.27 168.839 277.948 168.899 277.703 168.848C278.905 168.109 280.149 167.558 281.419 166.947Z" fill="#FFC9B0"/>
<path d="M318.447 161.09C319.387 159.783 326.921 147.961 329.511 143.565C330.874 141.24 332.407 138.897 334.675 137.157C336.284 135.918 340.83 133.118 344.098 136.92C344.267 137.123 344.436 137.336 344.589 137.548C344.758 137.794 344.919 138.04 345.063 138.295C347.23 142.063 346.595 147.231 345.308 151.594C345.054 152.451 344.749 153.283 344.394 154.106C342.125 159.393 338.316 165.979 334.557 170.783C329.528 170.409 320.953 165.869 318.447 161.09Z" fill="#50BCFF"/>
<path opacity="0.38" d="M344.707 151.874C343.742 153.172 342.743 154.437 341.702 155.676C339.95 157.755 338.045 159.716 336.123 161.642C334.235 163.535 332.305 165.368 330.273 167.108C329.562 167.719 328.834 168.313 328.098 168.89C330.409 169.951 332.72 170.647 334.557 170.783C338.324 165.979 342.134 159.393 344.394 154.106C344.749 153.282 345.063 152.451 345.308 151.594C345.393 151.305 345.477 151.008 345.554 150.711C345.274 151.101 344.995 151.492 344.707 151.874Z" fill="#50BCFF"/>
<path d="M315.112 125.547L326.735 123.858L328.005 133.466C328.098 134.162 327.895 134.849 327.446 135.401C326.447 136.614 324.339 138.583 320.868 138.991C317.304 139.406 316.855 137.768 316.906 136.75C316.957 135.808 316.83 134.857 316.661 133.915L315.112 125.547Z" fill="#FFC9B0"/>
<path d="M313.029 132.142C322.621 132.507 326.735 123.264 326.455 122.874C326.117 122.39 325.194 122.416 324.458 122.543C319.217 123.434 311.912 125.827 311.082 127.779C310.244 129.74 311.675 132.082 313.029 132.142Z" fill="#FFC9B0"/>
<path d="M335.183 114.913C334.565 114.888 333.837 114.845 333.372 114.404C332.932 113.988 332.838 113.309 332.584 112.8C331.738 111.128 329.833 110.237 328.115 111.417C323.907 114.302 325.888 119.191 326.269 119.963C326.811 121.066 327.962 122.11 329.173 122.475C329.579 122.602 330.324 122.747 330.443 122.178C330.51 121.838 330.121 121.516 330.07 121.219C330.883 121.533 331.552 121.906 332.474 121.94C333.516 121.974 335.251 121.677 335.776 120.676C336.326 119.623 335.268 119.174 334.481 118.741C335.827 118.792 337.147 116.984 337.621 115.957C338.239 114.625 336.013 114.947 335.183 114.913Z" fill="black"/>
<path d="M297.444 93.4072C297.021 94.0776 296.826 94.85 296.691 95.6223C296.335 97.5743 296.293 99.5857 296.572 101.546C296.691 102.403 296.885 103.277 297.351 104.016C298.003 105.051 299.112 105.722 300.238 106.256C300.932 106.587 301.745 106.884 302.464 106.604C302.947 106.418 303.285 106.002 303.531 105.552C304.36 104.007 304.123 102.157 303.844 100.434C303.582 98.7879 303.302 97.116 302.617 95.5883C302.109 94.4511 301.347 93.3647 300.314 92.6009C299.18 91.7692 298.172 92.2614 297.444 93.4072Z" fill="black"/>
<path d="M315.628 129.205C308.678 130.885 304.919 129.205 302.879 126.854C302.727 126.676 302.583 126.498 302.447 126.311C300.534 123.68 298.976 117.807 298.519 115.558C298.485 115.363 298.451 115.176 298.409 114.972C298.409 114.947 298.409 114.922 298.401 114.905C297.825 111.697 297.622 108.183 297.74 104.525C298.299 88.994 311.311 82.2978 322.367 87.4069C326.54 89.3419 330.121 92.9659 332.229 97.3281C332.39 97.6591 332.551 97.9986 332.695 98.3551C339.306 113.954 328.826 126.039 315.628 129.205Z" fill="#FFC9B0"/>
<g opacity="0.21">
<g opacity="0.21">
<path opacity="0.21" d="M304.2 125.989C303.878 126.404 303.412 126.685 302.879 126.854C302.727 126.676 302.583 126.498 302.447 126.311C300.534 123.68 298.976 117.807 298.519 115.558C298.485 115.363 298.452 115.176 298.409 114.973C299.298 115.074 300.119 115.626 300.78 116.229C302.955 118.24 304.344 120.93 304.623 123.706C304.708 124.503 304.691 125.344 304.2 125.989Z" fill="#D44459"/>
<path opacity="0.21" d="M324.762 123.417C324.923 123.29 325.084 123.171 325.228 123.035C327.7 120.896 330.494 116.492 327.988 113.182C326.752 111.552 324.432 111.111 322.612 111.807C320.784 112.503 319.412 114.132 318.523 115.94C317.863 117.289 317.423 118.809 317.533 120.345C317.651 121.881 318.388 123.434 319.649 124.249C321.317 125.327 323.315 124.512 324.762 123.417Z" fill="#D44459"/>
</g>
</g>
<path d="M339.391 101.792C339.188 103.108 338.891 104.406 338.553 105.696C338.417 106.18 337.858 109.193 337.435 109.329C337.249 109.388 337.071 109.422 336.885 109.414C336.487 109.388 336.132 109.159 335.835 108.87C335.251 108.31 334.701 107.58 333.753 107.725C332.39 107.903 331.365 110.992 329.977 111.043C328.284 111.102 327.615 109.473 327.124 107.877C327.209 106.214 327.048 105.331 327.514 101.818C327.539 101.716 327.539 101.606 327.547 101.504C327.463 101.351 327.378 101.224 327.302 101.13C326.252 99.6621 324.5 99.1274 322.951 98.3381C321.926 97.8204 321.114 96.9972 320.259 96.2673C319.268 95.4101 318.405 94.4256 317.871 93.229C317.363 92.0832 317.067 90.7763 316.712 89.5796C314.663 91.9984 311.971 94.1625 309.025 95.512C306.993 96.4625 304.716 97.3791 302.532 97.9138C300.813 98.3381 298.147 98.7794 296.674 97.5403C295.319 96.4031 295.387 94.7057 295.709 93.1102C296.208 90.7084 297.876 89.0874 299.738 87.5512C304.818 83.3672 311.319 80.5665 317.998 80.2355C319.463 80.1676 320.936 80.21 322.392 80.3967C324.314 80.6344 326.201 81.1012 327.996 81.8141C328.614 82.0517 329.215 82.3148 329.808 82.6203C330.273 82.8664 330.731 83.1126 331.188 83.3926C332.711 84.3092 334.151 85.4889 335.378 86.8383C337.215 88.8158 338.62 91.2006 339.23 93.7552C339.238 93.7891 339.238 93.8231 339.255 93.857C339.865 96.471 339.806 99.1783 339.391 101.792Z" fill="black"/>
<path d="M335.395 86.8468C334.278 87.2712 332.474 86.0576 331.535 85.8878C328.919 85.421 331.738 89.1553 331.475 90.0973C331.179 91.1327 329.842 91.1752 328.927 91.0733C327.42 90.9206 326.65 89.9021 325.372 89.325C324.424 88.9007 323.476 89.3505 323.205 90.3774C323.01 91.1073 323.924 92.9659 323.391 93.4751C322.587 94.2135 320.445 93.0168 319.869 92.4991C318.794 91.5401 317.973 89.6984 318.566 88.2896C318.726 87.8483 319.92 87.7125 320.403 87.4494C321.402 86.9317 322.316 86.2782 323.298 85.752C324.695 85.0137 326.041 84.0037 327.539 83.4096C328.208 83.1381 329.004 82.858 329.825 82.6373C330.29 82.8834 330.747 83.1296 331.205 83.4096C332.728 84.3093 334.168 85.4974 335.395 86.8468Z" fill="#004DBE"/>
<path d="M328.022 81.814C327.302 82.162 326.582 82.5185 325.821 82.7985C324.153 83.4181 322.57 84.114 321.021 84.9712C319.683 85.7095 318.303 86.4479 317.135 87.4324C316.441 88.018 315.603 89.4014 315.019 89.4014C313.63 91.4382 310.735 91.3449 308.72 90.4452C307.535 89.9191 307.23 89.0619 308.576 88.3744C310.041 87.6276 311.844 87.6446 313.359 86.9571C314.553 86.4055 315.637 85.4464 315.171 84.0885C314.875 83.2483 313.901 81.9668 315.374 81.6528C316.492 81.4152 317.795 82.51 318.904 82.7052C319.954 82.8919 320.428 82.6797 321.038 81.865C321.512 81.2284 321.782 80.7532 322.417 80.4137C324.339 80.6344 326.227 81.1011 328.022 81.814Z" fill="#004DBE"/>
<path d="M303.895 112.986C304.073 114.098 303.658 115.083 302.955 115.193C302.261 115.295 301.541 114.48 301.364 113.368C301.186 112.257 301.601 111.272 302.303 111.162C302.997 111.06 303.709 111.875 303.895 112.986Z" fill="black"/>
<path d="M318.396 111.102C318.582 112.257 318.083 113.292 317.27 113.411C316.466 113.53 315.653 112.698 315.467 111.544C315.281 110.389 315.78 109.354 316.593 109.235C317.397 109.108 318.201 109.948 318.396 111.102Z" fill="black"/>
<path d="M307.535 120.073C309.135 119.954 310.743 119.581 312.191 118.91C313.639 118.231 314.866 117.281 316.043 116.237C316.144 116.152 316.322 116.262 316.238 116.381C314.409 119.012 310.76 120.514 307.527 120.396C307.323 120.387 307.323 120.09 307.535 120.073Z" fill="#C72C19"/>
<path d="M307.637 117.383C306.705 117.17 305.757 116.466 305.783 115.456C305.791 115.006 305.994 114.548 306.392 114.302C306.697 114.107 307.078 114.047 307.391 113.861C308.187 113.394 307.797 112.562 307.577 111.875C307.256 110.882 307.01 109.719 306.426 108.836C306.341 108.718 306.096 108.751 306.113 108.921C306.172 109.473 306.384 110.016 306.57 110.534C306.773 111.102 306.968 111.671 307.154 112.24C307.247 112.528 307.51 112.986 307.332 113.275C307.23 113.445 306.976 113.53 306.807 113.606C306.426 113.767 306.079 113.895 305.8 114.209C305.3 114.777 305.215 115.626 305.537 116.288C305.91 117.052 306.765 117.476 307.603 117.578C307.721 117.586 307.747 117.408 307.637 117.383Z" fill="#C72C19"/>
<path d="M303.59 103.948C303.844 104.576 302.921 104.5 301.541 104.89C300.162 105.28 300.077 106.485 299.662 106.435C299.247 106.384 299.307 104.27 301.084 103.541C302.447 102.98 303.421 103.532 303.59 103.948Z" fill="black"/>
<path d="M312.191 102.437C312.064 103.006 313.766 102.768 315.653 102.641C317.541 102.514 318.896 103.863 319.107 103.371C319.319 102.879 317.973 101.283 315.687 101.232C313.402 101.181 312.276 102.064 312.191 102.437Z" fill="black"/>
<path d="M330.366 108.888C331.365 106.325 333.439 104.271 336.411 105.196C337.376 105.493 338.104 106.325 338.434 107.25C338.764 108.175 338.756 109.185 338.612 110.152C338.239 112.597 336.936 114.973 334.802 116.339C333.99 116.857 332.974 117.222 332.06 116.908C330.807 116.467 330.163 115.134 329.875 113.963C329.52 112.529 329.706 110.602 330.366 108.888Z" fill="#FFC9B0"/>
<path opacity="0.3" d="M333.685 106.528C332.957 107.258 332.559 108.268 331.865 108.981C331.374 109.481 331.061 110.22 330.223 109.371C330.214 109.363 330.206 109.346 330.197 109.337C330.248 109.184 330.299 109.032 330.358 108.887C331.289 106.486 333.169 104.534 335.852 105.051C335.056 105.365 334.32 105.891 333.685 106.528Z" fill="#FFC9B0"/>
<path d="M336.563 107.623C336.284 107.428 335.945 107.351 335.607 107.368C334.828 107.419 334.159 107.945 333.744 108.556C333.312 109.193 333.016 109.948 332.779 110.67C332.534 111.425 332.415 112.223 332.466 113.021C332.474 113.182 332.754 113.173 332.754 113.012C332.771 111.705 333.296 110.381 333.939 109.244C334.041 109.074 334.151 108.904 334.278 108.743C334.675 109.286 334.896 109.931 334.938 110.593C334.989 111.391 334.794 112.121 334.54 112.868C334.515 112.944 334.616 113.004 334.667 112.936C335.624 111.62 335.564 109.719 334.489 108.489C334.718 108.251 334.989 108.056 335.319 107.962C335.835 107.81 336.555 107.971 336.86 108.429C336.919 108.514 337.08 108.446 337.054 108.344C336.961 108.056 336.826 107.801 336.563 107.623Z" fill="#C72C19"/>
<path d="M99.1904 325.864H95.1693L108.739 188.766H119.914L99.1904 325.864Z" fill="black"/>
<path d="M323.924 325.864H327.937L314.367 188.766H303.201L323.924 325.864Z" fill="black"/>
<path d="M320.716 176.859H102.39V191.847H320.716V176.859Z" fill="#004DBE"/>
<path opacity="0.45" d="M320.716 176.859H102.39V182.724H320.716V176.859Z" fill="#004DBE"/>
<path d="M325.465 172.539H97.6412V179.948H325.465V172.539Z" fill="#004DBE"/>
<path d="M172.214 123.867H231.633C232.802 123.867 233.843 124.588 234.249 125.683L250.215 168.415H186.199L170.487 126.362C170.038 125.157 170.927 123.867 172.214 123.867Z" fill="#94D5FF"/>
<path d="M184.034 172.859H278.585V168.411H184.034V172.859Z" fill="#94D5FF"/>
<path d="M267.324 172.259C269.728 171.784 274.376 170.604 277.017 168.415H278.583V172.862H263.87C265.038 172.684 266.19 172.48 267.324 172.259Z" fill="#50BCFF"/>
<path d="M184.038 172.859H248.054V168.411H184.038V172.859Z" fill="#50BCFF"/>
<path opacity="0.8" d="M241.225 169.773H222.812V171.682H241.225V169.773Z" fill="#50BCFF"/>
<path opacity="0.8" d="M190.372 169.773H186.114V171.682H190.372V169.773Z" fill="#50BCFF"/>
<path opacity="0.8" d="M196.019 169.773H191.761V171.682H196.019V169.773Z" fill="#50BCFF"/>
<path d="M170.047 123.867H229.466C230.634 123.867 231.676 124.589 232.082 125.684L248.048 168.415H184.032L168.32 126.362C167.871 125.157 168.76 123.867 170.047 123.867Z" fill="#50BCFF"/>
<path opacity="0.51" d="M170.047 123.867H220.112C195.765 124.487 182.754 125.225 177.751 125.964C172.747 126.702 169.378 127.814 170.25 131.514L168.328 126.362C167.871 125.157 168.76 123.867 170.047 123.867Z" fill="#94D5FF"/>
<path opacity="0.35" d="M183.718 164.867C196.823 168.432 213.61 167.549 224.074 157.925C229.627 152.824 232.327 145.025 232.226 137.573C232.167 133.372 231.388 128.187 229.441 123.858H229.466C230.634 123.858 231.676 124.58 232.082 125.674L248.048 168.406H184.032L182.584 164.536C182.965 164.655 183.346 164.765 183.718 164.867Z" fill="#50BCFF"/>
<path opacity="0.46" d="M242.977 170.638C242.977 171.317 243.527 171.86 244.196 171.86C244.873 171.86 245.415 171.309 245.415 170.638C245.415 169.959 244.865 169.416 244.196 169.416C243.519 169.408 242.977 169.959 242.977 170.638Z" fill="#50BCFF"/>
<path opacity="0.8" d="M243.383 170.638C243.383 171.088 243.747 171.461 244.205 171.461C244.653 171.461 245.026 171.096 245.026 170.638C245.026 170.188 244.662 169.815 244.205 169.815C243.747 169.815 243.383 170.18 243.383 170.638Z" fill="#50BCFF"/>
<path d="M215.117 154.012L210.613 150.388C210.182 150.04 209.665 149.896 209.217 149.998L204.535 151.033C203.409 151.28 202.156 150.015 202.419 148.895L203.485 144.21C203.587 143.76 203.443 143.242 203.104 142.81L199.524 138.269C198.669 137.183 199.21 135.859 200.455 136.037L205.619 136.767C206.11 136.835 206.541 136.657 206.779 136.292L209.25 132.456C209.843 131.539 211.435 131.98 211.942 133.211L214.067 138.345C214.27 138.838 214.677 139.254 215.168 139.457L220.273 141.621C221.5 142.139 221.932 143.743 221.009 144.329L217.157 146.773C216.793 147.002 216.607 147.443 216.675 147.936L217.36 153.113C217.521 154.343 216.201 154.878 215.117 154.012Z" fill="#414379"/>
<path d="M215.1 152.188L210.232 148.275C210.089 148.156 209.911 148.105 209.758 148.139L204.696 149.251C204.315 149.336 203.892 148.903 203.976 148.521L205.128 143.463C205.162 143.31 205.111 143.132 205.001 142.988L201.132 138.082C200.844 137.709 201.03 137.268 201.445 137.327L207.024 138.116C207.193 138.142 207.337 138.082 207.422 137.955L210.089 133.805C210.292 133.491 210.833 133.644 211.003 134.059L213.297 139.61C213.365 139.78 213.509 139.915 213.669 139.983L219.189 142.326C219.604 142.504 219.756 143.047 219.443 143.242L215.278 145.882C215.151 145.958 215.092 146.111 215.117 146.272L215.862 151.865C215.913 152.298 215.464 152.485 215.1 152.188Z" fill="#FFD245"/>
<path d="M211.917 145.678L210.232 144.32C210.182 144.278 210.122 144.261 210.072 144.278L208.319 144.668C208.184 144.694 208.04 144.549 208.074 144.414L208.472 142.657C208.48 142.606 208.463 142.546 208.429 142.496L207.092 140.798C206.99 140.671 207.058 140.518 207.202 140.535L209.132 140.807C209.191 140.815 209.242 140.798 209.267 140.747L210.19 139.313C210.258 139.203 210.444 139.254 210.503 139.406L211.299 141.324C211.325 141.384 211.375 141.435 211.426 141.452L213.339 142.266C213.483 142.326 213.534 142.512 213.424 142.58L211.985 143.497C211.943 143.522 211.917 143.573 211.926 143.633L212.18 145.568C212.196 145.712 212.044 145.78 211.917 145.678Z" fill="white"/>
<path d="M196.984 154.403C198.313 159.07 202.681 162.677 206.745 162.457C210.808 162.236 213.026 158.281 211.697 153.613C210.368 148.946 206 145.339 201.936 145.559C197.873 145.78 195.655 149.735 196.984 154.403Z" fill="white"/>
<path d="M198.33 154.335C199.414 158.145 202.986 161.099 206.313 160.921C209.631 160.742 211.443 157.509 210.359 153.698C209.276 149.888 205.703 146.934 202.376 147.112C199.058 147.282 197.246 150.516 198.33 154.335Z" fill="#D44459"/>
<path d="M208.878 153.427C208.802 153.24 208.607 153.181 208.438 153.308C207.871 153.775 207.219 152.595 206.948 152.256C206.372 151.551 205.797 150.847 205.221 150.142C205.001 149.871 204.434 149.998 204.383 150.363C204.315 150.855 204.349 151.339 204.417 151.823C204.332 151.695 204.264 151.568 204.18 151.449C203.866 151.016 203.367 150.592 202.8 150.821C202.199 151.059 202.173 151.763 202.173 152.315C202.182 153.673 202.537 154.997 202.935 156.278C203.037 156.609 203.147 156.932 203.257 157.254C203.35 157.543 203.409 157.899 203.545 158.179C203.519 158.171 203.502 158.162 203.477 158.145C203.358 158.078 203.257 157.976 203.155 157.891C202.935 157.696 202.732 157.483 202.537 157.263C202.089 156.745 201.725 156.134 201.462 155.506C201.259 154.997 200.878 154.106 201.284 153.622C201.488 153.384 201.174 153.07 200.946 153.282C200.074 154.046 200.649 155.506 201.047 156.372C201.301 156.94 201.648 157.458 202.046 157.942C202.385 158.349 202.808 158.841 203.325 159.028C203.816 159.206 204.408 159.028 204.467 158.434C204.501 158.128 204.374 157.797 204.298 157.5C204.197 157.119 204.095 156.745 203.985 156.372C203.595 154.997 203.155 153.622 203.189 152.171C203.189 152.077 203.189 151.975 203.206 151.882V151.874C203.257 151.925 203.316 151.984 203.342 152.026C203.579 152.34 203.773 152.688 203.968 153.036C204.349 153.741 204.637 154.479 204.848 155.243C205.009 155.829 205.788 155.659 205.839 155.107C205.94 154.046 205.602 153.036 205.432 152.001C205.932 152.637 206.44 153.265 206.99 153.851C207.32 154.199 207.794 154.488 208.294 154.369C208.717 154.275 209.056 153.868 208.878 153.427Z" fill="#FFD245"/>
<path d="M152.523 136.495C149.941 134.365 149.729 130.402 150.635 127.423C151.101 125.895 151.575 124.266 151.778 122.679C151.947 121.372 152.074 119.912 151.609 118.647C151.956 119.216 152.362 119.606 152.718 120.175C153.268 121.049 153.615 121.983 153.937 122.959C154.445 124.486 154.826 125.971 154.826 127.592C154.826 129.137 154.445 130.631 154.191 132.15C154.021 133.16 153.895 134.187 153.556 135.154C153.446 135.434 152.946 136.843 152.523 136.495Z" fill="#94D5FF"/>
<path d="M150.195 136.758C147.097 135.494 144.887 133.44 143.795 130.554C143.321 129.298 143.008 128.017 142.779 126.701C142.669 126.065 142.491 125.386 142.475 124.732C142.483 125.097 142.805 125.411 143.042 125.666C143.567 126.243 144.159 126.71 144.752 127.211C145.404 127.762 146.005 128.305 146.716 128.781C147.469 129.29 148.29 129.774 148.976 130.393C150.322 131.598 151.423 133.143 151.888 134.908C152.058 135.553 151.99 136.385 151.719 136.623C151.389 136.92 150.737 136.979 150.195 136.758Z" fill="#94D5FF"/>
<path d="M152.422 136.402C151.947 135.689 152.709 134.323 153.107 133.771C154.081 132.405 155.562 131.284 157.035 130.495C158.669 129.612 160.455 129.027 162.199 128.407C162.944 128.144 163.731 127.915 164.383 127.465C164.73 127.228 165.264 126.88 165.365 126.438C165.357 128.365 163.968 130.045 162.783 131.446C161.556 132.897 160.184 134 158.466 134.798C157.425 135.282 156.417 135.689 155.342 136.071C154.733 136.283 154.106 136.495 153.463 136.521C153.082 136.538 152.616 136.69 152.422 136.402Z" fill="#94D5FF"/>
<path d="M164.163 114.404C162.656 115.906 161.454 117.722 160.303 119.504C159.092 121.389 157.983 123.341 156.984 125.352C155.046 129.256 153.48 133.432 152.633 137.717C152.599 137.896 152.845 137.964 152.904 137.794C154.191 133.601 155.672 129.511 157.636 125.581C158.584 123.697 159.626 121.855 160.76 120.082C161.945 118.231 163.308 116.509 164.485 114.658C164.629 114.455 164.332 114.234 164.163 114.404Z" fill="#004DBE"/>
<path d="M150.246 126.311C149.205 122.84 147.791 119.182 145.192 116.585C145.107 116.5 144.946 116.619 145.023 116.721C147.241 119.7 148.637 123.078 149.611 126.642C150.652 130.436 150.965 134.263 151.38 138.159C151.406 138.396 151.719 138.396 151.744 138.159C152.142 134.229 151.372 130.062 150.246 126.311Z" fill="#004DBE"/>
<path d="M144.295 119.632C143.643 119.649 142.839 119.411 142.297 119.038C141.814 118.707 141.603 118.18 141.442 117.629C141.247 116.967 140.875 116.543 140.358 116.101C139.672 115.516 138.928 115.091 138.03 114.981C137.861 114.964 137.37 115.006 137.319 114.786C137.251 114.506 137.979 114.09 138.166 113.996C138.758 113.699 139.486 113.564 140.147 113.555C140.629 113.547 141.129 113.818 141.594 113.759C141.086 113.368 140.714 112.554 140.671 111.934C140.629 111.332 140.841 110.084 141.526 109.846C142.034 109.668 142.017 110.457 142.077 110.78C142.187 111.365 142.432 112.299 142.898 112.698C142.889 111.798 143.389 110.474 144.32 110.186C144.371 110.763 143.931 111.416 144.151 112.002C144.328 111.654 144.549 111.349 144.87 111.085C145.065 110.924 145.37 110.559 145.649 110.576C145.471 110.958 145.463 111.518 145.446 111.943C145.404 112.868 146.149 113.233 146.733 113.827C147.046 114.149 147.444 114.412 147.638 114.828C147.935 115.439 147.935 116.262 147.842 116.916C147.664 118.036 146.699 119.555 144.295 119.632Z" fill="#D44459"/>
<path d="M169.082 111.739C169.192 111.705 169.42 111.696 169.454 111.561C169.547 111.179 168.32 110.984 168.117 110.941C167.676 110.848 167.219 110.882 166.779 110.967C166.635 110.992 166.373 111.136 166.313 110.975C166.263 110.831 166.559 110.373 166.618 110.245C166.711 110.05 166.898 109.795 166.864 109.566C166.322 109.473 165.264 110.042 165.154 110.602C164.84 110.16 164.73 109.583 164.383 109.15C164.214 108.93 163.985 108.667 163.731 108.565C163.596 108.514 163.24 108.437 163.113 108.539C162.986 108.641 163.029 108.913 163.037 109.057C163.071 109.549 163.156 110.084 163.037 110.576C162.885 111.204 162.428 111.349 161.92 111.637C161.59 111.832 161.285 112.112 161.039 112.401C160.675 112.834 160.438 113.36 160.404 113.929C160.337 115.023 160.989 116.042 161.801 116.704C162.021 116.89 162.267 117.052 162.521 117.188C164.112 118.036 166.5 118.418 167.439 116.449C167.846 115.592 167.829 114.735 167.753 113.818C167.744 113.674 167.736 113.513 167.803 113.385C167.93 113.131 168.26 113.02 168.514 112.961C168.726 112.91 169.107 112.817 168.76 112.613C168.489 112.443 168.091 112.571 167.795 112.554C168.023 112.325 168.26 112.163 168.54 112.002C168.709 111.892 168.878 111.798 169.082 111.739Z" fill="#D44459"/>
<path d="M164.959 156.295C164.959 152.255 163.029 149.531 160.04 147.97C158.06 146.934 156.739 144.974 156.739 142.733V136.317H148.46V142.733C148.46 144.974 147.139 146.934 145.158 147.97C142.17 149.531 140.24 152.255 140.24 156.295C140.24 158.969 141.086 161.82 142.534 164.298C143.846 166.547 146.97 169.119 146.97 171.724H158.229C158.229 169.119 161.353 166.556 162.665 164.298C164.112 161.829 164.959 158.977 164.959 156.295Z" fill="#FFD245"/>
<path d="M157.103 137.403H148.104C147.816 137.403 147.579 137.166 147.579 136.877V136.41C147.579 136.122 147.816 135.884 148.104 135.884H157.103C157.391 135.884 157.628 136.122 157.628 136.41V136.877C157.628 137.166 157.391 137.403 157.103 137.403Z" fill="#F59711"/>
<path d="M158.534 171.181H146.665C146.377 171.181 146.149 171.41 146.149 171.699V172.157C146.149 172.446 146.377 172.675 146.665 172.675H158.534C158.821 172.675 159.05 172.446 159.05 172.157V171.699C159.05 171.41 158.821 171.181 158.534 171.181Z" fill="#F59711"/>
</g>
<defs>
<clipPath id="clip0">
<rect width="451" height="326" fill="white"/>
</clipPath>
</defs>
</svg>
