<svg width="327" height="127" viewBox="0 0 327 127" fill="none" xmlns="http://www.w3.org/2000/svg">
<path d="M295.356 21.1665H31.646C25.8203 21.1665 21.0977 25.9048 21.0977 31.7498V95.2498C21.0977 101.095 25.8203 105.833 31.646 105.833H295.356C301.181 105.833 305.904 101.095 305.904 95.2498V31.7498C305.904 25.9048 301.181 21.1665 295.356 21.1665Z" fill="black"/>
<path d="M295.356 22.8598C297.706 22.8598 299.96 23.7965 301.621 25.4637C303.283 27.1309 304.216 29.3921 304.216 31.7498V95.2498C304.216 97.6076 303.283 99.8688 301.621 101.536C299.96 103.203 297.706 104.14 295.356 104.14H31.646C29.2961 104.14 27.0423 103.203 25.3806 101.536C23.7189 99.8688 22.7854 97.6076 22.7854 95.2498V31.7498C22.7854 29.3921 23.7189 27.1309 25.3806 25.4637C27.0423 23.7965 29.2961 22.8598 31.646 22.8598H295.356ZM295.356 21.1665H31.646C28.8484 21.1665 26.1654 22.2815 24.1872 24.2663C22.209 26.2511 21.0977 28.943 21.0977 31.7498V95.2498C21.0977 98.0567 22.209 100.749 24.1872 102.733C26.1654 104.718 28.8484 105.833 31.646 105.833H295.356C298.153 105.833 300.836 104.718 302.815 102.733C304.793 100.749 305.904 98.0567 305.904 95.2498V31.7498C305.904 28.943 304.793 26.2511 302.815 24.2663C300.836 22.2815 298.153 21.1665 295.356 21.1665Z" fill="#A6A6A6"/>
<path d="M121.138 42.8415C121.172 43.6178 121.05 44.393 120.778 45.1205C120.506 45.8481 120.09 46.5129 119.555 47.0749C118.956 47.6957 118.233 48.1825 117.433 48.5035C116.633 48.8245 115.775 48.9724 114.914 48.9375C114.048 48.9569 113.188 48.7978 112.386 48.4701C111.584 48.1425 110.857 47.6532 110.252 47.0325C109.022 45.7709 108.334 44.0767 108.334 42.3124C108.334 40.548 109.022 38.8538 110.252 37.5922C111.191 36.6708 112.382 36.0486 113.673 35.8038C114.964 35.559 116.299 35.7025 117.509 36.2164C118.27 36.5301 118.948 37.0154 119.492 37.6345L118.374 38.7564C117.955 38.25 117.424 37.8486 116.823 37.5841C116.223 37.3195 115.569 37.1991 114.914 37.2324C114.087 37.2381 113.274 37.447 112.546 37.8407C111.818 38.2345 111.198 38.8011 110.738 39.4911C110.279 40.1811 109.995 40.9735 109.912 41.7989C109.828 42.6244 109.947 43.4578 110.259 44.2264C110.571 44.9949 111.065 45.6752 111.699 46.2078C112.333 46.7403 113.088 47.1089 113.897 47.2813C114.706 47.4538 115.544 47.4248 116.339 47.1969C117.135 46.9691 117.862 46.5492 118.458 45.9742C119.103 45.2653 119.476 44.3506 119.513 43.3919H114.914V41.8679H121.053C121.101 42.1904 121.129 42.5155 121.138 42.8415Z" fill="white" stroke="white" stroke-width="0.2" stroke-miterlimit="10"/>
<path d="M130.799 37.5497H125.103V41.5714H130.292V43.0954H125.103V47.1171H130.799V48.6834H123.457V35.9834H130.799V37.5497Z" fill="white" stroke="white" stroke-width="0.2" stroke-miterlimit="10"/>
<path d="M137.718 48.6834H136.093V37.5497H132.549V35.9834H141.346V37.5497H137.718V48.6834Z" fill="white" stroke="white" stroke-width="0.2" stroke-miterlimit="10"/>
<path d="M147.553 48.6834V35.9834H149.177V48.6834H147.553Z" fill="white" stroke="white" stroke-width="0.2" stroke-miterlimit="10"/>
<path d="M156.389 48.6834H154.765V37.5497H151.221V35.9834H159.913V37.5497H156.389V48.6834Z" fill="white" stroke="white" stroke-width="0.2" stroke-miterlimit="10"/>
<path d="M176.389 47.0323C175.78 47.6442 175.056 48.1296 174.26 48.4607C173.464 48.7919 172.61 48.9623 171.748 48.9623C170.886 48.9623 170.032 48.7919 169.236 48.4607C168.44 48.1296 167.716 47.6442 167.107 47.0323C165.914 45.7603 165.25 44.0797 165.25 42.3333C165.25 40.587 165.914 38.9064 167.107 37.6343C167.703 37.0053 168.424 36.5088 169.224 36.177C170.023 35.8452 170.883 35.6855 171.748 35.7082C172.612 35.6945 173.469 35.8583 174.267 36.1896C175.065 36.5208 175.788 37.0125 176.389 37.6343C176.996 38.2534 177.473 38.9882 177.792 39.7953C178.11 40.6024 178.265 41.4654 178.246 42.3333C178.273 43.2024 178.123 44.0679 177.804 44.8762C177.484 45.6845 177.003 46.4184 176.389 47.0323ZM168.309 45.974C168.759 46.431 169.294 46.7938 169.884 47.0414C170.475 47.289 171.108 47.4166 171.748 47.4166C172.388 47.4166 173.021 47.289 173.612 47.0414C174.202 46.7938 174.737 46.431 175.187 45.974C176.097 44.9816 176.602 43.6821 176.602 42.3333C176.602 40.9846 176.097 39.6851 175.187 38.6927C174.737 38.2357 174.202 37.8729 173.612 37.6253C173.021 37.3776 172.388 37.2501 171.748 37.2501C171.108 37.2501 170.475 37.3776 169.884 37.6253C169.294 37.8729 168.759 38.2357 168.309 38.6927C167.399 39.6851 166.894 40.9846 166.894 42.3333C166.894 43.6821 167.399 44.9816 168.309 45.974Z" fill="white" stroke="white" stroke-width="0.2" stroke-miterlimit="10"/>
<path d="M180.545 48.6834V35.9834H182.507L188.667 45.8682V43.4129V35.9834H190.292V48.6834H188.604L182.169 38.3329V40.7671V48.6834H180.545Z" fill="white" stroke="white" stroke-width="0.2" stroke-miterlimit="10"/>
<path d="M164.849 67.204C163.071 67.2082 161.335 67.7412 159.859 68.7354C158.384 69.7297 157.235 71.1407 156.559 72.7899C155.882 74.4392 155.709 76.2526 156.06 78.0009C156.41 79.7492 157.27 81.3539 158.53 82.6119C159.79 83.87 161.393 84.725 163.137 85.0689C164.882 85.4127 166.688 85.2299 168.329 84.5435C169.969 83.8572 171.37 82.6981 172.354 81.213C173.338 79.7278 173.861 77.9833 173.857 76.1999C173.874 75.0102 173.653 73.8292 173.206 72.7271C172.759 71.6251 172.095 70.6247 171.254 69.7853C170.414 68.946 169.414 68.2849 168.313 67.8414C167.213 67.398 166.035 67.1812 164.849 67.204ZM164.849 81.6609C163.759 81.7373 162.672 81.4832 161.729 80.9314C160.785 80.3797 160.029 79.556 159.558 78.5672C159.087 77.5785 158.924 76.4705 159.089 75.3874C159.254 74.3042 159.74 73.296 160.484 72.4937C161.228 71.6914 162.195 71.1321 163.26 70.8887C164.325 70.6452 165.438 70.7288 166.455 71.1285C167.472 71.5282 168.345 72.2257 168.962 73.1301C169.578 74.0345 169.909 75.1041 169.912 76.1999C169.946 76.8942 169.841 77.5883 169.604 78.2412C169.366 78.8942 169 79.4928 168.528 80.0018C168.057 80.5107 167.488 80.9198 166.856 81.2047C166.224 81.4897 165.542 81.6448 164.849 81.6609ZM145.187 67.204C143.409 67.2082 141.673 67.7412 140.197 68.7354C138.722 69.7297 137.573 71.1407 136.897 72.7899C136.22 74.4392 136.047 76.2526 136.397 78.0009C136.748 79.7492 137.608 81.3539 138.868 82.6119C140.128 83.87 141.731 84.725 143.475 85.0689C145.219 85.4127 147.026 85.2299 148.667 84.5435C150.307 83.8572 151.708 82.6981 152.692 81.213C153.676 79.7278 154.199 77.9833 154.195 76.1999C154.212 75.0102 153.991 73.8292 153.544 72.7271C153.096 71.6251 152.433 70.6247 151.592 69.7853C150.752 68.946 149.751 68.2849 148.651 67.8414C147.551 67.398 146.372 67.1812 145.187 67.204ZM145.187 81.6609C144.097 81.7373 143.01 81.4832 142.066 80.9314C141.123 80.3797 140.366 79.556 139.896 78.5672C139.425 77.5785 139.261 76.4705 139.427 75.3874C139.592 74.3042 140.078 73.296 140.822 72.4937C141.566 71.6914 142.533 71.1321 143.598 70.8887C144.662 70.6452 145.776 70.7288 146.793 71.1285C147.809 71.5282 148.683 72.2257 149.3 73.1301C149.916 74.0345 150.247 75.1041 150.25 76.1999C150.284 76.8942 150.179 77.5883 149.941 78.2412C149.704 78.8942 149.338 79.4928 148.866 80.0018C148.394 80.5107 147.826 80.9198 147.194 81.2047C146.562 81.4897 145.879 81.6448 145.187 81.6609ZM121.811 69.9769V73.7869H130.925C130.782 75.5814 130.039 77.2747 128.816 78.5917C127.901 79.5262 126.802 80.2578 125.588 80.7391C124.374 81.2204 123.073 81.4407 121.769 81.3857C119.084 81.3857 116.508 80.3153 114.609 78.4099C112.71 76.5045 111.643 73.9203 111.643 71.2257C111.643 68.5311 112.71 65.9469 114.609 64.0415C116.508 62.1361 119.084 61.0657 121.769 61.0657C124.344 61.0273 126.83 62.0083 128.689 63.7962L131.368 61.108C130.111 59.8603 128.618 58.8768 126.977 58.2153C125.336 57.5538 123.58 57.2276 121.811 57.2557C119.936 57.1825 118.065 57.4899 116.311 58.1595C114.556 58.8291 112.955 59.8471 111.602 61.1525C110.249 62.4579 109.173 64.0239 108.438 65.7567C107.703 67.4894 107.324 69.3531 107.324 71.2363C107.324 73.1194 107.703 74.9832 108.438 76.7159C109.173 78.4486 110.249 80.0146 111.602 81.3201C112.955 82.6255 114.556 83.6435 116.311 84.3131C118.065 84.9827 119.936 85.2901 121.811 85.2169C123.616 85.2892 125.416 84.9777 127.092 84.3028C128.768 83.6279 130.283 82.6049 131.537 81.301C133.753 78.8593 134.933 75.6478 134.828 72.3475C134.836 71.5532 134.772 70.7598 134.638 69.9769H121.811ZM217.401 72.9402C216.851 71.3162 215.822 69.8981 214.451 68.8738C213.079 67.8494 211.43 67.2672 209.722 67.204C208.568 67.2018 207.426 67.437 206.366 67.8952C205.306 68.3534 204.351 69.0248 203.56 69.8679C202.769 70.7111 202.159 71.708 201.767 72.7971C201.376 73.8862 201.211 75.0443 201.283 76.1999C201.265 78.1321 201.87 80.0183 203.009 81.5768C204.148 83.1352 205.758 84.2823 207.6 84.8468C209.442 85.4112 211.416 85.3626 213.228 84.7082C215.041 84.0539 216.593 82.829 217.654 81.2164L214.595 79.0997C214.139 79.8623 213.492 80.492 212.719 80.9264C211.945 81.3608 211.072 81.5848 210.186 81.5762C209.271 81.6141 208.367 81.3736 207.591 80.8862C206.816 80.3989 206.205 79.6876 205.84 78.8457L217.844 73.8715L217.401 72.9402ZM205.165 75.9459C205.122 75.2884 205.21 74.629 205.425 74.0062C205.639 73.3834 205.975 72.8098 206.414 72.319C206.852 71.8282 207.383 71.43 207.976 71.1478C208.57 70.8655 209.213 70.7049 209.869 70.6754C210.549 70.6337 211.226 70.7943 211.815 71.1369C212.404 71.4796 212.88 71.9891 213.182 72.6015L205.165 75.9459ZM195.418 84.6665H199.363V58.2082H195.418V84.6665ZM188.963 69.2149H188.815C188.225 68.5415 187.498 68.0037 186.683 67.6384C185.867 67.2731 184.982 67.0888 184.089 67.0982C181.784 67.2104 179.61 68.2082 178.017 69.885C176.425 71.5617 175.537 73.7888 175.537 76.1046C175.537 78.4205 176.425 80.6475 178.017 82.3243C179.61 84.001 181.784 84.9989 184.089 85.111C184.984 85.129 185.871 84.9486 186.688 84.5827C187.505 84.2169 188.231 83.6745 188.815 82.9944H188.963V84.2855C188.963 87.7357 187.127 89.5772 184.174 89.5772C183.187 89.5555 182.229 89.24 181.421 88.6709C180.614 88.1019 179.993 87.3048 179.638 86.381L176.22 87.7992C176.852 89.3915 177.951 90.7538 179.371 91.7062C180.791 92.6586 182.466 93.1562 184.174 93.1332C188.794 93.1332 192.612 90.4027 192.612 83.7564V67.7332H188.963V69.2149ZM184.427 81.6609C183.044 81.5744 181.747 80.9625 180.799 79.9499C179.85 78.9372 179.322 77.6 179.322 76.2105C179.322 74.8209 179.85 73.4837 180.799 72.471C181.747 71.4584 183.044 70.8465 184.427 70.76C185.102 70.7893 185.765 70.9546 186.376 71.2461C186.986 71.5376 187.532 71.9494 187.981 72.4569C188.43 72.9644 188.772 73.5574 188.988 74.2004C189.204 74.8434 189.288 75.5234 189.237 76.1999C189.294 76.8787 189.214 77.5621 189.001 78.2089C188.788 78.8557 188.446 79.4524 187.996 79.9628C187.547 80.4733 186.998 80.887 186.385 81.1789C185.771 81.4707 185.105 81.6347 184.427 81.6609ZM235.882 58.2082H226.43V84.6665H230.375V74.6335H235.882C237.006 74.7146 238.135 74.5624 239.198 74.1863C240.261 73.8103 241.236 73.2186 242.061 72.4481C242.886 71.6775 243.544 70.7447 243.994 69.7077C244.444 68.6707 244.676 67.5519 244.676 66.4209C244.676 65.2899 244.444 64.171 243.994 63.134C243.544 62.0971 242.886 61.1642 242.061 60.3937C241.236 59.6231 240.261 59.0314 239.198 58.6554C238.135 58.2794 237.006 58.1272 235.882 58.2082ZM235.882 70.9082H230.375V61.8912H235.966C236.559 61.8912 237.146 62.0084 237.694 62.236C238.242 62.4636 238.739 62.7973 239.158 63.2179C239.578 63.6385 239.91 64.1379 240.137 64.6874C240.364 65.237 240.481 65.826 240.481 66.4209C240.481 67.0157 240.364 67.6047 240.137 68.1543C239.91 68.7039 239.578 69.2032 239.158 69.6238C238.739 70.0444 238.242 70.3781 237.694 70.6057C237.146 70.8334 236.559 70.9505 235.966 70.9505L235.882 70.9082ZM260.227 67.1194C258.791 67.0305 257.36 67.3661 256.111 68.0846C254.862 68.8031 253.851 69.8731 253.202 71.1622L256.683 72.6227C257.035 71.9864 257.563 71.466 258.203 71.1242C258.843 70.7824 259.568 70.6338 260.291 70.6965C260.792 70.6379 261.299 70.6798 261.783 70.82C262.268 70.9602 262.72 71.1957 263.112 71.513C263.505 71.8302 263.831 72.2227 264.071 72.6676C264.311 73.1125 264.46 73.601 264.51 74.1044V74.3584C263.241 73.6893 261.829 73.3406 260.396 73.3424C256.641 73.3424 252.801 75.459 252.801 79.3114C252.838 80.1302 253.039 80.9332 253.392 81.6726C253.744 82.4121 254.241 83.0729 254.853 83.6158C255.465 84.1588 256.18 84.5728 256.954 84.8333C257.729 85.0938 258.548 85.1954 259.362 85.1322C260.352 85.1871 261.339 84.9769 262.221 84.5232C263.104 84.0694 263.85 83.3883 264.383 82.5499H264.51V84.6665H268.307V74.4854C268.307 69.8499 264.805 67.1617 260.312 67.1617L260.227 67.1194ZM259.742 81.6185C258.455 81.6185 256.662 80.9624 256.662 79.3749C256.662 77.2582 258.898 76.5385 260.881 76.5385C262.135 76.5075 263.373 76.8145 264.468 77.4275C264.335 78.577 263.792 79.6394 262.939 80.4178C262.085 81.1962 260.98 81.6378 259.827 81.6609L259.742 81.6185ZM282.147 67.7332L277.632 79.2055H277.506L272.822 67.7332H268.603L275.628 83.7775L271.62 92.6887H275.734L286.535 67.7332H282.147ZM246.704 84.6665H250.628V58.2082H246.704V84.6665Z" fill="white"/>
<path d="M43.1217 37.1267C42.4265 37.9514 42.0718 39.0115 42.1302 40.09V86.9107C42.0584 87.991 42.4148 89.056 43.1217 89.874L43.2694 90.0433L69.4083 63.8178V63.1828L43.2694 36.9785L43.1217 37.1267Z" fill="url(#paint0_linear)"/>
<path d="M78.0559 72.5596L69.4062 63.8178V63.1828L78.0559 54.4409L78.2458 54.5679L88.6043 60.4523C91.5579 62.1244 91.5579 64.8761 88.6043 66.5694L78.288 72.4538L78.0559 72.5596Z" fill="url(#paint1_linear)"/>
<path d="M78.3125 72.4323L69.4096 63.5L43.123 89.8737C43.7192 90.4061 44.4822 90.7124 45.2799 90.7394C46.0775 90.7665 46.8595 90.5126 47.4901 90.0218L78.3125 72.4323Z" fill="url(#paint2_linear)"/>
<path d="M78.3125 54.5674L47.4901 36.999C46.8636 36.5014 46.0822 36.2414 45.2835 36.2646C44.4848 36.2878 43.7198 36.5929 43.123 37.126L69.4096 63.4997L78.3125 54.5674Z" fill="url(#paint3_linear)"/>
<path opacity="0.2" d="M78.0593 72.2417L47.4901 89.7042C46.8824 90.1644 46.1418 90.4133 45.3804 90.4133C44.619 90.4133 43.8784 90.1644 43.2707 89.7042L43.123 89.8524L43.2707 90.0217C43.8784 90.4819 44.619 90.7308 45.3804 90.7308C46.1418 90.7308 46.8824 90.4819 47.4901 90.0217L78.3125 72.4322L78.0593 72.2417Z" fill="black"/>
<path opacity="0.12" d="M43.124 89.5773C42.4463 88.7377 42.1142 87.67 42.1957 86.5928V86.9103C42.1239 87.9906 42.4803 89.0556 43.1873 89.8736L43.3349 89.7254L43.124 89.5773Z" fill="black"/>
<path opacity="0.12" d="M88.607 66.2517L78.0586 72.2418L78.2485 72.4323L88.607 66.548C89.2184 66.2886 89.7488 65.8686 90.1424 65.3322C90.5359 64.7958 90.7781 64.1628 90.8432 63.5C90.7113 64.1023 90.4402 64.6652 90.0518 65.1431C89.6634 65.6211 89.1685 66.0008 88.607 66.2517Z" fill="black"/>
<path opacity="0.25" d="M47.4875 37.2955L88.6051 60.7482C89.1666 60.9991 89.6615 61.3788 90.0499 61.8567C90.4384 62.3347 90.7095 62.8975 90.8414 63.4998C90.7762 62.837 90.5341 62.2041 90.1405 61.6676C89.747 61.1312 89.2165 60.7112 88.6051 60.4518L47.4875 36.9992C44.555 35.3058 42.1289 36.7028 42.1289 40.0895V40.407C42.1922 37.0203 44.555 35.6233 47.4875 37.2955Z" fill="white"/>
<defs>
<linearGradient id="paint0_linear" x1="67.0877" y1="39.6032" x2="31.5702" y2="75.0034" gradientUnits="userSpaceOnUse">
<stop stop-color="#00A0FF"/>
<stop offset="0.01" stop-color="#00A1FF"/>
<stop offset="0.26" stop-color="#00BEFF"/>
<stop offset="0.51" stop-color="#00D2FF"/>
<stop offset="0.76" stop-color="#00DFFF"/>
<stop offset="1" stop-color="#00E3FF"/>
</linearGradient>
<linearGradient id="paint1_linear" x1="92.465" y1="63.5002" x2="41.4319" y2="63.5002" gradientUnits="userSpaceOnUse">
<stop stop-color="#FFE000"/>
<stop offset="0.41" stop-color="#FFBD00"/>
<stop offset="0.78" stop-color="#FFA500"/>
<stop offset="1" stop-color="#FF9C00"/>
</linearGradient>
<linearGradient id="paint2_linear" x1="73.4813" y1="68.3683" x2="25.3063" y2="116.363" gradientUnits="userSpaceOnUse">
<stop stop-color="#FF3A44"/>
<stop offset="1" stop-color="#C31162"/>
</linearGradient>
<linearGradient id="paint3_linear" x1="36.4987" y1="21.5474" x2="58.0039" y2="42.9816" gradientUnits="userSpaceOnUse">
<stop stop-color="#32A071"/>
<stop offset="0.07" stop-color="#2DA771"/>
<stop offset="0.48" stop-color="#15CF74"/>
<stop offset="0.8" stop-color="#06E775"/>
<stop offset="1" stop-color="#00F076"/>
</linearGradient>
</defs>
</svg>
