<svg width="21" height="24" viewBox="0 0 21 24" fill="none" xmlns="http://www.w3.org/2000/svg">
<path d="M16.5 11.25V12.75C16.5 13.0594 16.2469 13.3125 15.9375 13.3125H11.8125V17.4375C11.8125 17.7469 11.5594 18 11.25 18H9.75C9.44063 18 9.1875 17.7469 9.1875 17.4375V13.3125H5.0625C4.75313 13.3125 4.5 13.0594 4.5 12.75V11.25C4.5 10.9406 4.75313 10.6875 5.0625 10.6875H9.1875V6.5625C9.1875 6.25313 9.44063 6 9.75 6H11.25C11.5594 6 11.8125 6.25313 11.8125 6.5625V10.6875H15.9375C16.2469 10.6875 16.5 10.9406 16.5 11.25ZM21 3.75V20.25C21 21.4922 19.9922 22.5 18.75 22.5H2.25C1.00781 22.5 0 21.4922 0 20.25V3.75C0 2.50781 1.00781 1.5 2.25 1.5H18.75C19.9922 1.5 21 2.50781 21 3.75ZM18.75 19.9688V4.03125C18.75 3.87656 18.6234 3.75 18.4688 3.75H2.53125C2.37656 3.75 2.25 3.87656 2.25 4.03125V19.9688C2.25 20.1234 2.37656 20.25 2.53125 20.25H18.4688C18.6234 20.25 18.75 20.1234 18.75 19.9688Z" fill="#69697B"/>
</svg>
