<svg width="76" height="86" viewBox="0 0 76 86" fill="none" xmlns="http://www.w3.org/2000/svg">
<path d="M73.2344 26.875H2.01562C0.902496 26.875 0 25.9725 0 24.8594V18.8125C0 14.3596 3.60965 10.75 8.0625 10.75H16.125V2.01562C16.125 0.902496 17.0275 0 18.1406 0H24.8594C25.9725 0 26.875 0.902496 26.875 2.01562V10.75H48.375V2.01562C48.375 0.902496 49.2775 0 50.3906 0H57.1094C58.2225 0 59.125 0.902496 59.125 2.01562V10.75H67.1875C71.6404 10.75 75.25 14.3596 75.25 18.8125V24.8594C75.25 25.9725 74.3475 26.875 73.2344 26.875ZM2.01562 32.25H73.2344C74.3475 32.25 75.25 33.1525 75.25 34.2656V77.9375C75.25 82.3904 71.6404 86 67.1875 86H8.0625C3.60965 86 0 82.3904 0 77.9375V34.2656C0 33.1525 0.902496 32.25 2.01562 32.25ZM57.9989 48.3661L53.2674 43.5961C52.4835 42.8058 51.2073 42.8006 50.417 43.5847L32.6061 61.2523L24.8829 53.4666C24.099 52.6763 22.8226 52.6711 22.0323 53.4552L17.2625 58.1869C16.4722 58.9708 16.467 60.247 17.2511 61.0373L31.1254 75.0239C31.9094 75.8142 33.1856 75.8194 33.9759 75.0353L57.9875 51.2165C58.7778 50.4326 58.783 49.1564 57.9989 48.3661Z" fill="#F16C21"/>
</svg>
