<svg width="24" height="24" viewBox="0 0 24 24" fill="none" xmlns="http://www.w3.org/2000/svg">
<path d="M22.847 14.7984L20.8501 13.6452C21.0517 12.5577 21.0517 11.4421 20.8501 10.3546L22.847 9.2015C23.0767 9.07025 23.1798 8.79837 23.1048 8.54525C22.5845 6.8765 21.6985 5.36712 20.5407 4.11087C20.3626 3.91868 20.072 3.87181 19.847 4.00306L17.8501 5.15618C17.011 4.43431 16.0454 3.8765 15.0001 3.51087V1.20931C15.0001 0.946809 14.8173 0.717122 14.5595 0.660872C12.8392 0.276497 11.0767 0.295247 9.44072 0.660872C9.1829 0.717122 9.00009 0.946809 9.00009 1.20931V3.51556C7.95947 3.88587 6.99384 4.44368 6.15009 5.16087L4.1579 4.00775C3.92822 3.8765 3.64228 3.91868 3.46415 4.11556C2.30634 5.36712 1.4204 6.8765 0.900092 8.54993C0.820404 8.80306 0.928217 9.07493 1.1579 9.20618L3.15478 10.3593C2.95322 11.4468 2.95322 12.5624 3.15478 13.6499L1.1579 14.8031C0.928217 14.9343 0.825092 15.2062 0.900092 15.4593C1.4204 17.1281 2.30634 18.6374 3.46415 19.8937C3.64228 20.0859 3.9329 20.1327 4.1579 20.0015L6.15478 18.8484C6.99384 19.5702 7.95947 20.1281 9.00478 20.4937V22.7999C9.00478 23.0624 9.18759 23.2921 9.4454 23.3484C11.1657 23.7327 12.9282 23.714 14.5642 23.3484C14.822 23.2921 15.0048 23.0624 15.0048 22.7999V20.4937C16.0454 20.1234 17.011 19.5656 17.8548 18.8484L19.8517 20.0015C20.0813 20.1327 20.3673 20.0906 20.5454 19.8937C21.7032 18.6421 22.5892 17.1327 23.1095 15.4593C23.1798 15.2015 23.0767 14.9296 22.847 14.7984ZM12.0001 15.7499C9.9329 15.7499 8.25009 14.0671 8.25009 11.9999C8.25009 9.93275 9.9329 8.24993 12.0001 8.24993C14.0673 8.24993 15.7501 9.93275 15.7501 11.9999C15.7501 14.0671 14.0673 15.7499 12.0001 15.7499Z" fill="#69697B"/>
</svg>
