<svg width="354" height="29" viewBox="0 0 354 29" fill="none" xmlns="http://www.w3.org/2000/svg">
<circle cx="14.5" cy="14.5" r="14.5" fill="#27AE60" fill-opacity="0.5"/>
<path fill-rule="evenodd" clip-rule="evenodd" d="M12.0004 19.1996L7.80039 14.9996L6.40039 16.3996L12.0004 21.9996L24.0004 9.99961L22.6004 8.59961L12.0004 19.1996Z" fill="#27AE60"/>
<path d="M53.7188 15.085H48.1729V19.6201H54.6152V21H46.4854V8.20312H54.5273V9.5918H48.1729V13.7051H53.7188V15.085ZM59.6514 14.9619L61.7607 11.4902H63.6592L60.5479 16.1924L63.7559 21H61.875L59.6777 17.4404L57.4805 21H55.5908L58.7988 16.1924L55.6875 11.4902H57.5684L59.6514 14.9619ZM71.2617 21C71.168 20.8125 71.0918 20.4785 71.0332 19.998C70.2773 20.7832 69.375 21.1758 68.3262 21.1758C67.3887 21.1758 66.6182 20.9121 66.0146 20.3848C65.417 19.8516 65.1182 19.1777 65.1182 18.3633C65.1182 17.373 65.4932 16.6055 66.2432 16.0605C66.999 15.5098 68.0596 15.2344 69.4248 15.2344H71.0068V14.4873C71.0068 13.9189 70.8369 13.4678 70.4971 13.1338C70.1572 12.7939 69.6562 12.624 68.9941 12.624C68.4141 12.624 67.9277 12.7705 67.5352 13.0635C67.1426 13.3564 66.9463 13.7109 66.9463 14.127H65.3115C65.3115 13.6523 65.4785 13.1953 65.8125 12.7559C66.1523 12.3105 66.6094 11.959 67.1836 11.7012C67.7637 11.4434 68.3994 11.3145 69.0908 11.3145C70.1865 11.3145 71.0449 11.5898 71.666 12.1406C72.2871 12.6855 72.6094 13.4385 72.6328 14.3994V18.7764C72.6328 19.6494 72.7441 20.3438 72.9668 20.8594V21H71.2617ZM68.5635 19.7607C69.0732 19.7607 69.5566 19.6289 70.0137 19.3652C70.4707 19.1016 70.8018 18.7588 71.0068 18.3369V16.3857H69.7324C67.7402 16.3857 66.7441 16.9688 66.7441 18.1348C66.7441 18.6445 66.9141 19.043 67.2539 19.3301C67.5938 19.6172 68.0303 19.7607 68.5635 19.7607ZM76.7109 11.4902L76.7549 12.5449C77.4521 11.7246 78.3926 11.3145 79.5762 11.3145C80.9062 11.3145 81.8115 11.8242 82.292 12.8438C82.6084 12.3867 83.0186 12.0176 83.5225 11.7363C84.0322 11.4551 84.6328 11.3145 85.3242 11.3145C87.4102 11.3145 88.4707 12.4189 88.5059 14.6279V21H86.8799V14.7246C86.8799 14.0449 86.7246 13.5381 86.4141 13.2041C86.1035 12.8643 85.582 12.6943 84.8496 12.6943C84.2461 12.6943 83.7451 12.876 83.3467 13.2393C82.9482 13.5967 82.7168 14.0801 82.6523 14.6895V21H81.0176V14.7686C81.0176 13.3857 80.3408 12.6943 78.9873 12.6943C77.9209 12.6943 77.1914 13.1484 76.7988 14.0566V21H75.1729V11.4902H76.7109ZM105.46 15.0146C105.46 16.251 105.264 17.3174 104.871 18.2139C104.479 19.1045 103.928 19.8018 103.219 20.3057L105.504 22.0986L104.353 23.1621L101.654 21.0176C101.232 21.123 100.787 21.1758 100.318 21.1758C99.3105 21.1758 98.417 20.9297 97.6377 20.4375C96.8584 19.9395 96.252 19.2334 95.8184 18.3193C95.3906 17.3994 95.1709 16.3359 95.1592 15.1289V14.2061C95.1592 12.9756 95.373 11.8887 95.8008 10.9453C96.2285 10.002 96.832 9.28125 97.6113 8.7832C98.3965 8.2793 99.293 8.02734 100.301 8.02734C101.332 8.02734 102.237 8.27637 103.017 8.77441C103.802 9.27246 104.405 9.99023 104.827 10.9277C105.249 11.8594 105.46 12.9492 105.46 14.1973V15.0146ZM103.772 14.1885C103.772 12.6826 103.471 11.5225 102.867 10.708C102.27 9.8877 101.414 9.47754 100.301 9.47754C99.2402 9.47754 98.4023 9.88477 97.7871 10.6992C97.1777 11.5078 96.8643 12.6328 96.8467 14.0742V15.0146C96.8467 16.4795 97.1514 17.6338 97.7607 18.4775C98.376 19.3213 99.2285 19.7432 100.318 19.7432C101.408 19.7432 102.252 19.3477 102.85 18.5566C103.447 17.7598 103.755 16.6201 103.772 15.1377V14.1885ZM111.929 17.5635C111.929 16.9482 112.099 16.3828 112.438 15.8672C112.784 15.3516 113.44 14.751 114.407 14.0654C113.839 13.374 113.458 12.8174 113.265 12.3955C113.071 11.9736 112.975 11.5547 112.975 11.1387C112.975 10.166 113.262 9.4043 113.836 8.85352C114.41 8.30273 115.189 8.02734 116.174 8.02734C117.053 8.02734 117.779 8.28516 118.354 8.80078C118.928 9.31055 119.215 9.95508 119.215 10.7344C119.215 11.25 119.083 11.7275 118.819 12.167C118.562 12.6006 118.107 13.0576 117.457 13.5381L116.517 14.2324L119.364 17.6338C119.763 16.8721 119.962 16.0254 119.962 15.0938H121.43C121.43 16.5879 121.069 17.8271 120.349 18.8115L122.177 21H120.226L119.373 19.9893C118.939 20.376 118.43 20.6719 117.844 20.877C117.264 21.0762 116.672 21.1758 116.068 21.1758C114.82 21.1758 113.818 20.8447 113.062 20.1826C112.307 19.5205 111.929 18.6475 111.929 17.5635ZM116.068 19.8486C116.93 19.8486 117.718 19.5205 118.433 18.8643L115.312 15.1289L115.022 15.3398C114.044 16.0605 113.555 16.8018 113.555 17.5635C113.555 18.2549 113.777 18.8086 114.223 19.2246C114.674 19.6406 115.289 19.8486 116.068 19.8486ZM114.601 11.0859C114.601 11.6484 114.946 12.3516 115.638 13.1953L116.675 12.4658C117.073 12.1846 117.346 11.918 117.492 11.666C117.639 11.4082 117.712 11.0977 117.712 10.7344C117.712 10.3418 117.565 10.0166 117.272 9.75879C116.979 9.49512 116.61 9.36328 116.165 9.36328C115.685 9.36328 115.304 9.52734 115.022 9.85547C114.741 10.1777 114.601 10.5879 114.601 11.0859ZM135.255 17.6602H129.894L128.689 21H126.949L131.836 8.20312H133.312L138.208 21H136.477L135.255 17.6602ZM130.403 16.2715H134.754L132.574 10.2861L130.403 16.2715ZM152.561 18.7588L154.389 11.4902H156.015L153.246 21H151.928L149.616 13.793L147.366 21H146.048L143.288 11.4902H144.905L146.777 18.6094L148.992 11.4902H150.302L152.561 18.7588ZM163.547 21C163.453 20.8125 163.377 20.4785 163.318 19.998C162.562 20.7832 161.66 21.1758 160.611 21.1758C159.674 21.1758 158.903 20.9121 158.3 20.3848C157.702 19.8516 157.403 19.1777 157.403 18.3633C157.403 17.373 157.778 16.6055 158.528 16.0605C159.284 15.5098 160.345 15.2344 161.71 15.2344H163.292V14.4873C163.292 13.9189 163.122 13.4678 162.782 13.1338C162.442 12.7939 161.941 12.624 161.279 12.624C160.699 12.624 160.213 12.7705 159.82 13.0635C159.428 13.3564 159.231 13.7109 159.231 14.127H157.597C157.597 13.6523 157.764 13.1953 158.098 12.7559C158.438 12.3105 158.895 11.959 159.469 11.7012C160.049 11.4434 160.685 11.3145 161.376 11.3145C162.472 11.3145 163.33 11.5898 163.951 12.1406C164.572 12.6855 164.895 13.4385 164.918 14.3994V18.7764C164.918 19.6494 165.029 20.3438 165.252 20.8594V21H163.547ZM160.849 19.7607C161.358 19.7607 161.842 19.6289 162.299 19.3652C162.756 19.1016 163.087 18.7588 163.292 18.3369V16.3857H162.018C160.025 16.3857 159.029 16.9688 159.029 18.1348C159.029 18.6445 159.199 19.043 159.539 19.3301C159.879 19.6172 160.315 19.7607 160.849 19.7607ZM173.004 18.4775C173.004 18.0381 172.837 17.6982 172.503 17.458C172.175 17.2119 171.598 17.001 170.771 16.8252C169.951 16.6494 169.298 16.4385 168.812 16.1924C168.331 15.9463 167.974 15.6533 167.739 15.3135C167.511 14.9736 167.396 14.5693 167.396 14.1006C167.396 13.3213 167.725 12.6621 168.381 12.123C169.043 11.584 169.887 11.3145 170.912 11.3145C171.99 11.3145 172.863 11.5928 173.531 12.1494C174.205 12.7061 174.542 13.418 174.542 14.2852H172.907C172.907 13.8398 172.717 13.4561 172.336 13.1338C171.961 12.8115 171.486 12.6504 170.912 12.6504C170.32 12.6504 169.857 12.7793 169.523 13.0371C169.189 13.2949 169.022 13.6318 169.022 14.0479C169.022 14.4404 169.178 14.7363 169.488 14.9355C169.799 15.1348 170.358 15.3252 171.167 15.5068C171.981 15.6885 172.641 15.9053 173.145 16.1572C173.648 16.4092 174.021 16.7139 174.261 17.0713C174.507 17.4229 174.63 17.8535 174.63 18.3633C174.63 19.2129 174.29 19.8955 173.61 20.4111C172.931 20.9209 172.049 21.1758 170.965 21.1758C170.203 21.1758 169.529 21.041 168.943 20.7715C168.357 20.502 167.897 20.127 167.563 19.6465C167.235 19.1602 167.071 18.6357 167.071 18.0732H168.697C168.727 18.6182 168.943 19.0518 169.348 19.374C169.758 19.6904 170.297 19.8486 170.965 19.8486C171.58 19.8486 172.072 19.7256 172.441 19.4795C172.816 19.2275 173.004 18.8936 173.004 18.4775ZM185.238 15.2959C183.791 14.8799 182.736 14.3701 182.074 13.7666C181.418 13.1572 181.09 12.4072 181.09 11.5166C181.09 10.5088 181.491 9.67676 182.294 9.02051C183.103 8.3584 184.151 8.02734 185.44 8.02734C186.319 8.02734 187.102 8.19727 187.787 8.53711C188.479 8.87695 189.012 9.3457 189.387 9.94336C189.768 10.541 189.958 11.1943 189.958 11.9033H188.262C188.262 11.1299 188.016 10.5234 187.523 10.084C187.031 9.63867 186.337 9.41602 185.44 9.41602C184.608 9.41602 183.958 9.60059 183.489 9.96973C183.026 10.333 182.795 10.8398 182.795 11.4902C182.795 12.0117 183.015 12.4541 183.454 12.8174C183.899 13.1748 184.652 13.5029 185.713 13.8018C186.779 14.1006 187.611 14.4316 188.209 14.7949C188.812 15.1523 189.258 15.5713 189.545 16.0518C189.838 16.5322 189.984 17.0977 189.984 17.748C189.984 18.7852 189.58 19.6172 188.771 20.2441C187.963 20.8652 186.882 21.1758 185.528 21.1758C184.649 21.1758 183.829 21.0088 183.067 20.6748C182.306 20.335 181.717 19.8721 181.301 19.2861C180.891 18.7002 180.686 18.0352 180.686 17.291H182.382C182.382 18.0645 182.666 18.6768 183.234 19.1279C183.809 19.5732 184.573 19.7959 185.528 19.7959C186.419 19.7959 187.102 19.6143 187.576 19.251C188.051 18.8877 188.288 18.3926 188.288 17.7656C188.288 17.1387 188.068 16.6553 187.629 16.3154C187.189 15.9697 186.393 15.6299 185.238 15.2959ZM197.771 20.0596C197.139 20.8037 196.21 21.1758 194.985 21.1758C193.972 21.1758 193.198 20.8828 192.665 20.2969C192.138 19.7051 191.871 18.832 191.865 17.6777V11.4902H193.491V17.6338C193.491 19.0752 194.077 19.7959 195.249 19.7959C196.491 19.7959 197.317 19.333 197.728 18.4072V11.4902H199.354V21H197.807L197.771 20.0596ZM205.646 19.8486C206.227 19.8486 206.733 19.6729 207.167 19.3213C207.601 18.9697 207.841 18.5303 207.888 18.0029H209.426C209.396 18.5479 209.209 19.0664 208.863 19.5586C208.518 20.0508 208.055 20.4434 207.475 20.7363C206.9 21.0293 206.291 21.1758 205.646 21.1758C204.352 21.1758 203.32 20.7451 202.553 19.8838C201.791 19.0166 201.41 17.833 201.41 16.333V16.0605C201.41 15.1348 201.58 14.3115 201.92 13.5908C202.26 12.8701 202.746 12.3105 203.379 11.9121C204.018 11.5137 204.771 11.3145 205.638 11.3145C206.704 11.3145 207.589 11.6338 208.292 12.2725C209.001 12.9111 209.379 13.7402 209.426 14.7598H207.888C207.841 14.1445 207.606 13.6406 207.185 13.248C206.769 12.8496 206.253 12.6504 205.638 12.6504C204.812 12.6504 204.17 12.9492 203.713 13.5469C203.262 14.1387 203.036 14.9971 203.036 16.1221V16.4297C203.036 17.5254 203.262 18.3691 203.713 18.9609C204.164 19.5527 204.809 19.8486 205.646 19.8486ZM215.2 21.1758C213.911 21.1758 212.862 20.7539 212.054 19.9102C211.245 19.0605 210.841 17.9268 210.841 16.5088V16.21C210.841 15.2666 211.02 14.4258 211.377 13.6875C211.74 12.9434 212.244 12.3633 212.889 11.9473C213.539 11.5254 214.242 11.3145 214.998 11.3145C216.234 11.3145 217.195 11.7217 217.881 12.5361C218.566 13.3506 218.909 14.5166 218.909 16.0342V16.7109H212.467C212.49 17.6484 212.763 18.4072 213.284 18.9873C213.812 19.5615 214.479 19.8486 215.288 19.8486C215.862 19.8486 216.349 19.7314 216.747 19.4971C217.146 19.2627 217.494 18.9521 217.793 18.5654L218.786 19.3389C217.989 20.5635 216.794 21.1758 215.2 21.1758ZM214.998 12.6504C214.342 12.6504 213.791 12.8906 213.346 13.3711C212.9 13.8457 212.625 14.5137 212.52 15.375H217.283V15.252C217.236 14.4258 217.014 13.7871 216.615 13.3359C216.217 12.8789 215.678 12.6504 214.998 12.6504ZM226.336 18.4775C226.336 18.0381 226.169 17.6982 225.835 17.458C225.507 17.2119 224.93 17.001 224.104 16.8252C223.283 16.6494 222.63 16.4385 222.144 16.1924C221.663 15.9463 221.306 15.6533 221.071 15.3135C220.843 14.9736 220.729 14.5693 220.729 14.1006C220.729 13.3213 221.057 12.6621 221.713 12.123C222.375 11.584 223.219 11.3145 224.244 11.3145C225.322 11.3145 226.195 11.5928 226.863 12.1494C227.537 12.7061 227.874 13.418 227.874 14.2852H226.239C226.239 13.8398 226.049 13.4561 225.668 13.1338C225.293 12.8115 224.818 12.6504 224.244 12.6504C223.652 12.6504 223.189 12.7793 222.855 13.0371C222.521 13.2949 222.354 13.6318 222.354 14.0479C222.354 14.4404 222.51 14.7363 222.82 14.9355C223.131 15.1348 223.69 15.3252 224.499 15.5068C225.313 15.6885 225.973 15.9053 226.477 16.1572C226.98 16.4092 227.353 16.7139 227.593 17.0713C227.839 17.4229 227.962 17.8535 227.962 18.3633C227.962 19.2129 227.622 19.8955 226.942 20.4111C226.263 20.9209 225.381 21.1758 224.297 21.1758C223.535 21.1758 222.861 21.041 222.275 20.7715C221.689 20.502 221.229 20.127 220.896 19.6465C220.567 19.1602 220.403 18.6357 220.403 18.0732H222.029C222.059 18.6182 222.275 19.0518 222.68 19.374C223.09 19.6904 223.629 19.8486 224.297 19.8486C224.912 19.8486 225.404 19.7256 225.773 19.4795C226.148 19.2275 226.336 18.8936 226.336 18.4775ZM235.617 18.4775C235.617 18.0381 235.45 17.6982 235.116 17.458C234.788 17.2119 234.211 17.001 233.385 16.8252C232.564 16.6494 231.911 16.4385 231.425 16.1924C230.944 15.9463 230.587 15.6533 230.353 15.3135C230.124 14.9736 230.01 14.5693 230.01 14.1006C230.01 13.3213 230.338 12.6621 230.994 12.123C231.656 11.584 232.5 11.3145 233.525 11.3145C234.604 11.3145 235.477 11.5928 236.145 12.1494C236.818 12.7061 237.155 13.418 237.155 14.2852H235.521C235.521 13.8398 235.33 13.4561 234.949 13.1338C234.574 12.8115 234.1 12.6504 233.525 12.6504C232.934 12.6504 232.471 12.7793 232.137 13.0371C231.803 13.2949 231.636 13.6318 231.636 14.0479C231.636 14.4404 231.791 14.7363 232.102 14.9355C232.412 15.1348 232.972 15.3252 233.78 15.5068C234.595 15.6885 235.254 15.9053 235.758 16.1572C236.262 16.4092 236.634 16.7139 236.874 17.0713C237.12 17.4229 237.243 17.8535 237.243 18.3633C237.243 19.2129 236.903 19.8955 236.224 20.4111C235.544 20.9209 234.662 21.1758 233.578 21.1758C232.816 21.1758 232.143 21.041 231.557 20.7715C230.971 20.502 230.511 20.127 230.177 19.6465C229.849 19.1602 229.685 18.6357 229.685 18.0732H231.311C231.34 18.6182 231.557 19.0518 231.961 19.374C232.371 19.6904 232.91 19.8486 233.578 19.8486C234.193 19.8486 234.686 19.7256 235.055 19.4795C235.43 19.2275 235.617 18.8936 235.617 18.4775ZM240.161 21V12.7471H238.658V11.4902H240.161V10.5146C240.161 9.49512 240.434 8.70703 240.979 8.15039C241.523 7.59375 242.294 7.31543 243.29 7.31543C243.665 7.31543 244.037 7.36523 244.406 7.46484L244.318 8.7832C244.043 8.73047 243.75 8.7041 243.439 8.7041C242.912 8.7041 242.505 8.85938 242.218 9.16992C241.931 9.47461 241.787 9.91406 241.787 10.4883V11.4902H243.817V12.7471H241.787V21H240.161ZM251.49 20.0596C250.857 20.8037 249.929 21.1758 248.704 21.1758C247.69 21.1758 246.917 20.8828 246.384 20.2969C245.856 19.7051 245.59 18.832 245.584 17.6777V11.4902H247.21V17.6338C247.21 19.0752 247.796 19.7959 248.968 19.7959C250.21 19.7959 251.036 19.333 251.446 18.4072V11.4902H253.072V21H251.525L251.49 20.0596ZM257.317 21H255.691V7.5H257.317V21ZM261.694 21H260.068V7.5H261.694V21ZM267.416 18.6182L269.631 11.4902H271.371L267.548 22.4678C266.956 24.0498 266.016 24.8408 264.727 24.8408L264.419 24.8145L263.812 24.7002V23.3818L264.252 23.417C264.803 23.417 265.23 23.3057 265.535 23.083C265.846 22.8604 266.101 22.4531 266.3 21.8613L266.66 20.8945L263.268 11.4902H265.043L267.416 18.6182ZM285.328 16.3506C285.328 17.7979 284.997 18.9639 284.335 19.8486C283.673 20.7334 282.776 21.1758 281.646 21.1758C280.491 21.1758 279.583 20.8096 278.921 20.0771V24.6562H277.295V11.4902H278.78L278.859 12.5449C279.521 11.7246 280.441 11.3145 281.619 11.3145C282.762 11.3145 283.664 11.7451 284.326 12.6064C284.994 13.4678 285.328 14.666 285.328 16.2012V16.3506ZM283.702 16.166C283.702 15.0938 283.474 14.2471 283.017 13.626C282.56 13.0049 281.933 12.6943 281.136 12.6943C280.151 12.6943 279.413 13.1309 278.921 14.0039V18.5479C279.407 19.415 280.151 19.8486 281.153 19.8486C281.933 19.8486 282.551 19.541 283.008 18.9258C283.471 18.3047 283.702 17.3848 283.702 16.166ZM293.273 20.0596C292.641 20.8037 291.712 21.1758 290.487 21.1758C289.474 21.1758 288.7 20.8828 288.167 20.2969C287.64 19.7051 287.373 18.832 287.367 17.6777V11.4902H288.993V17.6338C288.993 19.0752 289.579 19.7959 290.751 19.7959C291.993 19.7959 292.819 19.333 293.229 18.4072V11.4902H294.855V21H293.309L293.273 20.0596ZM305.385 16.3506C305.385 17.8037 305.051 18.9727 304.383 19.8574C303.715 20.7363 302.818 21.1758 301.693 21.1758C300.492 21.1758 299.563 20.751 298.907 19.9014L298.828 21H297.334V7.5H298.96V12.5361C299.616 11.7217 300.521 11.3145 301.676 11.3145C302.83 11.3145 303.735 11.751 304.392 12.624C305.054 13.4971 305.385 14.6924 305.385 16.21V16.3506ZM303.759 16.166C303.759 15.0586 303.545 14.2031 303.117 13.5996C302.689 12.9961 302.074 12.6943 301.271 12.6943C300.199 12.6943 299.429 13.1924 298.96 14.1885V18.3018C299.458 19.2979 300.234 19.7959 301.289 19.7959C302.068 19.7959 302.675 19.4941 303.108 18.8906C303.542 18.2871 303.759 17.3789 303.759 16.166ZM309.208 21H307.582V7.5H309.208V21ZM313.585 21H311.959V11.4902H313.585V21ZM311.827 8.96777C311.827 8.7041 311.906 8.48145 312.064 8.2998C312.229 8.11816 312.469 8.02734 312.785 8.02734C313.102 8.02734 313.342 8.11816 313.506 8.2998C313.67 8.48145 313.752 8.7041 313.752 8.96777C313.752 9.23145 313.67 9.45117 313.506 9.62695C313.342 9.80273 313.102 9.89062 312.785 9.89062C312.469 9.89062 312.229 9.80273 312.064 9.62695C311.906 9.45117 311.827 9.23145 311.827 8.96777ZM321.732 18.4775C321.732 18.0381 321.565 17.6982 321.231 17.458C320.903 17.2119 320.326 17.001 319.5 16.8252C318.68 16.6494 318.026 16.4385 317.54 16.1924C317.06 15.9463 316.702 15.6533 316.468 15.3135C316.239 14.9736 316.125 14.5693 316.125 14.1006C316.125 13.3213 316.453 12.6621 317.109 12.123C317.771 11.584 318.615 11.3145 319.641 11.3145C320.719 11.3145 321.592 11.5928 322.26 12.1494C322.934 12.7061 323.271 13.418 323.271 14.2852H321.636C321.636 13.8398 321.445 13.4561 321.064 13.1338C320.689 12.8115 320.215 12.6504 319.641 12.6504C319.049 12.6504 318.586 12.7793 318.252 13.0371C317.918 13.2949 317.751 13.6318 317.751 14.0479C317.751 14.4404 317.906 14.7363 318.217 14.9355C318.527 15.1348 319.087 15.3252 319.896 15.5068C320.71 15.6885 321.369 15.9053 321.873 16.1572C322.377 16.4092 322.749 16.7139 322.989 17.0713C323.235 17.4229 323.358 17.8535 323.358 18.3633C323.358 19.2129 323.019 19.8955 322.339 20.4111C321.659 20.9209 320.777 21.1758 319.693 21.1758C318.932 21.1758 318.258 21.041 317.672 20.7715C317.086 20.502 316.626 20.127 316.292 19.6465C315.964 19.1602 315.8 18.6357 315.8 18.0732H317.426C317.455 18.6182 317.672 19.0518 318.076 19.374C318.486 19.6904 319.025 19.8486 319.693 19.8486C320.309 19.8486 320.801 19.7256 321.17 19.4795C321.545 19.2275 321.732 18.8936 321.732 18.4775ZM327.103 12.6416C327.823 11.7568 328.761 11.3145 329.915 11.3145C331.925 11.3145 332.938 12.4482 332.956 14.7158V21H331.33V14.707C331.324 14.0215 331.166 13.5146 330.855 13.1865C330.551 12.8584 330.073 12.6943 329.423 12.6943C328.896 12.6943 328.433 12.835 328.034 13.1162C327.636 13.3975 327.325 13.7666 327.103 14.2236V21H325.477V7.5H327.103V12.6416ZM339.337 21.1758C338.048 21.1758 336.999 20.7539 336.19 19.9102C335.382 19.0605 334.978 17.9268 334.978 16.5088V16.21C334.978 15.2666 335.156 14.4258 335.514 13.6875C335.877 12.9434 336.381 12.3633 337.025 11.9473C337.676 11.5254 338.379 11.3145 339.135 11.3145C340.371 11.3145 341.332 11.7217 342.018 12.5361C342.703 13.3506 343.046 14.5166 343.046 16.0342V16.7109H336.604C336.627 17.6484 336.899 18.4072 337.421 18.9873C337.948 19.5615 338.616 19.8486 339.425 19.8486C339.999 19.8486 340.485 19.7314 340.884 19.4971C341.282 19.2627 341.631 18.9521 341.93 18.5654L342.923 19.3389C342.126 20.5635 340.931 21.1758 339.337 21.1758ZM339.135 12.6504C338.479 12.6504 337.928 12.8906 337.482 13.3711C337.037 13.8457 336.762 14.5137 336.656 15.375H341.42V15.252C341.373 14.4258 341.15 13.7871 340.752 13.3359C340.354 12.8789 339.814 12.6504 339.135 12.6504ZM344.54 16.166C344.54 14.707 344.886 13.5352 345.577 12.6504C346.269 11.7598 347.174 11.3145 348.293 11.3145C349.406 11.3145 350.288 11.6953 350.938 12.457V7.5H352.564V21H351.07L350.991 19.9805C350.341 20.7773 349.436 21.1758 348.275 21.1758C347.174 21.1758 346.274 20.7246 345.577 19.8223C344.886 18.9199 344.54 17.7422 344.54 16.2891V16.166ZM346.166 16.3506C346.166 17.4287 346.389 18.2725 346.834 18.8818C347.279 19.4912 347.895 19.7959 348.68 19.7959C349.711 19.7959 350.464 19.333 350.938 18.4072V14.0391C350.452 13.1426 349.705 12.6943 348.697 12.6943C347.9 12.6943 347.279 13.002 346.834 13.6172C346.389 14.2324 346.166 15.1436 346.166 16.3506Z" fill="#27AE60"/>
</svg>
