<svg width="20" height="24" viewBox="0 0 20 24" fill="none" xmlns="http://www.w3.org/2000/svg">
<path d="M19.5 14.25C19.5 19.6359 15.1359 24 9.75 24C4.36406 24 0 19.6359 0 14.25C0 9.375 3.57656 5.33437 8.25 4.61719V3H6.9375C6.62813 3 6.375 2.74688 6.375 2.4375V0.5625C6.375 0.253125 6.62813 0 6.9375 0H12.5625C12.8719 0 13.125 0.253125 13.125 0.5625V2.4375C13.125 2.74688 12.8719 3 12.5625 3H11.25V4.61719C13.0078 4.88906 14.6109 5.62969 15.9234 6.70781L17.2125 5.41875C17.4328 5.19844 17.7891 5.19844 18.0094 5.41875L19.3359 6.74531C19.5562 6.96562 19.5562 7.32187 19.3359 7.54219L17.9578 8.92031L17.9297 8.94844C18.9234 10.4672 19.5 12.2906 19.5 14.25ZM11.25 15.9375V8.83594C11.25 8.52656 10.9969 8.27344 10.6875 8.27344H8.8125C8.50313 8.27344 8.25 8.52656 8.25 8.83594V15.9375C8.25 16.2469 8.50313 16.5 8.8125 16.5H10.6875C10.9969 16.5 11.25 16.2469 11.25 15.9375Z" fill="#69697B"/>
</svg>
