<svg width="175" height="200" viewBox="0 0 175 200" fill="none" xmlns="http://www.w3.org/2000/svg">
<path d="M87.5 100C115.117 100 137.5 77.6172 137.5 50C137.5 22.3828 115.117 0 87.5 0C59.8828 0 37.5 22.3828 37.5 50C37.5 77.6172 59.8828 100 87.5 100ZM122.5 112.5H115.977C107.305 116.484 97.6562 118.75 87.5 118.75C77.3438 118.75 67.7344 116.484 59.0234 112.5H52.5C23.5156 112.5 0 136.016 0 165V181.25C0 191.602 8.39844 200 18.75 200H156.25C166.602 200 175 191.602 175 181.25V165C175 136.016 151.484 112.5 122.5 112.5Z" fill="#857C7C"/>
<path d="M141.851 176.047L145.104 184.168L148.358 176.047H150.061V186H148.748V182.124L148.871 177.94L145.604 186H144.599L141.338 177.961L141.468 182.124V186H140.155V176.047H141.851ZM155.249 186.137C154.246 186.137 153.431 185.809 152.802 185.152C152.173 184.492 151.858 183.61 151.858 182.507V182.274C151.858 181.541 151.997 180.887 152.275 180.312C152.558 179.734 152.95 179.283 153.451 178.959C153.957 178.631 154.504 178.467 155.092 178.467C156.053 178.467 156.801 178.784 157.334 179.417C157.867 180.05 158.134 180.957 158.134 182.138V182.664H153.123C153.141 183.393 153.353 183.983 153.759 184.435C154.169 184.881 154.688 185.104 155.317 185.104C155.764 185.104 156.142 185.013 156.452 184.831C156.762 184.649 157.033 184.407 157.266 184.106L158.038 184.708C157.418 185.66 156.489 186.137 155.249 186.137ZM155.092 179.506C154.581 179.506 154.153 179.693 153.807 180.066C153.46 180.436 153.246 180.955 153.164 181.625H156.869V181.529C156.833 180.887 156.66 180.39 156.35 180.039C156.04 179.684 155.62 179.506 155.092 179.506Z" fill="black"/>
</svg>
